G04 #@! TF.GenerationSoftware,KiCad,Pcbnew,5.1.5+dfsg1-2build2*
G04 #@! TF.CreationDate,2021-01-09T21:52:19+00:00*
G04 #@! TF.ProjectId,cynaroides,63796e61-726f-4696-9465-732e6b696361,rev?*
G04 #@! TF.SameCoordinates,Original*
G04 #@! TF.FileFunction,Copper,L1,Top*
G04 #@! TF.FilePolarity,Positive*
%FSLAX46Y46*%
G04 Gerber Fmt 4.6, Leading zero omitted, Abs format (unit mm)*
G04 Created by KiCad (PCBNEW 5.1.5+dfsg1-2build2) date 2021-01-09 21:52:19*
%MOMM*%
%LPD*%
G04 APERTURE LIST*
%ADD10C,2.200000*%
%ADD11O,0.900000X1.700000*%
%ADD12O,0.900000X2.400000*%
%ADD13C,0.700000*%
%ADD14O,2.500000X1.700000*%
%ADD15C,1.397000*%
%ADD16C,2.000000*%
%ADD17C,0.100000*%
%ADD18C,0.600000*%
%ADD19C,0.800000*%
%ADD20C,0.250000*%
%ADD21C,0.635000*%
G04 APERTURE END LIST*
D10*
X96837500Y-50165000D03*
X103187500Y-47625000D03*
X115887500Y-48577500D03*
X122237500Y-46037500D03*
X134937500Y-50165000D03*
X141287500Y-47625000D03*
X153987500Y-53340000D03*
X160337500Y-50800000D03*
X77787500Y-72390000D03*
X84137500Y-69850000D03*
X96837500Y-69215000D03*
X103187500Y-66675000D03*
X115887500Y-67627500D03*
X122237500Y-65087500D03*
X134937500Y-69215000D03*
X141287500Y-66675000D03*
X153987500Y-72390000D03*
X160337500Y-69850000D03*
X134937500Y-88265000D03*
X141287500Y-85725000D03*
X153987500Y-91440000D03*
X160337500Y-88900000D03*
X80041858Y-114135984D03*
X85725000Y-110331250D03*
X103187500Y-110490000D03*
X109537500Y-107950000D03*
X124618750Y-109696250D03*
X130968750Y-107156250D03*
X145256250Y-112077500D03*
X151606250Y-109537500D03*
X115887500Y-86677500D03*
X122237500Y-84137500D03*
X77787500Y-34290000D03*
X84137500Y-31750000D03*
X153987500Y-34290000D03*
X160337500Y-31750000D03*
X77787500Y-53340000D03*
X84137500Y-50800000D03*
X96837500Y-88265000D03*
X103187500Y-85725000D03*
X77787500Y-91440000D03*
X84137500Y-88900000D03*
D11*
X56200000Y-27136000D03*
X64850000Y-27136000D03*
D12*
X56200000Y-30516000D03*
X64850000Y-30516000D03*
D13*
X60100000Y-30146000D03*
X57550000Y-30146000D03*
X58400000Y-30146000D03*
X59250000Y-30146000D03*
X63500000Y-30146000D03*
X61800000Y-30146000D03*
X60950000Y-30146000D03*
X62650000Y-30146000D03*
X57550000Y-31496000D03*
X58400000Y-31496000D03*
X59250000Y-31496000D03*
X60100000Y-31496000D03*
X60950000Y-31496000D03*
X61800000Y-31496000D03*
X62650000Y-31496000D03*
X63500000Y-31496000D03*
D14*
X57150000Y-80962500D03*
X55650000Y-76762500D03*
X51650000Y-76762500D03*
X48650000Y-76762500D03*
D15*
X60960000Y-70643750D03*
X58420000Y-70643750D03*
X55880000Y-70643750D03*
X53340000Y-70643750D03*
D16*
X47625000Y-64368750D03*
X47625000Y-57868750D03*
G04 #@! TA.AperFunction,SMDPad,CuDef*
D17*
G36*
X56849703Y-47706722D02*
G01*
X56864264Y-47708882D01*
X56878543Y-47712459D01*
X56892403Y-47717418D01*
X56905710Y-47723712D01*
X56918336Y-47731280D01*
X56930159Y-47740048D01*
X56941066Y-47749934D01*
X56950952Y-47760841D01*
X56959720Y-47772664D01*
X56967288Y-47785290D01*
X56973582Y-47798597D01*
X56978541Y-47812457D01*
X56982118Y-47826736D01*
X56984278Y-47841297D01*
X56985000Y-47856000D01*
X56985000Y-48156000D01*
X56984278Y-48170703D01*
X56982118Y-48185264D01*
X56978541Y-48199543D01*
X56973582Y-48213403D01*
X56967288Y-48226710D01*
X56959720Y-48239336D01*
X56950952Y-48251159D01*
X56941066Y-48262066D01*
X56930159Y-48271952D01*
X56918336Y-48280720D01*
X56905710Y-48288288D01*
X56892403Y-48294582D01*
X56878543Y-48299541D01*
X56864264Y-48303118D01*
X56849703Y-48305278D01*
X56835000Y-48306000D01*
X55185000Y-48306000D01*
X55170297Y-48305278D01*
X55155736Y-48303118D01*
X55141457Y-48299541D01*
X55127597Y-48294582D01*
X55114290Y-48288288D01*
X55101664Y-48280720D01*
X55089841Y-48271952D01*
X55078934Y-48262066D01*
X55069048Y-48251159D01*
X55060280Y-48239336D01*
X55052712Y-48226710D01*
X55046418Y-48213403D01*
X55041459Y-48199543D01*
X55037882Y-48185264D01*
X55035722Y-48170703D01*
X55035000Y-48156000D01*
X55035000Y-47856000D01*
X55035722Y-47841297D01*
X55037882Y-47826736D01*
X55041459Y-47812457D01*
X55046418Y-47798597D01*
X55052712Y-47785290D01*
X55060280Y-47772664D01*
X55069048Y-47760841D01*
X55078934Y-47749934D01*
X55089841Y-47740048D01*
X55101664Y-47731280D01*
X55114290Y-47723712D01*
X55127597Y-47717418D01*
X55141457Y-47712459D01*
X55155736Y-47708882D01*
X55170297Y-47706722D01*
X55185000Y-47706000D01*
X56835000Y-47706000D01*
X56849703Y-47706722D01*
G37*
G04 #@! TD.AperFunction*
G04 #@! TA.AperFunction,SMDPad,CuDef*
G36*
X56849703Y-46436722D02*
G01*
X56864264Y-46438882D01*
X56878543Y-46442459D01*
X56892403Y-46447418D01*
X56905710Y-46453712D01*
X56918336Y-46461280D01*
X56930159Y-46470048D01*
X56941066Y-46479934D01*
X56950952Y-46490841D01*
X56959720Y-46502664D01*
X56967288Y-46515290D01*
X56973582Y-46528597D01*
X56978541Y-46542457D01*
X56982118Y-46556736D01*
X56984278Y-46571297D01*
X56985000Y-46586000D01*
X56985000Y-46886000D01*
X56984278Y-46900703D01*
X56982118Y-46915264D01*
X56978541Y-46929543D01*
X56973582Y-46943403D01*
X56967288Y-46956710D01*
X56959720Y-46969336D01*
X56950952Y-46981159D01*
X56941066Y-46992066D01*
X56930159Y-47001952D01*
X56918336Y-47010720D01*
X56905710Y-47018288D01*
X56892403Y-47024582D01*
X56878543Y-47029541D01*
X56864264Y-47033118D01*
X56849703Y-47035278D01*
X56835000Y-47036000D01*
X55185000Y-47036000D01*
X55170297Y-47035278D01*
X55155736Y-47033118D01*
X55141457Y-47029541D01*
X55127597Y-47024582D01*
X55114290Y-47018288D01*
X55101664Y-47010720D01*
X55089841Y-47001952D01*
X55078934Y-46992066D01*
X55069048Y-46981159D01*
X55060280Y-46969336D01*
X55052712Y-46956710D01*
X55046418Y-46943403D01*
X55041459Y-46929543D01*
X55037882Y-46915264D01*
X55035722Y-46900703D01*
X55035000Y-46886000D01*
X55035000Y-46586000D01*
X55035722Y-46571297D01*
X55037882Y-46556736D01*
X55041459Y-46542457D01*
X55046418Y-46528597D01*
X55052712Y-46515290D01*
X55060280Y-46502664D01*
X55069048Y-46490841D01*
X55078934Y-46479934D01*
X55089841Y-46470048D01*
X55101664Y-46461280D01*
X55114290Y-46453712D01*
X55127597Y-46447418D01*
X55141457Y-46442459D01*
X55155736Y-46438882D01*
X55170297Y-46436722D01*
X55185000Y-46436000D01*
X56835000Y-46436000D01*
X56849703Y-46436722D01*
G37*
G04 #@! TD.AperFunction*
G04 #@! TA.AperFunction,SMDPad,CuDef*
G36*
X56849703Y-45166722D02*
G01*
X56864264Y-45168882D01*
X56878543Y-45172459D01*
X56892403Y-45177418D01*
X56905710Y-45183712D01*
X56918336Y-45191280D01*
X56930159Y-45200048D01*
X56941066Y-45209934D01*
X56950952Y-45220841D01*
X56959720Y-45232664D01*
X56967288Y-45245290D01*
X56973582Y-45258597D01*
X56978541Y-45272457D01*
X56982118Y-45286736D01*
X56984278Y-45301297D01*
X56985000Y-45316000D01*
X56985000Y-45616000D01*
X56984278Y-45630703D01*
X56982118Y-45645264D01*
X56978541Y-45659543D01*
X56973582Y-45673403D01*
X56967288Y-45686710D01*
X56959720Y-45699336D01*
X56950952Y-45711159D01*
X56941066Y-45722066D01*
X56930159Y-45731952D01*
X56918336Y-45740720D01*
X56905710Y-45748288D01*
X56892403Y-45754582D01*
X56878543Y-45759541D01*
X56864264Y-45763118D01*
X56849703Y-45765278D01*
X56835000Y-45766000D01*
X55185000Y-45766000D01*
X55170297Y-45765278D01*
X55155736Y-45763118D01*
X55141457Y-45759541D01*
X55127597Y-45754582D01*
X55114290Y-45748288D01*
X55101664Y-45740720D01*
X55089841Y-45731952D01*
X55078934Y-45722066D01*
X55069048Y-45711159D01*
X55060280Y-45699336D01*
X55052712Y-45686710D01*
X55046418Y-45673403D01*
X55041459Y-45659543D01*
X55037882Y-45645264D01*
X55035722Y-45630703D01*
X55035000Y-45616000D01*
X55035000Y-45316000D01*
X55035722Y-45301297D01*
X55037882Y-45286736D01*
X55041459Y-45272457D01*
X55046418Y-45258597D01*
X55052712Y-45245290D01*
X55060280Y-45232664D01*
X55069048Y-45220841D01*
X55078934Y-45209934D01*
X55089841Y-45200048D01*
X55101664Y-45191280D01*
X55114290Y-45183712D01*
X55127597Y-45177418D01*
X55141457Y-45172459D01*
X55155736Y-45168882D01*
X55170297Y-45166722D01*
X55185000Y-45166000D01*
X56835000Y-45166000D01*
X56849703Y-45166722D01*
G37*
G04 #@! TD.AperFunction*
G04 #@! TA.AperFunction,SMDPad,CuDef*
G36*
X56849703Y-43896722D02*
G01*
X56864264Y-43898882D01*
X56878543Y-43902459D01*
X56892403Y-43907418D01*
X56905710Y-43913712D01*
X56918336Y-43921280D01*
X56930159Y-43930048D01*
X56941066Y-43939934D01*
X56950952Y-43950841D01*
X56959720Y-43962664D01*
X56967288Y-43975290D01*
X56973582Y-43988597D01*
X56978541Y-44002457D01*
X56982118Y-44016736D01*
X56984278Y-44031297D01*
X56985000Y-44046000D01*
X56985000Y-44346000D01*
X56984278Y-44360703D01*
X56982118Y-44375264D01*
X56978541Y-44389543D01*
X56973582Y-44403403D01*
X56967288Y-44416710D01*
X56959720Y-44429336D01*
X56950952Y-44441159D01*
X56941066Y-44452066D01*
X56930159Y-44461952D01*
X56918336Y-44470720D01*
X56905710Y-44478288D01*
X56892403Y-44484582D01*
X56878543Y-44489541D01*
X56864264Y-44493118D01*
X56849703Y-44495278D01*
X56835000Y-44496000D01*
X55185000Y-44496000D01*
X55170297Y-44495278D01*
X55155736Y-44493118D01*
X55141457Y-44489541D01*
X55127597Y-44484582D01*
X55114290Y-44478288D01*
X55101664Y-44470720D01*
X55089841Y-44461952D01*
X55078934Y-44452066D01*
X55069048Y-44441159D01*
X55060280Y-44429336D01*
X55052712Y-44416710D01*
X55046418Y-44403403D01*
X55041459Y-44389543D01*
X55037882Y-44375264D01*
X55035722Y-44360703D01*
X55035000Y-44346000D01*
X55035000Y-44046000D01*
X55035722Y-44031297D01*
X55037882Y-44016736D01*
X55041459Y-44002457D01*
X55046418Y-43988597D01*
X55052712Y-43975290D01*
X55060280Y-43962664D01*
X55069048Y-43950841D01*
X55078934Y-43939934D01*
X55089841Y-43930048D01*
X55101664Y-43921280D01*
X55114290Y-43913712D01*
X55127597Y-43907418D01*
X55141457Y-43902459D01*
X55155736Y-43898882D01*
X55170297Y-43896722D01*
X55185000Y-43896000D01*
X56835000Y-43896000D01*
X56849703Y-43896722D01*
G37*
G04 #@! TD.AperFunction*
G04 #@! TA.AperFunction,SMDPad,CuDef*
G36*
X61799703Y-43896722D02*
G01*
X61814264Y-43898882D01*
X61828543Y-43902459D01*
X61842403Y-43907418D01*
X61855710Y-43913712D01*
X61868336Y-43921280D01*
X61880159Y-43930048D01*
X61891066Y-43939934D01*
X61900952Y-43950841D01*
X61909720Y-43962664D01*
X61917288Y-43975290D01*
X61923582Y-43988597D01*
X61928541Y-44002457D01*
X61932118Y-44016736D01*
X61934278Y-44031297D01*
X61935000Y-44046000D01*
X61935000Y-44346000D01*
X61934278Y-44360703D01*
X61932118Y-44375264D01*
X61928541Y-44389543D01*
X61923582Y-44403403D01*
X61917288Y-44416710D01*
X61909720Y-44429336D01*
X61900952Y-44441159D01*
X61891066Y-44452066D01*
X61880159Y-44461952D01*
X61868336Y-44470720D01*
X61855710Y-44478288D01*
X61842403Y-44484582D01*
X61828543Y-44489541D01*
X61814264Y-44493118D01*
X61799703Y-44495278D01*
X61785000Y-44496000D01*
X60135000Y-44496000D01*
X60120297Y-44495278D01*
X60105736Y-44493118D01*
X60091457Y-44489541D01*
X60077597Y-44484582D01*
X60064290Y-44478288D01*
X60051664Y-44470720D01*
X60039841Y-44461952D01*
X60028934Y-44452066D01*
X60019048Y-44441159D01*
X60010280Y-44429336D01*
X60002712Y-44416710D01*
X59996418Y-44403403D01*
X59991459Y-44389543D01*
X59987882Y-44375264D01*
X59985722Y-44360703D01*
X59985000Y-44346000D01*
X59985000Y-44046000D01*
X59985722Y-44031297D01*
X59987882Y-44016736D01*
X59991459Y-44002457D01*
X59996418Y-43988597D01*
X60002712Y-43975290D01*
X60010280Y-43962664D01*
X60019048Y-43950841D01*
X60028934Y-43939934D01*
X60039841Y-43930048D01*
X60051664Y-43921280D01*
X60064290Y-43913712D01*
X60077597Y-43907418D01*
X60091457Y-43902459D01*
X60105736Y-43898882D01*
X60120297Y-43896722D01*
X60135000Y-43896000D01*
X61785000Y-43896000D01*
X61799703Y-43896722D01*
G37*
G04 #@! TD.AperFunction*
G04 #@! TA.AperFunction,SMDPad,CuDef*
G36*
X61799703Y-45166722D02*
G01*
X61814264Y-45168882D01*
X61828543Y-45172459D01*
X61842403Y-45177418D01*
X61855710Y-45183712D01*
X61868336Y-45191280D01*
X61880159Y-45200048D01*
X61891066Y-45209934D01*
X61900952Y-45220841D01*
X61909720Y-45232664D01*
X61917288Y-45245290D01*
X61923582Y-45258597D01*
X61928541Y-45272457D01*
X61932118Y-45286736D01*
X61934278Y-45301297D01*
X61935000Y-45316000D01*
X61935000Y-45616000D01*
X61934278Y-45630703D01*
X61932118Y-45645264D01*
X61928541Y-45659543D01*
X61923582Y-45673403D01*
X61917288Y-45686710D01*
X61909720Y-45699336D01*
X61900952Y-45711159D01*
X61891066Y-45722066D01*
X61880159Y-45731952D01*
X61868336Y-45740720D01*
X61855710Y-45748288D01*
X61842403Y-45754582D01*
X61828543Y-45759541D01*
X61814264Y-45763118D01*
X61799703Y-45765278D01*
X61785000Y-45766000D01*
X60135000Y-45766000D01*
X60120297Y-45765278D01*
X60105736Y-45763118D01*
X60091457Y-45759541D01*
X60077597Y-45754582D01*
X60064290Y-45748288D01*
X60051664Y-45740720D01*
X60039841Y-45731952D01*
X60028934Y-45722066D01*
X60019048Y-45711159D01*
X60010280Y-45699336D01*
X60002712Y-45686710D01*
X59996418Y-45673403D01*
X59991459Y-45659543D01*
X59987882Y-45645264D01*
X59985722Y-45630703D01*
X59985000Y-45616000D01*
X59985000Y-45316000D01*
X59985722Y-45301297D01*
X59987882Y-45286736D01*
X59991459Y-45272457D01*
X59996418Y-45258597D01*
X60002712Y-45245290D01*
X60010280Y-45232664D01*
X60019048Y-45220841D01*
X60028934Y-45209934D01*
X60039841Y-45200048D01*
X60051664Y-45191280D01*
X60064290Y-45183712D01*
X60077597Y-45177418D01*
X60091457Y-45172459D01*
X60105736Y-45168882D01*
X60120297Y-45166722D01*
X60135000Y-45166000D01*
X61785000Y-45166000D01*
X61799703Y-45166722D01*
G37*
G04 #@! TD.AperFunction*
G04 #@! TA.AperFunction,SMDPad,CuDef*
G36*
X61799703Y-46436722D02*
G01*
X61814264Y-46438882D01*
X61828543Y-46442459D01*
X61842403Y-46447418D01*
X61855710Y-46453712D01*
X61868336Y-46461280D01*
X61880159Y-46470048D01*
X61891066Y-46479934D01*
X61900952Y-46490841D01*
X61909720Y-46502664D01*
X61917288Y-46515290D01*
X61923582Y-46528597D01*
X61928541Y-46542457D01*
X61932118Y-46556736D01*
X61934278Y-46571297D01*
X61935000Y-46586000D01*
X61935000Y-46886000D01*
X61934278Y-46900703D01*
X61932118Y-46915264D01*
X61928541Y-46929543D01*
X61923582Y-46943403D01*
X61917288Y-46956710D01*
X61909720Y-46969336D01*
X61900952Y-46981159D01*
X61891066Y-46992066D01*
X61880159Y-47001952D01*
X61868336Y-47010720D01*
X61855710Y-47018288D01*
X61842403Y-47024582D01*
X61828543Y-47029541D01*
X61814264Y-47033118D01*
X61799703Y-47035278D01*
X61785000Y-47036000D01*
X60135000Y-47036000D01*
X60120297Y-47035278D01*
X60105736Y-47033118D01*
X60091457Y-47029541D01*
X60077597Y-47024582D01*
X60064290Y-47018288D01*
X60051664Y-47010720D01*
X60039841Y-47001952D01*
X60028934Y-46992066D01*
X60019048Y-46981159D01*
X60010280Y-46969336D01*
X60002712Y-46956710D01*
X59996418Y-46943403D01*
X59991459Y-46929543D01*
X59987882Y-46915264D01*
X59985722Y-46900703D01*
X59985000Y-46886000D01*
X59985000Y-46586000D01*
X59985722Y-46571297D01*
X59987882Y-46556736D01*
X59991459Y-46542457D01*
X59996418Y-46528597D01*
X60002712Y-46515290D01*
X60010280Y-46502664D01*
X60019048Y-46490841D01*
X60028934Y-46479934D01*
X60039841Y-46470048D01*
X60051664Y-46461280D01*
X60064290Y-46453712D01*
X60077597Y-46447418D01*
X60091457Y-46442459D01*
X60105736Y-46438882D01*
X60120297Y-46436722D01*
X60135000Y-46436000D01*
X61785000Y-46436000D01*
X61799703Y-46436722D01*
G37*
G04 #@! TD.AperFunction*
G04 #@! TA.AperFunction,SMDPad,CuDef*
G36*
X61799703Y-47706722D02*
G01*
X61814264Y-47708882D01*
X61828543Y-47712459D01*
X61842403Y-47717418D01*
X61855710Y-47723712D01*
X61868336Y-47731280D01*
X61880159Y-47740048D01*
X61891066Y-47749934D01*
X61900952Y-47760841D01*
X61909720Y-47772664D01*
X61917288Y-47785290D01*
X61923582Y-47798597D01*
X61928541Y-47812457D01*
X61932118Y-47826736D01*
X61934278Y-47841297D01*
X61935000Y-47856000D01*
X61935000Y-48156000D01*
X61934278Y-48170703D01*
X61932118Y-48185264D01*
X61928541Y-48199543D01*
X61923582Y-48213403D01*
X61917288Y-48226710D01*
X61909720Y-48239336D01*
X61900952Y-48251159D01*
X61891066Y-48262066D01*
X61880159Y-48271952D01*
X61868336Y-48280720D01*
X61855710Y-48288288D01*
X61842403Y-48294582D01*
X61828543Y-48299541D01*
X61814264Y-48303118D01*
X61799703Y-48305278D01*
X61785000Y-48306000D01*
X60135000Y-48306000D01*
X60120297Y-48305278D01*
X60105736Y-48303118D01*
X60091457Y-48299541D01*
X60077597Y-48294582D01*
X60064290Y-48288288D01*
X60051664Y-48280720D01*
X60039841Y-48271952D01*
X60028934Y-48262066D01*
X60019048Y-48251159D01*
X60010280Y-48239336D01*
X60002712Y-48226710D01*
X59996418Y-48213403D01*
X59991459Y-48199543D01*
X59987882Y-48185264D01*
X59985722Y-48170703D01*
X59985000Y-48156000D01*
X59985000Y-47856000D01*
X59985722Y-47841297D01*
X59987882Y-47826736D01*
X59991459Y-47812457D01*
X59996418Y-47798597D01*
X60002712Y-47785290D01*
X60010280Y-47772664D01*
X60019048Y-47760841D01*
X60028934Y-47749934D01*
X60039841Y-47740048D01*
X60051664Y-47731280D01*
X60064290Y-47723712D01*
X60077597Y-47717418D01*
X60091457Y-47712459D01*
X60105736Y-47708882D01*
X60120297Y-47706722D01*
X60135000Y-47706000D01*
X61785000Y-47706000D01*
X61799703Y-47706722D01*
G37*
G04 #@! TD.AperFunction*
D10*
X56889489Y-118880955D03*
X61118750Y-113506250D03*
X54133750Y-91122500D03*
X60483750Y-88582500D03*
X173037500Y-94615000D03*
X179387500Y-92075000D03*
X173037500Y-75565000D03*
X179387500Y-73025000D03*
X173037500Y-56515000D03*
X179387500Y-53975000D03*
X173037500Y-37465000D03*
X179387500Y-34925000D03*
X134937500Y-31115000D03*
X141287500Y-28575000D03*
X115887500Y-29527500D03*
X122237500Y-26987500D03*
X96837500Y-31115000D03*
X103187500Y-28575000D03*
D18*
X60706000Y-33274000D03*
X86518750Y-42862500D03*
X104775000Y-39687500D03*
X123825000Y-38100000D03*
X161925000Y-42862500D03*
X142875000Y-39687500D03*
X180975000Y-46831250D03*
X173037500Y-66675000D03*
X153987500Y-63500000D03*
X134937500Y-60325000D03*
X115887500Y-58737500D03*
X96837500Y-60325000D03*
X77787500Y-63500000D03*
X85725000Y-80962500D03*
X104775000Y-77787500D03*
X123825000Y-76200000D03*
X143668750Y-77787500D03*
X161806250Y-81056250D03*
X180975000Y-84137500D03*
X173037500Y-104775000D03*
X153987500Y-101600000D03*
X134937500Y-98425000D03*
X115887500Y-96837500D03*
X96931250Y-98331250D03*
X77787500Y-101600000D03*
X53975000Y-100806250D03*
X67468750Y-121443750D03*
X88900000Y-120650000D03*
X109906250Y-118406250D03*
X132556250Y-118268750D03*
X153193750Y-119856250D03*
X52324000Y-31496000D03*
X62788800Y-49250600D03*
X56896000Y-49606200D03*
X54508400Y-48768000D03*
X49809400Y-51282600D03*
X61976000Y-41325800D03*
X51384200Y-41884600D03*
X55930800Y-36195000D03*
X58978800Y-57581800D03*
X62712600Y-53136800D03*
X46380400Y-37998400D03*
X50038000Y-54762400D03*
X51333400Y-58420000D03*
X53386000Y-63114200D03*
X47726600Y-43916600D03*
X54533800Y-47498000D03*
X63881000Y-52095400D03*
X65989200Y-38100000D03*
X52781200Y-38277800D03*
X46456600Y-35382200D03*
X49428400Y-44907200D03*
X76993750Y-44450000D03*
X96837500Y-41275000D03*
X115887500Y-39687500D03*
X134937500Y-41275000D03*
X153987500Y-44450000D03*
X173037500Y-48418750D03*
X180881250Y-65181250D03*
X161831250Y-62006250D03*
X142756250Y-58831250D03*
X123825000Y-57150000D03*
X104656250Y-58831250D03*
X85725000Y-61912500D03*
X77787500Y-82550000D03*
X96931250Y-79281250D03*
X115887500Y-77787500D03*
X134112000Y-79298800D03*
X153987500Y-82550000D03*
X173037500Y-85725000D03*
X180975000Y-103187500D03*
X161925000Y-100012500D03*
X142875000Y-96837500D03*
X123825000Y-95250000D03*
X104775000Y-96837500D03*
X85725000Y-100012500D03*
X61912500Y-99218750D03*
X61912500Y-127793750D03*
X81756250Y-123031250D03*
X102487500Y-120556250D03*
X124618750Y-119856250D03*
X145256250Y-121443750D03*
X54711600Y-35026600D03*
X74523600Y-32562800D03*
X64249899Y-60516600D03*
X64820800Y-57505600D03*
X63466508Y-61361990D03*
X63474600Y-59066600D03*
X50952400Y-45991000D03*
X49682400Y-49352200D03*
X50596800Y-47574200D03*
X72948800Y-65709800D03*
X67411600Y-65709800D03*
X68859400Y-102438200D03*
X68859400Y-99568000D03*
X51008600Y-44216000D03*
X72796400Y-42976800D03*
D19*
X74422000Y-46710600D03*
X93116400Y-44958000D03*
D18*
X112395000Y-36753800D03*
X131546600Y-36677600D03*
X150114000Y-36271200D03*
X64439800Y-53670200D03*
X69519800Y-53670200D03*
X169367200Y-56591200D03*
X55575200Y-53086000D03*
D20*
X62650000Y-30146000D02*
X62650000Y-31496000D01*
X58400000Y-30146000D02*
X58400000Y-31496000D01*
X58400000Y-31990974D02*
X59429026Y-33020000D01*
X58400000Y-31496000D02*
X58400000Y-31990974D01*
X62650000Y-32092000D02*
X62650000Y-31496000D01*
X61722000Y-33020000D02*
X62650000Y-32092000D01*
X60706000Y-33020000D02*
X60706000Y-33274000D01*
X59429026Y-33020000D02*
X60706000Y-33020000D01*
X60706000Y-33020000D02*
X61722000Y-33020000D01*
X60960000Y-42341800D02*
X61976000Y-41325800D01*
X60960000Y-44196000D02*
X60960000Y-42341800D01*
X55710000Y-47706000D02*
X54741800Y-47706000D01*
X56010000Y-48006000D02*
X55710000Y-47706000D01*
X54741800Y-47706000D02*
X54533800Y-47498000D01*
X55650000Y-73413750D02*
X58420000Y-70643750D01*
X55650000Y-76762500D02*
X55650000Y-73413750D01*
X60950000Y-31346998D02*
X60950000Y-31496000D01*
X60100000Y-30496998D02*
X60950000Y-31346998D01*
X60100000Y-30146000D02*
X60100000Y-30496998D01*
D21*
X54711600Y-35026600D02*
X72059800Y-35026600D01*
X72059800Y-35026600D02*
X74523600Y-32562800D01*
D20*
X64249899Y-60516600D02*
X64249899Y-59950915D01*
X64249899Y-59950915D02*
X64249899Y-58076501D01*
X64249899Y-58076501D02*
X64820800Y-57505600D01*
X63466508Y-61361990D02*
X63466508Y-59494892D01*
X63466508Y-59494892D02*
X63474600Y-59486800D01*
X63474600Y-59486800D02*
X63474600Y-59066600D01*
X55710000Y-44496000D02*
X52074800Y-44496000D01*
X56010000Y-44196000D02*
X55710000Y-44496000D01*
X52074800Y-44496000D02*
X50977800Y-45593000D01*
X50977800Y-45593000D02*
X50977800Y-46151800D01*
X57430401Y-50781211D02*
X51060611Y-50781211D01*
X59047809Y-49163803D02*
X57430401Y-50781211D01*
X59047810Y-47673190D02*
X59047809Y-49163803D01*
X59985000Y-46736000D02*
X59047810Y-47673190D01*
X60960000Y-46736000D02*
X59985000Y-46736000D01*
X51060611Y-50781211D02*
X49657000Y-49377600D01*
X56985000Y-45466000D02*
X58597800Y-47078800D01*
X56010000Y-45466000D02*
X56985000Y-45466000D01*
X57244001Y-50331201D02*
X52160001Y-50331201D01*
X58597800Y-48977402D02*
X57244001Y-50331201D01*
X58597800Y-47078800D02*
X58597800Y-48977402D01*
X50596800Y-48768000D02*
X52160001Y-50331201D01*
X50596800Y-47574200D02*
X50596800Y-48768000D01*
X72948800Y-65709800D02*
X67411600Y-65709800D01*
X68859400Y-102438200D02*
X68859400Y-99568000D01*
X50608601Y-43816001D02*
X50608601Y-40450399D01*
X51008600Y-44216000D02*
X50608601Y-43816001D01*
X51855201Y-39203799D02*
X69023399Y-39203799D01*
X50608601Y-40450399D02*
X51855201Y-39203799D01*
X69023399Y-39203799D02*
X72796400Y-42976800D01*
X74447400Y-88099900D02*
X77787500Y-91440000D01*
X76231866Y-34290000D02*
X74447400Y-36074466D01*
X77787500Y-34290000D02*
X76231866Y-34290000D01*
X74447400Y-53365400D02*
X74472800Y-53340000D01*
X74447400Y-36074466D02*
X74447400Y-53365400D01*
X74472800Y-53340000D02*
X77787500Y-53340000D01*
X74472800Y-72390000D02*
X77787500Y-72390000D01*
X74447400Y-72364600D02*
X74472800Y-72390000D01*
X74447400Y-53365400D02*
X74447400Y-72364600D01*
X74447400Y-72364600D02*
X74447400Y-88099900D01*
X54622700Y-91122500D02*
X54133750Y-91122500D01*
X55405199Y-90340001D02*
X54622700Y-91122500D01*
X72194599Y-90340001D02*
X55405199Y-90340001D01*
X74434700Y-88099900D02*
X72194599Y-90340001D01*
X74447400Y-88099900D02*
X74434700Y-88099900D01*
X93116400Y-32435800D02*
X94437200Y-31115000D01*
X94437200Y-31115000D02*
X96837500Y-31115000D01*
X94234000Y-85648800D02*
X93116400Y-84531200D01*
X94234000Y-85661500D02*
X94234000Y-85648800D01*
X96837500Y-88265000D02*
X94234000Y-85661500D01*
X96837500Y-50165000D02*
X93395800Y-50165000D01*
X93116400Y-50241200D02*
X93319600Y-50241200D01*
X93319600Y-50241200D02*
X93395800Y-50165000D01*
X93116400Y-69189600D02*
X93141800Y-69215000D01*
X93116400Y-84531200D02*
X93116400Y-69189600D01*
X93141800Y-69215000D02*
X96837500Y-69215000D01*
X93116400Y-69189600D02*
X93116400Y-50241200D01*
X93116400Y-96875600D02*
X93116400Y-84531200D01*
X85598000Y-104394000D02*
X93116400Y-96875600D01*
X55789490Y-111342510D02*
X62738000Y-104394000D01*
X62738000Y-104394000D02*
X85598000Y-104394000D01*
X55789490Y-117780956D02*
X55789490Y-111342510D01*
X56889489Y-118880955D02*
X55789490Y-117780956D01*
X93116400Y-45110400D02*
X93091000Y-45135800D01*
X93116400Y-44958000D02*
X93116400Y-44958000D01*
X93116400Y-50241200D02*
X93116400Y-44958000D01*
X93116400Y-44958000D02*
X93116400Y-32435800D01*
X93116400Y-44958000D02*
X93116400Y-45110400D01*
X113499900Y-29527500D02*
X115887500Y-29527500D01*
X112420400Y-30607000D02*
X113499900Y-29527500D01*
X112585500Y-67627500D02*
X115887500Y-67627500D01*
X112420400Y-67462400D02*
X112585500Y-67627500D01*
X112458500Y-48577500D02*
X115887500Y-48577500D01*
X112420400Y-48615600D02*
X112458500Y-48577500D01*
X112420400Y-67462400D02*
X112420400Y-48615600D01*
X112420400Y-48615600D02*
X112420400Y-30607000D01*
X113720701Y-85577501D02*
X114787501Y-85577501D01*
X114787501Y-85577501D02*
X115887500Y-86677500D01*
X112420400Y-84277200D02*
X113720701Y-85577501D01*
X112420400Y-67462400D02*
X112420400Y-84277200D01*
X112420400Y-84277200D02*
X112420400Y-101955600D01*
X112420400Y-101955600D02*
X110236000Y-104140000D01*
X110236000Y-104140000D02*
X87122000Y-104140000D01*
X80041858Y-111220142D02*
X80041858Y-114135984D01*
X87122000Y-104140000D02*
X80041858Y-111220142D01*
X133381866Y-31115000D02*
X131572000Y-32924866D01*
X134937500Y-31115000D02*
X133381866Y-31115000D01*
X131572000Y-84899500D02*
X134937500Y-88265000D01*
X131699000Y-50165000D02*
X134937500Y-50165000D01*
X131572000Y-50292000D02*
X131699000Y-50165000D01*
X131572000Y-32924866D02*
X131572000Y-50292000D01*
X131699000Y-69215000D02*
X134937500Y-69215000D01*
X131572000Y-69088000D02*
X131699000Y-69215000D01*
X131572000Y-50292000D02*
X131572000Y-69088000D01*
X131572000Y-69088000D02*
X131572000Y-84899500D01*
X127000000Y-105664000D02*
X108013500Y-105664000D01*
X108013500Y-105664000D02*
X103187500Y-110490000D01*
X131572000Y-101092000D02*
X127000000Y-105664000D01*
X131572000Y-84899500D02*
X131572000Y-101092000D01*
X153987500Y-91440000D02*
X153518498Y-91440000D01*
X151384000Y-34290000D02*
X153987500Y-34290000D01*
X150114000Y-35560000D02*
X151384000Y-34290000D01*
X150368000Y-53340000D02*
X153987500Y-53340000D01*
X150114000Y-53086000D02*
X150368000Y-53340000D01*
X150114000Y-72390000D02*
X153987500Y-72390000D01*
X150114000Y-88035502D02*
X150114000Y-72390000D01*
X150114000Y-72390000D02*
X150114000Y-53086000D01*
X124618750Y-109696250D02*
X125507750Y-109696250D01*
X125507750Y-109696250D02*
X125984000Y-109220000D01*
X125984000Y-109220000D02*
X145034000Y-109220000D01*
X145034000Y-109220000D02*
X150114000Y-104140000D01*
X150114000Y-104140000D02*
X150114000Y-88138000D01*
X150114000Y-88138000D02*
X150114000Y-88035502D01*
X153518498Y-91440000D02*
X150114000Y-88138000D01*
X150114000Y-53086000D02*
X150114000Y-36271200D01*
X150114000Y-36271200D02*
X150114000Y-35560000D01*
X173037500Y-94615000D02*
X171069000Y-94615000D01*
X171069000Y-94615000D02*
X169418000Y-92964000D01*
X171481866Y-37465000D02*
X173037500Y-37465000D01*
X169418000Y-39528866D02*
X171481866Y-37465000D01*
X169418000Y-56388000D02*
X169545000Y-56515000D01*
X169545000Y-56515000D02*
X173037500Y-56515000D01*
X169418000Y-56388000D02*
X169418000Y-39528866D01*
X169418000Y-75438000D02*
X169545000Y-75565000D01*
X169545000Y-75565000D02*
X173037500Y-75565000D01*
X169418000Y-92964000D02*
X169418000Y-75438000D01*
X169418000Y-75438000D02*
X169418000Y-56388000D01*
X169418000Y-107696000D02*
X169418000Y-92964000D01*
X165608000Y-111506000D02*
X169418000Y-107696000D01*
X146304000Y-111506000D02*
X165608000Y-111506000D01*
X145732500Y-112077500D02*
X146304000Y-111506000D01*
X145256250Y-112077500D02*
X145732500Y-112077500D01*
X64439800Y-53670200D02*
X69519800Y-53670200D01*
X55575200Y-53086000D02*
X55575200Y-65049400D01*
X55575200Y-65049400D02*
X52222400Y-68402200D01*
X52222400Y-68402200D02*
X51816000Y-68402200D01*
X51650000Y-68568200D02*
X51650000Y-76762500D01*
X51816000Y-68402200D02*
X51650000Y-68568200D01*
M02*
