G04 #@! TF.GenerationSoftware,KiCad,Pcbnew,5.1.5+dfsg1-2build2*
G04 #@! TF.CreationDate,2021-01-09T21:52:19+00:00*
G04 #@! TF.ProjectId,cynaroides,63796e61-726f-4696-9465-732e6b696361,rev?*
G04 #@! TF.SameCoordinates,Original*
G04 #@! TF.FileFunction,Soldermask,Top*
G04 #@! TF.FilePolarity,Negative*
%FSLAX46Y46*%
G04 Gerber Fmt 4.6, Leading zero omitted, Abs format (unit mm)*
G04 Created by KiCad (PCBNEW 5.1.5+dfsg1-2build2) date 2021-01-09 21:52:19*
%MOMM*%
%LPD*%
G04 APERTURE LIST*
%ADD10C,0.100000*%
G04 APERTURE END LIST*
D10*
G36*
X57173148Y-120819586D02*
G01*
X57322448Y-120849283D01*
X57486420Y-120917203D01*
X57633990Y-121015806D01*
X57759489Y-121141305D01*
X57858092Y-121288875D01*
X57926012Y-121452847D01*
X57960636Y-121626918D01*
X57960636Y-121804400D01*
X57926012Y-121978471D01*
X57858092Y-122142443D01*
X57759489Y-122290013D01*
X57633990Y-122415512D01*
X57486420Y-122514115D01*
X57322448Y-122582035D01*
X57173148Y-122611732D01*
X57148378Y-122616659D01*
X56970894Y-122616659D01*
X56946124Y-122611732D01*
X56796824Y-122582035D01*
X56632852Y-122514115D01*
X56485282Y-122415512D01*
X56359783Y-122290013D01*
X56261180Y-122142443D01*
X56193260Y-121978471D01*
X56158636Y-121804400D01*
X56158636Y-121626918D01*
X56193260Y-121452847D01*
X56261180Y-121288875D01*
X56359783Y-121141305D01*
X56485282Y-121015806D01*
X56632852Y-120917203D01*
X56796824Y-120849283D01*
X56946124Y-120819586D01*
X56970894Y-120814659D01*
X57148378Y-120814659D01*
X57173148Y-120819586D01*
G37*
G36*
X62057299Y-117203477D02*
G01*
X62430556Y-117358085D01*
X62430558Y-117358086D01*
X62766481Y-117582543D01*
X63052161Y-117868223D01*
X63131469Y-117986915D01*
X63276619Y-118204148D01*
X63431227Y-118577405D01*
X63510045Y-118973652D01*
X63510045Y-119377666D01*
X63431227Y-119773913D01*
X63276619Y-120147170D01*
X63276618Y-120147172D01*
X63052161Y-120483095D01*
X62766481Y-120768775D01*
X62430558Y-120993232D01*
X62430557Y-120993233D01*
X62430556Y-120993233D01*
X62057299Y-121147841D01*
X61661052Y-121226659D01*
X61257038Y-121226659D01*
X60860791Y-121147841D01*
X60487534Y-120993233D01*
X60487533Y-120993233D01*
X60487532Y-120993232D01*
X60151609Y-120768775D01*
X59865929Y-120483095D01*
X59641472Y-120147172D01*
X59641471Y-120147170D01*
X59486863Y-119773913D01*
X59408045Y-119377666D01*
X59408045Y-118973652D01*
X59486863Y-118577405D01*
X59641471Y-118204148D01*
X59786622Y-117986915D01*
X59865929Y-117868223D01*
X60151609Y-117582543D01*
X60487532Y-117358086D01*
X60487534Y-117358085D01*
X60860791Y-117203477D01*
X61257038Y-117124659D01*
X61661052Y-117124659D01*
X62057299Y-117203477D01*
G37*
G36*
X57108161Y-117750902D02*
G01*
X57225223Y-117774187D01*
X57434692Y-117860952D01*
X57623209Y-117986915D01*
X57783529Y-118147235D01*
X57909492Y-118335752D01*
X57996257Y-118545221D01*
X58002659Y-118577405D01*
X58040489Y-118767590D01*
X58040489Y-118994320D01*
X57996257Y-119216688D01*
X57929579Y-119377665D01*
X57909492Y-119426158D01*
X57783529Y-119614675D01*
X57623209Y-119774995D01*
X57434692Y-119900958D01*
X57225223Y-119987723D01*
X57114038Y-120009839D01*
X57002854Y-120031955D01*
X56776124Y-120031955D01*
X56664940Y-120009839D01*
X56553755Y-119987723D01*
X56344286Y-119900958D01*
X56155769Y-119774995D01*
X55995449Y-119614675D01*
X55869486Y-119426158D01*
X55849400Y-119377665D01*
X55782721Y-119216688D01*
X55738489Y-118994320D01*
X55738489Y-118767590D01*
X55776319Y-118577405D01*
X55782721Y-118545221D01*
X55869486Y-118335752D01*
X55995449Y-118147235D01*
X56155769Y-117986915D01*
X56344286Y-117860952D01*
X56553755Y-117774187D01*
X56670817Y-117750902D01*
X56776124Y-117729955D01*
X57002854Y-117729955D01*
X57108161Y-117750902D01*
G37*
G36*
X84894950Y-113856154D02*
G01*
X85268207Y-114010762D01*
X85268209Y-114010763D01*
X85604132Y-114235220D01*
X85889812Y-114520900D01*
X86089335Y-114819506D01*
X86114270Y-114856825D01*
X86268878Y-115230082D01*
X86347696Y-115626329D01*
X86347696Y-116030343D01*
X86268878Y-116426590D01*
X86115952Y-116795786D01*
X86114269Y-116799849D01*
X85889812Y-117135772D01*
X85604132Y-117421452D01*
X85268209Y-117645909D01*
X85268208Y-117645910D01*
X85268207Y-117645910D01*
X84894950Y-117800518D01*
X84498703Y-117879336D01*
X84094689Y-117879336D01*
X83698442Y-117800518D01*
X83325185Y-117645910D01*
X83325184Y-117645910D01*
X83325183Y-117645909D01*
X82989260Y-117421452D01*
X82703580Y-117135772D01*
X82479123Y-116799849D01*
X82477440Y-116795786D01*
X82324514Y-116426590D01*
X82245696Y-116030343D01*
X82245696Y-115626329D01*
X82324514Y-115230082D01*
X82479122Y-114856825D01*
X82504058Y-114819506D01*
X82703580Y-114520900D01*
X82989260Y-114235220D01*
X83325183Y-114010763D01*
X83325185Y-114010762D01*
X83698442Y-113856154D01*
X84094689Y-113777336D01*
X84498703Y-113777336D01*
X84894950Y-113856154D01*
G37*
G36*
X79441219Y-115988454D02*
G01*
X79590519Y-116018151D01*
X79754491Y-116086071D01*
X79902061Y-116184674D01*
X80027560Y-116310173D01*
X80126163Y-116457743D01*
X80194083Y-116621715D01*
X80228707Y-116795786D01*
X80228707Y-116973268D01*
X80194083Y-117147339D01*
X80126163Y-117311311D01*
X80027560Y-117458881D01*
X79902061Y-117584380D01*
X79754491Y-117682983D01*
X79590519Y-117750903D01*
X79441219Y-117780600D01*
X79416449Y-117785527D01*
X79238965Y-117785527D01*
X79214195Y-117780600D01*
X79064895Y-117750903D01*
X78900923Y-117682983D01*
X78753353Y-117584380D01*
X78627854Y-117458881D01*
X78529251Y-117311311D01*
X78461331Y-117147339D01*
X78426707Y-116973268D01*
X78426707Y-116795786D01*
X78461331Y-116621715D01*
X78529251Y-116457743D01*
X78627854Y-116310173D01*
X78753353Y-116184674D01*
X78900923Y-116086071D01*
X79064895Y-116018151D01*
X79214195Y-115988454D01*
X79238965Y-115983527D01*
X79416449Y-115983527D01*
X79441219Y-115988454D01*
G37*
G36*
X65971967Y-115739586D02*
G01*
X66121267Y-115769283D01*
X66285239Y-115837203D01*
X66432809Y-115935806D01*
X66558308Y-116061305D01*
X66656911Y-116208875D01*
X66724831Y-116372847D01*
X66759455Y-116546918D01*
X66759455Y-116724400D01*
X66724831Y-116898471D01*
X66656911Y-117062443D01*
X66558308Y-117210013D01*
X66432809Y-117335512D01*
X66285239Y-117434115D01*
X66121267Y-117502035D01*
X65971967Y-117531732D01*
X65947197Y-117536659D01*
X65769713Y-117536659D01*
X65744943Y-117531732D01*
X65595643Y-117502035D01*
X65431671Y-117434115D01*
X65284101Y-117335512D01*
X65158602Y-117210013D01*
X65059999Y-117062443D01*
X64992079Y-116898471D01*
X64957455Y-116724400D01*
X64957455Y-116546918D01*
X64992079Y-116372847D01*
X65059999Y-116208875D01*
X65158602Y-116061305D01*
X65284101Y-115935806D01*
X65431671Y-115837203D01*
X65595643Y-115769283D01*
X65744943Y-115739586D01*
X65769713Y-115734659D01*
X65947197Y-115734659D01*
X65971967Y-115739586D01*
G37*
G36*
X149664504Y-112645318D02*
G01*
X150037761Y-112799926D01*
X150037763Y-112799927D01*
X150373686Y-113024384D01*
X150659366Y-113310064D01*
X150866202Y-113619615D01*
X150883824Y-113645989D01*
X151038432Y-114019246D01*
X151117250Y-114415493D01*
X151117250Y-114819507D01*
X151038432Y-115215754D01*
X150891450Y-115570600D01*
X150883823Y-115589013D01*
X150659366Y-115924936D01*
X150373686Y-116210616D01*
X150037763Y-116435073D01*
X150037762Y-116435074D01*
X150037761Y-116435074D01*
X149664504Y-116589682D01*
X149268257Y-116668500D01*
X148864243Y-116668500D01*
X148467996Y-116589682D01*
X148094739Y-116435074D01*
X148094738Y-116435074D01*
X148094737Y-116435073D01*
X147758814Y-116210616D01*
X147473134Y-115924936D01*
X147248677Y-115589013D01*
X147241050Y-115570600D01*
X147094068Y-115215754D01*
X147015250Y-114819507D01*
X147015250Y-114415493D01*
X147094068Y-114019246D01*
X147248676Y-113645989D01*
X147266299Y-113619615D01*
X147473134Y-113310064D01*
X147758814Y-113024384D01*
X148094737Y-112799927D01*
X148094739Y-112799926D01*
X148467996Y-112645318D01*
X148864243Y-112566500D01*
X149268257Y-112566500D01*
X149664504Y-112645318D01*
G37*
G36*
X89379198Y-113876071D02*
G01*
X89528498Y-113905768D01*
X89692470Y-113973688D01*
X89840040Y-114072291D01*
X89965539Y-114197790D01*
X90064142Y-114345360D01*
X90132062Y-114509332D01*
X90166686Y-114683403D01*
X90166686Y-114860885D01*
X90132062Y-115034956D01*
X90064142Y-115198928D01*
X89965539Y-115346498D01*
X89840040Y-115471997D01*
X89692470Y-115570600D01*
X89528498Y-115638520D01*
X89379198Y-115668217D01*
X89354428Y-115673144D01*
X89176944Y-115673144D01*
X89152174Y-115668217D01*
X89002874Y-115638520D01*
X88838902Y-115570600D01*
X88691332Y-115471997D01*
X88565833Y-115346498D01*
X88467230Y-115198928D01*
X88399310Y-115034956D01*
X88364686Y-114860885D01*
X88364686Y-114683403D01*
X88399310Y-114509332D01*
X88467230Y-114345360D01*
X88565833Y-114197790D01*
X88691332Y-114072291D01*
X88838902Y-113973688D01*
X89002874Y-113905768D01*
X89152174Y-113876071D01*
X89176944Y-113871144D01*
X89354428Y-113871144D01*
X89379198Y-113876071D01*
G37*
G36*
X144099762Y-113721427D02*
G01*
X144249062Y-113751124D01*
X144413034Y-113819044D01*
X144560604Y-113917647D01*
X144686103Y-114043146D01*
X144784706Y-114190716D01*
X144852626Y-114354688D01*
X144887250Y-114528759D01*
X144887250Y-114706241D01*
X144852626Y-114880312D01*
X144784706Y-115044284D01*
X144686103Y-115191854D01*
X144560604Y-115317353D01*
X144413034Y-115415956D01*
X144249062Y-115483876D01*
X144099762Y-115513573D01*
X144074992Y-115518500D01*
X143897508Y-115518500D01*
X143872738Y-115513573D01*
X143723438Y-115483876D01*
X143559466Y-115415956D01*
X143411896Y-115317353D01*
X143286397Y-115191854D01*
X143187794Y-115044284D01*
X143119874Y-114880312D01*
X143085250Y-114706241D01*
X143085250Y-114528759D01*
X143119874Y-114354688D01*
X143187794Y-114190716D01*
X143286397Y-114043146D01*
X143411896Y-113917647D01*
X143559466Y-113819044D01*
X143723438Y-113751124D01*
X143872738Y-113721427D01*
X143897508Y-113716500D01*
X144074992Y-113716500D01*
X144099762Y-113721427D01*
G37*
G36*
X154259762Y-113721427D02*
G01*
X154409062Y-113751124D01*
X154573034Y-113819044D01*
X154720604Y-113917647D01*
X154846103Y-114043146D01*
X154944706Y-114190716D01*
X155012626Y-114354688D01*
X155047250Y-114528759D01*
X155047250Y-114706241D01*
X155012626Y-114880312D01*
X154944706Y-115044284D01*
X154846103Y-115191854D01*
X154720604Y-115317353D01*
X154573034Y-115415956D01*
X154409062Y-115483876D01*
X154259762Y-115513573D01*
X154234992Y-115518500D01*
X154057508Y-115518500D01*
X154032738Y-115513573D01*
X153883438Y-115483876D01*
X153719466Y-115415956D01*
X153571896Y-115317353D01*
X153446397Y-115191854D01*
X153347794Y-115044284D01*
X153279874Y-114880312D01*
X153245250Y-114706241D01*
X153245250Y-114528759D01*
X153279874Y-114354688D01*
X153347794Y-114190716D01*
X153446397Y-114043146D01*
X153571896Y-113917647D01*
X153719466Y-113819044D01*
X153883438Y-113751124D01*
X154032738Y-113721427D01*
X154057508Y-113716500D01*
X154234992Y-113716500D01*
X154259762Y-113721427D01*
G37*
G36*
X80266407Y-113007100D02*
G01*
X80377592Y-113029216D01*
X80587061Y-113115981D01*
X80775578Y-113241944D01*
X80935898Y-113402264D01*
X80972327Y-113456784D01*
X81061862Y-113590783D01*
X81077383Y-113628254D01*
X81148626Y-113800250D01*
X81192858Y-114022620D01*
X81192858Y-114249348D01*
X81148626Y-114471718D01*
X81061861Y-114681187D01*
X80935898Y-114869704D01*
X80775578Y-115030024D01*
X80587061Y-115155987D01*
X80377592Y-115242752D01*
X80266407Y-115264868D01*
X80155223Y-115286984D01*
X79928493Y-115286984D01*
X79817309Y-115264868D01*
X79706124Y-115242752D01*
X79496655Y-115155987D01*
X79308138Y-115030024D01*
X79147818Y-114869704D01*
X79021855Y-114681187D01*
X78935090Y-114471718D01*
X78890858Y-114249348D01*
X78890858Y-114022620D01*
X78935090Y-113800250D01*
X79006333Y-113628254D01*
X79021854Y-113590783D01*
X79111389Y-113456784D01*
X79147818Y-113402264D01*
X79308138Y-113241944D01*
X79496655Y-113115981D01*
X79706124Y-113029216D01*
X79817309Y-113007100D01*
X79928493Y-112984984D01*
X80155223Y-112984984D01*
X80266407Y-113007100D01*
G37*
G36*
X107595754Y-111057818D02*
G01*
X107969011Y-111212426D01*
X107969013Y-111212427D01*
X108304936Y-111436884D01*
X108590616Y-111722564D01*
X108798874Y-112034243D01*
X108815074Y-112058489D01*
X108969682Y-112431746D01*
X109048500Y-112827993D01*
X109048500Y-113232007D01*
X108969682Y-113628254D01*
X108815074Y-114001511D01*
X108815073Y-114001513D01*
X108590616Y-114337436D01*
X108304936Y-114623116D01*
X107969013Y-114847573D01*
X107969012Y-114847574D01*
X107969011Y-114847574D01*
X107595754Y-115002182D01*
X107199507Y-115081000D01*
X106795493Y-115081000D01*
X106399246Y-115002182D01*
X106025989Y-114847574D01*
X106025988Y-114847574D01*
X106025987Y-114847573D01*
X105690064Y-114623116D01*
X105404384Y-114337436D01*
X105179927Y-114001513D01*
X105179926Y-114001511D01*
X105025318Y-113628254D01*
X104946500Y-113232007D01*
X104946500Y-112827993D01*
X105025318Y-112431746D01*
X105179926Y-112058489D01*
X105196127Y-112034243D01*
X105404384Y-111722564D01*
X105690064Y-111436884D01*
X106025987Y-111212427D01*
X106025989Y-111212426D01*
X106399246Y-111057818D01*
X106795493Y-110979000D01*
X107199507Y-110979000D01*
X107595754Y-111057818D01*
G37*
G36*
X61343299Y-112377366D02*
G01*
X61454484Y-112399482D01*
X61663953Y-112486247D01*
X61852470Y-112612210D01*
X62012790Y-112772530D01*
X62138753Y-112961047D01*
X62211739Y-113137250D01*
X62225518Y-113170517D01*
X62269750Y-113392885D01*
X62269750Y-113619615D01*
X62268031Y-113628255D01*
X62225518Y-113841984D01*
X62202988Y-113896375D01*
X62142194Y-114043147D01*
X62138753Y-114051453D01*
X62012790Y-114239970D01*
X61852470Y-114400290D01*
X61663953Y-114526253D01*
X61663952Y-114526254D01*
X61663951Y-114526254D01*
X61657903Y-114528759D01*
X61454484Y-114613018D01*
X61343299Y-114635134D01*
X61232115Y-114657250D01*
X61005385Y-114657250D01*
X60894201Y-114635134D01*
X60783016Y-114613018D01*
X60579597Y-114528759D01*
X60573549Y-114526254D01*
X60573548Y-114526254D01*
X60573547Y-114526253D01*
X60385030Y-114400290D01*
X60224710Y-114239970D01*
X60098747Y-114051453D01*
X60095307Y-114043147D01*
X60034512Y-113896375D01*
X60011982Y-113841984D01*
X59969469Y-113628255D01*
X59967750Y-113619615D01*
X59967750Y-113392885D01*
X60011982Y-113170517D01*
X60025762Y-113137250D01*
X60098747Y-112961047D01*
X60224710Y-112772530D01*
X60385030Y-112612210D01*
X60573547Y-112486247D01*
X60783016Y-112399482D01*
X60894201Y-112377366D01*
X61005385Y-112355250D01*
X61232115Y-112355250D01*
X61343299Y-112377366D01*
G37*
G36*
X129027004Y-110264068D02*
G01*
X129298767Y-110376636D01*
X129400263Y-110418677D01*
X129736186Y-110643134D01*
X130021866Y-110928814D01*
X130218916Y-111223719D01*
X130246324Y-111264739D01*
X130400932Y-111637996D01*
X130479750Y-112034243D01*
X130479750Y-112438257D01*
X130400932Y-112834504D01*
X130261751Y-113170516D01*
X130246323Y-113207763D01*
X130021866Y-113543686D01*
X129736186Y-113829366D01*
X129400263Y-114053823D01*
X129400262Y-114053824D01*
X129400261Y-114053824D01*
X129027004Y-114208432D01*
X128630757Y-114287250D01*
X128226743Y-114287250D01*
X127830496Y-114208432D01*
X127457239Y-114053824D01*
X127457238Y-114053824D01*
X127457237Y-114053823D01*
X127121314Y-113829366D01*
X126835634Y-113543686D01*
X126611177Y-113207763D01*
X126595749Y-113170516D01*
X126456568Y-112834504D01*
X126377750Y-112438257D01*
X126377750Y-112034243D01*
X126456568Y-111637996D01*
X126611176Y-111264739D01*
X126638585Y-111223719D01*
X126835634Y-110928814D01*
X127121314Y-110643134D01*
X127457237Y-110418677D01*
X127558733Y-110376636D01*
X127830496Y-110264068D01*
X128226743Y-110185250D01*
X128630757Y-110185250D01*
X129027004Y-110264068D01*
G37*
G36*
X112191012Y-112133927D02*
G01*
X112340312Y-112163624D01*
X112504284Y-112231544D01*
X112651854Y-112330147D01*
X112777353Y-112455646D01*
X112875956Y-112603216D01*
X112943876Y-112767188D01*
X112973573Y-112916488D01*
X112977475Y-112936103D01*
X112978500Y-112941259D01*
X112978500Y-113118741D01*
X112943876Y-113292812D01*
X112875956Y-113456784D01*
X112777353Y-113604354D01*
X112651854Y-113729853D01*
X112504284Y-113828456D01*
X112340312Y-113896376D01*
X112191012Y-113926073D01*
X112166242Y-113931000D01*
X111988758Y-113931000D01*
X111963988Y-113926073D01*
X111814688Y-113896376D01*
X111650716Y-113828456D01*
X111503146Y-113729853D01*
X111377647Y-113604354D01*
X111279044Y-113456784D01*
X111211124Y-113292812D01*
X111176500Y-113118741D01*
X111176500Y-112941259D01*
X111177526Y-112936103D01*
X111181427Y-112916488D01*
X111211124Y-112767188D01*
X111279044Y-112603216D01*
X111377647Y-112455646D01*
X111503146Y-112330147D01*
X111650716Y-112231544D01*
X111814688Y-112163624D01*
X111963988Y-112133927D01*
X111988758Y-112129000D01*
X112166242Y-112129000D01*
X112191012Y-112133927D01*
G37*
G36*
X102031012Y-112133927D02*
G01*
X102180312Y-112163624D01*
X102344284Y-112231544D01*
X102491854Y-112330147D01*
X102617353Y-112455646D01*
X102715956Y-112603216D01*
X102783876Y-112767188D01*
X102813573Y-112916488D01*
X102817475Y-112936103D01*
X102818500Y-112941259D01*
X102818500Y-113118741D01*
X102783876Y-113292812D01*
X102715956Y-113456784D01*
X102617353Y-113604354D01*
X102491854Y-113729853D01*
X102344284Y-113828456D01*
X102180312Y-113896376D01*
X102031012Y-113926073D01*
X102006242Y-113931000D01*
X101828758Y-113931000D01*
X101803988Y-113926073D01*
X101654688Y-113896376D01*
X101490716Y-113828456D01*
X101343146Y-113729853D01*
X101217647Y-113604354D01*
X101119044Y-113456784D01*
X101051124Y-113292812D01*
X101016500Y-113118741D01*
X101016500Y-112941259D01*
X101017526Y-112936103D01*
X101021427Y-112916488D01*
X101051124Y-112767188D01*
X101119044Y-112603216D01*
X101217647Y-112455646D01*
X101343146Y-112330147D01*
X101490716Y-112231544D01*
X101654688Y-112163624D01*
X101803988Y-112133927D01*
X101828758Y-112129000D01*
X102006242Y-112129000D01*
X102031012Y-112133927D01*
G37*
G36*
X145480799Y-110948616D02*
G01*
X145591984Y-110970732D01*
X145801453Y-111057497D01*
X145989970Y-111183460D01*
X146150290Y-111343780D01*
X146276253Y-111532297D01*
X146363018Y-111741766D01*
X146407250Y-111964136D01*
X146407250Y-112190864D01*
X146363018Y-112413234D01*
X146276253Y-112622703D01*
X146150290Y-112811220D01*
X145989970Y-112971540D01*
X145801453Y-113097503D01*
X145801452Y-113097504D01*
X145801451Y-113097504D01*
X145789085Y-113102626D01*
X145591984Y-113184268D01*
X145480799Y-113206384D01*
X145369615Y-113228500D01*
X145142885Y-113228500D01*
X145031701Y-113206384D01*
X144920516Y-113184268D01*
X144723415Y-113102626D01*
X144711049Y-113097504D01*
X144711048Y-113097504D01*
X144711047Y-113097503D01*
X144522530Y-112971540D01*
X144362210Y-112811220D01*
X144236247Y-112622703D01*
X144149482Y-112413234D01*
X144105250Y-112190864D01*
X144105250Y-111964136D01*
X144149482Y-111741766D01*
X144236247Y-111532297D01*
X144362210Y-111343780D01*
X144522530Y-111183460D01*
X144711047Y-111057497D01*
X144920516Y-110970732D01*
X145031701Y-110948616D01*
X145142885Y-110926500D01*
X145369615Y-110926500D01*
X145480799Y-110948616D01*
G37*
G36*
X133622262Y-111340177D02*
G01*
X133771562Y-111369874D01*
X133935534Y-111437794D01*
X134083104Y-111536397D01*
X134208603Y-111661896D01*
X134307206Y-111809466D01*
X134375126Y-111973438D01*
X134392043Y-112058489D01*
X134409750Y-112147508D01*
X134409750Y-112324992D01*
X134408724Y-112330148D01*
X134375126Y-112499062D01*
X134307206Y-112663034D01*
X134208603Y-112810604D01*
X134083104Y-112936103D01*
X133935534Y-113034706D01*
X133771562Y-113102626D01*
X133622262Y-113132323D01*
X133597492Y-113137250D01*
X133420008Y-113137250D01*
X133395238Y-113132323D01*
X133245938Y-113102626D01*
X133081966Y-113034706D01*
X132934396Y-112936103D01*
X132808897Y-112810604D01*
X132710294Y-112663034D01*
X132642374Y-112499062D01*
X132608776Y-112330148D01*
X132607750Y-112324992D01*
X132607750Y-112147508D01*
X132625457Y-112058489D01*
X132642374Y-111973438D01*
X132710294Y-111809466D01*
X132808897Y-111661896D01*
X132934396Y-111536397D01*
X133081966Y-111437794D01*
X133245938Y-111369874D01*
X133395238Y-111340177D01*
X133420008Y-111335250D01*
X133597492Y-111335250D01*
X133622262Y-111340177D01*
G37*
G36*
X123462262Y-111340177D02*
G01*
X123611562Y-111369874D01*
X123775534Y-111437794D01*
X123923104Y-111536397D01*
X124048603Y-111661896D01*
X124147206Y-111809466D01*
X124215126Y-111973438D01*
X124232043Y-112058489D01*
X124249750Y-112147508D01*
X124249750Y-112324992D01*
X124248724Y-112330148D01*
X124215126Y-112499062D01*
X124147206Y-112663034D01*
X124048603Y-112810604D01*
X123923104Y-112936103D01*
X123775534Y-113034706D01*
X123611562Y-113102626D01*
X123462262Y-113132323D01*
X123437492Y-113137250D01*
X123260008Y-113137250D01*
X123235238Y-113132323D01*
X123085938Y-113102626D01*
X122921966Y-113034706D01*
X122774396Y-112936103D01*
X122648897Y-112810604D01*
X122550294Y-112663034D01*
X122482374Y-112499062D01*
X122448776Y-112330148D01*
X122447750Y-112324992D01*
X122447750Y-112147508D01*
X122465457Y-112058489D01*
X122482374Y-111973438D01*
X122550294Y-111809466D01*
X122648897Y-111661896D01*
X122774396Y-111536397D01*
X122921966Y-111437794D01*
X123085938Y-111369874D01*
X123235238Y-111340177D01*
X123260008Y-111335250D01*
X123437492Y-111335250D01*
X123462262Y-111340177D01*
G37*
G36*
X103409033Y-109360516D02*
G01*
X103523234Y-109383232D01*
X103732703Y-109469997D01*
X103921220Y-109595960D01*
X104081540Y-109756280D01*
X104207503Y-109944797D01*
X104294268Y-110154266D01*
X104316109Y-110264068D01*
X104338500Y-110376635D01*
X104338500Y-110603365D01*
X104325845Y-110666984D01*
X104294268Y-110825734D01*
X104207503Y-111035203D01*
X104081540Y-111223720D01*
X103921220Y-111384040D01*
X103732703Y-111510003D01*
X103523234Y-111596768D01*
X103412049Y-111618884D01*
X103300865Y-111641000D01*
X103074135Y-111641000D01*
X102962951Y-111618884D01*
X102851766Y-111596768D01*
X102642297Y-111510003D01*
X102453780Y-111384040D01*
X102293460Y-111223720D01*
X102167497Y-111035203D01*
X102080732Y-110825734D01*
X102049155Y-110666984D01*
X102036500Y-110603365D01*
X102036500Y-110376635D01*
X102058891Y-110264068D01*
X102080732Y-110154266D01*
X102167497Y-109944797D01*
X102293460Y-109756280D01*
X102453780Y-109595960D01*
X102642297Y-109469997D01*
X102851766Y-109383232D01*
X102965967Y-109360516D01*
X103074135Y-109339000D01*
X103300865Y-109339000D01*
X103409033Y-109360516D01*
G37*
G36*
X85946533Y-109201766D02*
G01*
X86060734Y-109224482D01*
X86270203Y-109311247D01*
X86458720Y-109437210D01*
X86619040Y-109597530D01*
X86745003Y-109786047D01*
X86831768Y-109995516D01*
X86853884Y-110106701D01*
X86863346Y-110154267D01*
X86876000Y-110217886D01*
X86876000Y-110444614D01*
X86831768Y-110666984D01*
X86745003Y-110876453D01*
X86619040Y-111064970D01*
X86458720Y-111225290D01*
X86270203Y-111351253D01*
X86060734Y-111438018D01*
X85949549Y-111460134D01*
X85838365Y-111482250D01*
X85611635Y-111482250D01*
X85500451Y-111460134D01*
X85389266Y-111438018D01*
X85179797Y-111351253D01*
X84991280Y-111225290D01*
X84830960Y-111064970D01*
X84704997Y-110876453D01*
X84618232Y-110666984D01*
X84574000Y-110444614D01*
X84574000Y-110217886D01*
X84586655Y-110154267D01*
X84596116Y-110106701D01*
X84618232Y-109995516D01*
X84704997Y-109786047D01*
X84830960Y-109597530D01*
X84991280Y-109437210D01*
X85179797Y-109311247D01*
X85389266Y-109224482D01*
X85503467Y-109201766D01*
X85611635Y-109180250D01*
X85838365Y-109180250D01*
X85946533Y-109201766D01*
G37*
G36*
X124843299Y-108567366D02*
G01*
X124954484Y-108589482D01*
X125163953Y-108676247D01*
X125352470Y-108802210D01*
X125512790Y-108962530D01*
X125638753Y-109151047D01*
X125725518Y-109360516D01*
X125738173Y-109424136D01*
X125769750Y-109582885D01*
X125769750Y-109809615D01*
X125757095Y-109873234D01*
X125725518Y-110031984D01*
X125638753Y-110241453D01*
X125512790Y-110429970D01*
X125352470Y-110590290D01*
X125163953Y-110716253D01*
X124954484Y-110803018D01*
X124843299Y-110825134D01*
X124732115Y-110847250D01*
X124505385Y-110847250D01*
X124394201Y-110825134D01*
X124283016Y-110803018D01*
X124073547Y-110716253D01*
X123885030Y-110590290D01*
X123724710Y-110429970D01*
X123598747Y-110241453D01*
X123511982Y-110031984D01*
X123480405Y-109873234D01*
X123467750Y-109809615D01*
X123467750Y-109582885D01*
X123499327Y-109424136D01*
X123511982Y-109360516D01*
X123598747Y-109151047D01*
X123724710Y-108962530D01*
X123885030Y-108802210D01*
X124073547Y-108676247D01*
X124283016Y-108589482D01*
X124394201Y-108567366D01*
X124505385Y-108545250D01*
X124732115Y-108545250D01*
X124843299Y-108567366D01*
G37*
G36*
X151830799Y-108408616D02*
G01*
X151941984Y-108430732D01*
X152151453Y-108517497D01*
X152339970Y-108643460D01*
X152500290Y-108803780D01*
X152626253Y-108992297D01*
X152704106Y-109180250D01*
X152713018Y-109201767D01*
X152744596Y-109360517D01*
X152757250Y-109424136D01*
X152757250Y-109650864D01*
X152713018Y-109873234D01*
X152626253Y-110082703D01*
X152500290Y-110271220D01*
X152339970Y-110431540D01*
X152151453Y-110557503D01*
X151941984Y-110644268D01*
X151830799Y-110666384D01*
X151719615Y-110688500D01*
X151492885Y-110688500D01*
X151381701Y-110666384D01*
X151270516Y-110644268D01*
X151061047Y-110557503D01*
X150872530Y-110431540D01*
X150712210Y-110271220D01*
X150586247Y-110082703D01*
X150499482Y-109873234D01*
X150455250Y-109650864D01*
X150455250Y-109424136D01*
X150467905Y-109360517D01*
X150499482Y-109201767D01*
X150508395Y-109180250D01*
X150586247Y-108992297D01*
X150712210Y-108803780D01*
X150872530Y-108643460D01*
X151061047Y-108517497D01*
X151270516Y-108430732D01*
X151381701Y-108408616D01*
X151492885Y-108386500D01*
X151719615Y-108386500D01*
X151830799Y-108408616D01*
G37*
G36*
X109759033Y-106820516D02*
G01*
X109873234Y-106843232D01*
X110082703Y-106929997D01*
X110271220Y-107055960D01*
X110431540Y-107216280D01*
X110557503Y-107404797D01*
X110644268Y-107614266D01*
X110666384Y-107725451D01*
X110670428Y-107745779D01*
X110688500Y-107836636D01*
X110688500Y-108063364D01*
X110644268Y-108285734D01*
X110557503Y-108495203D01*
X110431540Y-108683720D01*
X110271220Y-108844040D01*
X110082703Y-108970003D01*
X109873234Y-109056768D01*
X109762049Y-109078884D01*
X109650865Y-109101000D01*
X109424135Y-109101000D01*
X109312951Y-109078884D01*
X109201766Y-109056768D01*
X108992297Y-108970003D01*
X108803780Y-108844040D01*
X108643460Y-108683720D01*
X108517497Y-108495203D01*
X108430732Y-108285734D01*
X108386500Y-108063364D01*
X108386500Y-107836636D01*
X108404573Y-107745779D01*
X108408616Y-107725451D01*
X108430732Y-107614266D01*
X108517497Y-107404797D01*
X108643460Y-107216280D01*
X108803780Y-107055960D01*
X108992297Y-106929997D01*
X109201766Y-106843232D01*
X109315967Y-106820516D01*
X109424135Y-106799000D01*
X109650865Y-106799000D01*
X109759033Y-106820516D01*
G37*
G36*
X163773456Y-105655498D02*
G01*
X163879779Y-105676647D01*
X164180242Y-105801103D01*
X164450651Y-105981785D01*
X164680615Y-106211749D01*
X164861297Y-106482158D01*
X164941027Y-106674642D01*
X164985753Y-106782622D01*
X165049200Y-107101589D01*
X165049200Y-107426811D01*
X165036236Y-107491983D01*
X164985753Y-107745779D01*
X164861297Y-108046242D01*
X164680615Y-108316651D01*
X164450651Y-108546615D01*
X164180242Y-108727297D01*
X163879779Y-108851753D01*
X163773456Y-108872902D01*
X163560811Y-108915200D01*
X163235589Y-108915200D01*
X163022944Y-108872902D01*
X162916621Y-108851753D01*
X162616158Y-108727297D01*
X162345749Y-108546615D01*
X162115785Y-108316651D01*
X161935103Y-108046242D01*
X161810647Y-107745779D01*
X161760164Y-107491983D01*
X161747200Y-107426811D01*
X161747200Y-107101589D01*
X161810647Y-106782622D01*
X161855374Y-106674642D01*
X161935103Y-106482158D01*
X162115785Y-106211749D01*
X162345749Y-105981785D01*
X162616158Y-105801103D01*
X162916621Y-105676647D01*
X163022944Y-105655498D01*
X163235589Y-105613200D01*
X163560811Y-105613200D01*
X163773456Y-105655498D01*
G37*
G36*
X131193299Y-106027366D02*
G01*
X131304484Y-106049482D01*
X131513953Y-106136247D01*
X131702470Y-106262210D01*
X131862790Y-106422530D01*
X131988753Y-106611047D01*
X132075518Y-106820516D01*
X132119750Y-107042886D01*
X132119750Y-107269614D01*
X132075518Y-107491984D01*
X131988753Y-107701453D01*
X131862790Y-107889970D01*
X131702470Y-108050290D01*
X131513953Y-108176253D01*
X131304484Y-108263018D01*
X131193299Y-108285134D01*
X131082115Y-108307250D01*
X130855385Y-108307250D01*
X130744201Y-108285134D01*
X130633016Y-108263018D01*
X130423547Y-108176253D01*
X130235030Y-108050290D01*
X130074710Y-107889970D01*
X129948747Y-107701453D01*
X129861982Y-107491984D01*
X129817750Y-107269614D01*
X129817750Y-107042886D01*
X129861982Y-106820516D01*
X129948747Y-106611047D01*
X130074710Y-106422530D01*
X130235030Y-106262210D01*
X130423547Y-106136247D01*
X130633016Y-106049482D01*
X130744201Y-106027366D01*
X130855385Y-106005250D01*
X131082115Y-106005250D01*
X131193299Y-106027366D01*
G37*
G36*
X56001256Y-104283898D02*
G01*
X56107579Y-104305047D01*
X56408042Y-104429503D01*
X56678451Y-104610185D01*
X56908415Y-104840149D01*
X56908416Y-104840151D01*
X57089098Y-105110560D01*
X57213553Y-105411022D01*
X57266390Y-105676647D01*
X57277000Y-105729991D01*
X57277000Y-106055209D01*
X57213553Y-106374179D01*
X57089097Y-106674642D01*
X56908415Y-106945051D01*
X56678451Y-107175015D01*
X56408042Y-107355697D01*
X56107579Y-107480153D01*
X56048100Y-107491984D01*
X55788611Y-107543600D01*
X55463389Y-107543600D01*
X55203900Y-107491984D01*
X55144421Y-107480153D01*
X54843958Y-107355697D01*
X54573549Y-107175015D01*
X54343585Y-106945051D01*
X54162903Y-106674642D01*
X54038447Y-106374179D01*
X53975000Y-106055209D01*
X53975000Y-105729991D01*
X53985611Y-105676647D01*
X54038447Y-105411022D01*
X54162902Y-105110560D01*
X54343584Y-104840151D01*
X54343585Y-104840149D01*
X54573549Y-104610185D01*
X54843958Y-104429503D01*
X55144421Y-104305047D01*
X55250744Y-104283898D01*
X55463389Y-104241600D01*
X55788611Y-104241600D01*
X56001256Y-104283898D01*
G37*
G36*
X177445754Y-95182818D02*
G01*
X177698324Y-95287436D01*
X177819013Y-95337427D01*
X178154936Y-95561884D01*
X178440616Y-95847564D01*
X178665074Y-96183489D01*
X178819682Y-96556746D01*
X178898500Y-96952993D01*
X178898500Y-97357007D01*
X178819682Y-97753254D01*
X178665074Y-98126511D01*
X178665073Y-98126513D01*
X178440616Y-98462436D01*
X178154936Y-98748116D01*
X177819013Y-98972573D01*
X177819012Y-98972574D01*
X177819011Y-98972574D01*
X177445754Y-99127182D01*
X177049507Y-99206000D01*
X176645493Y-99206000D01*
X176249246Y-99127182D01*
X175875989Y-98972574D01*
X175875988Y-98972574D01*
X175875987Y-98972573D01*
X175540064Y-98748116D01*
X175254384Y-98462436D01*
X175029927Y-98126513D01*
X175029926Y-98126511D01*
X174875318Y-97753254D01*
X174796500Y-97357007D01*
X174796500Y-96952993D01*
X174875318Y-96556746D01*
X175029926Y-96183489D01*
X175254384Y-95847564D01*
X175540064Y-95561884D01*
X175875987Y-95337427D01*
X175996676Y-95287436D01*
X176249246Y-95182818D01*
X176645493Y-95104000D01*
X177049507Y-95104000D01*
X177445754Y-95182818D01*
G37*
G36*
X182041012Y-96258927D02*
G01*
X182190312Y-96288624D01*
X182354284Y-96356544D01*
X182501854Y-96455147D01*
X182627353Y-96580646D01*
X182725956Y-96728216D01*
X182793876Y-96892188D01*
X182828500Y-97066259D01*
X182828500Y-97243741D01*
X182793876Y-97417812D01*
X182725956Y-97581784D01*
X182627353Y-97729354D01*
X182501854Y-97854853D01*
X182354284Y-97953456D01*
X182190312Y-98021376D01*
X182041012Y-98051073D01*
X182016242Y-98056000D01*
X181838758Y-98056000D01*
X181813988Y-98051073D01*
X181664688Y-98021376D01*
X181500716Y-97953456D01*
X181353146Y-97854853D01*
X181227647Y-97729354D01*
X181129044Y-97581784D01*
X181061124Y-97417812D01*
X181026500Y-97243741D01*
X181026500Y-97066259D01*
X181061124Y-96892188D01*
X181129044Y-96728216D01*
X181227647Y-96580646D01*
X181353146Y-96455147D01*
X181500716Y-96356544D01*
X181664688Y-96288624D01*
X181813988Y-96258927D01*
X181838758Y-96254000D01*
X182016242Y-96254000D01*
X182041012Y-96258927D01*
G37*
G36*
X171881012Y-96258927D02*
G01*
X172030312Y-96288624D01*
X172194284Y-96356544D01*
X172341854Y-96455147D01*
X172467353Y-96580646D01*
X172565956Y-96728216D01*
X172633876Y-96892188D01*
X172668500Y-97066259D01*
X172668500Y-97243741D01*
X172633876Y-97417812D01*
X172565956Y-97581784D01*
X172467353Y-97729354D01*
X172341854Y-97854853D01*
X172194284Y-97953456D01*
X172030312Y-98021376D01*
X171881012Y-98051073D01*
X171856242Y-98056000D01*
X171678758Y-98056000D01*
X171653988Y-98051073D01*
X171504688Y-98021376D01*
X171340716Y-97953456D01*
X171193146Y-97854853D01*
X171067647Y-97729354D01*
X170969044Y-97581784D01*
X170901124Y-97417812D01*
X170866500Y-97243741D01*
X170866500Y-97066259D01*
X170901124Y-96892188D01*
X170969044Y-96728216D01*
X171067647Y-96580646D01*
X171193146Y-96455147D01*
X171340716Y-96356544D01*
X171504688Y-96288624D01*
X171653988Y-96258927D01*
X171678758Y-96254000D01*
X171856242Y-96254000D01*
X171881012Y-96258927D01*
G37*
G36*
X158395754Y-92007818D02*
G01*
X158769011Y-92162426D01*
X158769013Y-92162427D01*
X159104936Y-92386884D01*
X159390616Y-92672564D01*
X159584444Y-92962647D01*
X159615074Y-93008489D01*
X159769682Y-93381746D01*
X159848500Y-93777993D01*
X159848500Y-94182007D01*
X159769682Y-94578254D01*
X159615396Y-94950733D01*
X159615073Y-94951513D01*
X159390616Y-95287436D01*
X159104936Y-95573116D01*
X158769013Y-95797573D01*
X158769012Y-95797574D01*
X158769011Y-95797574D01*
X158395754Y-95952182D01*
X157999507Y-96031000D01*
X157595493Y-96031000D01*
X157199246Y-95952182D01*
X156825989Y-95797574D01*
X156825988Y-95797574D01*
X156825987Y-95797573D01*
X156490064Y-95573116D01*
X156204384Y-95287436D01*
X155979927Y-94951513D01*
X155979604Y-94950733D01*
X155825318Y-94578254D01*
X155746500Y-94182007D01*
X155746500Y-93777993D01*
X155825318Y-93381746D01*
X155979926Y-93008489D01*
X156010557Y-92962647D01*
X156204384Y-92672564D01*
X156490064Y-92386884D01*
X156825987Y-92162427D01*
X156825989Y-92162426D01*
X157199246Y-92007818D01*
X157595493Y-91929000D01*
X157999507Y-91929000D01*
X158395754Y-92007818D01*
G37*
G36*
X82195754Y-92007818D02*
G01*
X82569011Y-92162426D01*
X82569013Y-92162427D01*
X82904936Y-92386884D01*
X83190616Y-92672564D01*
X83384444Y-92962647D01*
X83415074Y-93008489D01*
X83569682Y-93381746D01*
X83648500Y-93777993D01*
X83648500Y-94182007D01*
X83569682Y-94578254D01*
X83415396Y-94950733D01*
X83415073Y-94951513D01*
X83190616Y-95287436D01*
X82904936Y-95573116D01*
X82569013Y-95797573D01*
X82569012Y-95797574D01*
X82569011Y-95797574D01*
X82195754Y-95952182D01*
X81799507Y-96031000D01*
X81395493Y-96031000D01*
X80999246Y-95952182D01*
X80625989Y-95797574D01*
X80625988Y-95797574D01*
X80625987Y-95797573D01*
X80290064Y-95573116D01*
X80004384Y-95287436D01*
X79779927Y-94951513D01*
X79779604Y-94950733D01*
X79625318Y-94578254D01*
X79546500Y-94182007D01*
X79546500Y-93777993D01*
X79625318Y-93381746D01*
X79779926Y-93008489D01*
X79810557Y-92962647D01*
X80004384Y-92672564D01*
X80290064Y-92386884D01*
X80625987Y-92162427D01*
X80625989Y-92162426D01*
X80999246Y-92007818D01*
X81395493Y-91929000D01*
X81799507Y-91929000D01*
X82195754Y-92007818D01*
G37*
G36*
X173262049Y-93486116D02*
G01*
X173373234Y-93508232D01*
X173582703Y-93594997D01*
X173771220Y-93720960D01*
X173931540Y-93881280D01*
X174057503Y-94069797D01*
X174144268Y-94279266D01*
X174188500Y-94501636D01*
X174188500Y-94728364D01*
X174144268Y-94950734D01*
X174057503Y-95160203D01*
X173931540Y-95348720D01*
X173771220Y-95509040D01*
X173582703Y-95635003D01*
X173373234Y-95721768D01*
X173262049Y-95743884D01*
X173150865Y-95766000D01*
X172924135Y-95766000D01*
X172812951Y-95743884D01*
X172701766Y-95721768D01*
X172492297Y-95635003D01*
X172303780Y-95509040D01*
X172143460Y-95348720D01*
X172017497Y-95160203D01*
X171930732Y-94950734D01*
X171886500Y-94728364D01*
X171886500Y-94501636D01*
X171930732Y-94279266D01*
X172017497Y-94069797D01*
X172143460Y-93881280D01*
X172303780Y-93720960D01*
X172492297Y-93594997D01*
X172701766Y-93508232D01*
X172812951Y-93486116D01*
X172924135Y-93464000D01*
X173150865Y-93464000D01*
X173262049Y-93486116D01*
G37*
G36*
X58542004Y-91690318D02*
G01*
X58915261Y-91844926D01*
X58915263Y-91844927D01*
X59251186Y-92069384D01*
X59536866Y-92355064D01*
X59714027Y-92620203D01*
X59761324Y-92690989D01*
X59915932Y-93064246D01*
X59994750Y-93460493D01*
X59994750Y-93864507D01*
X59915932Y-94260754D01*
X59784419Y-94578254D01*
X59761323Y-94634013D01*
X59536866Y-94969936D01*
X59251186Y-95255616D01*
X58915263Y-95480073D01*
X58915262Y-95480074D01*
X58915261Y-95480074D01*
X58542004Y-95634682D01*
X58145757Y-95713500D01*
X57741743Y-95713500D01*
X57345496Y-95634682D01*
X56972239Y-95480074D01*
X56972238Y-95480074D01*
X56972237Y-95480073D01*
X56636314Y-95255616D01*
X56350634Y-94969936D01*
X56126177Y-94634013D01*
X56103081Y-94578254D01*
X55971568Y-94260754D01*
X55892750Y-93864507D01*
X55892750Y-93460493D01*
X55971568Y-93064246D01*
X56126176Y-92690989D01*
X56173474Y-92620203D01*
X56350634Y-92355064D01*
X56636314Y-92069384D01*
X56972237Y-91844927D01*
X56972239Y-91844926D01*
X57345496Y-91690318D01*
X57741743Y-91611500D01*
X58145757Y-91611500D01*
X58542004Y-91690318D01*
G37*
G36*
X86791012Y-93083927D02*
G01*
X86940312Y-93113624D01*
X87104284Y-93181544D01*
X87251854Y-93280147D01*
X87377353Y-93405646D01*
X87475956Y-93553216D01*
X87543876Y-93717188D01*
X87578500Y-93891259D01*
X87578500Y-94068741D01*
X87543876Y-94242812D01*
X87475956Y-94406784D01*
X87377353Y-94554354D01*
X87251854Y-94679853D01*
X87104284Y-94778456D01*
X86940312Y-94846376D01*
X86791012Y-94876073D01*
X86766242Y-94881000D01*
X86588758Y-94881000D01*
X86563988Y-94876073D01*
X86414688Y-94846376D01*
X86250716Y-94778456D01*
X86103146Y-94679853D01*
X85977647Y-94554354D01*
X85879044Y-94406784D01*
X85811124Y-94242812D01*
X85776500Y-94068741D01*
X85776500Y-93891259D01*
X85811124Y-93717188D01*
X85879044Y-93553216D01*
X85977647Y-93405646D01*
X86103146Y-93280147D01*
X86250716Y-93181544D01*
X86414688Y-93113624D01*
X86563988Y-93083927D01*
X86588758Y-93079000D01*
X86766242Y-93079000D01*
X86791012Y-93083927D01*
G37*
G36*
X76631012Y-93083927D02*
G01*
X76780312Y-93113624D01*
X76944284Y-93181544D01*
X77091854Y-93280147D01*
X77217353Y-93405646D01*
X77315956Y-93553216D01*
X77383876Y-93717188D01*
X77418500Y-93891259D01*
X77418500Y-94068741D01*
X77383876Y-94242812D01*
X77315956Y-94406784D01*
X77217353Y-94554354D01*
X77091854Y-94679853D01*
X76944284Y-94778456D01*
X76780312Y-94846376D01*
X76631012Y-94876073D01*
X76606242Y-94881000D01*
X76428758Y-94881000D01*
X76403988Y-94876073D01*
X76254688Y-94846376D01*
X76090716Y-94778456D01*
X75943146Y-94679853D01*
X75817647Y-94554354D01*
X75719044Y-94406784D01*
X75651124Y-94242812D01*
X75616500Y-94068741D01*
X75616500Y-93891259D01*
X75651124Y-93717188D01*
X75719044Y-93553216D01*
X75817647Y-93405646D01*
X75943146Y-93280147D01*
X76090716Y-93181544D01*
X76254688Y-93113624D01*
X76403988Y-93083927D01*
X76428758Y-93079000D01*
X76606242Y-93079000D01*
X76631012Y-93083927D01*
G37*
G36*
X162991012Y-93083927D02*
G01*
X163140312Y-93113624D01*
X163304284Y-93181544D01*
X163451854Y-93280147D01*
X163577353Y-93405646D01*
X163675956Y-93553216D01*
X163743876Y-93717188D01*
X163778500Y-93891259D01*
X163778500Y-94068741D01*
X163743876Y-94242812D01*
X163675956Y-94406784D01*
X163577353Y-94554354D01*
X163451854Y-94679853D01*
X163304284Y-94778456D01*
X163140312Y-94846376D01*
X162991012Y-94876073D01*
X162966242Y-94881000D01*
X162788758Y-94881000D01*
X162763988Y-94876073D01*
X162614688Y-94846376D01*
X162450716Y-94778456D01*
X162303146Y-94679853D01*
X162177647Y-94554354D01*
X162079044Y-94406784D01*
X162011124Y-94242812D01*
X161976500Y-94068741D01*
X161976500Y-93891259D01*
X162011124Y-93717188D01*
X162079044Y-93553216D01*
X162177647Y-93405646D01*
X162303146Y-93280147D01*
X162450716Y-93181544D01*
X162614688Y-93113624D01*
X162763988Y-93083927D01*
X162788758Y-93079000D01*
X162966242Y-93079000D01*
X162991012Y-93083927D01*
G37*
G36*
X152831012Y-93083927D02*
G01*
X152980312Y-93113624D01*
X153144284Y-93181544D01*
X153291854Y-93280147D01*
X153417353Y-93405646D01*
X153515956Y-93553216D01*
X153583876Y-93717188D01*
X153618500Y-93891259D01*
X153618500Y-94068741D01*
X153583876Y-94242812D01*
X153515956Y-94406784D01*
X153417353Y-94554354D01*
X153291854Y-94679853D01*
X153144284Y-94778456D01*
X152980312Y-94846376D01*
X152831012Y-94876073D01*
X152806242Y-94881000D01*
X152628758Y-94881000D01*
X152603988Y-94876073D01*
X152454688Y-94846376D01*
X152290716Y-94778456D01*
X152143146Y-94679853D01*
X152017647Y-94554354D01*
X151919044Y-94406784D01*
X151851124Y-94242812D01*
X151816500Y-94068741D01*
X151816500Y-93891259D01*
X151851124Y-93717188D01*
X151919044Y-93553216D01*
X152017647Y-93405646D01*
X152143146Y-93280147D01*
X152290716Y-93181544D01*
X152454688Y-93113624D01*
X152603988Y-93083927D01*
X152628758Y-93079000D01*
X152806242Y-93079000D01*
X152831012Y-93083927D01*
G37*
G36*
X52977262Y-92766427D02*
G01*
X53126562Y-92796124D01*
X53290534Y-92864044D01*
X53438104Y-92962647D01*
X53563603Y-93088146D01*
X53662206Y-93235716D01*
X53730126Y-93399688D01*
X53764750Y-93573759D01*
X53764750Y-93751241D01*
X53730126Y-93925312D01*
X53662206Y-94089284D01*
X53563603Y-94236854D01*
X53438104Y-94362353D01*
X53290534Y-94460956D01*
X53126562Y-94528876D01*
X52977262Y-94558573D01*
X52952492Y-94563500D01*
X52775008Y-94563500D01*
X52750238Y-94558573D01*
X52600938Y-94528876D01*
X52436966Y-94460956D01*
X52289396Y-94362353D01*
X52163897Y-94236854D01*
X52065294Y-94089284D01*
X51997374Y-93925312D01*
X51962750Y-93751241D01*
X51962750Y-93573759D01*
X51997374Y-93399688D01*
X52065294Y-93235716D01*
X52163897Y-93088146D01*
X52289396Y-92962647D01*
X52436966Y-92864044D01*
X52600938Y-92796124D01*
X52750238Y-92766427D01*
X52775008Y-92761500D01*
X52952492Y-92761500D01*
X52977262Y-92766427D01*
G37*
G36*
X63137262Y-92766427D02*
G01*
X63286562Y-92796124D01*
X63450534Y-92864044D01*
X63598104Y-92962647D01*
X63723603Y-93088146D01*
X63822206Y-93235716D01*
X63890126Y-93399688D01*
X63924750Y-93573759D01*
X63924750Y-93751241D01*
X63890126Y-93925312D01*
X63822206Y-94089284D01*
X63723603Y-94236854D01*
X63598104Y-94362353D01*
X63450534Y-94460956D01*
X63286562Y-94528876D01*
X63137262Y-94558573D01*
X63112492Y-94563500D01*
X62935008Y-94563500D01*
X62910238Y-94558573D01*
X62760938Y-94528876D01*
X62596966Y-94460956D01*
X62449396Y-94362353D01*
X62323897Y-94236854D01*
X62225294Y-94089284D01*
X62157374Y-93925312D01*
X62122750Y-93751241D01*
X62122750Y-93573759D01*
X62157374Y-93399688D01*
X62225294Y-93235716D01*
X62323897Y-93088146D01*
X62449396Y-92962647D01*
X62596966Y-92864044D01*
X62760938Y-92796124D01*
X62910238Y-92766427D01*
X62935008Y-92761500D01*
X63112492Y-92761500D01*
X63137262Y-92766427D01*
G37*
G36*
X179612049Y-90946116D02*
G01*
X179723234Y-90968232D01*
X179932703Y-91054997D01*
X180121220Y-91180960D01*
X180281540Y-91341280D01*
X180407503Y-91529797D01*
X180494268Y-91739266D01*
X180538500Y-91961636D01*
X180538500Y-92188364D01*
X180494268Y-92410734D01*
X180407503Y-92620203D01*
X180281540Y-92808720D01*
X180121220Y-92969040D01*
X179932703Y-93095003D01*
X179723234Y-93181768D01*
X179612049Y-93203884D01*
X179500865Y-93226000D01*
X179274135Y-93226000D01*
X179162951Y-93203884D01*
X179051766Y-93181768D01*
X178842297Y-93095003D01*
X178653780Y-92969040D01*
X178493460Y-92808720D01*
X178367497Y-92620203D01*
X178280732Y-92410734D01*
X178236500Y-92188364D01*
X178236500Y-91961636D01*
X178280732Y-91739266D01*
X178367497Y-91529797D01*
X178493460Y-91341280D01*
X178653780Y-91180960D01*
X178842297Y-91054997D01*
X179051766Y-90968232D01*
X179162951Y-90946116D01*
X179274135Y-90924000D01*
X179500865Y-90924000D01*
X179612049Y-90946116D01*
G37*
G36*
X101245754Y-88832818D02*
G01*
X101619011Y-88987426D01*
X101619013Y-88987427D01*
X101954936Y-89211884D01*
X102240616Y-89497564D01*
X102437255Y-89791854D01*
X102465074Y-89833489D01*
X102619682Y-90206746D01*
X102698500Y-90602993D01*
X102698500Y-91007007D01*
X102619682Y-91403254D01*
X102480501Y-91739266D01*
X102465073Y-91776513D01*
X102240616Y-92112436D01*
X101954936Y-92398116D01*
X101619013Y-92622573D01*
X101619012Y-92622574D01*
X101619011Y-92622574D01*
X101245754Y-92777182D01*
X100849507Y-92856000D01*
X100445493Y-92856000D01*
X100049246Y-92777182D01*
X99675989Y-92622574D01*
X99675988Y-92622574D01*
X99675987Y-92622573D01*
X99340064Y-92398116D01*
X99054384Y-92112436D01*
X98829927Y-91776513D01*
X98814499Y-91739266D01*
X98675318Y-91403254D01*
X98596500Y-91007007D01*
X98596500Y-90602993D01*
X98675318Y-90206746D01*
X98829926Y-89833489D01*
X98857746Y-89791854D01*
X99054384Y-89497564D01*
X99340064Y-89211884D01*
X99675987Y-88987427D01*
X99675989Y-88987426D01*
X100049246Y-88832818D01*
X100445493Y-88754000D01*
X100849507Y-88754000D01*
X101245754Y-88832818D01*
G37*
G36*
X139345754Y-88832818D02*
G01*
X139719011Y-88987426D01*
X139719013Y-88987427D01*
X140054936Y-89211884D01*
X140340616Y-89497564D01*
X140537255Y-89791854D01*
X140565074Y-89833489D01*
X140719682Y-90206746D01*
X140798500Y-90602993D01*
X140798500Y-91007007D01*
X140719682Y-91403254D01*
X140580501Y-91739266D01*
X140565073Y-91776513D01*
X140340616Y-92112436D01*
X140054936Y-92398116D01*
X139719013Y-92622573D01*
X139719012Y-92622574D01*
X139719011Y-92622574D01*
X139345754Y-92777182D01*
X138949507Y-92856000D01*
X138545493Y-92856000D01*
X138149246Y-92777182D01*
X137775989Y-92622574D01*
X137775988Y-92622574D01*
X137775987Y-92622573D01*
X137440064Y-92398116D01*
X137154384Y-92112436D01*
X136929927Y-91776513D01*
X136914499Y-91739266D01*
X136775318Y-91403254D01*
X136696500Y-91007007D01*
X136696500Y-90602993D01*
X136775318Y-90206746D01*
X136929926Y-89833489D01*
X136957746Y-89791854D01*
X137154384Y-89497564D01*
X137440064Y-89211884D01*
X137775987Y-88987427D01*
X137775989Y-88987426D01*
X138149246Y-88832818D01*
X138545493Y-88754000D01*
X138949507Y-88754000D01*
X139345754Y-88832818D01*
G37*
G36*
X154212049Y-90311116D02*
G01*
X154323234Y-90333232D01*
X154532703Y-90419997D01*
X154721220Y-90545960D01*
X154881540Y-90706280D01*
X155007503Y-90894797D01*
X155094268Y-91104266D01*
X155138500Y-91326636D01*
X155138500Y-91553364D01*
X155094268Y-91775734D01*
X155007503Y-91985203D01*
X154881540Y-92173720D01*
X154721220Y-92334040D01*
X154532703Y-92460003D01*
X154323234Y-92546768D01*
X154212049Y-92568884D01*
X154100865Y-92591000D01*
X153874135Y-92591000D01*
X153762951Y-92568884D01*
X153651766Y-92546768D01*
X153442297Y-92460003D01*
X153253780Y-92334040D01*
X153093460Y-92173720D01*
X152967497Y-91985203D01*
X152880732Y-91775734D01*
X152836500Y-91553364D01*
X152836500Y-91326636D01*
X152880732Y-91104266D01*
X152967497Y-90894797D01*
X153093460Y-90706280D01*
X153253780Y-90545960D01*
X153442297Y-90419997D01*
X153651766Y-90333232D01*
X153762951Y-90311116D01*
X153874135Y-90289000D01*
X154100865Y-90289000D01*
X154212049Y-90311116D01*
G37*
G36*
X78012049Y-90311116D02*
G01*
X78123234Y-90333232D01*
X78332703Y-90419997D01*
X78521220Y-90545960D01*
X78681540Y-90706280D01*
X78807503Y-90894797D01*
X78894268Y-91104266D01*
X78938500Y-91326636D01*
X78938500Y-91553364D01*
X78894268Y-91775734D01*
X78807503Y-91985203D01*
X78681540Y-92173720D01*
X78521220Y-92334040D01*
X78332703Y-92460003D01*
X78123234Y-92546768D01*
X78012049Y-92568884D01*
X77900865Y-92591000D01*
X77674135Y-92591000D01*
X77562951Y-92568884D01*
X77451766Y-92546768D01*
X77242297Y-92460003D01*
X77053780Y-92334040D01*
X76893460Y-92173720D01*
X76767497Y-91985203D01*
X76680732Y-91775734D01*
X76636500Y-91553364D01*
X76636500Y-91326636D01*
X76680732Y-91104266D01*
X76767497Y-90894797D01*
X76893460Y-90706280D01*
X77053780Y-90545960D01*
X77242297Y-90419997D01*
X77451766Y-90333232D01*
X77562951Y-90311116D01*
X77674135Y-90289000D01*
X77900865Y-90289000D01*
X78012049Y-90311116D01*
G37*
G36*
X54358299Y-89993616D02*
G01*
X54469484Y-90015732D01*
X54678953Y-90102497D01*
X54867470Y-90228460D01*
X55027790Y-90388780D01*
X55153753Y-90577297D01*
X55211313Y-90716258D01*
X55240518Y-90786767D01*
X55284327Y-91007006D01*
X55284750Y-91009136D01*
X55284750Y-91235864D01*
X55240518Y-91458234D01*
X55153753Y-91667703D01*
X55027790Y-91856220D01*
X54867470Y-92016540D01*
X54678953Y-92142503D01*
X54469484Y-92229268D01*
X54358299Y-92251384D01*
X54247115Y-92273500D01*
X54020385Y-92273500D01*
X53909201Y-92251384D01*
X53798016Y-92229268D01*
X53588547Y-92142503D01*
X53400030Y-92016540D01*
X53239710Y-91856220D01*
X53113747Y-91667703D01*
X53026982Y-91458234D01*
X52982750Y-91235864D01*
X52982750Y-91009136D01*
X52983174Y-91007006D01*
X53026982Y-90786767D01*
X53056188Y-90716258D01*
X53113747Y-90577297D01*
X53239710Y-90388780D01*
X53400030Y-90228460D01*
X53588547Y-90102497D01*
X53798016Y-90015732D01*
X53909201Y-89993616D01*
X54020385Y-89971500D01*
X54247115Y-89971500D01*
X54358299Y-89993616D01*
G37*
G36*
X133781012Y-89908927D02*
G01*
X133930312Y-89938624D01*
X134094284Y-90006544D01*
X134241854Y-90105147D01*
X134367353Y-90230646D01*
X134465956Y-90378216D01*
X134533876Y-90542188D01*
X134568500Y-90716259D01*
X134568500Y-90893741D01*
X134533876Y-91067812D01*
X134465956Y-91231784D01*
X134367353Y-91379354D01*
X134241854Y-91504853D01*
X134094284Y-91603456D01*
X133930312Y-91671376D01*
X133781012Y-91701073D01*
X133756242Y-91706000D01*
X133578758Y-91706000D01*
X133553988Y-91701073D01*
X133404688Y-91671376D01*
X133240716Y-91603456D01*
X133093146Y-91504853D01*
X132967647Y-91379354D01*
X132869044Y-91231784D01*
X132801124Y-91067812D01*
X132766500Y-90893741D01*
X132766500Y-90716259D01*
X132801124Y-90542188D01*
X132869044Y-90378216D01*
X132967647Y-90230646D01*
X133093146Y-90105147D01*
X133240716Y-90006544D01*
X133404688Y-89938624D01*
X133553988Y-89908927D01*
X133578758Y-89904000D01*
X133756242Y-89904000D01*
X133781012Y-89908927D01*
G37*
G36*
X143941012Y-89908927D02*
G01*
X144090312Y-89938624D01*
X144254284Y-90006544D01*
X144401854Y-90105147D01*
X144527353Y-90230646D01*
X144625956Y-90378216D01*
X144693876Y-90542188D01*
X144728500Y-90716259D01*
X144728500Y-90893741D01*
X144693876Y-91067812D01*
X144625956Y-91231784D01*
X144527353Y-91379354D01*
X144401854Y-91504853D01*
X144254284Y-91603456D01*
X144090312Y-91671376D01*
X143941012Y-91701073D01*
X143916242Y-91706000D01*
X143738758Y-91706000D01*
X143713988Y-91701073D01*
X143564688Y-91671376D01*
X143400716Y-91603456D01*
X143253146Y-91504853D01*
X143127647Y-91379354D01*
X143029044Y-91231784D01*
X142961124Y-91067812D01*
X142926500Y-90893741D01*
X142926500Y-90716259D01*
X142961124Y-90542188D01*
X143029044Y-90378216D01*
X143127647Y-90230646D01*
X143253146Y-90105147D01*
X143400716Y-90006544D01*
X143564688Y-89938624D01*
X143713988Y-89908927D01*
X143738758Y-89904000D01*
X143916242Y-89904000D01*
X143941012Y-89908927D01*
G37*
G36*
X105841012Y-89908927D02*
G01*
X105990312Y-89938624D01*
X106154284Y-90006544D01*
X106301854Y-90105147D01*
X106427353Y-90230646D01*
X106525956Y-90378216D01*
X106593876Y-90542188D01*
X106628500Y-90716259D01*
X106628500Y-90893741D01*
X106593876Y-91067812D01*
X106525956Y-91231784D01*
X106427353Y-91379354D01*
X106301854Y-91504853D01*
X106154284Y-91603456D01*
X105990312Y-91671376D01*
X105841012Y-91701073D01*
X105816242Y-91706000D01*
X105638758Y-91706000D01*
X105613988Y-91701073D01*
X105464688Y-91671376D01*
X105300716Y-91603456D01*
X105153146Y-91504853D01*
X105027647Y-91379354D01*
X104929044Y-91231784D01*
X104861124Y-91067812D01*
X104826500Y-90893741D01*
X104826500Y-90716259D01*
X104861124Y-90542188D01*
X104929044Y-90378216D01*
X105027647Y-90230646D01*
X105153146Y-90105147D01*
X105300716Y-90006544D01*
X105464688Y-89938624D01*
X105613988Y-89908927D01*
X105638758Y-89904000D01*
X105816242Y-89904000D01*
X105841012Y-89908927D01*
G37*
G36*
X95681012Y-89908927D02*
G01*
X95830312Y-89938624D01*
X95994284Y-90006544D01*
X96141854Y-90105147D01*
X96267353Y-90230646D01*
X96365956Y-90378216D01*
X96433876Y-90542188D01*
X96468500Y-90716259D01*
X96468500Y-90893741D01*
X96433876Y-91067812D01*
X96365956Y-91231784D01*
X96267353Y-91379354D01*
X96141854Y-91504853D01*
X95994284Y-91603456D01*
X95830312Y-91671376D01*
X95681012Y-91701073D01*
X95656242Y-91706000D01*
X95478758Y-91706000D01*
X95453988Y-91701073D01*
X95304688Y-91671376D01*
X95140716Y-91603456D01*
X94993146Y-91504853D01*
X94867647Y-91379354D01*
X94769044Y-91231784D01*
X94701124Y-91067812D01*
X94666500Y-90893741D01*
X94666500Y-90716259D01*
X94701124Y-90542188D01*
X94769044Y-90378216D01*
X94867647Y-90230646D01*
X94993146Y-90105147D01*
X95140716Y-90006544D01*
X95304688Y-89938624D01*
X95453988Y-89908927D01*
X95478758Y-89904000D01*
X95656242Y-89904000D01*
X95681012Y-89908927D01*
G37*
G36*
X120295754Y-87245318D02*
G01*
X120669011Y-87399926D01*
X120669013Y-87399927D01*
X121004936Y-87624384D01*
X121290616Y-87910064D01*
X121452030Y-88151636D01*
X121515074Y-88245989D01*
X121669682Y-88619246D01*
X121748500Y-89015493D01*
X121748500Y-89419507D01*
X121669682Y-89815754D01*
X121515074Y-90189011D01*
X121515073Y-90189013D01*
X121290616Y-90524936D01*
X121004936Y-90810616D01*
X120669013Y-91035073D01*
X120669012Y-91035074D01*
X120669011Y-91035074D01*
X120295754Y-91189682D01*
X119899507Y-91268500D01*
X119495493Y-91268500D01*
X119099246Y-91189682D01*
X118725989Y-91035074D01*
X118725988Y-91035074D01*
X118725987Y-91035073D01*
X118390064Y-90810616D01*
X118104384Y-90524936D01*
X117879927Y-90189013D01*
X117879926Y-90189011D01*
X117725318Y-89815754D01*
X117646500Y-89419507D01*
X117646500Y-89015493D01*
X117725318Y-88619246D01*
X117879926Y-88245989D01*
X117942971Y-88151636D01*
X118104384Y-87910064D01*
X118390064Y-87624384D01*
X118725987Y-87399927D01*
X118725989Y-87399926D01*
X119099246Y-87245318D01*
X119495493Y-87166500D01*
X119899507Y-87166500D01*
X120295754Y-87245318D01*
G37*
G36*
X124891012Y-88321427D02*
G01*
X125040312Y-88351124D01*
X125204284Y-88419044D01*
X125351854Y-88517647D01*
X125477353Y-88643146D01*
X125575956Y-88790716D01*
X125643876Y-88954688D01*
X125678500Y-89128759D01*
X125678500Y-89306241D01*
X125643876Y-89480312D01*
X125575956Y-89644284D01*
X125477353Y-89791854D01*
X125351854Y-89917353D01*
X125204284Y-90015956D01*
X125040312Y-90083876D01*
X124891012Y-90113573D01*
X124866242Y-90118500D01*
X124688758Y-90118500D01*
X124663988Y-90113573D01*
X124514688Y-90083876D01*
X124350716Y-90015956D01*
X124203146Y-89917353D01*
X124077647Y-89791854D01*
X123979044Y-89644284D01*
X123911124Y-89480312D01*
X123876500Y-89306241D01*
X123876500Y-89128759D01*
X123911124Y-88954688D01*
X123979044Y-88790716D01*
X124077647Y-88643146D01*
X124203146Y-88517647D01*
X124350716Y-88419044D01*
X124514688Y-88351124D01*
X124663988Y-88321427D01*
X124688758Y-88316500D01*
X124866242Y-88316500D01*
X124891012Y-88321427D01*
G37*
G36*
X114731012Y-88321427D02*
G01*
X114880312Y-88351124D01*
X115044284Y-88419044D01*
X115191854Y-88517647D01*
X115317353Y-88643146D01*
X115415956Y-88790716D01*
X115483876Y-88954688D01*
X115518500Y-89128759D01*
X115518500Y-89306241D01*
X115483876Y-89480312D01*
X115415956Y-89644284D01*
X115317353Y-89791854D01*
X115191854Y-89917353D01*
X115044284Y-90015956D01*
X114880312Y-90083876D01*
X114731012Y-90113573D01*
X114706242Y-90118500D01*
X114528758Y-90118500D01*
X114503988Y-90113573D01*
X114354688Y-90083876D01*
X114190716Y-90015956D01*
X114043146Y-89917353D01*
X113917647Y-89791854D01*
X113819044Y-89644284D01*
X113751124Y-89480312D01*
X113716500Y-89306241D01*
X113716500Y-89128759D01*
X113751124Y-88954688D01*
X113819044Y-88790716D01*
X113917647Y-88643146D01*
X114043146Y-88517647D01*
X114190716Y-88419044D01*
X114354688Y-88351124D01*
X114503988Y-88321427D01*
X114528758Y-88316500D01*
X114706242Y-88316500D01*
X114731012Y-88321427D01*
G37*
G36*
X84362049Y-87771116D02*
G01*
X84473234Y-87793232D01*
X84682703Y-87879997D01*
X84871220Y-88005960D01*
X85031540Y-88166280D01*
X85157503Y-88354797D01*
X85224958Y-88517647D01*
X85244268Y-88564267D01*
X85288500Y-88786635D01*
X85288500Y-89013365D01*
X85266384Y-89124549D01*
X85244268Y-89235734D01*
X85157503Y-89445203D01*
X85031540Y-89633720D01*
X84871220Y-89794040D01*
X84682703Y-89920003D01*
X84473234Y-90006768D01*
X84362049Y-90028884D01*
X84250865Y-90051000D01*
X84024135Y-90051000D01*
X83912951Y-90028884D01*
X83801766Y-90006768D01*
X83592297Y-89920003D01*
X83403780Y-89794040D01*
X83243460Y-89633720D01*
X83117497Y-89445203D01*
X83030732Y-89235734D01*
X83008616Y-89124549D01*
X82986500Y-89013365D01*
X82986500Y-88786635D01*
X83030732Y-88564267D01*
X83050043Y-88517647D01*
X83117497Y-88354797D01*
X83243460Y-88166280D01*
X83403780Y-88005960D01*
X83592297Y-87879997D01*
X83801766Y-87793232D01*
X83912951Y-87771116D01*
X84024135Y-87749000D01*
X84250865Y-87749000D01*
X84362049Y-87771116D01*
G37*
G36*
X160562049Y-87771116D02*
G01*
X160673234Y-87793232D01*
X160882703Y-87879997D01*
X161071220Y-88005960D01*
X161231540Y-88166280D01*
X161357503Y-88354797D01*
X161424958Y-88517647D01*
X161444268Y-88564267D01*
X161488500Y-88786635D01*
X161488500Y-89013365D01*
X161466384Y-89124549D01*
X161444268Y-89235734D01*
X161357503Y-89445203D01*
X161231540Y-89633720D01*
X161071220Y-89794040D01*
X160882703Y-89920003D01*
X160673234Y-90006768D01*
X160562049Y-90028884D01*
X160450865Y-90051000D01*
X160224135Y-90051000D01*
X160112951Y-90028884D01*
X160001766Y-90006768D01*
X159792297Y-89920003D01*
X159603780Y-89794040D01*
X159443460Y-89633720D01*
X159317497Y-89445203D01*
X159230732Y-89235734D01*
X159208616Y-89124549D01*
X159186500Y-89013365D01*
X159186500Y-88786635D01*
X159230732Y-88564267D01*
X159250043Y-88517647D01*
X159317497Y-88354797D01*
X159443460Y-88166280D01*
X159603780Y-88005960D01*
X159792297Y-87879997D01*
X160001766Y-87793232D01*
X160112951Y-87771116D01*
X160224135Y-87749000D01*
X160450865Y-87749000D01*
X160562049Y-87771116D01*
G37*
G36*
X60708299Y-87453616D02*
G01*
X60819484Y-87475732D01*
X61028953Y-87562497D01*
X61217470Y-87688460D01*
X61377790Y-87848780D01*
X61503753Y-88037297D01*
X61590518Y-88246766D01*
X61634750Y-88469136D01*
X61634750Y-88695864D01*
X61590518Y-88918234D01*
X61503753Y-89127703D01*
X61377790Y-89316220D01*
X61217470Y-89476540D01*
X61028953Y-89602503D01*
X60819484Y-89689268D01*
X60708299Y-89711384D01*
X60597115Y-89733500D01*
X60370385Y-89733500D01*
X60259201Y-89711384D01*
X60148016Y-89689268D01*
X59938547Y-89602503D01*
X59750030Y-89476540D01*
X59589710Y-89316220D01*
X59463747Y-89127703D01*
X59376982Y-88918234D01*
X59332750Y-88695864D01*
X59332750Y-88469136D01*
X59376982Y-88246766D01*
X59463747Y-88037297D01*
X59589710Y-87848780D01*
X59750030Y-87688460D01*
X59938547Y-87562497D01*
X60148016Y-87475732D01*
X60259201Y-87453616D01*
X60370385Y-87431500D01*
X60597115Y-87431500D01*
X60708299Y-87453616D01*
G37*
G36*
X97062049Y-87136116D02*
G01*
X97173234Y-87158232D01*
X97382703Y-87244997D01*
X97571220Y-87370960D01*
X97731540Y-87531280D01*
X97857503Y-87719797D01*
X97944268Y-87929266D01*
X97988500Y-88151636D01*
X97988500Y-88378364D01*
X97944268Y-88600734D01*
X97857503Y-88810203D01*
X97731540Y-88998720D01*
X97571220Y-89159040D01*
X97382703Y-89285003D01*
X97173234Y-89371768D01*
X97062049Y-89393884D01*
X96950865Y-89416000D01*
X96724135Y-89416000D01*
X96612951Y-89393884D01*
X96501766Y-89371768D01*
X96292297Y-89285003D01*
X96103780Y-89159040D01*
X95943460Y-88998720D01*
X95817497Y-88810203D01*
X95730732Y-88600734D01*
X95686500Y-88378364D01*
X95686500Y-88151636D01*
X95730732Y-87929266D01*
X95817497Y-87719797D01*
X95943460Y-87531280D01*
X96103780Y-87370960D01*
X96292297Y-87244997D01*
X96501766Y-87158232D01*
X96612951Y-87136116D01*
X96724135Y-87114000D01*
X96950865Y-87114000D01*
X97062049Y-87136116D01*
G37*
G36*
X135162049Y-87136116D02*
G01*
X135273234Y-87158232D01*
X135482703Y-87244997D01*
X135671220Y-87370960D01*
X135831540Y-87531280D01*
X135957503Y-87719797D01*
X136044268Y-87929266D01*
X136088500Y-88151636D01*
X136088500Y-88378364D01*
X136044268Y-88600734D01*
X135957503Y-88810203D01*
X135831540Y-88998720D01*
X135671220Y-89159040D01*
X135482703Y-89285003D01*
X135273234Y-89371768D01*
X135162049Y-89393884D01*
X135050865Y-89416000D01*
X134824135Y-89416000D01*
X134712951Y-89393884D01*
X134601766Y-89371768D01*
X134392297Y-89285003D01*
X134203780Y-89159040D01*
X134043460Y-88998720D01*
X133917497Y-88810203D01*
X133830732Y-88600734D01*
X133786500Y-88378364D01*
X133786500Y-88151636D01*
X133830732Y-87929266D01*
X133917497Y-87719797D01*
X134043460Y-87531280D01*
X134203780Y-87370960D01*
X134392297Y-87244997D01*
X134601766Y-87158232D01*
X134712951Y-87136116D01*
X134824135Y-87114000D01*
X135050865Y-87114000D01*
X135162049Y-87136116D01*
G37*
G36*
X116112049Y-85548616D02*
G01*
X116223234Y-85570732D01*
X116432703Y-85657497D01*
X116621220Y-85783460D01*
X116781540Y-85943780D01*
X116907503Y-86132297D01*
X116994268Y-86341766D01*
X117038500Y-86564136D01*
X117038500Y-86790864D01*
X116994268Y-87013234D01*
X116907503Y-87222703D01*
X116781540Y-87411220D01*
X116621220Y-87571540D01*
X116432703Y-87697503D01*
X116223234Y-87784268D01*
X116112049Y-87806384D01*
X116000865Y-87828500D01*
X115774135Y-87828500D01*
X115662951Y-87806384D01*
X115551766Y-87784268D01*
X115342297Y-87697503D01*
X115153780Y-87571540D01*
X114993460Y-87411220D01*
X114867497Y-87222703D01*
X114780732Y-87013234D01*
X114736500Y-86790864D01*
X114736500Y-86564136D01*
X114780732Y-86341766D01*
X114867497Y-86132297D01*
X114993460Y-85943780D01*
X115153780Y-85783460D01*
X115342297Y-85657497D01*
X115551766Y-85570732D01*
X115662951Y-85548616D01*
X115774135Y-85526500D01*
X116000865Y-85526500D01*
X116112049Y-85548616D01*
G37*
G36*
X141512049Y-84596116D02*
G01*
X141623234Y-84618232D01*
X141832703Y-84704997D01*
X142021220Y-84830960D01*
X142181540Y-84991280D01*
X142307503Y-85179797D01*
X142394268Y-85389266D01*
X142438500Y-85611636D01*
X142438500Y-85838364D01*
X142394268Y-86060734D01*
X142307503Y-86270203D01*
X142181540Y-86458720D01*
X142021220Y-86619040D01*
X141832703Y-86745003D01*
X141623234Y-86831768D01*
X141512049Y-86853884D01*
X141400865Y-86876000D01*
X141174135Y-86876000D01*
X141062951Y-86853884D01*
X140951766Y-86831768D01*
X140742297Y-86745003D01*
X140553780Y-86619040D01*
X140393460Y-86458720D01*
X140267497Y-86270203D01*
X140180732Y-86060734D01*
X140136500Y-85838364D01*
X140136500Y-85611636D01*
X140180732Y-85389266D01*
X140267497Y-85179797D01*
X140393460Y-84991280D01*
X140553780Y-84830960D01*
X140742297Y-84704997D01*
X140951766Y-84618232D01*
X141062951Y-84596116D01*
X141174135Y-84574000D01*
X141400865Y-84574000D01*
X141512049Y-84596116D01*
G37*
G36*
X103412049Y-84596116D02*
G01*
X103523234Y-84618232D01*
X103732703Y-84704997D01*
X103921220Y-84830960D01*
X104081540Y-84991280D01*
X104207503Y-85179797D01*
X104294268Y-85389266D01*
X104338500Y-85611636D01*
X104338500Y-85838364D01*
X104294268Y-86060734D01*
X104207503Y-86270203D01*
X104081540Y-86458720D01*
X103921220Y-86619040D01*
X103732703Y-86745003D01*
X103523234Y-86831768D01*
X103412049Y-86853884D01*
X103300865Y-86876000D01*
X103074135Y-86876000D01*
X102962951Y-86853884D01*
X102851766Y-86831768D01*
X102642297Y-86745003D01*
X102453780Y-86619040D01*
X102293460Y-86458720D01*
X102167497Y-86270203D01*
X102080732Y-86060734D01*
X102036500Y-85838364D01*
X102036500Y-85611636D01*
X102080732Y-85389266D01*
X102167497Y-85179797D01*
X102293460Y-84991280D01*
X102453780Y-84830960D01*
X102642297Y-84704997D01*
X102851766Y-84618232D01*
X102962951Y-84596116D01*
X103074135Y-84574000D01*
X103300865Y-84574000D01*
X103412049Y-84596116D01*
G37*
G36*
X122462049Y-83008616D02*
G01*
X122573234Y-83030732D01*
X122782703Y-83117497D01*
X122971220Y-83243460D01*
X123131540Y-83403780D01*
X123257503Y-83592297D01*
X123344268Y-83801766D01*
X123388500Y-84024136D01*
X123388500Y-84250864D01*
X123344268Y-84473234D01*
X123257503Y-84682703D01*
X123131540Y-84871220D01*
X122971220Y-85031540D01*
X122782703Y-85157503D01*
X122573234Y-85244268D01*
X122462049Y-85266384D01*
X122350865Y-85288500D01*
X122124135Y-85288500D01*
X122012951Y-85266384D01*
X121901766Y-85244268D01*
X121692297Y-85157503D01*
X121503780Y-85031540D01*
X121343460Y-84871220D01*
X121217497Y-84682703D01*
X121130732Y-84473234D01*
X121086500Y-84250864D01*
X121086500Y-84024136D01*
X121130732Y-83801766D01*
X121217497Y-83592297D01*
X121343460Y-83403780D01*
X121503780Y-83243460D01*
X121692297Y-83117497D01*
X121901766Y-83030732D01*
X122012951Y-83008616D01*
X122124135Y-82986500D01*
X122350865Y-82986500D01*
X122462049Y-83008616D01*
G37*
G36*
X177445754Y-76132818D02*
G01*
X177698324Y-76237436D01*
X177819013Y-76287427D01*
X178154936Y-76511884D01*
X178440616Y-76797564D01*
X178665074Y-77133489D01*
X178819682Y-77506746D01*
X178898500Y-77902993D01*
X178898500Y-78307007D01*
X178819682Y-78703254D01*
X178675065Y-79052390D01*
X178665073Y-79076513D01*
X178440616Y-79412436D01*
X178154936Y-79698116D01*
X177819013Y-79922573D01*
X177819012Y-79922574D01*
X177819011Y-79922574D01*
X177445754Y-80077182D01*
X177049507Y-80156000D01*
X176645493Y-80156000D01*
X176249246Y-80077182D01*
X175875989Y-79922574D01*
X175875988Y-79922574D01*
X175875987Y-79922573D01*
X175540064Y-79698116D01*
X175254384Y-79412436D01*
X175029927Y-79076513D01*
X175019935Y-79052390D01*
X174875318Y-78703254D01*
X174796500Y-78307007D01*
X174796500Y-77902993D01*
X174875318Y-77506746D01*
X175029926Y-77133489D01*
X175254384Y-76797564D01*
X175540064Y-76511884D01*
X175875987Y-76287427D01*
X175996676Y-76237436D01*
X176249246Y-76132818D01*
X176645493Y-76054000D01*
X177049507Y-76054000D01*
X177445754Y-76132818D01*
G37*
G36*
X47039890Y-78236517D02*
G01*
X47158364Y-78285591D01*
X47264988Y-78356835D01*
X47355665Y-78447512D01*
X47411973Y-78531782D01*
X47426910Y-78554138D01*
X47475983Y-78672610D01*
X47501000Y-78798381D01*
X47501000Y-78926619D01*
X47492097Y-78971376D01*
X47475983Y-79052390D01*
X47426909Y-79170864D01*
X47355665Y-79277488D01*
X47264988Y-79368165D01*
X47158364Y-79439409D01*
X47158363Y-79439410D01*
X47158362Y-79439410D01*
X47039890Y-79488483D01*
X46914119Y-79513500D01*
X46785881Y-79513500D01*
X46660110Y-79488483D01*
X46541638Y-79439410D01*
X46541637Y-79439410D01*
X46541636Y-79439409D01*
X46435012Y-79368165D01*
X46344335Y-79277488D01*
X46273091Y-79170864D01*
X46224017Y-79052390D01*
X46207903Y-78971376D01*
X46199000Y-78926619D01*
X46199000Y-78798381D01*
X46224017Y-78672610D01*
X46273090Y-78554138D01*
X46288028Y-78531782D01*
X46344335Y-78447512D01*
X46435012Y-78356835D01*
X46541636Y-78285591D01*
X46660110Y-78236517D01*
X46785881Y-78211500D01*
X46914119Y-78211500D01*
X47039890Y-78236517D01*
G37*
G36*
X54039890Y-78236517D02*
G01*
X54158364Y-78285591D01*
X54264988Y-78356835D01*
X54355665Y-78447512D01*
X54411973Y-78531782D01*
X54426910Y-78554138D01*
X54475983Y-78672610D01*
X54501000Y-78798381D01*
X54501000Y-78926619D01*
X54492097Y-78971376D01*
X54475983Y-79052390D01*
X54426909Y-79170864D01*
X54355665Y-79277488D01*
X54264988Y-79368165D01*
X54158364Y-79439409D01*
X54158363Y-79439410D01*
X54158362Y-79439410D01*
X54039890Y-79488483D01*
X53914119Y-79513500D01*
X53785881Y-79513500D01*
X53660110Y-79488483D01*
X53541638Y-79439410D01*
X53541637Y-79439410D01*
X53541636Y-79439409D01*
X53435012Y-79368165D01*
X53344335Y-79277488D01*
X53273091Y-79170864D01*
X53224017Y-79052390D01*
X53207903Y-78971376D01*
X53199000Y-78926619D01*
X53199000Y-78798381D01*
X53224017Y-78672610D01*
X53273090Y-78554138D01*
X53288028Y-78531782D01*
X53344335Y-78447512D01*
X53435012Y-78356835D01*
X53541636Y-78285591D01*
X53660110Y-78236517D01*
X53785881Y-78211500D01*
X53914119Y-78211500D01*
X54039890Y-78236517D01*
G37*
G36*
X171881012Y-77208927D02*
G01*
X172030312Y-77238624D01*
X172194284Y-77306544D01*
X172341854Y-77405147D01*
X172467353Y-77530646D01*
X172565956Y-77678216D01*
X172633876Y-77842188D01*
X172668500Y-78016259D01*
X172668500Y-78193741D01*
X172633876Y-78367812D01*
X172565956Y-78531784D01*
X172467353Y-78679354D01*
X172341854Y-78804853D01*
X172194284Y-78903456D01*
X172030312Y-78971376D01*
X171881012Y-79001073D01*
X171856242Y-79006000D01*
X171678758Y-79006000D01*
X171653988Y-79001073D01*
X171504688Y-78971376D01*
X171340716Y-78903456D01*
X171193146Y-78804853D01*
X171067647Y-78679354D01*
X170969044Y-78531784D01*
X170901124Y-78367812D01*
X170866500Y-78193741D01*
X170866500Y-78016259D01*
X170901124Y-77842188D01*
X170969044Y-77678216D01*
X171067647Y-77530646D01*
X171193146Y-77405147D01*
X171340716Y-77306544D01*
X171504688Y-77238624D01*
X171653988Y-77208927D01*
X171678758Y-77204000D01*
X171856242Y-77204000D01*
X171881012Y-77208927D01*
G37*
G36*
X182041012Y-77208927D02*
G01*
X182190312Y-77238624D01*
X182354284Y-77306544D01*
X182501854Y-77405147D01*
X182627353Y-77530646D01*
X182725956Y-77678216D01*
X182793876Y-77842188D01*
X182828500Y-78016259D01*
X182828500Y-78193741D01*
X182793876Y-78367812D01*
X182725956Y-78531784D01*
X182627353Y-78679354D01*
X182501854Y-78804853D01*
X182354284Y-78903456D01*
X182190312Y-78971376D01*
X182041012Y-79001073D01*
X182016242Y-79006000D01*
X181838758Y-79006000D01*
X181813988Y-79001073D01*
X181664688Y-78971376D01*
X181500716Y-78903456D01*
X181353146Y-78804853D01*
X181227647Y-78679354D01*
X181129044Y-78531784D01*
X181061124Y-78367812D01*
X181026500Y-78193741D01*
X181026500Y-78016259D01*
X181061124Y-77842188D01*
X181129044Y-77678216D01*
X181227647Y-77530646D01*
X181353146Y-77405147D01*
X181500716Y-77306544D01*
X181664688Y-77238624D01*
X181813988Y-77208927D01*
X181838758Y-77204000D01*
X182016242Y-77204000D01*
X182041012Y-77208927D01*
G37*
G36*
X158395754Y-72957818D02*
G01*
X158648324Y-73062436D01*
X158769013Y-73112427D01*
X159104936Y-73336884D01*
X159390616Y-73622564D01*
X159615074Y-73958489D01*
X159769682Y-74331746D01*
X159848500Y-74727993D01*
X159848500Y-75132007D01*
X159769682Y-75528254D01*
X159615396Y-75900733D01*
X159615073Y-75901513D01*
X159390616Y-76237436D01*
X159104936Y-76523116D01*
X158769013Y-76747573D01*
X158769012Y-76747574D01*
X158769011Y-76747574D01*
X158395754Y-76902182D01*
X157999507Y-76981000D01*
X157595493Y-76981000D01*
X157199246Y-76902182D01*
X156825989Y-76747574D01*
X156825988Y-76747574D01*
X156825987Y-76747573D01*
X156490064Y-76523116D01*
X156204384Y-76237436D01*
X155979927Y-75901513D01*
X155979604Y-75900733D01*
X155825318Y-75528254D01*
X155746500Y-75132007D01*
X155746500Y-74727993D01*
X155825318Y-74331746D01*
X155979926Y-73958489D01*
X156204384Y-73622564D01*
X156490064Y-73336884D01*
X156825987Y-73112427D01*
X156946676Y-73062436D01*
X157199246Y-72957818D01*
X157595493Y-72879000D01*
X157999507Y-72879000D01*
X158395754Y-72957818D01*
G37*
G36*
X82195754Y-72957818D02*
G01*
X82448324Y-73062436D01*
X82569013Y-73112427D01*
X82904936Y-73336884D01*
X83190616Y-73622564D01*
X83415074Y-73958489D01*
X83569682Y-74331746D01*
X83648500Y-74727993D01*
X83648500Y-75132007D01*
X83569682Y-75528254D01*
X83415396Y-75900733D01*
X83415073Y-75901513D01*
X83190616Y-76237436D01*
X82904936Y-76523116D01*
X82569013Y-76747573D01*
X82569012Y-76747574D01*
X82569011Y-76747574D01*
X82195754Y-76902182D01*
X81799507Y-76981000D01*
X81395493Y-76981000D01*
X80999246Y-76902182D01*
X80625989Y-76747574D01*
X80625988Y-76747574D01*
X80625987Y-76747573D01*
X80290064Y-76523116D01*
X80004384Y-76237436D01*
X79779927Y-75901513D01*
X79779604Y-75900733D01*
X79625318Y-75528254D01*
X79546500Y-75132007D01*
X79546500Y-74727993D01*
X79625318Y-74331746D01*
X79779926Y-73958489D01*
X80004384Y-73622564D01*
X80290064Y-73336884D01*
X80625987Y-73112427D01*
X80746676Y-73062436D01*
X80999246Y-72957818D01*
X81395493Y-72879000D01*
X81799507Y-72879000D01*
X82195754Y-72957818D01*
G37*
G36*
X173262049Y-74436116D02*
G01*
X173373234Y-74458232D01*
X173582703Y-74544997D01*
X173771220Y-74670960D01*
X173931540Y-74831280D01*
X174057503Y-75019797D01*
X174144268Y-75229266D01*
X174188500Y-75451636D01*
X174188500Y-75678364D01*
X174144268Y-75900734D01*
X174057503Y-76110203D01*
X173931540Y-76298720D01*
X173771220Y-76459040D01*
X173582703Y-76585003D01*
X173373234Y-76671768D01*
X173262049Y-76693884D01*
X173150865Y-76716000D01*
X172924135Y-76716000D01*
X172812951Y-76693884D01*
X172701766Y-76671768D01*
X172492297Y-76585003D01*
X172303780Y-76459040D01*
X172143460Y-76298720D01*
X172017497Y-76110203D01*
X171930732Y-75900734D01*
X171886500Y-75678364D01*
X171886500Y-75451636D01*
X171930732Y-75229266D01*
X172017497Y-75019797D01*
X172143460Y-74831280D01*
X172303780Y-74670960D01*
X172492297Y-74544997D01*
X172701766Y-74458232D01*
X172812951Y-74436116D01*
X172924135Y-74414000D01*
X173150865Y-74414000D01*
X173262049Y-74436116D01*
G37*
G36*
X162991012Y-74033927D02*
G01*
X163140312Y-74063624D01*
X163304284Y-74131544D01*
X163451854Y-74230147D01*
X163577353Y-74355646D01*
X163675956Y-74503216D01*
X163743876Y-74667188D01*
X163778500Y-74841259D01*
X163778500Y-75018741D01*
X163743876Y-75192812D01*
X163675956Y-75356784D01*
X163577353Y-75504354D01*
X163451854Y-75629853D01*
X163304284Y-75728456D01*
X163140312Y-75796376D01*
X162991012Y-75826073D01*
X162966242Y-75831000D01*
X162788758Y-75831000D01*
X162763988Y-75826073D01*
X162614688Y-75796376D01*
X162450716Y-75728456D01*
X162303146Y-75629853D01*
X162177647Y-75504354D01*
X162079044Y-75356784D01*
X162011124Y-75192812D01*
X161976500Y-75018741D01*
X161976500Y-74841259D01*
X162011124Y-74667188D01*
X162079044Y-74503216D01*
X162177647Y-74355646D01*
X162303146Y-74230147D01*
X162450716Y-74131544D01*
X162614688Y-74063624D01*
X162763988Y-74033927D01*
X162788758Y-74029000D01*
X162966242Y-74029000D01*
X162991012Y-74033927D01*
G37*
G36*
X152831012Y-74033927D02*
G01*
X152980312Y-74063624D01*
X153144284Y-74131544D01*
X153291854Y-74230147D01*
X153417353Y-74355646D01*
X153515956Y-74503216D01*
X153583876Y-74667188D01*
X153618500Y-74841259D01*
X153618500Y-75018741D01*
X153583876Y-75192812D01*
X153515956Y-75356784D01*
X153417353Y-75504354D01*
X153291854Y-75629853D01*
X153144284Y-75728456D01*
X152980312Y-75796376D01*
X152831012Y-75826073D01*
X152806242Y-75831000D01*
X152628758Y-75831000D01*
X152603988Y-75826073D01*
X152454688Y-75796376D01*
X152290716Y-75728456D01*
X152143146Y-75629853D01*
X152017647Y-75504354D01*
X151919044Y-75356784D01*
X151851124Y-75192812D01*
X151816500Y-75018741D01*
X151816500Y-74841259D01*
X151851124Y-74667188D01*
X151919044Y-74503216D01*
X152017647Y-74355646D01*
X152143146Y-74230147D01*
X152290716Y-74131544D01*
X152454688Y-74063624D01*
X152603988Y-74033927D01*
X152628758Y-74029000D01*
X152806242Y-74029000D01*
X152831012Y-74033927D01*
G37*
G36*
X86791012Y-74033927D02*
G01*
X86940312Y-74063624D01*
X87104284Y-74131544D01*
X87251854Y-74230147D01*
X87377353Y-74355646D01*
X87475956Y-74503216D01*
X87543876Y-74667188D01*
X87578500Y-74841259D01*
X87578500Y-75018741D01*
X87543876Y-75192812D01*
X87475956Y-75356784D01*
X87377353Y-75504354D01*
X87251854Y-75629853D01*
X87104284Y-75728456D01*
X86940312Y-75796376D01*
X86791012Y-75826073D01*
X86766242Y-75831000D01*
X86588758Y-75831000D01*
X86563988Y-75826073D01*
X86414688Y-75796376D01*
X86250716Y-75728456D01*
X86103146Y-75629853D01*
X85977647Y-75504354D01*
X85879044Y-75356784D01*
X85811124Y-75192812D01*
X85776500Y-75018741D01*
X85776500Y-74841259D01*
X85811124Y-74667188D01*
X85879044Y-74503216D01*
X85977647Y-74355646D01*
X86103146Y-74230147D01*
X86250716Y-74131544D01*
X86414688Y-74063624D01*
X86563988Y-74033927D01*
X86588758Y-74029000D01*
X86766242Y-74029000D01*
X86791012Y-74033927D01*
G37*
G36*
X76631012Y-74033927D02*
G01*
X76780312Y-74063624D01*
X76944284Y-74131544D01*
X77091854Y-74230147D01*
X77217353Y-74355646D01*
X77315956Y-74503216D01*
X77383876Y-74667188D01*
X77418500Y-74841259D01*
X77418500Y-75018741D01*
X77383876Y-75192812D01*
X77315956Y-75356784D01*
X77217353Y-75504354D01*
X77091854Y-75629853D01*
X76944284Y-75728456D01*
X76780312Y-75796376D01*
X76631012Y-75826073D01*
X76606242Y-75831000D01*
X76428758Y-75831000D01*
X76403988Y-75826073D01*
X76254688Y-75796376D01*
X76090716Y-75728456D01*
X75943146Y-75629853D01*
X75817647Y-75504354D01*
X75719044Y-75356784D01*
X75651124Y-75192812D01*
X75616500Y-75018741D01*
X75616500Y-74841259D01*
X75651124Y-74667188D01*
X75719044Y-74503216D01*
X75817647Y-74355646D01*
X75943146Y-74230147D01*
X76090716Y-74131544D01*
X76254688Y-74063624D01*
X76403988Y-74033927D01*
X76428758Y-74029000D01*
X76606242Y-74029000D01*
X76631012Y-74033927D01*
G37*
G36*
X179612049Y-71896116D02*
G01*
X179723234Y-71918232D01*
X179932703Y-72004997D01*
X180121220Y-72130960D01*
X180281540Y-72291280D01*
X180407503Y-72479797D01*
X180494268Y-72689266D01*
X180538500Y-72911636D01*
X180538500Y-73138364D01*
X180494268Y-73360734D01*
X180407503Y-73570203D01*
X180281540Y-73758720D01*
X180121220Y-73919040D01*
X179932703Y-74045003D01*
X179723234Y-74131768D01*
X179612049Y-74153884D01*
X179500865Y-74176000D01*
X179274135Y-74176000D01*
X179162951Y-74153884D01*
X179051766Y-74131768D01*
X178842297Y-74045003D01*
X178653780Y-73919040D01*
X178493460Y-73758720D01*
X178367497Y-73570203D01*
X178280732Y-73360734D01*
X178236500Y-73138364D01*
X178236500Y-72911636D01*
X178280732Y-72689266D01*
X178367497Y-72479797D01*
X178493460Y-72291280D01*
X178653780Y-72130960D01*
X178842297Y-72004997D01*
X179051766Y-71918232D01*
X179162951Y-71896116D01*
X179274135Y-71874000D01*
X179500865Y-71874000D01*
X179612049Y-71896116D01*
G37*
G36*
X139345754Y-69782818D02*
G01*
X139719011Y-69937426D01*
X139719013Y-69937427D01*
X140054936Y-70161884D01*
X140340616Y-70447564D01*
X140537255Y-70741854D01*
X140565074Y-70783489D01*
X140719682Y-71156746D01*
X140798500Y-71552993D01*
X140798500Y-71957007D01*
X140719682Y-72353254D01*
X140580501Y-72689266D01*
X140565073Y-72726513D01*
X140340616Y-73062436D01*
X140054936Y-73348116D01*
X139719013Y-73572573D01*
X139719012Y-73572574D01*
X139719011Y-73572574D01*
X139345754Y-73727182D01*
X138949507Y-73806000D01*
X138545493Y-73806000D01*
X138149246Y-73727182D01*
X137775989Y-73572574D01*
X137775988Y-73572574D01*
X137775987Y-73572573D01*
X137440064Y-73348116D01*
X137154384Y-73062436D01*
X136929927Y-72726513D01*
X136914499Y-72689266D01*
X136775318Y-72353254D01*
X136696500Y-71957007D01*
X136696500Y-71552993D01*
X136775318Y-71156746D01*
X136929926Y-70783489D01*
X136957746Y-70741854D01*
X137154384Y-70447564D01*
X137440064Y-70161884D01*
X137775987Y-69937427D01*
X137775989Y-69937426D01*
X138149246Y-69782818D01*
X138545493Y-69704000D01*
X138949507Y-69704000D01*
X139345754Y-69782818D01*
G37*
G36*
X101245754Y-69782818D02*
G01*
X101619011Y-69937426D01*
X101619013Y-69937427D01*
X101954936Y-70161884D01*
X102240616Y-70447564D01*
X102437255Y-70741854D01*
X102465074Y-70783489D01*
X102619682Y-71156746D01*
X102698500Y-71552993D01*
X102698500Y-71957007D01*
X102619682Y-72353254D01*
X102480501Y-72689266D01*
X102465073Y-72726513D01*
X102240616Y-73062436D01*
X101954936Y-73348116D01*
X101619013Y-73572573D01*
X101619012Y-73572574D01*
X101619011Y-73572574D01*
X101245754Y-73727182D01*
X100849507Y-73806000D01*
X100445493Y-73806000D01*
X100049246Y-73727182D01*
X99675989Y-73572574D01*
X99675988Y-73572574D01*
X99675987Y-73572573D01*
X99340064Y-73348116D01*
X99054384Y-73062436D01*
X98829927Y-72726513D01*
X98814499Y-72689266D01*
X98675318Y-72353254D01*
X98596500Y-71957007D01*
X98596500Y-71552993D01*
X98675318Y-71156746D01*
X98829926Y-70783489D01*
X98857746Y-70741854D01*
X99054384Y-70447564D01*
X99340064Y-70161884D01*
X99675987Y-69937427D01*
X99675989Y-69937426D01*
X100049246Y-69782818D01*
X100445493Y-69704000D01*
X100849507Y-69704000D01*
X101245754Y-69782818D01*
G37*
G36*
X78012049Y-71261116D02*
G01*
X78123234Y-71283232D01*
X78332703Y-71369997D01*
X78521220Y-71495960D01*
X78681540Y-71656280D01*
X78807503Y-71844797D01*
X78894268Y-72054266D01*
X78938500Y-72276636D01*
X78938500Y-72503364D01*
X78894268Y-72725734D01*
X78807503Y-72935203D01*
X78681540Y-73123720D01*
X78521220Y-73284040D01*
X78332703Y-73410003D01*
X78123234Y-73496768D01*
X78012049Y-73518884D01*
X77900865Y-73541000D01*
X77674135Y-73541000D01*
X77562951Y-73518884D01*
X77451766Y-73496768D01*
X77242297Y-73410003D01*
X77053780Y-73284040D01*
X76893460Y-73123720D01*
X76767497Y-72935203D01*
X76680732Y-72725734D01*
X76636500Y-72503364D01*
X76636500Y-72276636D01*
X76680732Y-72054266D01*
X76767497Y-71844797D01*
X76893460Y-71656280D01*
X77053780Y-71495960D01*
X77242297Y-71369997D01*
X77451766Y-71283232D01*
X77562951Y-71261116D01*
X77674135Y-71239000D01*
X77900865Y-71239000D01*
X78012049Y-71261116D01*
G37*
G36*
X154212049Y-71261116D02*
G01*
X154323234Y-71283232D01*
X154532703Y-71369997D01*
X154721220Y-71495960D01*
X154881540Y-71656280D01*
X155007503Y-71844797D01*
X155094268Y-72054266D01*
X155138500Y-72276636D01*
X155138500Y-72503364D01*
X155094268Y-72725734D01*
X155007503Y-72935203D01*
X154881540Y-73123720D01*
X154721220Y-73284040D01*
X154532703Y-73410003D01*
X154323234Y-73496768D01*
X154212049Y-73518884D01*
X154100865Y-73541000D01*
X153874135Y-73541000D01*
X153762951Y-73518884D01*
X153651766Y-73496768D01*
X153442297Y-73410003D01*
X153253780Y-73284040D01*
X153093460Y-73123720D01*
X152967497Y-72935203D01*
X152880732Y-72725734D01*
X152836500Y-72503364D01*
X152836500Y-72276636D01*
X152880732Y-72054266D01*
X152967497Y-71844797D01*
X153093460Y-71656280D01*
X153253780Y-71495960D01*
X153442297Y-71369997D01*
X153651766Y-71283232D01*
X153762951Y-71261116D01*
X153874135Y-71239000D01*
X154100865Y-71239000D01*
X154212049Y-71261116D01*
G37*
G36*
X143941012Y-70858927D02*
G01*
X144090312Y-70888624D01*
X144254284Y-70956544D01*
X144401854Y-71055147D01*
X144527353Y-71180646D01*
X144625956Y-71328216D01*
X144693876Y-71492188D01*
X144728500Y-71666259D01*
X144728500Y-71843741D01*
X144693876Y-72017812D01*
X144625956Y-72181784D01*
X144527353Y-72329354D01*
X144401854Y-72454853D01*
X144254284Y-72553456D01*
X144090312Y-72621376D01*
X143941012Y-72651073D01*
X143916242Y-72656000D01*
X143738758Y-72656000D01*
X143713988Y-72651073D01*
X143564688Y-72621376D01*
X143400716Y-72553456D01*
X143253146Y-72454853D01*
X143127647Y-72329354D01*
X143029044Y-72181784D01*
X142961124Y-72017812D01*
X142926500Y-71843741D01*
X142926500Y-71666259D01*
X142961124Y-71492188D01*
X143029044Y-71328216D01*
X143127647Y-71180646D01*
X143253146Y-71055147D01*
X143400716Y-70956544D01*
X143564688Y-70888624D01*
X143713988Y-70858927D01*
X143738758Y-70854000D01*
X143916242Y-70854000D01*
X143941012Y-70858927D01*
G37*
G36*
X95681012Y-70858927D02*
G01*
X95830312Y-70888624D01*
X95994284Y-70956544D01*
X96141854Y-71055147D01*
X96267353Y-71180646D01*
X96365956Y-71328216D01*
X96433876Y-71492188D01*
X96468500Y-71666259D01*
X96468500Y-71843741D01*
X96433876Y-72017812D01*
X96365956Y-72181784D01*
X96267353Y-72329354D01*
X96141854Y-72454853D01*
X95994284Y-72553456D01*
X95830312Y-72621376D01*
X95681012Y-72651073D01*
X95656242Y-72656000D01*
X95478758Y-72656000D01*
X95453988Y-72651073D01*
X95304688Y-72621376D01*
X95140716Y-72553456D01*
X94993146Y-72454853D01*
X94867647Y-72329354D01*
X94769044Y-72181784D01*
X94701124Y-72017812D01*
X94666500Y-71843741D01*
X94666500Y-71666259D01*
X94701124Y-71492188D01*
X94769044Y-71328216D01*
X94867647Y-71180646D01*
X94993146Y-71055147D01*
X95140716Y-70956544D01*
X95304688Y-70888624D01*
X95453988Y-70858927D01*
X95478758Y-70854000D01*
X95656242Y-70854000D01*
X95681012Y-70858927D01*
G37*
G36*
X133781012Y-70858927D02*
G01*
X133930312Y-70888624D01*
X134094284Y-70956544D01*
X134241854Y-71055147D01*
X134367353Y-71180646D01*
X134465956Y-71328216D01*
X134533876Y-71492188D01*
X134568500Y-71666259D01*
X134568500Y-71843741D01*
X134533876Y-72017812D01*
X134465956Y-72181784D01*
X134367353Y-72329354D01*
X134241854Y-72454853D01*
X134094284Y-72553456D01*
X133930312Y-72621376D01*
X133781012Y-72651073D01*
X133756242Y-72656000D01*
X133578758Y-72656000D01*
X133553988Y-72651073D01*
X133404688Y-72621376D01*
X133240716Y-72553456D01*
X133093146Y-72454853D01*
X132967647Y-72329354D01*
X132869044Y-72181784D01*
X132801124Y-72017812D01*
X132766500Y-71843741D01*
X132766500Y-71666259D01*
X132801124Y-71492188D01*
X132869044Y-71328216D01*
X132967647Y-71180646D01*
X133093146Y-71055147D01*
X133240716Y-70956544D01*
X133404688Y-70888624D01*
X133553988Y-70858927D01*
X133578758Y-70854000D01*
X133756242Y-70854000D01*
X133781012Y-70858927D01*
G37*
G36*
X105841012Y-70858927D02*
G01*
X105990312Y-70888624D01*
X106154284Y-70956544D01*
X106301854Y-71055147D01*
X106427353Y-71180646D01*
X106525956Y-71328216D01*
X106593876Y-71492188D01*
X106628500Y-71666259D01*
X106628500Y-71843741D01*
X106593876Y-72017812D01*
X106525956Y-72181784D01*
X106427353Y-72329354D01*
X106301854Y-72454853D01*
X106154284Y-72553456D01*
X105990312Y-72621376D01*
X105841012Y-72651073D01*
X105816242Y-72656000D01*
X105638758Y-72656000D01*
X105613988Y-72651073D01*
X105464688Y-72621376D01*
X105300716Y-72553456D01*
X105153146Y-72454853D01*
X105027647Y-72329354D01*
X104929044Y-72181784D01*
X104861124Y-72017812D01*
X104826500Y-71843741D01*
X104826500Y-71666259D01*
X104861124Y-71492188D01*
X104929044Y-71328216D01*
X105027647Y-71180646D01*
X105153146Y-71055147D01*
X105300716Y-70956544D01*
X105464688Y-70888624D01*
X105613988Y-70858927D01*
X105638758Y-70854000D01*
X105816242Y-70854000D01*
X105841012Y-70858927D01*
G37*
G36*
X120295754Y-68195318D02*
G01*
X120669011Y-68349926D01*
X120669013Y-68349927D01*
X121004936Y-68574384D01*
X121290616Y-68860064D01*
X121452030Y-69101636D01*
X121515074Y-69195989D01*
X121669682Y-69569246D01*
X121748500Y-69965493D01*
X121748500Y-70369507D01*
X121669682Y-70765754D01*
X121515074Y-71139011D01*
X121515073Y-71139013D01*
X121290616Y-71474936D01*
X121004936Y-71760616D01*
X120669013Y-71985073D01*
X120669012Y-71985074D01*
X120669011Y-71985074D01*
X120295754Y-72139682D01*
X119899507Y-72218500D01*
X119495493Y-72218500D01*
X119099246Y-72139682D01*
X118725989Y-71985074D01*
X118725988Y-71985074D01*
X118725987Y-71985073D01*
X118390064Y-71760616D01*
X118104384Y-71474936D01*
X117879927Y-71139013D01*
X117879926Y-71139011D01*
X117725318Y-70765754D01*
X117646500Y-70369507D01*
X117646500Y-69965493D01*
X117725318Y-69569246D01*
X117879926Y-69195989D01*
X117942971Y-69101636D01*
X118104384Y-68860064D01*
X118390064Y-68574384D01*
X118725987Y-68349927D01*
X118725989Y-68349926D01*
X119099246Y-68195318D01*
X119495493Y-68116500D01*
X119899507Y-68116500D01*
X120295754Y-68195318D01*
G37*
G36*
X114731012Y-69271427D02*
G01*
X114880312Y-69301124D01*
X115044284Y-69369044D01*
X115191854Y-69467647D01*
X115317353Y-69593146D01*
X115415956Y-69740716D01*
X115483876Y-69904688D01*
X115518500Y-70078759D01*
X115518500Y-70256241D01*
X115483876Y-70430312D01*
X115415956Y-70594284D01*
X115317353Y-70741854D01*
X115191854Y-70867353D01*
X115044284Y-70965956D01*
X114880312Y-71033876D01*
X114731012Y-71063573D01*
X114706242Y-71068500D01*
X114528758Y-71068500D01*
X114503988Y-71063573D01*
X114354688Y-71033876D01*
X114190716Y-70965956D01*
X114043146Y-70867353D01*
X113917647Y-70741854D01*
X113819044Y-70594284D01*
X113751124Y-70430312D01*
X113716500Y-70256241D01*
X113716500Y-70078759D01*
X113751124Y-69904688D01*
X113819044Y-69740716D01*
X113917647Y-69593146D01*
X114043146Y-69467647D01*
X114190716Y-69369044D01*
X114354688Y-69301124D01*
X114503988Y-69271427D01*
X114528758Y-69266500D01*
X114706242Y-69266500D01*
X114731012Y-69271427D01*
G37*
G36*
X124891012Y-69271427D02*
G01*
X125040312Y-69301124D01*
X125204284Y-69369044D01*
X125351854Y-69467647D01*
X125477353Y-69593146D01*
X125575956Y-69740716D01*
X125643876Y-69904688D01*
X125678500Y-70078759D01*
X125678500Y-70256241D01*
X125643876Y-70430312D01*
X125575956Y-70594284D01*
X125477353Y-70741854D01*
X125351854Y-70867353D01*
X125204284Y-70965956D01*
X125040312Y-71033876D01*
X124891012Y-71063573D01*
X124866242Y-71068500D01*
X124688758Y-71068500D01*
X124663988Y-71063573D01*
X124514688Y-71033876D01*
X124350716Y-70965956D01*
X124203146Y-70867353D01*
X124077647Y-70741854D01*
X123979044Y-70594284D01*
X123911124Y-70430312D01*
X123876500Y-70256241D01*
X123876500Y-70078759D01*
X123911124Y-69904688D01*
X123979044Y-69740716D01*
X124077647Y-69593146D01*
X124203146Y-69467647D01*
X124350716Y-69369044D01*
X124514688Y-69301124D01*
X124663988Y-69271427D01*
X124688758Y-69266500D01*
X124866242Y-69266500D01*
X124891012Y-69271427D01*
G37*
G36*
X84362049Y-68721116D02*
G01*
X84473234Y-68743232D01*
X84682703Y-68829997D01*
X84871220Y-68955960D01*
X85031540Y-69116280D01*
X85157503Y-69304797D01*
X85224958Y-69467647D01*
X85244268Y-69514267D01*
X85288500Y-69736635D01*
X85288500Y-69963365D01*
X85266384Y-70074549D01*
X85244268Y-70185734D01*
X85157503Y-70395203D01*
X85031540Y-70583720D01*
X84871220Y-70744040D01*
X84682703Y-70870003D01*
X84473234Y-70956768D01*
X84362049Y-70978884D01*
X84250865Y-71001000D01*
X84024135Y-71001000D01*
X83912951Y-70978884D01*
X83801766Y-70956768D01*
X83592297Y-70870003D01*
X83403780Y-70744040D01*
X83243460Y-70583720D01*
X83117497Y-70395203D01*
X83030732Y-70185734D01*
X83008616Y-70074549D01*
X82986500Y-69963365D01*
X82986500Y-69736635D01*
X83030732Y-69514267D01*
X83050043Y-69467647D01*
X83117497Y-69304797D01*
X83243460Y-69116280D01*
X83403780Y-68955960D01*
X83592297Y-68829997D01*
X83801766Y-68743232D01*
X83912951Y-68721116D01*
X84024135Y-68699000D01*
X84250865Y-68699000D01*
X84362049Y-68721116D01*
G37*
G36*
X160562049Y-68721116D02*
G01*
X160673234Y-68743232D01*
X160882703Y-68829997D01*
X161071220Y-68955960D01*
X161231540Y-69116280D01*
X161357503Y-69304797D01*
X161424958Y-69467647D01*
X161444268Y-69514267D01*
X161488500Y-69736635D01*
X161488500Y-69963365D01*
X161466384Y-70074549D01*
X161444268Y-70185734D01*
X161357503Y-70395203D01*
X161231540Y-70583720D01*
X161071220Y-70744040D01*
X160882703Y-70870003D01*
X160673234Y-70956768D01*
X160562049Y-70978884D01*
X160450865Y-71001000D01*
X160224135Y-71001000D01*
X160112951Y-70978884D01*
X160001766Y-70956768D01*
X159792297Y-70870003D01*
X159603780Y-70744040D01*
X159443460Y-70583720D01*
X159317497Y-70395203D01*
X159230732Y-70185734D01*
X159208616Y-70074549D01*
X159186500Y-69963365D01*
X159186500Y-69736635D01*
X159230732Y-69514267D01*
X159250043Y-69467647D01*
X159317497Y-69304797D01*
X159443460Y-69116280D01*
X159603780Y-68955960D01*
X159792297Y-68829997D01*
X160001766Y-68743232D01*
X160112951Y-68721116D01*
X160224135Y-68699000D01*
X160450865Y-68699000D01*
X160562049Y-68721116D01*
G37*
G36*
X135162049Y-68086116D02*
G01*
X135273234Y-68108232D01*
X135482703Y-68194997D01*
X135671220Y-68320960D01*
X135831540Y-68481280D01*
X135957503Y-68669797D01*
X136044268Y-68879266D01*
X136088500Y-69101636D01*
X136088500Y-69328364D01*
X136044268Y-69550734D01*
X135957503Y-69760203D01*
X135831540Y-69948720D01*
X135671220Y-70109040D01*
X135482703Y-70235003D01*
X135273234Y-70321768D01*
X135162049Y-70343884D01*
X135050865Y-70366000D01*
X134824135Y-70366000D01*
X134712951Y-70343884D01*
X134601766Y-70321768D01*
X134392297Y-70235003D01*
X134203780Y-70109040D01*
X134043460Y-69948720D01*
X133917497Y-69760203D01*
X133830732Y-69550734D01*
X133786500Y-69328364D01*
X133786500Y-69101636D01*
X133830732Y-68879266D01*
X133917497Y-68669797D01*
X134043460Y-68481280D01*
X134203780Y-68320960D01*
X134392297Y-68194997D01*
X134601766Y-68108232D01*
X134712951Y-68086116D01*
X134824135Y-68064000D01*
X135050865Y-68064000D01*
X135162049Y-68086116D01*
G37*
G36*
X97062049Y-68086116D02*
G01*
X97173234Y-68108232D01*
X97382703Y-68194997D01*
X97571220Y-68320960D01*
X97731540Y-68481280D01*
X97857503Y-68669797D01*
X97944268Y-68879266D01*
X97988500Y-69101636D01*
X97988500Y-69328364D01*
X97944268Y-69550734D01*
X97857503Y-69760203D01*
X97731540Y-69948720D01*
X97571220Y-70109040D01*
X97382703Y-70235003D01*
X97173234Y-70321768D01*
X97062049Y-70343884D01*
X96950865Y-70366000D01*
X96724135Y-70366000D01*
X96612951Y-70343884D01*
X96501766Y-70321768D01*
X96292297Y-70235003D01*
X96103780Y-70109040D01*
X95943460Y-69948720D01*
X95817497Y-69760203D01*
X95730732Y-69550734D01*
X95686500Y-69328364D01*
X95686500Y-69101636D01*
X95730732Y-68879266D01*
X95817497Y-68669797D01*
X95943460Y-68481280D01*
X96103780Y-68320960D01*
X96292297Y-68194997D01*
X96501766Y-68108232D01*
X96612951Y-68086116D01*
X96724135Y-68064000D01*
X96950865Y-68064000D01*
X97062049Y-68086116D01*
G37*
G36*
X116112049Y-66498616D02*
G01*
X116223234Y-66520732D01*
X116432703Y-66607497D01*
X116621220Y-66733460D01*
X116781540Y-66893780D01*
X116907503Y-67082297D01*
X116994268Y-67291766D01*
X117038500Y-67514136D01*
X117038500Y-67740864D01*
X116994268Y-67963234D01*
X116907503Y-68172703D01*
X116781540Y-68361220D01*
X116621220Y-68521540D01*
X116432703Y-68647503D01*
X116223234Y-68734268D01*
X116112049Y-68756384D01*
X116000865Y-68778500D01*
X115774135Y-68778500D01*
X115662951Y-68756384D01*
X115551766Y-68734268D01*
X115342297Y-68647503D01*
X115153780Y-68521540D01*
X114993460Y-68361220D01*
X114867497Y-68172703D01*
X114780732Y-67963234D01*
X114736500Y-67740864D01*
X114736500Y-67514136D01*
X114780732Y-67291766D01*
X114867497Y-67082297D01*
X114993460Y-66893780D01*
X115153780Y-66733460D01*
X115342297Y-66607497D01*
X115551766Y-66520732D01*
X115662951Y-66498616D01*
X115774135Y-66476500D01*
X116000865Y-66476500D01*
X116112049Y-66498616D01*
G37*
G36*
X141512049Y-65546116D02*
G01*
X141623234Y-65568232D01*
X141832703Y-65654997D01*
X142021220Y-65780960D01*
X142181540Y-65941280D01*
X142307503Y-66129797D01*
X142394268Y-66339266D01*
X142438500Y-66561636D01*
X142438500Y-66788364D01*
X142394268Y-67010734D01*
X142307503Y-67220203D01*
X142181540Y-67408720D01*
X142021220Y-67569040D01*
X141832703Y-67695003D01*
X141623234Y-67781768D01*
X141512049Y-67803884D01*
X141400865Y-67826000D01*
X141174135Y-67826000D01*
X141062951Y-67803884D01*
X140951766Y-67781768D01*
X140742297Y-67695003D01*
X140553780Y-67569040D01*
X140393460Y-67408720D01*
X140267497Y-67220203D01*
X140180732Y-67010734D01*
X140136500Y-66788364D01*
X140136500Y-66561636D01*
X140180732Y-66339266D01*
X140267497Y-66129797D01*
X140393460Y-65941280D01*
X140553780Y-65780960D01*
X140742297Y-65654997D01*
X140951766Y-65568232D01*
X141062951Y-65546116D01*
X141174135Y-65524000D01*
X141400865Y-65524000D01*
X141512049Y-65546116D01*
G37*
G36*
X103412049Y-65546116D02*
G01*
X103523234Y-65568232D01*
X103732703Y-65654997D01*
X103921220Y-65780960D01*
X104081540Y-65941280D01*
X104207503Y-66129797D01*
X104294268Y-66339266D01*
X104338500Y-66561636D01*
X104338500Y-66788364D01*
X104294268Y-67010734D01*
X104207503Y-67220203D01*
X104081540Y-67408720D01*
X103921220Y-67569040D01*
X103732703Y-67695003D01*
X103523234Y-67781768D01*
X103412049Y-67803884D01*
X103300865Y-67826000D01*
X103074135Y-67826000D01*
X102962951Y-67803884D01*
X102851766Y-67781768D01*
X102642297Y-67695003D01*
X102453780Y-67569040D01*
X102293460Y-67408720D01*
X102167497Y-67220203D01*
X102080732Y-67010734D01*
X102036500Y-66788364D01*
X102036500Y-66561636D01*
X102080732Y-66339266D01*
X102167497Y-66129797D01*
X102293460Y-65941280D01*
X102453780Y-65780960D01*
X102642297Y-65654997D01*
X102851766Y-65568232D01*
X102962951Y-65546116D01*
X103074135Y-65524000D01*
X103300865Y-65524000D01*
X103412049Y-65546116D01*
G37*
G36*
X122462049Y-63958616D02*
G01*
X122573234Y-63980732D01*
X122782703Y-64067497D01*
X122971220Y-64193460D01*
X123131540Y-64353780D01*
X123257503Y-64542297D01*
X123344268Y-64751766D01*
X123388500Y-64974136D01*
X123388500Y-65200864D01*
X123344268Y-65423234D01*
X123257503Y-65632703D01*
X123131540Y-65821220D01*
X122971220Y-65981540D01*
X122782703Y-66107503D01*
X122573234Y-66194268D01*
X122462049Y-66216384D01*
X122350865Y-66238500D01*
X122124135Y-66238500D01*
X122012951Y-66216384D01*
X121901766Y-66194268D01*
X121692297Y-66107503D01*
X121503780Y-65981540D01*
X121343460Y-65821220D01*
X121217497Y-65632703D01*
X121130732Y-65423234D01*
X121086500Y-65200864D01*
X121086500Y-64974136D01*
X121130732Y-64751766D01*
X121217497Y-64542297D01*
X121343460Y-64353780D01*
X121503780Y-64193460D01*
X121692297Y-64067497D01*
X121901766Y-63980732D01*
X122012951Y-63958616D01*
X122124135Y-63936500D01*
X122350865Y-63936500D01*
X122462049Y-63958616D01*
G37*
G36*
X47931564Y-63358139D02*
G01*
X48122833Y-63437365D01*
X48122835Y-63437366D01*
X48294973Y-63552385D01*
X48441365Y-63698777D01*
X48556385Y-63870917D01*
X48635611Y-64062186D01*
X48676000Y-64265234D01*
X48676000Y-64472266D01*
X48635611Y-64675314D01*
X48603943Y-64751767D01*
X48556384Y-64866585D01*
X48441365Y-65038723D01*
X48294973Y-65185115D01*
X48122835Y-65300134D01*
X48122834Y-65300135D01*
X48122833Y-65300135D01*
X47931564Y-65379361D01*
X47728516Y-65419750D01*
X47521484Y-65419750D01*
X47318436Y-65379361D01*
X47127167Y-65300135D01*
X47127166Y-65300135D01*
X47127165Y-65300134D01*
X46955027Y-65185115D01*
X46808635Y-65038723D01*
X46693616Y-64866585D01*
X46646057Y-64751767D01*
X46614389Y-64675314D01*
X46574000Y-64472266D01*
X46574000Y-64265234D01*
X46614389Y-64062186D01*
X46693615Y-63870917D01*
X46808635Y-63698777D01*
X46955027Y-63552385D01*
X47127165Y-63437366D01*
X47127167Y-63437365D01*
X47318436Y-63358139D01*
X47521484Y-63317750D01*
X47728516Y-63317750D01*
X47931564Y-63358139D01*
G37*
G36*
X177445754Y-57082818D02*
G01*
X177819011Y-57237426D01*
X177819013Y-57237427D01*
X178154936Y-57461884D01*
X178440616Y-57747564D01*
X178665074Y-58083489D01*
X178819682Y-58456746D01*
X178898500Y-58852993D01*
X178898500Y-59257007D01*
X178819682Y-59653254D01*
X178665074Y-60026511D01*
X178665073Y-60026513D01*
X178440616Y-60362436D01*
X178154936Y-60648116D01*
X177819013Y-60872573D01*
X177819012Y-60872574D01*
X177819011Y-60872574D01*
X177445754Y-61027182D01*
X177049507Y-61106000D01*
X176645493Y-61106000D01*
X176249246Y-61027182D01*
X175875989Y-60872574D01*
X175875988Y-60872574D01*
X175875987Y-60872573D01*
X175540064Y-60648116D01*
X175254384Y-60362436D01*
X175029927Y-60026513D01*
X175029926Y-60026511D01*
X174875318Y-59653254D01*
X174796500Y-59257007D01*
X174796500Y-58852993D01*
X174875318Y-58456746D01*
X175029926Y-58083489D01*
X175254384Y-57747564D01*
X175540064Y-57461884D01*
X175875987Y-57237427D01*
X175875989Y-57237426D01*
X176249246Y-57082818D01*
X176645493Y-57004000D01*
X177049507Y-57004000D01*
X177445754Y-57082818D01*
G37*
G36*
X182041012Y-58158927D02*
G01*
X182190312Y-58188624D01*
X182354284Y-58256544D01*
X182501854Y-58355147D01*
X182627353Y-58480646D01*
X182725956Y-58628216D01*
X182793876Y-58792188D01*
X182828500Y-58966259D01*
X182828500Y-59143741D01*
X182793876Y-59317812D01*
X182725956Y-59481784D01*
X182627353Y-59629354D01*
X182501854Y-59754853D01*
X182354284Y-59853456D01*
X182190312Y-59921376D01*
X182041012Y-59951073D01*
X182016242Y-59956000D01*
X181838758Y-59956000D01*
X181813988Y-59951073D01*
X181664688Y-59921376D01*
X181500716Y-59853456D01*
X181353146Y-59754853D01*
X181227647Y-59629354D01*
X181129044Y-59481784D01*
X181061124Y-59317812D01*
X181026500Y-59143741D01*
X181026500Y-58966259D01*
X181061124Y-58792188D01*
X181129044Y-58628216D01*
X181227647Y-58480646D01*
X181353146Y-58355147D01*
X181500716Y-58256544D01*
X181664688Y-58188624D01*
X181813988Y-58158927D01*
X181838758Y-58154000D01*
X182016242Y-58154000D01*
X182041012Y-58158927D01*
G37*
G36*
X171881012Y-58158927D02*
G01*
X172030312Y-58188624D01*
X172194284Y-58256544D01*
X172341854Y-58355147D01*
X172467353Y-58480646D01*
X172565956Y-58628216D01*
X172633876Y-58792188D01*
X172668500Y-58966259D01*
X172668500Y-59143741D01*
X172633876Y-59317812D01*
X172565956Y-59481784D01*
X172467353Y-59629354D01*
X172341854Y-59754853D01*
X172194284Y-59853456D01*
X172030312Y-59921376D01*
X171881012Y-59951073D01*
X171856242Y-59956000D01*
X171678758Y-59956000D01*
X171653988Y-59951073D01*
X171504688Y-59921376D01*
X171340716Y-59853456D01*
X171193146Y-59754853D01*
X171067647Y-59629354D01*
X170969044Y-59481784D01*
X170901124Y-59317812D01*
X170866500Y-59143741D01*
X170866500Y-58966259D01*
X170901124Y-58792188D01*
X170969044Y-58628216D01*
X171067647Y-58480646D01*
X171193146Y-58355147D01*
X171340716Y-58256544D01*
X171504688Y-58188624D01*
X171653988Y-58158927D01*
X171678758Y-58154000D01*
X171856242Y-58154000D01*
X171881012Y-58158927D01*
G37*
G36*
X47931564Y-56858139D02*
G01*
X48122833Y-56937365D01*
X48122835Y-56937366D01*
X48222560Y-57004000D01*
X48294973Y-57052385D01*
X48441365Y-57198777D01*
X48556385Y-57370917D01*
X48635611Y-57562186D01*
X48676000Y-57765234D01*
X48676000Y-57972266D01*
X48635611Y-58175314D01*
X48556385Y-58366583D01*
X48556384Y-58366585D01*
X48441365Y-58538723D01*
X48294973Y-58685115D01*
X48122835Y-58800134D01*
X48122834Y-58800135D01*
X48122833Y-58800135D01*
X47931564Y-58879361D01*
X47728516Y-58919750D01*
X47521484Y-58919750D01*
X47318436Y-58879361D01*
X47127167Y-58800135D01*
X47127166Y-58800135D01*
X47127165Y-58800134D01*
X46955027Y-58685115D01*
X46808635Y-58538723D01*
X46693616Y-58366585D01*
X46693615Y-58366583D01*
X46614389Y-58175314D01*
X46574000Y-57972266D01*
X46574000Y-57765234D01*
X46614389Y-57562186D01*
X46693615Y-57370917D01*
X46808635Y-57198777D01*
X46955027Y-57052385D01*
X47027440Y-57004000D01*
X47127165Y-56937366D01*
X47127167Y-56937365D01*
X47318436Y-56858139D01*
X47521484Y-56817750D01*
X47728516Y-56817750D01*
X47931564Y-56858139D01*
G37*
G36*
X158395754Y-53907818D02*
G01*
X158648324Y-54012436D01*
X158769013Y-54062427D01*
X159104936Y-54286884D01*
X159390616Y-54572564D01*
X159615074Y-54908489D01*
X159769682Y-55281746D01*
X159848500Y-55677993D01*
X159848500Y-56082007D01*
X159769682Y-56478254D01*
X159629058Y-56817750D01*
X159615073Y-56851513D01*
X159390616Y-57187436D01*
X159104936Y-57473116D01*
X158769013Y-57697573D01*
X158769012Y-57697574D01*
X158769011Y-57697574D01*
X158395754Y-57852182D01*
X157999507Y-57931000D01*
X157595493Y-57931000D01*
X157199246Y-57852182D01*
X156825989Y-57697574D01*
X156825988Y-57697574D01*
X156825987Y-57697573D01*
X156490064Y-57473116D01*
X156204384Y-57187436D01*
X155979927Y-56851513D01*
X155965942Y-56817750D01*
X155825318Y-56478254D01*
X155746500Y-56082007D01*
X155746500Y-55677993D01*
X155825318Y-55281746D01*
X155979926Y-54908489D01*
X156204384Y-54572564D01*
X156490064Y-54286884D01*
X156825987Y-54062427D01*
X156946676Y-54012436D01*
X157199246Y-53907818D01*
X157595493Y-53829000D01*
X157999507Y-53829000D01*
X158395754Y-53907818D01*
G37*
G36*
X82195754Y-53907818D02*
G01*
X82448324Y-54012436D01*
X82569013Y-54062427D01*
X82904936Y-54286884D01*
X83190616Y-54572564D01*
X83415074Y-54908489D01*
X83569682Y-55281746D01*
X83648500Y-55677993D01*
X83648500Y-56082007D01*
X83569682Y-56478254D01*
X83429058Y-56817750D01*
X83415073Y-56851513D01*
X83190616Y-57187436D01*
X82904936Y-57473116D01*
X82569013Y-57697573D01*
X82569012Y-57697574D01*
X82569011Y-57697574D01*
X82195754Y-57852182D01*
X81799507Y-57931000D01*
X81395493Y-57931000D01*
X80999246Y-57852182D01*
X80625989Y-57697574D01*
X80625988Y-57697574D01*
X80625987Y-57697573D01*
X80290064Y-57473116D01*
X80004384Y-57187436D01*
X79779927Y-56851513D01*
X79765942Y-56817750D01*
X79625318Y-56478254D01*
X79546500Y-56082007D01*
X79546500Y-55677993D01*
X79625318Y-55281746D01*
X79779926Y-54908489D01*
X80004384Y-54572564D01*
X80290064Y-54286884D01*
X80625987Y-54062427D01*
X80746676Y-54012436D01*
X80999246Y-53907818D01*
X81395493Y-53829000D01*
X81799507Y-53829000D01*
X82195754Y-53907818D01*
G37*
G36*
X173262049Y-55386116D02*
G01*
X173373234Y-55408232D01*
X173582703Y-55494997D01*
X173771220Y-55620960D01*
X173931540Y-55781280D01*
X174057503Y-55969797D01*
X174144268Y-56179266D01*
X174188500Y-56401636D01*
X174188500Y-56628364D01*
X174144268Y-56850734D01*
X174057503Y-57060203D01*
X173931540Y-57248720D01*
X173771220Y-57409040D01*
X173582703Y-57535003D01*
X173373234Y-57621768D01*
X173262049Y-57643884D01*
X173150865Y-57666000D01*
X172924135Y-57666000D01*
X172812951Y-57643884D01*
X172701766Y-57621768D01*
X172492297Y-57535003D01*
X172303780Y-57409040D01*
X172143460Y-57248720D01*
X172017497Y-57060203D01*
X171930732Y-56850734D01*
X171886500Y-56628364D01*
X171886500Y-56401636D01*
X171930732Y-56179266D01*
X172017497Y-55969797D01*
X172143460Y-55781280D01*
X172303780Y-55620960D01*
X172492297Y-55494997D01*
X172701766Y-55408232D01*
X172812951Y-55386116D01*
X172924135Y-55364000D01*
X173150865Y-55364000D01*
X173262049Y-55386116D01*
G37*
G36*
X152831012Y-54983927D02*
G01*
X152980312Y-55013624D01*
X153144284Y-55081544D01*
X153291854Y-55180147D01*
X153417353Y-55305646D01*
X153515956Y-55453216D01*
X153583876Y-55617188D01*
X153618500Y-55791259D01*
X153618500Y-55968741D01*
X153583876Y-56142812D01*
X153515956Y-56306784D01*
X153417353Y-56454354D01*
X153291854Y-56579853D01*
X153144284Y-56678456D01*
X152980312Y-56746376D01*
X152831012Y-56776073D01*
X152806242Y-56781000D01*
X152628758Y-56781000D01*
X152603988Y-56776073D01*
X152454688Y-56746376D01*
X152290716Y-56678456D01*
X152143146Y-56579853D01*
X152017647Y-56454354D01*
X151919044Y-56306784D01*
X151851124Y-56142812D01*
X151816500Y-55968741D01*
X151816500Y-55791259D01*
X151851124Y-55617188D01*
X151919044Y-55453216D01*
X152017647Y-55305646D01*
X152143146Y-55180147D01*
X152290716Y-55081544D01*
X152454688Y-55013624D01*
X152603988Y-54983927D01*
X152628758Y-54979000D01*
X152806242Y-54979000D01*
X152831012Y-54983927D01*
G37*
G36*
X162991012Y-54983927D02*
G01*
X163140312Y-55013624D01*
X163304284Y-55081544D01*
X163451854Y-55180147D01*
X163577353Y-55305646D01*
X163675956Y-55453216D01*
X163743876Y-55617188D01*
X163778500Y-55791259D01*
X163778500Y-55968741D01*
X163743876Y-56142812D01*
X163675956Y-56306784D01*
X163577353Y-56454354D01*
X163451854Y-56579853D01*
X163304284Y-56678456D01*
X163140312Y-56746376D01*
X162991012Y-56776073D01*
X162966242Y-56781000D01*
X162788758Y-56781000D01*
X162763988Y-56776073D01*
X162614688Y-56746376D01*
X162450716Y-56678456D01*
X162303146Y-56579853D01*
X162177647Y-56454354D01*
X162079044Y-56306784D01*
X162011124Y-56142812D01*
X161976500Y-55968741D01*
X161976500Y-55791259D01*
X162011124Y-55617188D01*
X162079044Y-55453216D01*
X162177647Y-55305646D01*
X162303146Y-55180147D01*
X162450716Y-55081544D01*
X162614688Y-55013624D01*
X162763988Y-54983927D01*
X162788758Y-54979000D01*
X162966242Y-54979000D01*
X162991012Y-54983927D01*
G37*
G36*
X86791012Y-54983927D02*
G01*
X86940312Y-55013624D01*
X87104284Y-55081544D01*
X87251854Y-55180147D01*
X87377353Y-55305646D01*
X87475956Y-55453216D01*
X87543876Y-55617188D01*
X87578500Y-55791259D01*
X87578500Y-55968741D01*
X87543876Y-56142812D01*
X87475956Y-56306784D01*
X87377353Y-56454354D01*
X87251854Y-56579853D01*
X87104284Y-56678456D01*
X86940312Y-56746376D01*
X86791012Y-56776073D01*
X86766242Y-56781000D01*
X86588758Y-56781000D01*
X86563988Y-56776073D01*
X86414688Y-56746376D01*
X86250716Y-56678456D01*
X86103146Y-56579853D01*
X85977647Y-56454354D01*
X85879044Y-56306784D01*
X85811124Y-56142812D01*
X85776500Y-55968741D01*
X85776500Y-55791259D01*
X85811124Y-55617188D01*
X85879044Y-55453216D01*
X85977647Y-55305646D01*
X86103146Y-55180147D01*
X86250716Y-55081544D01*
X86414688Y-55013624D01*
X86563988Y-54983927D01*
X86588758Y-54979000D01*
X86766242Y-54979000D01*
X86791012Y-54983927D01*
G37*
G36*
X76631012Y-54983927D02*
G01*
X76780312Y-55013624D01*
X76944284Y-55081544D01*
X77091854Y-55180147D01*
X77217353Y-55305646D01*
X77315956Y-55453216D01*
X77383876Y-55617188D01*
X77418500Y-55791259D01*
X77418500Y-55968741D01*
X77383876Y-56142812D01*
X77315956Y-56306784D01*
X77217353Y-56454354D01*
X77091854Y-56579853D01*
X76944284Y-56678456D01*
X76780312Y-56746376D01*
X76631012Y-56776073D01*
X76606242Y-56781000D01*
X76428758Y-56781000D01*
X76403988Y-56776073D01*
X76254688Y-56746376D01*
X76090716Y-56678456D01*
X75943146Y-56579853D01*
X75817647Y-56454354D01*
X75719044Y-56306784D01*
X75651124Y-56142812D01*
X75616500Y-55968741D01*
X75616500Y-55791259D01*
X75651124Y-55617188D01*
X75719044Y-55453216D01*
X75817647Y-55305646D01*
X75943146Y-55180147D01*
X76090716Y-55081544D01*
X76254688Y-55013624D01*
X76403988Y-54983927D01*
X76428758Y-54979000D01*
X76606242Y-54979000D01*
X76631012Y-54983927D01*
G37*
G36*
X179612049Y-52846116D02*
G01*
X179723234Y-52868232D01*
X179932703Y-52954997D01*
X180121220Y-53080960D01*
X180281540Y-53241280D01*
X180407503Y-53429797D01*
X180494268Y-53639266D01*
X180538500Y-53861636D01*
X180538500Y-54088364D01*
X180494268Y-54310734D01*
X180407503Y-54520203D01*
X180281540Y-54708720D01*
X180121220Y-54869040D01*
X179932703Y-54995003D01*
X179723234Y-55081768D01*
X179612049Y-55103884D01*
X179500865Y-55126000D01*
X179274135Y-55126000D01*
X179162951Y-55103884D01*
X179051766Y-55081768D01*
X178842297Y-54995003D01*
X178653780Y-54869040D01*
X178493460Y-54708720D01*
X178367497Y-54520203D01*
X178280732Y-54310734D01*
X178236500Y-54088364D01*
X178236500Y-53861636D01*
X178280732Y-53639266D01*
X178367497Y-53429797D01*
X178493460Y-53241280D01*
X178653780Y-53080960D01*
X178842297Y-52954997D01*
X179051766Y-52868232D01*
X179162951Y-52846116D01*
X179274135Y-52824000D01*
X179500865Y-52824000D01*
X179612049Y-52846116D01*
G37*
G36*
X101245754Y-50732818D02*
G01*
X101619011Y-50887426D01*
X101619013Y-50887427D01*
X101954936Y-51111884D01*
X102240616Y-51397564D01*
X102437255Y-51691854D01*
X102465074Y-51733489D01*
X102619682Y-52106746D01*
X102698500Y-52502993D01*
X102698500Y-52907007D01*
X102619682Y-53303254D01*
X102480501Y-53639266D01*
X102465073Y-53676513D01*
X102240616Y-54012436D01*
X101954936Y-54298116D01*
X101619013Y-54522573D01*
X101619012Y-54522574D01*
X101619011Y-54522574D01*
X101245754Y-54677182D01*
X100849507Y-54756000D01*
X100445493Y-54756000D01*
X100049246Y-54677182D01*
X99675989Y-54522574D01*
X99675988Y-54522574D01*
X99675987Y-54522573D01*
X99340064Y-54298116D01*
X99054384Y-54012436D01*
X98829927Y-53676513D01*
X98814499Y-53639266D01*
X98675318Y-53303254D01*
X98596500Y-52907007D01*
X98596500Y-52502993D01*
X98675318Y-52106746D01*
X98829926Y-51733489D01*
X98857746Y-51691854D01*
X99054384Y-51397564D01*
X99340064Y-51111884D01*
X99675987Y-50887427D01*
X99675989Y-50887426D01*
X100049246Y-50732818D01*
X100445493Y-50654000D01*
X100849507Y-50654000D01*
X101245754Y-50732818D01*
G37*
G36*
X139345754Y-50732818D02*
G01*
X139719011Y-50887426D01*
X139719013Y-50887427D01*
X140054936Y-51111884D01*
X140340616Y-51397564D01*
X140537255Y-51691854D01*
X140565074Y-51733489D01*
X140719682Y-52106746D01*
X140798500Y-52502993D01*
X140798500Y-52907007D01*
X140719682Y-53303254D01*
X140580501Y-53639266D01*
X140565073Y-53676513D01*
X140340616Y-54012436D01*
X140054936Y-54298116D01*
X139719013Y-54522573D01*
X139719012Y-54522574D01*
X139719011Y-54522574D01*
X139345754Y-54677182D01*
X138949507Y-54756000D01*
X138545493Y-54756000D01*
X138149246Y-54677182D01*
X137775989Y-54522574D01*
X137775988Y-54522574D01*
X137775987Y-54522573D01*
X137440064Y-54298116D01*
X137154384Y-54012436D01*
X136929927Y-53676513D01*
X136914499Y-53639266D01*
X136775318Y-53303254D01*
X136696500Y-52907007D01*
X136696500Y-52502993D01*
X136775318Y-52106746D01*
X136929926Y-51733489D01*
X136957746Y-51691854D01*
X137154384Y-51397564D01*
X137440064Y-51111884D01*
X137775987Y-50887427D01*
X137775989Y-50887426D01*
X138149246Y-50732818D01*
X138545493Y-50654000D01*
X138949507Y-50654000D01*
X139345754Y-50732818D01*
G37*
G36*
X154212049Y-52211116D02*
G01*
X154323234Y-52233232D01*
X154532703Y-52319997D01*
X154721220Y-52445960D01*
X154881540Y-52606280D01*
X155007503Y-52794797D01*
X155094268Y-53004266D01*
X155138500Y-53226636D01*
X155138500Y-53453364D01*
X155094268Y-53675734D01*
X155007503Y-53885203D01*
X154881540Y-54073720D01*
X154721220Y-54234040D01*
X154532703Y-54360003D01*
X154323234Y-54446768D01*
X154212049Y-54468884D01*
X154100865Y-54491000D01*
X153874135Y-54491000D01*
X153762951Y-54468884D01*
X153651766Y-54446768D01*
X153442297Y-54360003D01*
X153253780Y-54234040D01*
X153093460Y-54073720D01*
X152967497Y-53885203D01*
X152880732Y-53675734D01*
X152836500Y-53453364D01*
X152836500Y-53226636D01*
X152880732Y-53004266D01*
X152967497Y-52794797D01*
X153093460Y-52606280D01*
X153253780Y-52445960D01*
X153442297Y-52319997D01*
X153651766Y-52233232D01*
X153762951Y-52211116D01*
X153874135Y-52189000D01*
X154100865Y-52189000D01*
X154212049Y-52211116D01*
G37*
G36*
X78012049Y-52211116D02*
G01*
X78123234Y-52233232D01*
X78332703Y-52319997D01*
X78521220Y-52445960D01*
X78681540Y-52606280D01*
X78807503Y-52794797D01*
X78894268Y-53004266D01*
X78938500Y-53226636D01*
X78938500Y-53453364D01*
X78894268Y-53675734D01*
X78807503Y-53885203D01*
X78681540Y-54073720D01*
X78521220Y-54234040D01*
X78332703Y-54360003D01*
X78123234Y-54446768D01*
X78012049Y-54468884D01*
X77900865Y-54491000D01*
X77674135Y-54491000D01*
X77562951Y-54468884D01*
X77451766Y-54446768D01*
X77242297Y-54360003D01*
X77053780Y-54234040D01*
X76893460Y-54073720D01*
X76767497Y-53885203D01*
X76680732Y-53675734D01*
X76636500Y-53453364D01*
X76636500Y-53226636D01*
X76680732Y-53004266D01*
X76767497Y-52794797D01*
X76893460Y-52606280D01*
X77053780Y-52445960D01*
X77242297Y-52319997D01*
X77451766Y-52233232D01*
X77562951Y-52211116D01*
X77674135Y-52189000D01*
X77900865Y-52189000D01*
X78012049Y-52211116D01*
G37*
G36*
X143941012Y-51808927D02*
G01*
X144090312Y-51838624D01*
X144254284Y-51906544D01*
X144401854Y-52005147D01*
X144527353Y-52130646D01*
X144625956Y-52278216D01*
X144693876Y-52442188D01*
X144728500Y-52616259D01*
X144728500Y-52793741D01*
X144693876Y-52967812D01*
X144625956Y-53131784D01*
X144527353Y-53279354D01*
X144401854Y-53404853D01*
X144254284Y-53503456D01*
X144090312Y-53571376D01*
X143941012Y-53601073D01*
X143916242Y-53606000D01*
X143738758Y-53606000D01*
X143713988Y-53601073D01*
X143564688Y-53571376D01*
X143400716Y-53503456D01*
X143253146Y-53404853D01*
X143127647Y-53279354D01*
X143029044Y-53131784D01*
X142961124Y-52967812D01*
X142926500Y-52793741D01*
X142926500Y-52616259D01*
X142961124Y-52442188D01*
X143029044Y-52278216D01*
X143127647Y-52130646D01*
X143253146Y-52005147D01*
X143400716Y-51906544D01*
X143564688Y-51838624D01*
X143713988Y-51808927D01*
X143738758Y-51804000D01*
X143916242Y-51804000D01*
X143941012Y-51808927D01*
G37*
G36*
X95681012Y-51808927D02*
G01*
X95830312Y-51838624D01*
X95994284Y-51906544D01*
X96141854Y-52005147D01*
X96267353Y-52130646D01*
X96365956Y-52278216D01*
X96433876Y-52442188D01*
X96468500Y-52616259D01*
X96468500Y-52793741D01*
X96433876Y-52967812D01*
X96365956Y-53131784D01*
X96267353Y-53279354D01*
X96141854Y-53404853D01*
X95994284Y-53503456D01*
X95830312Y-53571376D01*
X95681012Y-53601073D01*
X95656242Y-53606000D01*
X95478758Y-53606000D01*
X95453988Y-53601073D01*
X95304688Y-53571376D01*
X95140716Y-53503456D01*
X94993146Y-53404853D01*
X94867647Y-53279354D01*
X94769044Y-53131784D01*
X94701124Y-52967812D01*
X94666500Y-52793741D01*
X94666500Y-52616259D01*
X94701124Y-52442188D01*
X94769044Y-52278216D01*
X94867647Y-52130646D01*
X94993146Y-52005147D01*
X95140716Y-51906544D01*
X95304688Y-51838624D01*
X95453988Y-51808927D01*
X95478758Y-51804000D01*
X95656242Y-51804000D01*
X95681012Y-51808927D01*
G37*
G36*
X133781012Y-51808927D02*
G01*
X133930312Y-51838624D01*
X134094284Y-51906544D01*
X134241854Y-52005147D01*
X134367353Y-52130646D01*
X134465956Y-52278216D01*
X134533876Y-52442188D01*
X134568500Y-52616259D01*
X134568500Y-52793741D01*
X134533876Y-52967812D01*
X134465956Y-53131784D01*
X134367353Y-53279354D01*
X134241854Y-53404853D01*
X134094284Y-53503456D01*
X133930312Y-53571376D01*
X133781012Y-53601073D01*
X133756242Y-53606000D01*
X133578758Y-53606000D01*
X133553988Y-53601073D01*
X133404688Y-53571376D01*
X133240716Y-53503456D01*
X133093146Y-53404853D01*
X132967647Y-53279354D01*
X132869044Y-53131784D01*
X132801124Y-52967812D01*
X132766500Y-52793741D01*
X132766500Y-52616259D01*
X132801124Y-52442188D01*
X132869044Y-52278216D01*
X132967647Y-52130646D01*
X133093146Y-52005147D01*
X133240716Y-51906544D01*
X133404688Y-51838624D01*
X133553988Y-51808927D01*
X133578758Y-51804000D01*
X133756242Y-51804000D01*
X133781012Y-51808927D01*
G37*
G36*
X105841012Y-51808927D02*
G01*
X105990312Y-51838624D01*
X106154284Y-51906544D01*
X106301854Y-52005147D01*
X106427353Y-52130646D01*
X106525956Y-52278216D01*
X106593876Y-52442188D01*
X106628500Y-52616259D01*
X106628500Y-52793741D01*
X106593876Y-52967812D01*
X106525956Y-53131784D01*
X106427353Y-53279354D01*
X106301854Y-53404853D01*
X106154284Y-53503456D01*
X105990312Y-53571376D01*
X105841012Y-53601073D01*
X105816242Y-53606000D01*
X105638758Y-53606000D01*
X105613988Y-53601073D01*
X105464688Y-53571376D01*
X105300716Y-53503456D01*
X105153146Y-53404853D01*
X105027647Y-53279354D01*
X104929044Y-53131784D01*
X104861124Y-52967812D01*
X104826500Y-52793741D01*
X104826500Y-52616259D01*
X104861124Y-52442188D01*
X104929044Y-52278216D01*
X105027647Y-52130646D01*
X105153146Y-52005147D01*
X105300716Y-51906544D01*
X105464688Y-51838624D01*
X105613988Y-51808927D01*
X105638758Y-51804000D01*
X105816242Y-51804000D01*
X105841012Y-51808927D01*
G37*
G36*
X120295754Y-49145318D02*
G01*
X120669011Y-49299926D01*
X120669013Y-49299927D01*
X121004936Y-49524384D01*
X121290616Y-49810064D01*
X121452030Y-50051636D01*
X121515074Y-50145989D01*
X121669682Y-50519246D01*
X121748500Y-50915493D01*
X121748500Y-51319507D01*
X121669682Y-51715754D01*
X121515074Y-52089011D01*
X121515073Y-52089013D01*
X121290616Y-52424936D01*
X121004936Y-52710616D01*
X120669013Y-52935073D01*
X120669012Y-52935074D01*
X120669011Y-52935074D01*
X120295754Y-53089682D01*
X119899507Y-53168500D01*
X119495493Y-53168500D01*
X119099246Y-53089682D01*
X118725989Y-52935074D01*
X118725988Y-52935074D01*
X118725987Y-52935073D01*
X118390064Y-52710616D01*
X118104384Y-52424936D01*
X117879927Y-52089013D01*
X117879926Y-52089011D01*
X117725318Y-51715754D01*
X117646500Y-51319507D01*
X117646500Y-50915493D01*
X117725318Y-50519246D01*
X117879926Y-50145989D01*
X117942971Y-50051636D01*
X118104384Y-49810064D01*
X118390064Y-49524384D01*
X118725987Y-49299927D01*
X118725989Y-49299926D01*
X119099246Y-49145318D01*
X119495493Y-49066500D01*
X119899507Y-49066500D01*
X120295754Y-49145318D01*
G37*
G36*
X124891012Y-50221427D02*
G01*
X125040312Y-50251124D01*
X125204284Y-50319044D01*
X125351854Y-50417647D01*
X125477353Y-50543146D01*
X125575956Y-50690716D01*
X125643876Y-50854688D01*
X125678500Y-51028759D01*
X125678500Y-51206241D01*
X125643876Y-51380312D01*
X125575956Y-51544284D01*
X125477353Y-51691854D01*
X125351854Y-51817353D01*
X125204284Y-51915956D01*
X125040312Y-51983876D01*
X124891012Y-52013573D01*
X124866242Y-52018500D01*
X124688758Y-52018500D01*
X124663988Y-52013573D01*
X124514688Y-51983876D01*
X124350716Y-51915956D01*
X124203146Y-51817353D01*
X124077647Y-51691854D01*
X123979044Y-51544284D01*
X123911124Y-51380312D01*
X123876500Y-51206241D01*
X123876500Y-51028759D01*
X123911124Y-50854688D01*
X123979044Y-50690716D01*
X124077647Y-50543146D01*
X124203146Y-50417647D01*
X124350716Y-50319044D01*
X124514688Y-50251124D01*
X124663988Y-50221427D01*
X124688758Y-50216500D01*
X124866242Y-50216500D01*
X124891012Y-50221427D01*
G37*
G36*
X114731012Y-50221427D02*
G01*
X114880312Y-50251124D01*
X115044284Y-50319044D01*
X115191854Y-50417647D01*
X115317353Y-50543146D01*
X115415956Y-50690716D01*
X115483876Y-50854688D01*
X115518500Y-51028759D01*
X115518500Y-51206241D01*
X115483876Y-51380312D01*
X115415956Y-51544284D01*
X115317353Y-51691854D01*
X115191854Y-51817353D01*
X115044284Y-51915956D01*
X114880312Y-51983876D01*
X114731012Y-52013573D01*
X114706242Y-52018500D01*
X114528758Y-52018500D01*
X114503988Y-52013573D01*
X114354688Y-51983876D01*
X114190716Y-51915956D01*
X114043146Y-51817353D01*
X113917647Y-51691854D01*
X113819044Y-51544284D01*
X113751124Y-51380312D01*
X113716500Y-51206241D01*
X113716500Y-51028759D01*
X113751124Y-50854688D01*
X113819044Y-50690716D01*
X113917647Y-50543146D01*
X114043146Y-50417647D01*
X114190716Y-50319044D01*
X114354688Y-50251124D01*
X114503988Y-50221427D01*
X114528758Y-50216500D01*
X114706242Y-50216500D01*
X114731012Y-50221427D01*
G37*
G36*
X160562049Y-49671116D02*
G01*
X160673234Y-49693232D01*
X160882703Y-49779997D01*
X161071220Y-49905960D01*
X161231540Y-50066280D01*
X161357503Y-50254797D01*
X161424958Y-50417647D01*
X161444268Y-50464267D01*
X161488500Y-50686635D01*
X161488500Y-50913365D01*
X161466384Y-51024549D01*
X161444268Y-51135734D01*
X161357503Y-51345203D01*
X161231540Y-51533720D01*
X161071220Y-51694040D01*
X160882703Y-51820003D01*
X160673234Y-51906768D01*
X160562049Y-51928884D01*
X160450865Y-51951000D01*
X160224135Y-51951000D01*
X160112951Y-51928884D01*
X160001766Y-51906768D01*
X159792297Y-51820003D01*
X159603780Y-51694040D01*
X159443460Y-51533720D01*
X159317497Y-51345203D01*
X159230732Y-51135734D01*
X159208616Y-51024549D01*
X159186500Y-50913365D01*
X159186500Y-50686635D01*
X159230732Y-50464267D01*
X159250043Y-50417647D01*
X159317497Y-50254797D01*
X159443460Y-50066280D01*
X159603780Y-49905960D01*
X159792297Y-49779997D01*
X160001766Y-49693232D01*
X160112951Y-49671116D01*
X160224135Y-49649000D01*
X160450865Y-49649000D01*
X160562049Y-49671116D01*
G37*
G36*
X84362049Y-49671116D02*
G01*
X84473234Y-49693232D01*
X84682703Y-49779997D01*
X84871220Y-49905960D01*
X85031540Y-50066280D01*
X85157503Y-50254797D01*
X85224958Y-50417647D01*
X85244268Y-50464267D01*
X85288500Y-50686635D01*
X85288500Y-50913365D01*
X85266384Y-51024549D01*
X85244268Y-51135734D01*
X85157503Y-51345203D01*
X85031540Y-51533720D01*
X84871220Y-51694040D01*
X84682703Y-51820003D01*
X84473234Y-51906768D01*
X84362049Y-51928884D01*
X84250865Y-51951000D01*
X84024135Y-51951000D01*
X83912951Y-51928884D01*
X83801766Y-51906768D01*
X83592297Y-51820003D01*
X83403780Y-51694040D01*
X83243460Y-51533720D01*
X83117497Y-51345203D01*
X83030732Y-51135734D01*
X83008616Y-51024549D01*
X82986500Y-50913365D01*
X82986500Y-50686635D01*
X83030732Y-50464267D01*
X83050043Y-50417647D01*
X83117497Y-50254797D01*
X83243460Y-50066280D01*
X83403780Y-49905960D01*
X83592297Y-49779997D01*
X83801766Y-49693232D01*
X83912951Y-49671116D01*
X84024135Y-49649000D01*
X84250865Y-49649000D01*
X84362049Y-49671116D01*
G37*
G36*
X135162049Y-49036116D02*
G01*
X135273234Y-49058232D01*
X135482703Y-49144997D01*
X135671220Y-49270960D01*
X135831540Y-49431280D01*
X135957503Y-49619797D01*
X136044268Y-49829266D01*
X136088500Y-50051636D01*
X136088500Y-50278364D01*
X136044268Y-50500734D01*
X135957503Y-50710203D01*
X135831540Y-50898720D01*
X135671220Y-51059040D01*
X135482703Y-51185003D01*
X135273234Y-51271768D01*
X135162049Y-51293884D01*
X135050865Y-51316000D01*
X134824135Y-51316000D01*
X134712951Y-51293884D01*
X134601766Y-51271768D01*
X134392297Y-51185003D01*
X134203780Y-51059040D01*
X134043460Y-50898720D01*
X133917497Y-50710203D01*
X133830732Y-50500734D01*
X133786500Y-50278364D01*
X133786500Y-50051636D01*
X133830732Y-49829266D01*
X133917497Y-49619797D01*
X134043460Y-49431280D01*
X134203780Y-49270960D01*
X134392297Y-49144997D01*
X134601766Y-49058232D01*
X134712951Y-49036116D01*
X134824135Y-49014000D01*
X135050865Y-49014000D01*
X135162049Y-49036116D01*
G37*
G36*
X97062049Y-49036116D02*
G01*
X97173234Y-49058232D01*
X97382703Y-49144997D01*
X97571220Y-49270960D01*
X97731540Y-49431280D01*
X97857503Y-49619797D01*
X97944268Y-49829266D01*
X97988500Y-50051636D01*
X97988500Y-50278364D01*
X97944268Y-50500734D01*
X97857503Y-50710203D01*
X97731540Y-50898720D01*
X97571220Y-51059040D01*
X97382703Y-51185003D01*
X97173234Y-51271768D01*
X97062049Y-51293884D01*
X96950865Y-51316000D01*
X96724135Y-51316000D01*
X96612951Y-51293884D01*
X96501766Y-51271768D01*
X96292297Y-51185003D01*
X96103780Y-51059040D01*
X95943460Y-50898720D01*
X95817497Y-50710203D01*
X95730732Y-50500734D01*
X95686500Y-50278364D01*
X95686500Y-50051636D01*
X95730732Y-49829266D01*
X95817497Y-49619797D01*
X95943460Y-49431280D01*
X96103780Y-49270960D01*
X96292297Y-49144997D01*
X96501766Y-49058232D01*
X96612951Y-49036116D01*
X96724135Y-49014000D01*
X96950865Y-49014000D01*
X97062049Y-49036116D01*
G37*
G36*
X116112049Y-47448616D02*
G01*
X116223234Y-47470732D01*
X116432703Y-47557497D01*
X116621220Y-47683460D01*
X116781540Y-47843780D01*
X116907503Y-48032297D01*
X116994268Y-48241766D01*
X117038500Y-48464136D01*
X117038500Y-48690864D01*
X116994268Y-48913234D01*
X116907503Y-49122703D01*
X116781540Y-49311220D01*
X116621220Y-49471540D01*
X116432703Y-49597503D01*
X116223234Y-49684268D01*
X116112049Y-49706384D01*
X116000865Y-49728500D01*
X115774135Y-49728500D01*
X115662951Y-49706384D01*
X115551766Y-49684268D01*
X115342297Y-49597503D01*
X115153780Y-49471540D01*
X114993460Y-49311220D01*
X114867497Y-49122703D01*
X114780732Y-48913234D01*
X114736500Y-48690864D01*
X114736500Y-48464136D01*
X114780732Y-48241766D01*
X114867497Y-48032297D01*
X114993460Y-47843780D01*
X115153780Y-47683460D01*
X115342297Y-47557497D01*
X115551766Y-47470732D01*
X115662951Y-47448616D01*
X115774135Y-47426500D01*
X116000865Y-47426500D01*
X116112049Y-47448616D01*
G37*
G36*
X103398088Y-46493339D02*
G01*
X103523234Y-46518232D01*
X103732703Y-46604997D01*
X103921220Y-46730960D01*
X104081540Y-46891280D01*
X104206195Y-47077840D01*
X104207504Y-47079799D01*
X104294268Y-47289267D01*
X104338500Y-47511635D01*
X104338500Y-47738365D01*
X104320173Y-47830500D01*
X104294268Y-47960734D01*
X104207503Y-48170203D01*
X104081540Y-48358720D01*
X103921220Y-48519040D01*
X103732703Y-48645003D01*
X103523234Y-48731768D01*
X103412049Y-48753884D01*
X103300865Y-48776000D01*
X103074135Y-48776000D01*
X102962951Y-48753884D01*
X102851766Y-48731768D01*
X102642297Y-48645003D01*
X102453780Y-48519040D01*
X102293460Y-48358720D01*
X102167497Y-48170203D01*
X102080732Y-47960734D01*
X102054827Y-47830500D01*
X102036500Y-47738365D01*
X102036500Y-47511635D01*
X102080732Y-47289267D01*
X102167496Y-47079799D01*
X102168805Y-47077840D01*
X102293460Y-46891280D01*
X102453780Y-46730960D01*
X102642297Y-46604997D01*
X102851766Y-46518232D01*
X102976912Y-46493339D01*
X103074135Y-46474000D01*
X103300865Y-46474000D01*
X103398088Y-46493339D01*
G37*
G36*
X141498088Y-46493339D02*
G01*
X141623234Y-46518232D01*
X141832703Y-46604997D01*
X142021220Y-46730960D01*
X142181540Y-46891280D01*
X142306195Y-47077840D01*
X142307504Y-47079799D01*
X142394268Y-47289267D01*
X142438500Y-47511635D01*
X142438500Y-47738365D01*
X142420173Y-47830500D01*
X142394268Y-47960734D01*
X142307503Y-48170203D01*
X142181540Y-48358720D01*
X142021220Y-48519040D01*
X141832703Y-48645003D01*
X141623234Y-48731768D01*
X141512049Y-48753884D01*
X141400865Y-48776000D01*
X141174135Y-48776000D01*
X141062951Y-48753884D01*
X140951766Y-48731768D01*
X140742297Y-48645003D01*
X140553780Y-48519040D01*
X140393460Y-48358720D01*
X140267497Y-48170203D01*
X140180732Y-47960734D01*
X140154827Y-47830500D01*
X140136500Y-47738365D01*
X140136500Y-47511635D01*
X140180732Y-47289267D01*
X140267496Y-47079799D01*
X140268805Y-47077840D01*
X140393460Y-46891280D01*
X140553780Y-46730960D01*
X140742297Y-46604997D01*
X140951766Y-46518232D01*
X141076912Y-46493339D01*
X141174135Y-46474000D01*
X141400865Y-46474000D01*
X141498088Y-46493339D01*
G37*
G36*
X61894928Y-47657764D02*
G01*
X61916009Y-47664160D01*
X61935445Y-47674548D01*
X61952476Y-47688524D01*
X61966452Y-47705555D01*
X61976840Y-47724991D01*
X61983236Y-47746072D01*
X61986000Y-47774140D01*
X61986000Y-48237860D01*
X61983236Y-48265928D01*
X61976840Y-48287009D01*
X61966452Y-48306445D01*
X61952476Y-48323476D01*
X61935445Y-48337452D01*
X61916009Y-48347840D01*
X61894928Y-48354236D01*
X61866860Y-48357000D01*
X60053140Y-48357000D01*
X60025072Y-48354236D01*
X60003991Y-48347840D01*
X59984555Y-48337452D01*
X59967524Y-48323476D01*
X59953548Y-48306445D01*
X59943160Y-48287009D01*
X59936764Y-48265928D01*
X59934000Y-48237860D01*
X59934000Y-47774140D01*
X59936764Y-47746072D01*
X59943160Y-47724991D01*
X59953548Y-47705555D01*
X59967524Y-47688524D01*
X59984555Y-47674548D01*
X60003991Y-47664160D01*
X60025072Y-47657764D01*
X60053140Y-47655000D01*
X61866860Y-47655000D01*
X61894928Y-47657764D01*
G37*
G36*
X56944928Y-47657764D02*
G01*
X56966009Y-47664160D01*
X56985445Y-47674548D01*
X57002476Y-47688524D01*
X57016452Y-47705555D01*
X57026840Y-47724991D01*
X57033236Y-47746072D01*
X57036000Y-47774140D01*
X57036000Y-48237860D01*
X57033236Y-48265928D01*
X57026840Y-48287009D01*
X57016452Y-48306445D01*
X57002476Y-48323476D01*
X56985445Y-48337452D01*
X56966009Y-48347840D01*
X56944928Y-48354236D01*
X56916860Y-48357000D01*
X55103140Y-48357000D01*
X55075072Y-48354236D01*
X55053991Y-48347840D01*
X55034555Y-48337452D01*
X55017524Y-48323476D01*
X55003548Y-48306445D01*
X54993160Y-48287009D01*
X54986764Y-48265928D01*
X54984000Y-48237860D01*
X54984000Y-47774140D01*
X54986764Y-47746072D01*
X54993160Y-47724991D01*
X55003548Y-47705555D01*
X55017524Y-47688524D01*
X55034555Y-47674548D01*
X55053991Y-47664160D01*
X55075072Y-47657764D01*
X55103140Y-47655000D01*
X56916860Y-47655000D01*
X56944928Y-47657764D01*
G37*
G36*
X122462049Y-44908616D02*
G01*
X122573234Y-44930732D01*
X122782703Y-45017497D01*
X122971220Y-45143460D01*
X123131540Y-45303780D01*
X123257503Y-45492297D01*
X123344268Y-45701766D01*
X123388500Y-45924136D01*
X123388500Y-46150864D01*
X123344268Y-46373234D01*
X123257503Y-46582703D01*
X123131540Y-46771220D01*
X122971220Y-46931540D01*
X122782703Y-47057503D01*
X122782702Y-47057504D01*
X122782701Y-47057504D01*
X122733605Y-47077840D01*
X122573234Y-47144268D01*
X122462049Y-47166384D01*
X122350865Y-47188500D01*
X122124135Y-47188500D01*
X122012951Y-47166384D01*
X121901766Y-47144268D01*
X121741395Y-47077840D01*
X121692299Y-47057504D01*
X121692298Y-47057504D01*
X121692297Y-47057503D01*
X121503780Y-46931540D01*
X121343460Y-46771220D01*
X121217497Y-46582703D01*
X121130732Y-46373234D01*
X121086500Y-46150864D01*
X121086500Y-45924136D01*
X121130732Y-45701766D01*
X121217497Y-45492297D01*
X121343460Y-45303780D01*
X121503780Y-45143460D01*
X121692297Y-45017497D01*
X121901766Y-44930732D01*
X122012951Y-44908616D01*
X122124135Y-44886500D01*
X122350865Y-44886500D01*
X122462049Y-44908616D01*
G37*
G36*
X61894928Y-46387764D02*
G01*
X61916009Y-46394160D01*
X61935445Y-46404548D01*
X61952476Y-46418524D01*
X61966452Y-46435555D01*
X61976840Y-46454991D01*
X61983236Y-46476072D01*
X61986000Y-46504140D01*
X61986000Y-46967860D01*
X61983236Y-46995928D01*
X61976840Y-47017009D01*
X61966452Y-47036445D01*
X61952476Y-47053476D01*
X61935445Y-47067452D01*
X61916009Y-47077840D01*
X61894928Y-47084236D01*
X61866860Y-47087000D01*
X60053140Y-47087000D01*
X60025072Y-47084236D01*
X60003991Y-47077840D01*
X59984555Y-47067452D01*
X59967524Y-47053476D01*
X59953548Y-47036445D01*
X59943160Y-47017009D01*
X59936764Y-46995928D01*
X59934000Y-46967860D01*
X59934000Y-46504140D01*
X59936764Y-46476072D01*
X59943160Y-46454991D01*
X59953548Y-46435555D01*
X59967524Y-46418524D01*
X59984555Y-46404548D01*
X60003991Y-46394160D01*
X60025072Y-46387764D01*
X60053140Y-46385000D01*
X61866860Y-46385000D01*
X61894928Y-46387764D01*
G37*
G36*
X56944928Y-46387764D02*
G01*
X56966009Y-46394160D01*
X56985445Y-46404548D01*
X57002476Y-46418524D01*
X57016452Y-46435555D01*
X57026840Y-46454991D01*
X57033236Y-46476072D01*
X57036000Y-46504140D01*
X57036000Y-46967860D01*
X57033236Y-46995928D01*
X57026840Y-47017009D01*
X57016452Y-47036445D01*
X57002476Y-47053476D01*
X56985445Y-47067452D01*
X56966009Y-47077840D01*
X56944928Y-47084236D01*
X56916860Y-47087000D01*
X55103140Y-47087000D01*
X55075072Y-47084236D01*
X55053991Y-47077840D01*
X55034555Y-47067452D01*
X55017524Y-47053476D01*
X55003548Y-47036445D01*
X54993160Y-47017009D01*
X54986764Y-46995928D01*
X54984000Y-46967860D01*
X54984000Y-46504140D01*
X54986764Y-46476072D01*
X54993160Y-46454991D01*
X55003548Y-46435555D01*
X55017524Y-46418524D01*
X55034555Y-46404548D01*
X55053991Y-46394160D01*
X55075072Y-46387764D01*
X55103140Y-46385000D01*
X56916860Y-46385000D01*
X56944928Y-46387764D01*
G37*
G36*
X56944928Y-45117764D02*
G01*
X56966009Y-45124160D01*
X56985445Y-45134548D01*
X57002476Y-45148524D01*
X57016452Y-45165555D01*
X57026840Y-45184991D01*
X57033236Y-45206072D01*
X57036000Y-45234140D01*
X57036000Y-45697860D01*
X57033236Y-45725928D01*
X57026840Y-45747009D01*
X57016452Y-45766445D01*
X57002476Y-45783476D01*
X56985445Y-45797452D01*
X56966009Y-45807840D01*
X56944928Y-45814236D01*
X56916860Y-45817000D01*
X55103140Y-45817000D01*
X55075072Y-45814236D01*
X55053991Y-45807840D01*
X55034555Y-45797452D01*
X55017524Y-45783476D01*
X55003548Y-45766445D01*
X54993160Y-45747009D01*
X54986764Y-45725928D01*
X54984000Y-45697860D01*
X54984000Y-45234140D01*
X54986764Y-45206072D01*
X54993160Y-45184991D01*
X55003548Y-45165555D01*
X55017524Y-45148524D01*
X55034555Y-45134548D01*
X55053991Y-45124160D01*
X55075072Y-45117764D01*
X55103140Y-45115000D01*
X56916860Y-45115000D01*
X56944928Y-45117764D01*
G37*
G36*
X61894928Y-45117764D02*
G01*
X61916009Y-45124160D01*
X61935445Y-45134548D01*
X61952476Y-45148524D01*
X61966452Y-45165555D01*
X61976840Y-45184991D01*
X61983236Y-45206072D01*
X61986000Y-45234140D01*
X61986000Y-45697860D01*
X61983236Y-45725928D01*
X61976840Y-45747009D01*
X61966452Y-45766445D01*
X61952476Y-45783476D01*
X61935445Y-45797452D01*
X61916009Y-45807840D01*
X61894928Y-45814236D01*
X61866860Y-45817000D01*
X60053140Y-45817000D01*
X60025072Y-45814236D01*
X60003991Y-45807840D01*
X59984555Y-45797452D01*
X59967524Y-45783476D01*
X59953548Y-45766445D01*
X59943160Y-45747009D01*
X59936764Y-45725928D01*
X59934000Y-45697860D01*
X59934000Y-45234140D01*
X59936764Y-45206072D01*
X59943160Y-45184991D01*
X59953548Y-45165555D01*
X59967524Y-45148524D01*
X59984555Y-45134548D01*
X60003991Y-45124160D01*
X60025072Y-45117764D01*
X60053140Y-45115000D01*
X61866860Y-45115000D01*
X61894928Y-45117764D01*
G37*
G36*
X56944928Y-43847764D02*
G01*
X56966009Y-43854160D01*
X56985445Y-43864548D01*
X57002476Y-43878524D01*
X57016452Y-43895555D01*
X57026840Y-43914991D01*
X57033236Y-43936072D01*
X57036000Y-43964140D01*
X57036000Y-44427860D01*
X57033236Y-44455928D01*
X57026840Y-44477009D01*
X57016452Y-44496445D01*
X57002476Y-44513476D01*
X56985445Y-44527452D01*
X56966009Y-44537840D01*
X56944928Y-44544236D01*
X56916860Y-44547000D01*
X55103140Y-44547000D01*
X55075072Y-44544236D01*
X55053991Y-44537840D01*
X55034555Y-44527452D01*
X55017524Y-44513476D01*
X55003548Y-44496445D01*
X54993160Y-44477009D01*
X54986764Y-44455928D01*
X54984000Y-44427860D01*
X54984000Y-43964140D01*
X54986764Y-43936072D01*
X54993160Y-43914991D01*
X55003548Y-43895555D01*
X55017524Y-43878524D01*
X55034555Y-43864548D01*
X55053991Y-43854160D01*
X55075072Y-43847764D01*
X55103140Y-43845000D01*
X56916860Y-43845000D01*
X56944928Y-43847764D01*
G37*
G36*
X61894928Y-43847764D02*
G01*
X61916009Y-43854160D01*
X61935445Y-43864548D01*
X61952476Y-43878524D01*
X61966452Y-43895555D01*
X61976840Y-43914991D01*
X61983236Y-43936072D01*
X61986000Y-43964140D01*
X61986000Y-44427860D01*
X61983236Y-44455928D01*
X61976840Y-44477009D01*
X61966452Y-44496445D01*
X61952476Y-44513476D01*
X61935445Y-44527452D01*
X61916009Y-44537840D01*
X61894928Y-44544236D01*
X61866860Y-44547000D01*
X60053140Y-44547000D01*
X60025072Y-44544236D01*
X60003991Y-44537840D01*
X59984555Y-44527452D01*
X59967524Y-44513476D01*
X59953548Y-44496445D01*
X59943160Y-44477009D01*
X59936764Y-44455928D01*
X59934000Y-44427860D01*
X59934000Y-43964140D01*
X59936764Y-43936072D01*
X59943160Y-43914991D01*
X59953548Y-43895555D01*
X59967524Y-43878524D01*
X59984555Y-43864548D01*
X60003991Y-43854160D01*
X60025072Y-43847764D01*
X60053140Y-43845000D01*
X61866860Y-43845000D01*
X61894928Y-43847764D01*
G37*
G36*
X177445754Y-38032818D02*
G01*
X177698324Y-38137436D01*
X177819013Y-38187427D01*
X178154936Y-38411884D01*
X178440616Y-38697564D01*
X178665074Y-39033489D01*
X178819682Y-39406746D01*
X178898500Y-39802993D01*
X178898500Y-40207007D01*
X178819682Y-40603254D01*
X178665074Y-40976511D01*
X178665073Y-40976513D01*
X178440616Y-41312436D01*
X178154936Y-41598116D01*
X177819013Y-41822573D01*
X177819012Y-41822574D01*
X177819011Y-41822574D01*
X177445754Y-41977182D01*
X177049507Y-42056000D01*
X176645493Y-42056000D01*
X176249246Y-41977182D01*
X175875989Y-41822574D01*
X175875988Y-41822574D01*
X175875987Y-41822573D01*
X175540064Y-41598116D01*
X175254384Y-41312436D01*
X175029927Y-40976513D01*
X175029926Y-40976511D01*
X174875318Y-40603254D01*
X174796500Y-40207007D01*
X174796500Y-39802993D01*
X174875318Y-39406746D01*
X175029926Y-39033489D01*
X175254384Y-38697564D01*
X175540064Y-38411884D01*
X175875987Y-38187427D01*
X175996676Y-38137436D01*
X176249246Y-38032818D01*
X176645493Y-37954000D01*
X177049507Y-37954000D01*
X177445754Y-38032818D01*
G37*
G36*
X182041012Y-39108927D02*
G01*
X182190312Y-39138624D01*
X182354284Y-39206544D01*
X182501854Y-39305147D01*
X182627353Y-39430646D01*
X182725956Y-39578216D01*
X182793876Y-39742188D01*
X182828500Y-39916259D01*
X182828500Y-40093741D01*
X182793876Y-40267812D01*
X182725956Y-40431784D01*
X182627353Y-40579354D01*
X182501854Y-40704853D01*
X182354284Y-40803456D01*
X182190312Y-40871376D01*
X182041012Y-40901073D01*
X182016242Y-40906000D01*
X181838758Y-40906000D01*
X181813988Y-40901073D01*
X181664688Y-40871376D01*
X181500716Y-40803456D01*
X181353146Y-40704853D01*
X181227647Y-40579354D01*
X181129044Y-40431784D01*
X181061124Y-40267812D01*
X181026500Y-40093741D01*
X181026500Y-39916259D01*
X181061124Y-39742188D01*
X181129044Y-39578216D01*
X181227647Y-39430646D01*
X181353146Y-39305147D01*
X181500716Y-39206544D01*
X181664688Y-39138624D01*
X181813988Y-39108927D01*
X181838758Y-39104000D01*
X182016242Y-39104000D01*
X182041012Y-39108927D01*
G37*
G36*
X171881012Y-39108927D02*
G01*
X172030312Y-39138624D01*
X172194284Y-39206544D01*
X172341854Y-39305147D01*
X172467353Y-39430646D01*
X172565956Y-39578216D01*
X172633876Y-39742188D01*
X172668500Y-39916259D01*
X172668500Y-40093741D01*
X172633876Y-40267812D01*
X172565956Y-40431784D01*
X172467353Y-40579354D01*
X172341854Y-40704853D01*
X172194284Y-40803456D01*
X172030312Y-40871376D01*
X171881012Y-40901073D01*
X171856242Y-40906000D01*
X171678758Y-40906000D01*
X171653988Y-40901073D01*
X171504688Y-40871376D01*
X171340716Y-40803456D01*
X171193146Y-40704853D01*
X171067647Y-40579354D01*
X170969044Y-40431784D01*
X170901124Y-40267812D01*
X170866500Y-40093741D01*
X170866500Y-39916259D01*
X170901124Y-39742188D01*
X170969044Y-39578216D01*
X171067647Y-39430646D01*
X171193146Y-39305147D01*
X171340716Y-39206544D01*
X171504688Y-39138624D01*
X171653988Y-39108927D01*
X171678758Y-39104000D01*
X171856242Y-39104000D01*
X171881012Y-39108927D01*
G37*
G36*
X82195754Y-34857818D02*
G01*
X82448324Y-34962436D01*
X82569013Y-35012427D01*
X82904936Y-35236884D01*
X83190616Y-35522564D01*
X83415074Y-35858489D01*
X83569682Y-36231746D01*
X83648500Y-36627993D01*
X83648500Y-37032007D01*
X83569682Y-37428254D01*
X83415396Y-37800733D01*
X83415073Y-37801513D01*
X83190616Y-38137436D01*
X82904936Y-38423116D01*
X82569013Y-38647573D01*
X82569012Y-38647574D01*
X82569011Y-38647574D01*
X82195754Y-38802182D01*
X81799507Y-38881000D01*
X81395493Y-38881000D01*
X80999246Y-38802182D01*
X80625989Y-38647574D01*
X80625988Y-38647574D01*
X80625987Y-38647573D01*
X80290064Y-38423116D01*
X80004384Y-38137436D01*
X79779927Y-37801513D01*
X79779604Y-37800733D01*
X79625318Y-37428254D01*
X79546500Y-37032007D01*
X79546500Y-36627993D01*
X79625318Y-36231746D01*
X79779926Y-35858489D01*
X80004384Y-35522564D01*
X80290064Y-35236884D01*
X80625987Y-35012427D01*
X80746676Y-34962436D01*
X80999246Y-34857818D01*
X81395493Y-34779000D01*
X81799507Y-34779000D01*
X82195754Y-34857818D01*
G37*
G36*
X158395754Y-34857818D02*
G01*
X158648324Y-34962436D01*
X158769013Y-35012427D01*
X159104936Y-35236884D01*
X159390616Y-35522564D01*
X159615074Y-35858489D01*
X159769682Y-36231746D01*
X159848500Y-36627993D01*
X159848500Y-37032007D01*
X159769682Y-37428254D01*
X159615396Y-37800733D01*
X159615073Y-37801513D01*
X159390616Y-38137436D01*
X159104936Y-38423116D01*
X158769013Y-38647573D01*
X158769012Y-38647574D01*
X158769011Y-38647574D01*
X158395754Y-38802182D01*
X157999507Y-38881000D01*
X157595493Y-38881000D01*
X157199246Y-38802182D01*
X156825989Y-38647574D01*
X156825988Y-38647574D01*
X156825987Y-38647573D01*
X156490064Y-38423116D01*
X156204384Y-38137436D01*
X155979927Y-37801513D01*
X155979604Y-37800733D01*
X155825318Y-37428254D01*
X155746500Y-37032007D01*
X155746500Y-36627993D01*
X155825318Y-36231746D01*
X155979926Y-35858489D01*
X156204384Y-35522564D01*
X156490064Y-35236884D01*
X156825987Y-35012427D01*
X156946676Y-34962436D01*
X157199246Y-34857818D01*
X157595493Y-34779000D01*
X157999507Y-34779000D01*
X158395754Y-34857818D01*
G37*
G36*
X173262049Y-36336116D02*
G01*
X173373234Y-36358232D01*
X173582703Y-36444997D01*
X173771220Y-36570960D01*
X173931540Y-36731280D01*
X174057503Y-36919797D01*
X174144268Y-37129266D01*
X174188500Y-37351636D01*
X174188500Y-37578364D01*
X174144268Y-37800734D01*
X174057503Y-38010203D01*
X173931540Y-38198720D01*
X173771220Y-38359040D01*
X173582703Y-38485003D01*
X173373234Y-38571768D01*
X173262049Y-38593884D01*
X173150865Y-38616000D01*
X172924135Y-38616000D01*
X172812951Y-38593884D01*
X172701766Y-38571768D01*
X172492297Y-38485003D01*
X172303780Y-38359040D01*
X172143460Y-38198720D01*
X172017497Y-38010203D01*
X171930732Y-37800734D01*
X171886500Y-37578364D01*
X171886500Y-37351636D01*
X171930732Y-37129266D01*
X172017497Y-36919797D01*
X172143460Y-36731280D01*
X172303780Y-36570960D01*
X172492297Y-36444997D01*
X172701766Y-36358232D01*
X172812951Y-36336116D01*
X172924135Y-36314000D01*
X173150865Y-36314000D01*
X173262049Y-36336116D01*
G37*
G36*
X162991012Y-35933927D02*
G01*
X163140312Y-35963624D01*
X163304284Y-36031544D01*
X163451854Y-36130147D01*
X163577353Y-36255646D01*
X163675956Y-36403216D01*
X163743876Y-36567188D01*
X163778500Y-36741259D01*
X163778500Y-36918741D01*
X163743876Y-37092812D01*
X163675956Y-37256784D01*
X163577353Y-37404354D01*
X163451854Y-37529853D01*
X163304284Y-37628456D01*
X163140312Y-37696376D01*
X162991012Y-37726073D01*
X162966242Y-37731000D01*
X162788758Y-37731000D01*
X162763988Y-37726073D01*
X162614688Y-37696376D01*
X162450716Y-37628456D01*
X162303146Y-37529853D01*
X162177647Y-37404354D01*
X162079044Y-37256784D01*
X162011124Y-37092812D01*
X161976500Y-36918741D01*
X161976500Y-36741259D01*
X162011124Y-36567188D01*
X162079044Y-36403216D01*
X162177647Y-36255646D01*
X162303146Y-36130147D01*
X162450716Y-36031544D01*
X162614688Y-35963624D01*
X162763988Y-35933927D01*
X162788758Y-35929000D01*
X162966242Y-35929000D01*
X162991012Y-35933927D01*
G37*
G36*
X152831012Y-35933927D02*
G01*
X152980312Y-35963624D01*
X153144284Y-36031544D01*
X153291854Y-36130147D01*
X153417353Y-36255646D01*
X153515956Y-36403216D01*
X153583876Y-36567188D01*
X153618500Y-36741259D01*
X153618500Y-36918741D01*
X153583876Y-37092812D01*
X153515956Y-37256784D01*
X153417353Y-37404354D01*
X153291854Y-37529853D01*
X153144284Y-37628456D01*
X152980312Y-37696376D01*
X152831012Y-37726073D01*
X152806242Y-37731000D01*
X152628758Y-37731000D01*
X152603988Y-37726073D01*
X152454688Y-37696376D01*
X152290716Y-37628456D01*
X152143146Y-37529853D01*
X152017647Y-37404354D01*
X151919044Y-37256784D01*
X151851124Y-37092812D01*
X151816500Y-36918741D01*
X151816500Y-36741259D01*
X151851124Y-36567188D01*
X151919044Y-36403216D01*
X152017647Y-36255646D01*
X152143146Y-36130147D01*
X152290716Y-36031544D01*
X152454688Y-35963624D01*
X152603988Y-35933927D01*
X152628758Y-35929000D01*
X152806242Y-35929000D01*
X152831012Y-35933927D01*
G37*
G36*
X76631012Y-35933927D02*
G01*
X76780312Y-35963624D01*
X76944284Y-36031544D01*
X77091854Y-36130147D01*
X77217353Y-36255646D01*
X77315956Y-36403216D01*
X77383876Y-36567188D01*
X77418500Y-36741259D01*
X77418500Y-36918741D01*
X77383876Y-37092812D01*
X77315956Y-37256784D01*
X77217353Y-37404354D01*
X77091854Y-37529853D01*
X76944284Y-37628456D01*
X76780312Y-37696376D01*
X76631012Y-37726073D01*
X76606242Y-37731000D01*
X76428758Y-37731000D01*
X76403988Y-37726073D01*
X76254688Y-37696376D01*
X76090716Y-37628456D01*
X75943146Y-37529853D01*
X75817647Y-37404354D01*
X75719044Y-37256784D01*
X75651124Y-37092812D01*
X75616500Y-36918741D01*
X75616500Y-36741259D01*
X75651124Y-36567188D01*
X75719044Y-36403216D01*
X75817647Y-36255646D01*
X75943146Y-36130147D01*
X76090716Y-36031544D01*
X76254688Y-35963624D01*
X76403988Y-35933927D01*
X76428758Y-35929000D01*
X76606242Y-35929000D01*
X76631012Y-35933927D01*
G37*
G36*
X86791012Y-35933927D02*
G01*
X86940312Y-35963624D01*
X87104284Y-36031544D01*
X87251854Y-36130147D01*
X87377353Y-36255646D01*
X87475956Y-36403216D01*
X87543876Y-36567188D01*
X87578500Y-36741259D01*
X87578500Y-36918741D01*
X87543876Y-37092812D01*
X87475956Y-37256784D01*
X87377353Y-37404354D01*
X87251854Y-37529853D01*
X87104284Y-37628456D01*
X86940312Y-37696376D01*
X86791012Y-37726073D01*
X86766242Y-37731000D01*
X86588758Y-37731000D01*
X86563988Y-37726073D01*
X86414688Y-37696376D01*
X86250716Y-37628456D01*
X86103146Y-37529853D01*
X85977647Y-37404354D01*
X85879044Y-37256784D01*
X85811124Y-37092812D01*
X85776500Y-36918741D01*
X85776500Y-36741259D01*
X85811124Y-36567188D01*
X85879044Y-36403216D01*
X85977647Y-36255646D01*
X86103146Y-36130147D01*
X86250716Y-36031544D01*
X86414688Y-35963624D01*
X86563988Y-35933927D01*
X86588758Y-35929000D01*
X86766242Y-35929000D01*
X86791012Y-35933927D01*
G37*
G36*
X179541083Y-33782000D02*
G01*
X179723234Y-33818232D01*
X179932703Y-33904997D01*
X180121220Y-34030960D01*
X180281540Y-34191280D01*
X180407503Y-34379797D01*
X180494268Y-34589266D01*
X180538500Y-34811636D01*
X180538500Y-35038364D01*
X180494268Y-35260734D01*
X180407503Y-35470203D01*
X180281540Y-35658720D01*
X180121220Y-35819040D01*
X179932703Y-35945003D01*
X179723234Y-36031768D01*
X179612049Y-36053884D01*
X179500865Y-36076000D01*
X179274135Y-36076000D01*
X179162951Y-36053884D01*
X179051766Y-36031768D01*
X178842297Y-35945003D01*
X178653780Y-35819040D01*
X178493460Y-35658720D01*
X178367497Y-35470203D01*
X178280732Y-35260734D01*
X178236500Y-35038364D01*
X178236500Y-34811636D01*
X178280732Y-34589266D01*
X178367497Y-34379797D01*
X178493460Y-34191280D01*
X178653780Y-34030960D01*
X178842297Y-33904997D01*
X179051766Y-33818232D01*
X179233917Y-33782000D01*
X179274135Y-33774000D01*
X179500865Y-33774000D01*
X179541083Y-33782000D01*
G37*
G36*
X139345754Y-31682818D02*
G01*
X139719011Y-31837426D01*
X139719013Y-31837427D01*
X140054936Y-32061884D01*
X140340616Y-32347564D01*
X140537255Y-32641854D01*
X140565074Y-32683489D01*
X140719682Y-33056746D01*
X140798500Y-33452993D01*
X140798500Y-33857007D01*
X140719682Y-34253254D01*
X140580501Y-34589266D01*
X140565073Y-34626513D01*
X140340616Y-34962436D01*
X140054936Y-35248116D01*
X139719013Y-35472573D01*
X139719012Y-35472574D01*
X139719011Y-35472574D01*
X139345754Y-35627182D01*
X138949507Y-35706000D01*
X138545493Y-35706000D01*
X138149246Y-35627182D01*
X137775989Y-35472574D01*
X137775988Y-35472574D01*
X137775987Y-35472573D01*
X137440064Y-35248116D01*
X137154384Y-34962436D01*
X136929927Y-34626513D01*
X136914499Y-34589266D01*
X136775318Y-34253254D01*
X136696500Y-33857007D01*
X136696500Y-33452993D01*
X136775318Y-33056746D01*
X136929926Y-32683489D01*
X136957746Y-32641854D01*
X137154384Y-32347564D01*
X137440064Y-32061884D01*
X137775987Y-31837427D01*
X137775989Y-31837426D01*
X138149246Y-31682818D01*
X138545493Y-31604000D01*
X138949507Y-31604000D01*
X139345754Y-31682818D01*
G37*
G36*
X101245754Y-31682818D02*
G01*
X101619011Y-31837426D01*
X101619013Y-31837427D01*
X101954936Y-32061884D01*
X102240616Y-32347564D01*
X102437255Y-32641854D01*
X102465074Y-32683489D01*
X102619682Y-33056746D01*
X102698500Y-33452993D01*
X102698500Y-33857007D01*
X102619682Y-34253254D01*
X102480501Y-34589266D01*
X102465073Y-34626513D01*
X102240616Y-34962436D01*
X101954936Y-35248116D01*
X101619013Y-35472573D01*
X101619012Y-35472574D01*
X101619011Y-35472574D01*
X101245754Y-35627182D01*
X100849507Y-35706000D01*
X100445493Y-35706000D01*
X100049246Y-35627182D01*
X99675989Y-35472574D01*
X99675988Y-35472574D01*
X99675987Y-35472573D01*
X99340064Y-35248116D01*
X99054384Y-34962436D01*
X98829927Y-34626513D01*
X98814499Y-34589266D01*
X98675318Y-34253254D01*
X98596500Y-33857007D01*
X98596500Y-33452993D01*
X98675318Y-33056746D01*
X98829926Y-32683489D01*
X98857746Y-32641854D01*
X99054384Y-32347564D01*
X99340064Y-32061884D01*
X99675987Y-31837427D01*
X99675989Y-31837426D01*
X100049246Y-31682818D01*
X100445493Y-31604000D01*
X100849507Y-31604000D01*
X101245754Y-31682818D01*
G37*
G36*
X78012049Y-33161116D02*
G01*
X78123234Y-33183232D01*
X78332703Y-33269997D01*
X78521220Y-33395960D01*
X78681540Y-33556280D01*
X78807503Y-33744797D01*
X78894268Y-33954266D01*
X78938500Y-34176636D01*
X78938500Y-34403364D01*
X78894268Y-34625734D01*
X78807503Y-34835203D01*
X78681540Y-35023720D01*
X78521220Y-35184040D01*
X78332703Y-35310003D01*
X78123234Y-35396768D01*
X78012049Y-35418884D01*
X77900865Y-35441000D01*
X77674135Y-35441000D01*
X77562951Y-35418884D01*
X77451766Y-35396768D01*
X77242297Y-35310003D01*
X77053780Y-35184040D01*
X76893460Y-35023720D01*
X76767497Y-34835203D01*
X76680732Y-34625734D01*
X76636500Y-34403364D01*
X76636500Y-34176636D01*
X76680732Y-33954266D01*
X76767497Y-33744797D01*
X76893460Y-33556280D01*
X77053780Y-33395960D01*
X77242297Y-33269997D01*
X77451766Y-33183232D01*
X77562951Y-33161116D01*
X77674135Y-33139000D01*
X77900865Y-33139000D01*
X78012049Y-33161116D01*
G37*
G36*
X154212049Y-33161116D02*
G01*
X154323234Y-33183232D01*
X154532703Y-33269997D01*
X154721220Y-33395960D01*
X154881540Y-33556280D01*
X155007503Y-33744797D01*
X155094268Y-33954266D01*
X155138500Y-34176636D01*
X155138500Y-34403364D01*
X155094268Y-34625734D01*
X155007503Y-34835203D01*
X154881540Y-35023720D01*
X154721220Y-35184040D01*
X154532703Y-35310003D01*
X154323234Y-35396768D01*
X154212049Y-35418884D01*
X154100865Y-35441000D01*
X153874135Y-35441000D01*
X153762951Y-35418884D01*
X153651766Y-35396768D01*
X153442297Y-35310003D01*
X153253780Y-35184040D01*
X153093460Y-35023720D01*
X152967497Y-34835203D01*
X152880732Y-34625734D01*
X152836500Y-34403364D01*
X152836500Y-34176636D01*
X152880732Y-33954266D01*
X152967497Y-33744797D01*
X153093460Y-33556280D01*
X153253780Y-33395960D01*
X153442297Y-33269997D01*
X153651766Y-33183232D01*
X153762951Y-33161116D01*
X153874135Y-33139000D01*
X154100865Y-33139000D01*
X154212049Y-33161116D01*
G37*
G36*
X133781012Y-32758927D02*
G01*
X133930312Y-32788624D01*
X134094284Y-32856544D01*
X134241854Y-32955147D01*
X134367353Y-33080646D01*
X134465956Y-33228216D01*
X134533876Y-33392188D01*
X134568500Y-33566259D01*
X134568500Y-33743741D01*
X134533876Y-33917812D01*
X134465956Y-34081784D01*
X134367353Y-34229354D01*
X134241854Y-34354853D01*
X134094284Y-34453456D01*
X133930312Y-34521376D01*
X133781012Y-34551073D01*
X133756242Y-34556000D01*
X133578758Y-34556000D01*
X133553988Y-34551073D01*
X133404688Y-34521376D01*
X133240716Y-34453456D01*
X133093146Y-34354853D01*
X132967647Y-34229354D01*
X132869044Y-34081784D01*
X132801124Y-33917812D01*
X132766500Y-33743741D01*
X132766500Y-33566259D01*
X132801124Y-33392188D01*
X132869044Y-33228216D01*
X132967647Y-33080646D01*
X133093146Y-32955147D01*
X133240716Y-32856544D01*
X133404688Y-32788624D01*
X133553988Y-32758927D01*
X133578758Y-32754000D01*
X133756242Y-32754000D01*
X133781012Y-32758927D01*
G37*
G36*
X95681012Y-32758927D02*
G01*
X95830312Y-32788624D01*
X95994284Y-32856544D01*
X96141854Y-32955147D01*
X96267353Y-33080646D01*
X96365956Y-33228216D01*
X96433876Y-33392188D01*
X96468500Y-33566259D01*
X96468500Y-33743741D01*
X96433876Y-33917812D01*
X96365956Y-34081784D01*
X96267353Y-34229354D01*
X96141854Y-34354853D01*
X95994284Y-34453456D01*
X95830312Y-34521376D01*
X95681012Y-34551073D01*
X95656242Y-34556000D01*
X95478758Y-34556000D01*
X95453988Y-34551073D01*
X95304688Y-34521376D01*
X95140716Y-34453456D01*
X94993146Y-34354853D01*
X94867647Y-34229354D01*
X94769044Y-34081784D01*
X94701124Y-33917812D01*
X94666500Y-33743741D01*
X94666500Y-33566259D01*
X94701124Y-33392188D01*
X94769044Y-33228216D01*
X94867647Y-33080646D01*
X94993146Y-32955147D01*
X95140716Y-32856544D01*
X95304688Y-32788624D01*
X95453988Y-32758927D01*
X95478758Y-32754000D01*
X95656242Y-32754000D01*
X95681012Y-32758927D01*
G37*
G36*
X143941012Y-32758927D02*
G01*
X144090312Y-32788624D01*
X144254284Y-32856544D01*
X144401854Y-32955147D01*
X144527353Y-33080646D01*
X144625956Y-33228216D01*
X144693876Y-33392188D01*
X144728500Y-33566259D01*
X144728500Y-33743741D01*
X144693876Y-33917812D01*
X144625956Y-34081784D01*
X144527353Y-34229354D01*
X144401854Y-34354853D01*
X144254284Y-34453456D01*
X144090312Y-34521376D01*
X143941012Y-34551073D01*
X143916242Y-34556000D01*
X143738758Y-34556000D01*
X143713988Y-34551073D01*
X143564688Y-34521376D01*
X143400716Y-34453456D01*
X143253146Y-34354853D01*
X143127647Y-34229354D01*
X143029044Y-34081784D01*
X142961124Y-33917812D01*
X142926500Y-33743741D01*
X142926500Y-33566259D01*
X142961124Y-33392188D01*
X143029044Y-33228216D01*
X143127647Y-33080646D01*
X143253146Y-32955147D01*
X143400716Y-32856544D01*
X143564688Y-32788624D01*
X143713988Y-32758927D01*
X143738758Y-32754000D01*
X143916242Y-32754000D01*
X143941012Y-32758927D01*
G37*
G36*
X105841012Y-32758927D02*
G01*
X105990312Y-32788624D01*
X106154284Y-32856544D01*
X106301854Y-32955147D01*
X106427353Y-33080646D01*
X106525956Y-33228216D01*
X106593876Y-33392188D01*
X106628500Y-33566259D01*
X106628500Y-33743741D01*
X106593876Y-33917812D01*
X106525956Y-34081784D01*
X106427353Y-34229354D01*
X106301854Y-34354853D01*
X106154284Y-34453456D01*
X105990312Y-34521376D01*
X105841012Y-34551073D01*
X105816242Y-34556000D01*
X105638758Y-34556000D01*
X105613988Y-34551073D01*
X105464688Y-34521376D01*
X105300716Y-34453456D01*
X105153146Y-34354853D01*
X105027647Y-34229354D01*
X104929044Y-34081784D01*
X104861124Y-33917812D01*
X104826500Y-33743741D01*
X104826500Y-33566259D01*
X104861124Y-33392188D01*
X104929044Y-33228216D01*
X105027647Y-33080646D01*
X105153146Y-32955147D01*
X105300716Y-32856544D01*
X105464688Y-32788624D01*
X105613988Y-32758927D01*
X105638758Y-32754000D01*
X105816242Y-32754000D01*
X105841012Y-32758927D01*
G37*
G36*
X120295754Y-30095318D02*
G01*
X120669011Y-30249926D01*
X120669013Y-30249927D01*
X121004936Y-30474384D01*
X121290616Y-30760064D01*
X121514414Y-31095000D01*
X121515074Y-31095989D01*
X121669682Y-31469246D01*
X121748500Y-31865493D01*
X121748500Y-32269507D01*
X121669682Y-32665754D01*
X121515074Y-33039011D01*
X121515073Y-33039013D01*
X121290616Y-33374936D01*
X121004936Y-33660616D01*
X120669013Y-33885073D01*
X120669012Y-33885074D01*
X120669011Y-33885074D01*
X120295754Y-34039682D01*
X119899507Y-34118500D01*
X119495493Y-34118500D01*
X119099246Y-34039682D01*
X118725989Y-33885074D01*
X118725988Y-33885074D01*
X118725987Y-33885073D01*
X118390064Y-33660616D01*
X118104384Y-33374936D01*
X117879927Y-33039013D01*
X117879926Y-33039011D01*
X117725318Y-32665754D01*
X117646500Y-32269507D01*
X117646500Y-31865493D01*
X117725318Y-31469246D01*
X117879926Y-31095989D01*
X117880587Y-31095000D01*
X118104384Y-30760064D01*
X118390064Y-30474384D01*
X118725987Y-30249927D01*
X118725989Y-30249926D01*
X119099246Y-30095318D01*
X119495493Y-30016500D01*
X119899507Y-30016500D01*
X120295754Y-30095318D01*
G37*
G36*
X186989056Y-30522298D02*
G01*
X187095379Y-30543447D01*
X187307837Y-30631450D01*
X187347061Y-30647697D01*
X187395842Y-30667903D01*
X187666251Y-30848585D01*
X187896215Y-31078549D01*
X188049450Y-31307881D01*
X188076898Y-31348960D01*
X188103949Y-31414267D01*
X188201353Y-31649421D01*
X188218827Y-31737270D01*
X188264800Y-31968389D01*
X188264800Y-32293611D01*
X188254068Y-32347564D01*
X188201353Y-32612579D01*
X188171982Y-32683487D01*
X188100207Y-32856768D01*
X188076897Y-32913042D01*
X187896215Y-33183451D01*
X187666251Y-33413415D01*
X187395842Y-33594097D01*
X187095379Y-33718553D01*
X186989056Y-33739702D01*
X186776411Y-33782000D01*
X186451189Y-33782000D01*
X186238544Y-33739702D01*
X186132221Y-33718553D01*
X185831758Y-33594097D01*
X185561349Y-33413415D01*
X185331385Y-33183451D01*
X185150703Y-32913042D01*
X185127394Y-32856768D01*
X185055618Y-32683487D01*
X185026247Y-32612579D01*
X184973532Y-32347564D01*
X184962800Y-32293611D01*
X184962800Y-31968389D01*
X185008773Y-31737270D01*
X185026247Y-31649421D01*
X185123651Y-31414267D01*
X185150702Y-31348960D01*
X185178150Y-31307881D01*
X185331385Y-31078549D01*
X185561349Y-30848585D01*
X185831758Y-30667903D01*
X185880540Y-30647697D01*
X185919763Y-30631450D01*
X186132221Y-30543447D01*
X186238544Y-30522298D01*
X186451189Y-30480000D01*
X186776411Y-30480000D01*
X186989056Y-30522298D01*
G37*
G36*
X114731012Y-31171427D02*
G01*
X114880312Y-31201124D01*
X115044284Y-31269044D01*
X115191854Y-31367647D01*
X115317353Y-31493146D01*
X115415956Y-31640716D01*
X115483876Y-31804688D01*
X115518500Y-31978759D01*
X115518500Y-32156241D01*
X115483876Y-32330312D01*
X115415956Y-32494284D01*
X115317353Y-32641854D01*
X115191854Y-32767353D01*
X115044284Y-32865956D01*
X114880312Y-32933876D01*
X114731012Y-32963573D01*
X114706242Y-32968500D01*
X114528758Y-32968500D01*
X114503988Y-32963573D01*
X114354688Y-32933876D01*
X114190716Y-32865956D01*
X114043146Y-32767353D01*
X113917647Y-32641854D01*
X113819044Y-32494284D01*
X113751124Y-32330312D01*
X113716500Y-32156241D01*
X113716500Y-31978759D01*
X113751124Y-31804688D01*
X113819044Y-31640716D01*
X113917647Y-31493146D01*
X114043146Y-31367647D01*
X114190716Y-31269044D01*
X114354688Y-31201124D01*
X114503988Y-31171427D01*
X114528758Y-31166500D01*
X114706242Y-31166500D01*
X114731012Y-31171427D01*
G37*
G36*
X124891012Y-31171427D02*
G01*
X125040312Y-31201124D01*
X125204284Y-31269044D01*
X125351854Y-31367647D01*
X125477353Y-31493146D01*
X125575956Y-31640716D01*
X125643876Y-31804688D01*
X125678500Y-31978759D01*
X125678500Y-32156241D01*
X125643876Y-32330312D01*
X125575956Y-32494284D01*
X125477353Y-32641854D01*
X125351854Y-32767353D01*
X125204284Y-32865956D01*
X125040312Y-32933876D01*
X124891012Y-32963573D01*
X124866242Y-32968500D01*
X124688758Y-32968500D01*
X124663988Y-32963573D01*
X124514688Y-32933876D01*
X124350716Y-32865956D01*
X124203146Y-32767353D01*
X124077647Y-32641854D01*
X123979044Y-32494284D01*
X123911124Y-32330312D01*
X123876500Y-32156241D01*
X123876500Y-31978759D01*
X123911124Y-31804688D01*
X123979044Y-31640716D01*
X124077647Y-31493146D01*
X124203146Y-31367647D01*
X124350716Y-31269044D01*
X124514688Y-31201124D01*
X124663988Y-31171427D01*
X124688758Y-31166500D01*
X124866242Y-31166500D01*
X124891012Y-31171427D01*
G37*
G36*
X84362049Y-30621116D02*
G01*
X84473234Y-30643232D01*
X84682703Y-30729997D01*
X84871220Y-30855960D01*
X85031540Y-31016280D01*
X85157503Y-31204797D01*
X85224958Y-31367647D01*
X85244268Y-31414267D01*
X85288500Y-31636635D01*
X85288500Y-31863365D01*
X85267609Y-31968389D01*
X85244268Y-32085734D01*
X85187921Y-32221768D01*
X85158163Y-32293611D01*
X85157503Y-32295203D01*
X85031540Y-32483720D01*
X84871220Y-32644040D01*
X84682703Y-32770003D01*
X84473234Y-32856768D01*
X84362049Y-32878884D01*
X84250865Y-32901000D01*
X84024135Y-32901000D01*
X83912951Y-32878884D01*
X83801766Y-32856768D01*
X83592297Y-32770003D01*
X83403780Y-32644040D01*
X83243460Y-32483720D01*
X83117497Y-32295203D01*
X83116838Y-32293611D01*
X83087079Y-32221768D01*
X83030732Y-32085734D01*
X83007391Y-31968389D01*
X82986500Y-31863365D01*
X82986500Y-31636635D01*
X83030732Y-31414267D01*
X83050043Y-31367647D01*
X83117497Y-31204797D01*
X83243460Y-31016280D01*
X83403780Y-30855960D01*
X83592297Y-30729997D01*
X83801766Y-30643232D01*
X83912951Y-30621116D01*
X84024135Y-30599000D01*
X84250865Y-30599000D01*
X84362049Y-30621116D01*
G37*
G36*
X160562049Y-30621116D02*
G01*
X160673234Y-30643232D01*
X160882703Y-30729997D01*
X161071220Y-30855960D01*
X161231540Y-31016280D01*
X161357503Y-31204797D01*
X161424958Y-31367647D01*
X161444268Y-31414267D01*
X161488500Y-31636635D01*
X161488500Y-31863365D01*
X161467609Y-31968389D01*
X161444268Y-32085734D01*
X161387921Y-32221768D01*
X161358163Y-32293611D01*
X161357503Y-32295203D01*
X161231540Y-32483720D01*
X161071220Y-32644040D01*
X160882703Y-32770003D01*
X160673234Y-32856768D01*
X160562049Y-32878884D01*
X160450865Y-32901000D01*
X160224135Y-32901000D01*
X160112951Y-32878884D01*
X160001766Y-32856768D01*
X159792297Y-32770003D01*
X159603780Y-32644040D01*
X159443460Y-32483720D01*
X159317497Y-32295203D01*
X159316838Y-32293611D01*
X159287079Y-32221768D01*
X159230732Y-32085734D01*
X159207391Y-31968389D01*
X159186500Y-31863365D01*
X159186500Y-31636635D01*
X159230732Y-31414267D01*
X159250043Y-31367647D01*
X159317497Y-31204797D01*
X159443460Y-31016280D01*
X159603780Y-30855960D01*
X159792297Y-30729997D01*
X160001766Y-30643232D01*
X160112951Y-30621116D01*
X160224135Y-30599000D01*
X160450865Y-30599000D01*
X160562049Y-30621116D01*
G37*
G36*
X97062049Y-29986116D02*
G01*
X97173234Y-30008232D01*
X97382703Y-30094997D01*
X97571220Y-30220960D01*
X97731540Y-30381280D01*
X97857503Y-30569797D01*
X97941322Y-30772153D01*
X97944268Y-30779267D01*
X97988500Y-31001635D01*
X97988500Y-31228365D01*
X97980408Y-31269044D01*
X97944268Y-31450734D01*
X97857503Y-31660203D01*
X97731540Y-31848720D01*
X97571220Y-32009040D01*
X97382703Y-32135003D01*
X97173234Y-32221768D01*
X97062049Y-32243884D01*
X96950865Y-32266000D01*
X96724135Y-32266000D01*
X96612951Y-32243884D01*
X96501766Y-32221768D01*
X96292297Y-32135003D01*
X96103780Y-32009040D01*
X95943460Y-31848720D01*
X95817497Y-31660203D01*
X95730732Y-31450734D01*
X95694592Y-31269044D01*
X95686500Y-31228365D01*
X95686500Y-31001635D01*
X95730732Y-30779267D01*
X95733679Y-30772153D01*
X95817497Y-30569797D01*
X95943460Y-30381280D01*
X96103780Y-30220960D01*
X96292297Y-30094997D01*
X96501766Y-30008232D01*
X96612951Y-29986116D01*
X96724135Y-29964000D01*
X96950865Y-29964000D01*
X97062049Y-29986116D01*
G37*
G36*
X135162049Y-29986116D02*
G01*
X135273234Y-30008232D01*
X135482703Y-30094997D01*
X135671220Y-30220960D01*
X135831540Y-30381280D01*
X135957503Y-30569797D01*
X136041322Y-30772153D01*
X136044268Y-30779267D01*
X136088500Y-31001635D01*
X136088500Y-31228365D01*
X136080408Y-31269044D01*
X136044268Y-31450734D01*
X135957503Y-31660203D01*
X135831540Y-31848720D01*
X135671220Y-32009040D01*
X135482703Y-32135003D01*
X135273234Y-32221768D01*
X135162049Y-32243884D01*
X135050865Y-32266000D01*
X134824135Y-32266000D01*
X134712951Y-32243884D01*
X134601766Y-32221768D01*
X134392297Y-32135003D01*
X134203780Y-32009040D01*
X134043460Y-31848720D01*
X133917497Y-31660203D01*
X133830732Y-31450734D01*
X133794592Y-31269044D01*
X133786500Y-31228365D01*
X133786500Y-31001635D01*
X133830732Y-30779267D01*
X133833679Y-30772153D01*
X133917497Y-30569797D01*
X134043460Y-30381280D01*
X134203780Y-30220960D01*
X134392297Y-30094997D01*
X134601766Y-30008232D01*
X134712951Y-29986116D01*
X134824135Y-29964000D01*
X135050865Y-29964000D01*
X135162049Y-29986116D01*
G37*
G36*
X57628231Y-31102705D02*
G01*
X57666967Y-31110410D01*
X57697195Y-31122931D01*
X57739944Y-31140638D01*
X57805622Y-31184523D01*
X57861478Y-31240379D01*
X57871067Y-31254730D01*
X57886613Y-31273672D01*
X57905555Y-31289217D01*
X57927165Y-31300768D01*
X57950614Y-31307881D01*
X57975001Y-31310283D01*
X57999387Y-31307881D01*
X58022836Y-31300768D01*
X58044446Y-31289217D01*
X58063388Y-31273671D01*
X58078933Y-31254730D01*
X58088522Y-31240379D01*
X58144378Y-31184523D01*
X58210056Y-31140638D01*
X58252805Y-31122931D01*
X58283033Y-31110410D01*
X58321769Y-31102705D01*
X58360504Y-31095000D01*
X58439496Y-31095000D01*
X58478231Y-31102705D01*
X58516967Y-31110410D01*
X58547195Y-31122931D01*
X58589944Y-31140638D01*
X58655622Y-31184523D01*
X58711478Y-31240379D01*
X58721067Y-31254730D01*
X58736613Y-31273672D01*
X58755555Y-31289217D01*
X58777165Y-31300768D01*
X58800614Y-31307881D01*
X58825001Y-31310283D01*
X58849387Y-31307881D01*
X58872836Y-31300768D01*
X58894446Y-31289217D01*
X58913388Y-31273671D01*
X58928933Y-31254730D01*
X58938522Y-31240379D01*
X58994378Y-31184523D01*
X59060056Y-31140638D01*
X59102805Y-31122931D01*
X59133033Y-31110410D01*
X59171769Y-31102705D01*
X59210504Y-31095000D01*
X59289496Y-31095000D01*
X59328231Y-31102705D01*
X59366967Y-31110410D01*
X59397195Y-31122931D01*
X59439944Y-31140638D01*
X59505622Y-31184523D01*
X59561478Y-31240379D01*
X59571067Y-31254730D01*
X59586613Y-31273672D01*
X59605555Y-31289217D01*
X59627165Y-31300768D01*
X59650614Y-31307881D01*
X59675001Y-31310283D01*
X59699387Y-31307881D01*
X59722836Y-31300768D01*
X59744446Y-31289217D01*
X59763388Y-31273671D01*
X59778933Y-31254730D01*
X59788522Y-31240379D01*
X59844378Y-31184523D01*
X59910056Y-31140638D01*
X59952805Y-31122931D01*
X59983033Y-31110410D01*
X60021769Y-31102705D01*
X60060504Y-31095000D01*
X60139496Y-31095000D01*
X60178231Y-31102705D01*
X60216967Y-31110410D01*
X60247195Y-31122931D01*
X60289944Y-31140638D01*
X60355622Y-31184523D01*
X60411478Y-31240379D01*
X60421067Y-31254730D01*
X60436613Y-31273672D01*
X60455555Y-31289217D01*
X60477165Y-31300768D01*
X60500614Y-31307881D01*
X60525001Y-31310283D01*
X60549387Y-31307881D01*
X60572836Y-31300768D01*
X60594446Y-31289217D01*
X60613388Y-31273671D01*
X60628933Y-31254730D01*
X60638522Y-31240379D01*
X60694378Y-31184523D01*
X60760056Y-31140638D01*
X60802805Y-31122931D01*
X60833033Y-31110410D01*
X60871769Y-31102705D01*
X60910504Y-31095000D01*
X60989496Y-31095000D01*
X61028231Y-31102705D01*
X61066967Y-31110410D01*
X61097195Y-31122931D01*
X61139944Y-31140638D01*
X61205622Y-31184523D01*
X61261478Y-31240379D01*
X61271067Y-31254730D01*
X61286613Y-31273672D01*
X61305555Y-31289217D01*
X61327165Y-31300768D01*
X61350614Y-31307881D01*
X61375001Y-31310283D01*
X61399387Y-31307881D01*
X61422836Y-31300768D01*
X61444446Y-31289217D01*
X61463388Y-31273671D01*
X61478933Y-31254730D01*
X61488522Y-31240379D01*
X61544378Y-31184523D01*
X61610056Y-31140638D01*
X61652805Y-31122931D01*
X61683033Y-31110410D01*
X61721769Y-31102705D01*
X61760504Y-31095000D01*
X61839496Y-31095000D01*
X61878231Y-31102705D01*
X61916967Y-31110410D01*
X61947195Y-31122931D01*
X61989944Y-31140638D01*
X62055622Y-31184523D01*
X62111478Y-31240379D01*
X62121067Y-31254730D01*
X62136613Y-31273672D01*
X62155555Y-31289217D01*
X62177165Y-31300768D01*
X62200614Y-31307881D01*
X62225001Y-31310283D01*
X62249387Y-31307881D01*
X62272836Y-31300768D01*
X62294446Y-31289217D01*
X62313388Y-31273671D01*
X62328933Y-31254730D01*
X62338522Y-31240379D01*
X62394378Y-31184523D01*
X62460056Y-31140638D01*
X62502805Y-31122931D01*
X62533033Y-31110410D01*
X62571769Y-31102705D01*
X62610504Y-31095000D01*
X62689496Y-31095000D01*
X62728231Y-31102705D01*
X62766967Y-31110410D01*
X62797195Y-31122931D01*
X62839944Y-31140638D01*
X62905622Y-31184523D01*
X62961478Y-31240379D01*
X62971067Y-31254730D01*
X62986613Y-31273672D01*
X63005555Y-31289217D01*
X63027165Y-31300768D01*
X63050614Y-31307881D01*
X63075001Y-31310283D01*
X63099387Y-31307881D01*
X63122836Y-31300768D01*
X63144446Y-31289217D01*
X63163388Y-31273671D01*
X63178933Y-31254730D01*
X63188522Y-31240379D01*
X63244378Y-31184523D01*
X63310056Y-31140638D01*
X63352805Y-31122931D01*
X63383033Y-31110410D01*
X63421769Y-31102705D01*
X63460504Y-31095000D01*
X63539496Y-31095000D01*
X63578231Y-31102705D01*
X63616967Y-31110410D01*
X63647195Y-31122931D01*
X63689944Y-31140638D01*
X63755622Y-31184523D01*
X63811477Y-31240378D01*
X63855362Y-31306056D01*
X63873069Y-31348805D01*
X63885590Y-31379033D01*
X63901000Y-31456505D01*
X63901000Y-31535495D01*
X63885590Y-31612967D01*
X63875786Y-31636635D01*
X63855362Y-31685944D01*
X63811477Y-31751622D01*
X63755622Y-31807477D01*
X63689944Y-31851362D01*
X63655828Y-31865493D01*
X63616967Y-31881590D01*
X63578231Y-31889295D01*
X63539496Y-31897000D01*
X63460504Y-31897000D01*
X63421769Y-31889295D01*
X63383033Y-31881590D01*
X63344172Y-31865493D01*
X63310056Y-31851362D01*
X63244378Y-31807477D01*
X63188522Y-31751621D01*
X63178933Y-31737270D01*
X63163387Y-31718328D01*
X63144445Y-31702783D01*
X63122835Y-31691232D01*
X63099386Y-31684119D01*
X63074999Y-31681717D01*
X63050613Y-31684119D01*
X63027164Y-31691232D01*
X63005554Y-31702783D01*
X62986612Y-31718329D01*
X62971067Y-31737270D01*
X62961478Y-31751621D01*
X62905622Y-31807477D01*
X62839944Y-31851362D01*
X62805828Y-31865493D01*
X62766967Y-31881590D01*
X62728231Y-31889295D01*
X62689496Y-31897000D01*
X62610504Y-31897000D01*
X62571769Y-31889295D01*
X62533033Y-31881590D01*
X62494172Y-31865493D01*
X62460056Y-31851362D01*
X62394378Y-31807477D01*
X62338522Y-31751621D01*
X62328933Y-31737270D01*
X62313387Y-31718328D01*
X62294445Y-31702783D01*
X62272835Y-31691232D01*
X62249386Y-31684119D01*
X62224999Y-31681717D01*
X62200613Y-31684119D01*
X62177164Y-31691232D01*
X62155554Y-31702783D01*
X62136612Y-31718329D01*
X62121067Y-31737270D01*
X62111478Y-31751621D01*
X62055622Y-31807477D01*
X61989944Y-31851362D01*
X61955828Y-31865493D01*
X61916967Y-31881590D01*
X61878231Y-31889295D01*
X61839496Y-31897000D01*
X61760504Y-31897000D01*
X61721769Y-31889295D01*
X61683033Y-31881590D01*
X61644172Y-31865493D01*
X61610056Y-31851362D01*
X61544378Y-31807477D01*
X61488522Y-31751621D01*
X61478933Y-31737270D01*
X61463387Y-31718328D01*
X61444445Y-31702783D01*
X61422835Y-31691232D01*
X61399386Y-31684119D01*
X61374999Y-31681717D01*
X61350613Y-31684119D01*
X61327164Y-31691232D01*
X61305554Y-31702783D01*
X61286612Y-31718329D01*
X61271067Y-31737270D01*
X61261478Y-31751621D01*
X61205622Y-31807477D01*
X61139944Y-31851362D01*
X61105828Y-31865493D01*
X61066967Y-31881590D01*
X61028231Y-31889295D01*
X60989496Y-31897000D01*
X60910504Y-31897000D01*
X60871769Y-31889295D01*
X60833033Y-31881590D01*
X60794172Y-31865493D01*
X60760056Y-31851362D01*
X60694378Y-31807477D01*
X60638522Y-31751621D01*
X60628933Y-31737270D01*
X60613387Y-31718328D01*
X60594445Y-31702783D01*
X60572835Y-31691232D01*
X60549386Y-31684119D01*
X60524999Y-31681717D01*
X60500613Y-31684119D01*
X60477164Y-31691232D01*
X60455554Y-31702783D01*
X60436612Y-31718329D01*
X60421067Y-31737270D01*
X60411478Y-31751621D01*
X60355622Y-31807477D01*
X60289944Y-31851362D01*
X60255828Y-31865493D01*
X60216967Y-31881590D01*
X60178231Y-31889295D01*
X60139496Y-31897000D01*
X60060504Y-31897000D01*
X60021769Y-31889295D01*
X59983033Y-31881590D01*
X59944172Y-31865493D01*
X59910056Y-31851362D01*
X59844378Y-31807477D01*
X59788522Y-31751621D01*
X59778933Y-31737270D01*
X59763387Y-31718328D01*
X59744445Y-31702783D01*
X59722835Y-31691232D01*
X59699386Y-31684119D01*
X59674999Y-31681717D01*
X59650613Y-31684119D01*
X59627164Y-31691232D01*
X59605554Y-31702783D01*
X59586612Y-31718329D01*
X59571067Y-31737270D01*
X59561478Y-31751621D01*
X59505622Y-31807477D01*
X59439944Y-31851362D01*
X59405828Y-31865493D01*
X59366967Y-31881590D01*
X59328231Y-31889295D01*
X59289496Y-31897000D01*
X59210504Y-31897000D01*
X59171769Y-31889295D01*
X59133033Y-31881590D01*
X59094172Y-31865493D01*
X59060056Y-31851362D01*
X58994378Y-31807477D01*
X58938522Y-31751621D01*
X58928933Y-31737270D01*
X58913387Y-31718328D01*
X58894445Y-31702783D01*
X58872835Y-31691232D01*
X58849386Y-31684119D01*
X58824999Y-31681717D01*
X58800613Y-31684119D01*
X58777164Y-31691232D01*
X58755554Y-31702783D01*
X58736612Y-31718329D01*
X58721067Y-31737270D01*
X58711478Y-31751621D01*
X58655622Y-31807477D01*
X58589944Y-31851362D01*
X58555828Y-31865493D01*
X58516967Y-31881590D01*
X58478231Y-31889295D01*
X58439496Y-31897000D01*
X58360504Y-31897000D01*
X58321769Y-31889295D01*
X58283033Y-31881590D01*
X58244172Y-31865493D01*
X58210056Y-31851362D01*
X58144378Y-31807477D01*
X58088522Y-31751621D01*
X58078933Y-31737270D01*
X58063387Y-31718328D01*
X58044445Y-31702783D01*
X58022835Y-31691232D01*
X57999386Y-31684119D01*
X57974999Y-31681717D01*
X57950613Y-31684119D01*
X57927164Y-31691232D01*
X57905554Y-31702783D01*
X57886612Y-31718329D01*
X57871067Y-31737270D01*
X57861478Y-31751621D01*
X57805622Y-31807477D01*
X57739944Y-31851362D01*
X57705828Y-31865493D01*
X57666967Y-31881590D01*
X57628231Y-31889295D01*
X57589496Y-31897000D01*
X57510504Y-31897000D01*
X57471769Y-31889295D01*
X57433033Y-31881590D01*
X57394172Y-31865493D01*
X57360056Y-31851362D01*
X57294378Y-31807477D01*
X57238523Y-31751622D01*
X57194638Y-31685944D01*
X57174214Y-31636635D01*
X57164410Y-31612967D01*
X57149000Y-31535495D01*
X57149000Y-31456505D01*
X57164410Y-31379033D01*
X57176931Y-31348805D01*
X57194638Y-31306056D01*
X57238523Y-31240378D01*
X57294378Y-31184523D01*
X57360056Y-31140638D01*
X57402805Y-31122931D01*
X57433033Y-31110410D01*
X57471769Y-31102705D01*
X57510504Y-31095000D01*
X57589496Y-31095000D01*
X57628231Y-31102705D01*
G37*
G36*
X56298213Y-29272249D02*
G01*
X56392652Y-29300897D01*
X56479687Y-29347418D01*
X56555975Y-29410025D01*
X56618582Y-29486313D01*
X56665103Y-29573348D01*
X56693751Y-29667787D01*
X56701000Y-29741388D01*
X56701000Y-31290612D01*
X56693751Y-31364213D01*
X56665103Y-31458652D01*
X56618582Y-31545687D01*
X56555975Y-31621975D01*
X56479687Y-31684582D01*
X56392651Y-31731103D01*
X56298212Y-31759751D01*
X56200000Y-31769424D01*
X56101787Y-31759751D01*
X56007348Y-31731103D01*
X55920313Y-31684582D01*
X55844025Y-31621975D01*
X55781418Y-31545687D01*
X55734897Y-31458651D01*
X55706249Y-31364212D01*
X55699000Y-31290611D01*
X55699001Y-29741388D01*
X55706250Y-29667787D01*
X55734898Y-29573348D01*
X55781419Y-29486313D01*
X55844026Y-29410025D01*
X55920314Y-29347418D01*
X56007349Y-29300897D01*
X56101788Y-29272249D01*
X56200000Y-29262576D01*
X56298213Y-29272249D01*
G37*
G36*
X64948213Y-29272249D02*
G01*
X65042652Y-29300897D01*
X65129687Y-29347418D01*
X65205975Y-29410025D01*
X65268582Y-29486313D01*
X65315103Y-29573348D01*
X65343751Y-29667787D01*
X65351000Y-29741388D01*
X65351000Y-31290612D01*
X65343751Y-31364213D01*
X65315103Y-31458652D01*
X65268582Y-31545687D01*
X65205975Y-31621975D01*
X65129687Y-31684582D01*
X65042651Y-31731103D01*
X64948212Y-31759751D01*
X64850000Y-31769424D01*
X64751787Y-31759751D01*
X64657348Y-31731103D01*
X64570313Y-31684582D01*
X64494025Y-31621975D01*
X64431418Y-31545687D01*
X64384897Y-31458651D01*
X64356249Y-31364212D01*
X64349000Y-31290611D01*
X64349001Y-29741388D01*
X64356250Y-29667787D01*
X64384898Y-29573348D01*
X64431419Y-29486313D01*
X64494026Y-29410025D01*
X64570314Y-29347418D01*
X64657349Y-29300897D01*
X64751788Y-29272249D01*
X64850000Y-29262576D01*
X64948213Y-29272249D01*
G37*
G36*
X70097603Y-27560611D02*
G01*
X70280779Y-27597047D01*
X70483363Y-27680960D01*
X70580557Y-27721219D01*
X70581242Y-27721503D01*
X70851651Y-27902185D01*
X71081615Y-28132149D01*
X71262297Y-28402558D01*
X71380682Y-28688364D01*
X71386753Y-28703022D01*
X71450200Y-29021989D01*
X71450200Y-29347211D01*
X71422531Y-29486310D01*
X71386753Y-29666179D01*
X71305130Y-29863233D01*
X71263392Y-29964000D01*
X71262297Y-29966642D01*
X71081615Y-30237051D01*
X70851651Y-30467015D01*
X70581242Y-30647697D01*
X70581241Y-30647698D01*
X70581240Y-30647698D01*
X70526063Y-30670553D01*
X70280779Y-30772153D01*
X70245019Y-30779266D01*
X69961811Y-30835600D01*
X69636589Y-30835600D01*
X69353381Y-30779266D01*
X69317621Y-30772153D01*
X69072337Y-30670553D01*
X69017160Y-30647698D01*
X69017159Y-30647698D01*
X69017158Y-30647697D01*
X68746749Y-30467015D01*
X68516785Y-30237051D01*
X68336103Y-29966642D01*
X68335009Y-29964000D01*
X68293270Y-29863233D01*
X68211647Y-29666179D01*
X68175869Y-29486310D01*
X68148200Y-29347211D01*
X68148200Y-29021989D01*
X68211647Y-28703022D01*
X68217719Y-28688364D01*
X68336103Y-28402558D01*
X68516785Y-28132149D01*
X68746749Y-27902185D01*
X69017158Y-27721503D01*
X69017844Y-27721219D01*
X69115037Y-27680960D01*
X69317621Y-27597047D01*
X69500797Y-27560611D01*
X69636589Y-27533600D01*
X69961811Y-27533600D01*
X70097603Y-27560611D01*
G37*
G36*
X49265160Y-27468232D02*
G01*
X49401979Y-27495447D01*
X49702442Y-27619903D01*
X49972851Y-27800585D01*
X50202815Y-28030549D01*
X50342276Y-28239267D01*
X50383498Y-28300960D01*
X50507953Y-28601422D01*
X50571400Y-28920389D01*
X50571400Y-29245611D01*
X50537878Y-29414135D01*
X50507953Y-29564579D01*
X50441090Y-29726000D01*
X50396139Y-29834523D01*
X50383497Y-29865042D01*
X50202815Y-30135451D01*
X49972851Y-30365415D01*
X49702442Y-30546097D01*
X49702441Y-30546098D01*
X49702440Y-30546098D01*
X49614437Y-30582550D01*
X49401979Y-30670553D01*
X49295656Y-30691702D01*
X49083011Y-30734000D01*
X48757789Y-30734000D01*
X48545144Y-30691702D01*
X48438821Y-30670553D01*
X48226363Y-30582550D01*
X48138360Y-30546098D01*
X48138359Y-30546098D01*
X48138358Y-30546097D01*
X47867949Y-30365415D01*
X47637985Y-30135451D01*
X47457303Y-29865042D01*
X47444662Y-29834523D01*
X47399710Y-29726000D01*
X47332847Y-29564579D01*
X47302922Y-29414135D01*
X47269400Y-29245611D01*
X47269400Y-28920389D01*
X47332847Y-28601422D01*
X47457302Y-28300960D01*
X47498524Y-28239267D01*
X47637985Y-28030549D01*
X47867949Y-27800585D01*
X48138358Y-27619903D01*
X48438821Y-27495447D01*
X48575640Y-27468232D01*
X48757789Y-27432000D01*
X49083011Y-27432000D01*
X49265160Y-27468232D01*
G37*
G36*
X116112049Y-28398616D02*
G01*
X116223234Y-28420732D01*
X116432703Y-28507497D01*
X116621220Y-28633460D01*
X116781540Y-28793780D01*
X116907503Y-28982297D01*
X116964626Y-29120203D01*
X116994268Y-29191767D01*
X117037683Y-29410026D01*
X117038500Y-29414136D01*
X117038500Y-29640864D01*
X116994268Y-29863234D01*
X116907503Y-30072703D01*
X116781540Y-30261220D01*
X116621220Y-30421540D01*
X116432703Y-30547503D01*
X116223234Y-30634268D01*
X116112049Y-30656384D01*
X116000865Y-30678500D01*
X115774135Y-30678500D01*
X115662951Y-30656384D01*
X115551766Y-30634268D01*
X115342297Y-30547503D01*
X115153780Y-30421540D01*
X114993460Y-30261220D01*
X114867497Y-30072703D01*
X114780732Y-29863234D01*
X114736500Y-29640864D01*
X114736500Y-29414136D01*
X114737318Y-29410026D01*
X114780732Y-29191767D01*
X114810375Y-29120203D01*
X114867497Y-28982297D01*
X114993460Y-28793780D01*
X115153780Y-28633460D01*
X115342297Y-28507497D01*
X115551766Y-28420732D01*
X115662951Y-28398616D01*
X115774135Y-28376500D01*
X116000865Y-28376500D01*
X116112049Y-28398616D01*
G37*
G36*
X57628231Y-29752705D02*
G01*
X57666967Y-29760410D01*
X57697195Y-29772931D01*
X57739944Y-29790638D01*
X57805622Y-29834523D01*
X57861478Y-29890379D01*
X57871067Y-29904730D01*
X57886613Y-29923672D01*
X57905555Y-29939217D01*
X57927165Y-29950768D01*
X57950614Y-29957881D01*
X57975001Y-29960283D01*
X57999387Y-29957881D01*
X58022836Y-29950768D01*
X58044446Y-29939217D01*
X58063388Y-29923671D01*
X58078933Y-29904730D01*
X58088522Y-29890379D01*
X58144378Y-29834523D01*
X58210056Y-29790638D01*
X58252805Y-29772931D01*
X58283033Y-29760410D01*
X58321769Y-29752705D01*
X58360504Y-29745000D01*
X58439496Y-29745000D01*
X58478231Y-29752705D01*
X58516967Y-29760410D01*
X58547195Y-29772931D01*
X58589944Y-29790638D01*
X58655622Y-29834523D01*
X58711478Y-29890379D01*
X58721067Y-29904730D01*
X58736613Y-29923672D01*
X58755555Y-29939217D01*
X58777165Y-29950768D01*
X58800614Y-29957881D01*
X58825001Y-29960283D01*
X58849387Y-29957881D01*
X58872836Y-29950768D01*
X58894446Y-29939217D01*
X58913388Y-29923671D01*
X58928933Y-29904730D01*
X58938522Y-29890379D01*
X58994378Y-29834523D01*
X59060056Y-29790638D01*
X59102805Y-29772931D01*
X59133033Y-29760410D01*
X59171769Y-29752705D01*
X59210504Y-29745000D01*
X59289496Y-29745000D01*
X59328231Y-29752705D01*
X59366967Y-29760410D01*
X59397195Y-29772931D01*
X59439944Y-29790638D01*
X59505622Y-29834523D01*
X59561478Y-29890379D01*
X59571067Y-29904730D01*
X59586613Y-29923672D01*
X59605555Y-29939217D01*
X59627165Y-29950768D01*
X59650614Y-29957881D01*
X59675001Y-29960283D01*
X59699387Y-29957881D01*
X59722836Y-29950768D01*
X59744446Y-29939217D01*
X59763388Y-29923671D01*
X59778933Y-29904730D01*
X59788522Y-29890379D01*
X59844378Y-29834523D01*
X59910056Y-29790638D01*
X59952805Y-29772931D01*
X59983033Y-29760410D01*
X60021769Y-29752705D01*
X60060504Y-29745000D01*
X60139496Y-29745000D01*
X60178231Y-29752705D01*
X60216967Y-29760410D01*
X60247195Y-29772931D01*
X60289944Y-29790638D01*
X60355622Y-29834523D01*
X60411478Y-29890379D01*
X60421067Y-29904730D01*
X60436613Y-29923672D01*
X60455555Y-29939217D01*
X60477165Y-29950768D01*
X60500614Y-29957881D01*
X60525001Y-29960283D01*
X60549387Y-29957881D01*
X60572836Y-29950768D01*
X60594446Y-29939217D01*
X60613388Y-29923671D01*
X60628933Y-29904730D01*
X60638522Y-29890379D01*
X60694378Y-29834523D01*
X60760056Y-29790638D01*
X60802805Y-29772931D01*
X60833033Y-29760410D01*
X60871769Y-29752705D01*
X60910504Y-29745000D01*
X60989496Y-29745000D01*
X61028231Y-29752705D01*
X61066967Y-29760410D01*
X61097195Y-29772931D01*
X61139944Y-29790638D01*
X61205622Y-29834523D01*
X61261478Y-29890379D01*
X61271067Y-29904730D01*
X61286613Y-29923672D01*
X61305555Y-29939217D01*
X61327165Y-29950768D01*
X61350614Y-29957881D01*
X61375001Y-29960283D01*
X61399387Y-29957881D01*
X61422836Y-29950768D01*
X61444446Y-29939217D01*
X61463388Y-29923671D01*
X61478933Y-29904730D01*
X61488522Y-29890379D01*
X61544378Y-29834523D01*
X61610056Y-29790638D01*
X61652805Y-29772931D01*
X61683033Y-29760410D01*
X61721769Y-29752705D01*
X61760504Y-29745000D01*
X61839496Y-29745000D01*
X61878231Y-29752705D01*
X61916967Y-29760410D01*
X61947195Y-29772931D01*
X61989944Y-29790638D01*
X62055622Y-29834523D01*
X62111478Y-29890379D01*
X62121067Y-29904730D01*
X62136613Y-29923672D01*
X62155555Y-29939217D01*
X62177165Y-29950768D01*
X62200614Y-29957881D01*
X62225001Y-29960283D01*
X62249387Y-29957881D01*
X62272836Y-29950768D01*
X62294446Y-29939217D01*
X62313388Y-29923671D01*
X62328933Y-29904730D01*
X62338522Y-29890379D01*
X62394378Y-29834523D01*
X62460056Y-29790638D01*
X62502805Y-29772931D01*
X62533033Y-29760410D01*
X62571769Y-29752705D01*
X62610504Y-29745000D01*
X62689496Y-29745000D01*
X62728231Y-29752705D01*
X62766967Y-29760410D01*
X62797195Y-29772931D01*
X62839944Y-29790638D01*
X62905622Y-29834523D01*
X62961478Y-29890379D01*
X62971067Y-29904730D01*
X62986613Y-29923672D01*
X63005555Y-29939217D01*
X63027165Y-29950768D01*
X63050614Y-29957881D01*
X63075001Y-29960283D01*
X63099387Y-29957881D01*
X63122836Y-29950768D01*
X63144446Y-29939217D01*
X63163388Y-29923671D01*
X63178933Y-29904730D01*
X63188522Y-29890379D01*
X63244378Y-29834523D01*
X63310056Y-29790638D01*
X63352805Y-29772931D01*
X63383033Y-29760410D01*
X63421769Y-29752705D01*
X63460504Y-29745000D01*
X63539496Y-29745000D01*
X63578231Y-29752705D01*
X63616967Y-29760410D01*
X63647195Y-29772931D01*
X63689944Y-29790638D01*
X63755622Y-29834523D01*
X63811477Y-29890378D01*
X63855362Y-29956056D01*
X63873069Y-29998805D01*
X63880399Y-30016500D01*
X63885590Y-30029034D01*
X63901000Y-30106504D01*
X63901000Y-30185496D01*
X63885590Y-30262966D01*
X63855362Y-30335944D01*
X63811477Y-30401622D01*
X63755622Y-30457477D01*
X63689944Y-30501362D01*
X63647195Y-30519069D01*
X63616967Y-30531590D01*
X63578231Y-30539295D01*
X63539496Y-30547000D01*
X63460504Y-30547000D01*
X63421769Y-30539295D01*
X63383033Y-30531590D01*
X63352805Y-30519069D01*
X63310056Y-30501362D01*
X63244378Y-30457477D01*
X63188522Y-30401621D01*
X63178933Y-30387270D01*
X63163387Y-30368328D01*
X63144445Y-30352783D01*
X63122835Y-30341232D01*
X63099386Y-30334119D01*
X63074999Y-30331717D01*
X63050613Y-30334119D01*
X63027164Y-30341232D01*
X63005554Y-30352783D01*
X62986612Y-30368329D01*
X62971067Y-30387270D01*
X62961478Y-30401621D01*
X62905622Y-30457477D01*
X62839944Y-30501362D01*
X62797195Y-30519069D01*
X62766967Y-30531590D01*
X62728231Y-30539295D01*
X62689496Y-30547000D01*
X62610504Y-30547000D01*
X62571769Y-30539295D01*
X62533033Y-30531590D01*
X62502805Y-30519069D01*
X62460056Y-30501362D01*
X62394378Y-30457477D01*
X62338522Y-30401621D01*
X62328933Y-30387270D01*
X62313387Y-30368328D01*
X62294445Y-30352783D01*
X62272835Y-30341232D01*
X62249386Y-30334119D01*
X62224999Y-30331717D01*
X62200613Y-30334119D01*
X62177164Y-30341232D01*
X62155554Y-30352783D01*
X62136612Y-30368329D01*
X62121067Y-30387270D01*
X62111478Y-30401621D01*
X62055622Y-30457477D01*
X61989944Y-30501362D01*
X61947195Y-30519069D01*
X61916967Y-30531590D01*
X61878231Y-30539295D01*
X61839496Y-30547000D01*
X61760504Y-30547000D01*
X61721769Y-30539295D01*
X61683033Y-30531590D01*
X61652805Y-30519069D01*
X61610056Y-30501362D01*
X61544378Y-30457477D01*
X61488522Y-30401621D01*
X61478933Y-30387270D01*
X61463387Y-30368328D01*
X61444445Y-30352783D01*
X61422835Y-30341232D01*
X61399386Y-30334119D01*
X61374999Y-30331717D01*
X61350613Y-30334119D01*
X61327164Y-30341232D01*
X61305554Y-30352783D01*
X61286612Y-30368329D01*
X61271067Y-30387270D01*
X61261478Y-30401621D01*
X61205622Y-30457477D01*
X61139944Y-30501362D01*
X61097195Y-30519069D01*
X61066967Y-30531590D01*
X61028231Y-30539295D01*
X60989496Y-30547000D01*
X60910504Y-30547000D01*
X60871769Y-30539295D01*
X60833033Y-30531590D01*
X60802805Y-30519069D01*
X60760056Y-30501362D01*
X60694378Y-30457477D01*
X60638522Y-30401621D01*
X60628933Y-30387270D01*
X60613387Y-30368328D01*
X60594445Y-30352783D01*
X60572835Y-30341232D01*
X60549386Y-30334119D01*
X60524999Y-30331717D01*
X60500613Y-30334119D01*
X60477164Y-30341232D01*
X60455554Y-30352783D01*
X60436612Y-30368329D01*
X60421067Y-30387270D01*
X60411478Y-30401621D01*
X60355622Y-30457477D01*
X60289944Y-30501362D01*
X60247195Y-30519069D01*
X60216967Y-30531590D01*
X60178231Y-30539295D01*
X60139496Y-30547000D01*
X60060504Y-30547000D01*
X60021769Y-30539295D01*
X59983033Y-30531590D01*
X59952805Y-30519069D01*
X59910056Y-30501362D01*
X59844378Y-30457477D01*
X59788522Y-30401621D01*
X59778933Y-30387270D01*
X59763387Y-30368328D01*
X59744445Y-30352783D01*
X59722835Y-30341232D01*
X59699386Y-30334119D01*
X59674999Y-30331717D01*
X59650613Y-30334119D01*
X59627164Y-30341232D01*
X59605554Y-30352783D01*
X59586612Y-30368329D01*
X59571067Y-30387270D01*
X59561478Y-30401621D01*
X59505622Y-30457477D01*
X59439944Y-30501362D01*
X59397195Y-30519069D01*
X59366967Y-30531590D01*
X59328231Y-30539295D01*
X59289496Y-30547000D01*
X59210504Y-30547000D01*
X59171769Y-30539295D01*
X59133033Y-30531590D01*
X59102805Y-30519069D01*
X59060056Y-30501362D01*
X58994378Y-30457477D01*
X58938522Y-30401621D01*
X58928933Y-30387270D01*
X58913387Y-30368328D01*
X58894445Y-30352783D01*
X58872835Y-30341232D01*
X58849386Y-30334119D01*
X58824999Y-30331717D01*
X58800613Y-30334119D01*
X58777164Y-30341232D01*
X58755554Y-30352783D01*
X58736612Y-30368329D01*
X58721067Y-30387270D01*
X58711478Y-30401621D01*
X58655622Y-30457477D01*
X58589944Y-30501362D01*
X58547195Y-30519069D01*
X58516967Y-30531590D01*
X58478231Y-30539295D01*
X58439496Y-30547000D01*
X58360504Y-30547000D01*
X58321769Y-30539295D01*
X58283033Y-30531590D01*
X58252805Y-30519069D01*
X58210056Y-30501362D01*
X58144378Y-30457477D01*
X58088522Y-30401621D01*
X58078933Y-30387270D01*
X58063387Y-30368328D01*
X58044445Y-30352783D01*
X58022835Y-30341232D01*
X57999386Y-30334119D01*
X57974999Y-30331717D01*
X57950613Y-30334119D01*
X57927164Y-30341232D01*
X57905554Y-30352783D01*
X57886612Y-30368329D01*
X57871067Y-30387270D01*
X57861478Y-30401621D01*
X57805622Y-30457477D01*
X57739944Y-30501362D01*
X57697195Y-30519069D01*
X57666967Y-30531590D01*
X57628231Y-30539295D01*
X57589496Y-30547000D01*
X57510504Y-30547000D01*
X57471769Y-30539295D01*
X57433033Y-30531590D01*
X57402805Y-30519069D01*
X57360056Y-30501362D01*
X57294378Y-30457477D01*
X57238523Y-30401622D01*
X57194638Y-30335944D01*
X57164410Y-30262966D01*
X57149000Y-30185496D01*
X57149000Y-30106504D01*
X57164410Y-30029034D01*
X57169602Y-30016500D01*
X57176931Y-29998805D01*
X57194638Y-29956056D01*
X57238523Y-29890378D01*
X57294378Y-29834523D01*
X57360056Y-29790638D01*
X57402805Y-29772931D01*
X57433033Y-29760410D01*
X57471769Y-29752705D01*
X57510504Y-29745000D01*
X57589496Y-29745000D01*
X57628231Y-29752705D01*
G37*
G36*
X141441083Y-27432000D02*
G01*
X141623234Y-27468232D01*
X141832703Y-27554997D01*
X142021220Y-27680960D01*
X142181540Y-27841280D01*
X142307472Y-28029751D01*
X142307504Y-28029799D01*
X142394268Y-28239267D01*
X142438500Y-28461635D01*
X142438500Y-28688365D01*
X142417532Y-28793780D01*
X142394268Y-28910734D01*
X142307503Y-29120203D01*
X142181540Y-29308720D01*
X142021220Y-29469040D01*
X141832703Y-29595003D01*
X141623234Y-29681768D01*
X141512049Y-29703884D01*
X141400865Y-29726000D01*
X141174135Y-29726000D01*
X141062951Y-29703884D01*
X140951766Y-29681768D01*
X140742297Y-29595003D01*
X140553780Y-29469040D01*
X140393460Y-29308720D01*
X140267497Y-29120203D01*
X140180732Y-28910734D01*
X140157468Y-28793780D01*
X140136500Y-28688365D01*
X140136500Y-28461635D01*
X140180732Y-28239267D01*
X140267496Y-28029799D01*
X140267528Y-28029751D01*
X140393460Y-27841280D01*
X140553780Y-27680960D01*
X140742297Y-27554997D01*
X140951766Y-27468232D01*
X141133917Y-27432000D01*
X141174135Y-27424000D01*
X141400865Y-27424000D01*
X141441083Y-27432000D01*
G37*
G36*
X103341083Y-27432000D02*
G01*
X103523234Y-27468232D01*
X103732703Y-27554997D01*
X103921220Y-27680960D01*
X104081540Y-27841280D01*
X104207472Y-28029751D01*
X104207504Y-28029799D01*
X104294268Y-28239267D01*
X104338500Y-28461635D01*
X104338500Y-28688365D01*
X104317532Y-28793780D01*
X104294268Y-28910734D01*
X104207503Y-29120203D01*
X104081540Y-29308720D01*
X103921220Y-29469040D01*
X103732703Y-29595003D01*
X103523234Y-29681768D01*
X103412049Y-29703884D01*
X103300865Y-29726000D01*
X103074135Y-29726000D01*
X102962951Y-29703884D01*
X102851766Y-29681768D01*
X102642297Y-29595003D01*
X102453780Y-29469040D01*
X102293460Y-29308720D01*
X102167497Y-29120203D01*
X102080732Y-28910734D01*
X102057468Y-28793780D01*
X102036500Y-28688365D01*
X102036500Y-28461635D01*
X102080732Y-28239267D01*
X102167496Y-28029799D01*
X102167528Y-28029751D01*
X102293460Y-27841280D01*
X102453780Y-27680960D01*
X102642297Y-27554997D01*
X102851766Y-27468232D01*
X103033917Y-27432000D01*
X103074135Y-27424000D01*
X103300865Y-27424000D01*
X103341083Y-27432000D01*
G37*
G36*
X122462049Y-25858616D02*
G01*
X122573234Y-25880732D01*
X122782703Y-25967497D01*
X122971220Y-26093460D01*
X123131540Y-26253780D01*
X123257503Y-26442297D01*
X123257504Y-26442299D01*
X123263309Y-26456313D01*
X123344268Y-26651766D01*
X123388500Y-26874136D01*
X123388500Y-27100864D01*
X123344268Y-27323234D01*
X123257503Y-27532703D01*
X123131540Y-27721220D01*
X122971220Y-27881540D01*
X122782703Y-28007503D01*
X122573234Y-28094268D01*
X122462049Y-28116384D01*
X122350865Y-28138500D01*
X122124135Y-28138500D01*
X122012951Y-28116384D01*
X121901766Y-28094268D01*
X121692297Y-28007503D01*
X121503780Y-27881540D01*
X121343460Y-27721220D01*
X121217497Y-27532703D01*
X121130732Y-27323234D01*
X121086500Y-27100864D01*
X121086500Y-26874136D01*
X121130732Y-26651766D01*
X121211691Y-26456313D01*
X121217496Y-26442299D01*
X121217497Y-26442297D01*
X121343460Y-26253780D01*
X121503780Y-26093460D01*
X121692297Y-25967497D01*
X121901766Y-25880732D01*
X122012951Y-25858616D01*
X122124135Y-25836500D01*
X122350865Y-25836500D01*
X122462049Y-25858616D01*
G37*
G36*
X64948213Y-26242249D02*
G01*
X65042652Y-26270897D01*
X65129687Y-26317418D01*
X65205975Y-26380025D01*
X65268582Y-26456313D01*
X65315103Y-26543348D01*
X65343751Y-26637787D01*
X65351000Y-26711388D01*
X65351000Y-27560612D01*
X65343751Y-27634213D01*
X65315103Y-27728652D01*
X65268582Y-27815687D01*
X65205975Y-27891975D01*
X65129687Y-27954582D01*
X65042651Y-28001103D01*
X64948212Y-28029751D01*
X64850000Y-28039424D01*
X64751787Y-28029751D01*
X64657348Y-28001103D01*
X64570313Y-27954582D01*
X64494025Y-27891975D01*
X64431418Y-27815687D01*
X64384897Y-27728651D01*
X64356249Y-27634212D01*
X64349000Y-27560611D01*
X64349000Y-26711398D01*
X64356250Y-26637786D01*
X64366846Y-26602856D01*
X64384898Y-26543348D01*
X64431419Y-26456313D01*
X64494026Y-26380025D01*
X64570314Y-26317418D01*
X64657349Y-26270897D01*
X64751788Y-26242249D01*
X64850000Y-26232576D01*
X64948213Y-26242249D01*
G37*
G36*
X56298213Y-26242249D02*
G01*
X56392652Y-26270897D01*
X56479687Y-26317418D01*
X56555975Y-26380025D01*
X56618582Y-26456313D01*
X56665103Y-26543348D01*
X56693751Y-26637787D01*
X56701000Y-26711388D01*
X56701000Y-27560612D01*
X56693751Y-27634213D01*
X56665103Y-27728652D01*
X56618582Y-27815687D01*
X56555975Y-27891975D01*
X56479687Y-27954582D01*
X56392651Y-28001103D01*
X56298212Y-28029751D01*
X56200000Y-28039424D01*
X56101787Y-28029751D01*
X56007348Y-28001103D01*
X55920313Y-27954582D01*
X55844025Y-27891975D01*
X55781418Y-27815687D01*
X55734897Y-27728651D01*
X55706249Y-27634212D01*
X55699000Y-27560611D01*
X55699000Y-26711398D01*
X55706250Y-26637786D01*
X55716846Y-26602856D01*
X55734898Y-26543348D01*
X55781419Y-26456313D01*
X55844026Y-26380025D01*
X55920314Y-26317418D01*
X56007349Y-26270897D01*
X56101788Y-26242249D01*
X56200000Y-26232576D01*
X56298213Y-26242249D01*
G37*
G36*
X110077856Y-22953098D02*
G01*
X110184179Y-22974247D01*
X110484642Y-23098703D01*
X110755051Y-23279385D01*
X110985015Y-23509349D01*
X111165697Y-23779758D01*
X111290153Y-24080221D01*
X111353600Y-24399191D01*
X111353600Y-24724409D01*
X111290153Y-25043379D01*
X111165697Y-25343842D01*
X110985015Y-25614251D01*
X110755051Y-25844215D01*
X110484642Y-26024897D01*
X110184179Y-26149353D01*
X110077856Y-26170502D01*
X109865211Y-26212800D01*
X109539989Y-26212800D01*
X109327344Y-26170502D01*
X109221021Y-26149353D01*
X108920558Y-26024897D01*
X108650149Y-25844215D01*
X108420185Y-25614251D01*
X108239503Y-25343842D01*
X108115047Y-25043379D01*
X108051600Y-24724409D01*
X108051600Y-24399191D01*
X108115047Y-24080221D01*
X108239503Y-23779758D01*
X108420185Y-23509349D01*
X108650149Y-23279385D01*
X108920558Y-23098703D01*
X109221021Y-22974247D01*
X109327344Y-22953098D01*
X109539989Y-22910800D01*
X109865211Y-22910800D01*
X110077856Y-22953098D01*
G37*
M02*
