M48
; DRILL file {KiCad 5.1.5+dfsg1-2build2} date Sat 09 Jan 2021 21:52:23 GMT
; FORMAT={-:-/ absolute / inch / decimal}
; #@! TF.CreationDate,2021-01-09T21:52:23+00:00
; #@! TF.GenerationSoftware,Kicad,Pcbnew,5.1.5+dfsg1-2build2
FMAT,2
INCH
T1C0.0118
T2C0.0157
T3C0.0236
T4C0.0320
T5C0.0394
T6C0.0512
T7C0.0591
T8C0.0472
T9C0.0669
T10C0.1260
T11C0.1575
%
G90
G05
T1
X1.826Y-1.496
X1.829Y-1.393
X1.879Y-1.729
X1.946Y-1.768
X1.956Y-1.943
X1.961Y-2.019
X1.97Y-2.156
X1.992Y-1.873
X2.006Y-1.8107
X2.0082Y-1.7408
X2.021Y-2.3
X2.023Y-1.649
X2.06Y-1.24
X2.078Y-1.507
X2.1018Y-2.4848
X2.125Y-3.9688
X2.146Y-1.92
X2.147Y-1.87
X2.154Y-1.379
X2.188Y-2.09
X2.202Y-1.425
X2.24Y-1.953
X2.322Y-2.267
X2.39Y-1.31
X2.4375Y-3.9062
X2.4375Y-5.0312
X2.44Y-1.627
X2.469Y-2.092
X2.472Y-1.939
X2.4987Y-2.4158
X2.499Y-2.3255
X2.515Y-2.051
X2.5295Y-2.3825
X2.537Y-2.113
X2.552Y-2.264
X2.598Y-1.5
X2.654Y-2.587
X2.6562Y-4.7812
X2.711Y-3.92
X2.711Y-4.033
X2.737Y-2.113
X2.866Y-1.692
X2.872Y-2.587
X2.934Y-1.282
X3.0312Y-1.75
X3.0625Y-2.5
X3.0625Y-3.25
X3.0625Y-4.0
X3.2188Y-4.8438
X3.375Y-2.4375
X3.375Y-3.1875
X3.375Y-3.9375
X3.4062Y-1.6875
X3.5Y-4.75
X3.8125Y-1.625
X3.8125Y-2.375
X3.8162Y-3.1213
X3.8162Y-3.8713
X4.0349Y-4.7463
X4.1203Y-2.3162
X4.125Y-1.5625
X4.125Y-3.0625
X4.125Y-3.8125
X4.327Y-4.6617
X4.425Y-1.447
X4.5625Y-1.5625
X4.5625Y-2.3125
X4.5625Y-3.0625
X4.5625Y-3.8125
X4.875Y-1.5
X4.875Y-2.25
X4.875Y-3.0
X4.875Y-3.75
X4.9062Y-4.7188
X5.179Y-1.444
X5.2188Y-4.6562
X5.28Y-3.122
X5.3125Y-1.625
X5.3125Y-2.375
X5.3125Y-3.875
X5.6203Y-2.3162
X5.625Y-1.5625
X5.625Y-3.8125
X5.6562Y-3.0625
X5.7188Y-4.7812
X5.91Y-1.428
X6.0312Y-4.7188
X6.0625Y-1.75
X6.0625Y-2.5
X6.0625Y-3.25
X6.0625Y-4.0
X6.3703Y-3.1912
X6.3713Y-2.4412
X6.375Y-1.6875
X6.375Y-3.9375
X6.668Y-2.228
X6.8125Y-1.9062
X6.8125Y-2.625
X6.8125Y-3.375
X6.8125Y-4.125
X7.1213Y-2.5662
X7.125Y-1.8438
X7.125Y-3.3125
X7.125Y-4.0625
T2
X2.93Y-1.839
X3.666Y-1.77
X2.2657Y-1.1869
X2.2657Y-1.24
X2.2992Y-1.1869
X2.2992Y-1.24
X2.3327Y-1.1869
X2.3327Y-1.24
X2.3661Y-1.1869
X2.3661Y-1.24
X2.3996Y-1.1869
X2.3996Y-1.24
X2.4331Y-1.1869
X2.4331Y-1.24
X2.4665Y-1.1869
X2.4665Y-1.24
X2.5Y-1.1869
X2.5Y-1.24
T4
X2.1Y-2.7812
X2.2Y-2.7812
X2.3Y-2.7812
X2.4Y-2.7812
T6
X1.875Y-2.2783
X1.875Y-2.5342
T7
X5.3125Y-3.475
X5.5625Y-3.375
X6.8125Y-1.475
X7.0625Y-1.375
X6.8125Y-2.225
X7.0625Y-2.125
X3.8125Y-1.975
X4.0625Y-1.875
X3.1513Y-4.4935
X3.375Y-4.3438
X5.3125Y-1.975
X5.5625Y-1.875
X6.8125Y-2.975
X7.0625Y-2.875
X3.0625Y-1.35
X3.3125Y-1.25
X3.0625Y-3.6
X3.3125Y-3.5
X6.8125Y-3.725
X7.0625Y-3.625
X6.0625Y-2.85
X6.3125Y-2.75
X3.8125Y-3.475
X4.0625Y-3.375
X3.8125Y-2.725
X4.0625Y-2.625
X3.8125Y-1.225
X4.0625Y-1.125
X4.5625Y-1.9125
X4.8125Y-1.8125
X6.0625Y-2.1
X6.3125Y-2.0
X4.5625Y-2.6625
X4.8125Y-2.5625
X6.0625Y-3.6
X6.3125Y-3.5
X2.1313Y-3.5875
X2.3813Y-3.4875
X5.3125Y-2.725
X5.5625Y-2.625
X4.5625Y-1.1625
X4.8125Y-1.0625
X3.0625Y-2.1
X3.3125Y-2.0
X2.2397Y-4.6804
X2.4062Y-4.4688
X4.5625Y-3.4125
X4.8125Y-3.3125
X5.3125Y-1.225
X5.5625Y-1.125
X3.0625Y-2.85
X3.3125Y-2.75
X4.0625Y-4.35
X4.3125Y-4.25
X4.9062Y-4.3187
X5.1562Y-4.2188
X5.7188Y-4.4125
X5.9688Y-4.3125
X6.0625Y-1.35
X6.3125Y-1.25
T8
X1.8445Y-3.1048
X2.1201Y-3.1048
T9
X5.2625Y-3.575
X5.6625Y-3.575
X6.7625Y-1.575
X7.1625Y-1.575
X6.7625Y-2.325
X7.1625Y-2.325
X3.7625Y-2.075
X4.1625Y-2.075
X3.1231Y-4.6018
X3.5144Y-4.5186
X5.2625Y-2.075
X5.6625Y-2.075
X6.7625Y-3.075
X7.1625Y-3.075
X3.0125Y-1.45
X3.4125Y-1.45
X3.0125Y-3.7
X3.4125Y-3.7
X6.7625Y-3.825
X7.1625Y-3.825
X6.0125Y-2.95
X6.4125Y-2.95
X3.7625Y-3.575
X4.1625Y-3.575
X3.7625Y-2.825
X4.1625Y-2.825
X3.7625Y-1.325
X4.1625Y-1.325
X4.5125Y-2.0125
X4.9125Y-2.0125
X6.0125Y-2.2
X6.4125Y-2.2
X4.5125Y-2.7625
X4.9125Y-2.7625
X6.0125Y-3.7
X6.4125Y-3.7
X2.0812Y-3.6875
X2.4812Y-3.6875
X5.2625Y-2.825
X5.6625Y-2.825
X4.5125Y-1.2625
X4.9125Y-1.2625
X3.0125Y-2.2
X3.4125Y-2.2
X2.2464Y-4.792
X2.5929Y-4.592
X4.5125Y-3.5125
X4.9125Y-3.5125
X5.2625Y-1.325
X5.6625Y-1.325
X3.0125Y-2.95
X3.4125Y-2.95
X4.0125Y-4.45
X4.4125Y-4.45
X4.8563Y-4.4188
X5.2562Y-4.4188
X5.6688Y-4.5125
X6.0687Y-4.5125
X6.0125Y-1.45
X6.4125Y-1.45
T10
X7.347Y-1.265
X2.19Y-4.169
X6.433Y-4.223
X1.926Y-1.145
X2.748Y-1.149
X4.319Y-0.967
T11
X3.9625Y-2.075
X3.3188Y-4.5602
X5.4625Y-2.075
X6.9625Y-3.075
X3.2125Y-1.45
X3.2125Y-3.7
X6.9625Y-3.825
X6.2125Y-2.95
X3.9625Y-3.575
X3.9625Y-2.825
X3.9625Y-1.325
X4.7125Y-2.0125
X6.2125Y-2.2
X4.7125Y-2.7625
X6.2125Y-3.7
X2.2812Y-3.6875
X5.4625Y-2.825
X4.7125Y-1.2625
X3.2125Y-2.2
X2.4196Y-4.692
X4.7125Y-3.5125
X5.4625Y-1.325
X3.2125Y-2.95
X4.2125Y-4.45
X5.0562Y-4.4188
X5.8687Y-4.5125
X6.2125Y-1.45
X5.4625Y-3.575
X6.9625Y-1.575
X6.9625Y-2.325
T3
G00X2.2126Y-1.0841
M15
G01X2.2126Y-1.0526
M16
G05
G00X2.2126Y-1.2309
M15
G01X2.2126Y-1.1719
M16
G05
G00X2.5531Y-1.0841
M15
G01X2.5531Y-1.0526
M16
G05
G00X2.5531Y-1.2309
M15
G01X2.5531Y-1.1719
M16
G05
T5
G00X1.9055Y-3.0221
M15
G01X1.9252Y-3.0221
M16
G05
G00X2.0236Y-3.0221
M15
G01X2.0433Y-3.0221
M16
G05
G00X2.1811Y-3.0221
M15
G01X2.2008Y-3.0221
M16
G05
G00X2.2402Y-3.1875
M15
G01X2.2598Y-3.1875
M16
G05
T0
M30
