G04 #@! TF.GenerationSoftware,KiCad,Pcbnew,5.1.5+dfsg1-2build2*
G04 #@! TF.CreationDate,2021-01-09T21:52:19+00:00*
G04 #@! TF.ProjectId,cynaroides,63796e61-726f-4696-9465-732e6b696361,rev?*
G04 #@! TF.SameCoordinates,Original*
G04 #@! TF.FileFunction,Legend,Bot*
G04 #@! TF.FilePolarity,Positive*
%FSLAX46Y46*%
G04 Gerber Fmt 4.6, Leading zero omitted, Abs format (unit mm)*
G04 Created by KiCad (PCBNEW 5.1.5+dfsg1-2build2) date 2021-01-09 21:52:19*
%MOMM*%
%LPD*%
G04 APERTURE LIST*
%ADD10C,0.120000*%
%ADD11C,0.150000*%
G04 APERTURE END LIST*
D10*
X47285400Y-39125600D02*
X47285400Y-43025600D01*
X49285400Y-39125600D02*
X49285400Y-43025600D01*
X47285400Y-39125600D02*
X49285400Y-39125600D01*
X51564000Y-55428000D02*
X50404000Y-55428000D01*
X51564000Y-57348000D02*
X50154000Y-57348000D01*
X51564000Y-57348000D02*
X51564000Y-57038000D01*
X51564000Y-55428000D02*
X51564000Y-55738000D01*
X77856250Y-43406250D02*
X77856250Y-41806250D01*
X85656250Y-45506250D02*
X77856250Y-45506250D01*
X77856250Y-41806250D02*
X85656250Y-41806250D01*
X96906250Y-40231250D02*
X96906250Y-38631250D01*
X104706250Y-42331250D02*
X96906250Y-42331250D01*
X96906250Y-38631250D02*
X104706250Y-38631250D01*
X115956250Y-38643750D02*
X115956250Y-37043750D01*
X123756250Y-40743750D02*
X115956250Y-40743750D01*
X115956250Y-37043750D02*
X123756250Y-37043750D01*
X135006250Y-40231250D02*
X135006250Y-38631250D01*
X142806250Y-42331250D02*
X135006250Y-42331250D01*
X135006250Y-38631250D02*
X142806250Y-38631250D01*
X154056250Y-43406250D02*
X154056250Y-41806250D01*
X161856250Y-45506250D02*
X154056250Y-45506250D01*
X154056250Y-41806250D02*
X161856250Y-41806250D01*
X173106250Y-47375000D02*
X173106250Y-45775000D01*
X180906250Y-49475000D02*
X173106250Y-49475000D01*
X173106250Y-45775000D02*
X180906250Y-45775000D01*
X180906250Y-66131250D02*
X180906250Y-67731250D01*
X173106250Y-64031250D02*
X180906250Y-64031250D01*
X180906250Y-67731250D02*
X173106250Y-67731250D01*
X161856250Y-62956250D02*
X161856250Y-64556250D01*
X154056250Y-60856250D02*
X161856250Y-60856250D01*
X161856250Y-64556250D02*
X154056250Y-64556250D01*
X142806250Y-59781250D02*
X142806250Y-61381250D01*
X135006250Y-57681250D02*
X142806250Y-57681250D01*
X142806250Y-61381250D02*
X135006250Y-61381250D01*
X123756250Y-58193750D02*
X123756250Y-59793750D01*
X115956250Y-56093750D02*
X123756250Y-56093750D01*
X123756250Y-59793750D02*
X115956250Y-59793750D01*
X104706250Y-59781250D02*
X104706250Y-61381250D01*
X96906250Y-57681250D02*
X104706250Y-57681250D01*
X104706250Y-61381250D02*
X96906250Y-61381250D01*
X85656250Y-62956250D02*
X85656250Y-64556250D01*
X77856250Y-60856250D02*
X85656250Y-60856250D01*
X85656250Y-64556250D02*
X77856250Y-64556250D01*
X77856250Y-81506250D02*
X77856250Y-79906250D01*
X85656250Y-83606250D02*
X77856250Y-83606250D01*
X77856250Y-79906250D02*
X85656250Y-79906250D01*
X96906250Y-78331250D02*
X96906250Y-76731250D01*
X104706250Y-80431250D02*
X96906250Y-80431250D01*
X96906250Y-76731250D02*
X104706250Y-76731250D01*
X115956250Y-76743750D02*
X115956250Y-75143750D01*
X123756250Y-78843750D02*
X115956250Y-78843750D01*
X115956250Y-75143750D02*
X123756250Y-75143750D01*
X134911000Y-78159800D02*
X134911000Y-76559800D01*
X142711000Y-80259800D02*
X134911000Y-80259800D01*
X134911000Y-76559800D02*
X142711000Y-76559800D01*
X154056250Y-81506250D02*
X154056250Y-79906250D01*
X161856250Y-83606250D02*
X154056250Y-83606250D01*
X154056250Y-79906250D02*
X161856250Y-79906250D01*
X173106250Y-84681250D02*
X173106250Y-83081250D01*
X180906250Y-86781250D02*
X173106250Y-86781250D01*
X173106250Y-83081250D02*
X180906250Y-83081250D01*
X180906250Y-104231250D02*
X180906250Y-105831250D01*
X173106250Y-102131250D02*
X180906250Y-102131250D01*
X180906250Y-105831250D02*
X173106250Y-105831250D01*
X161856250Y-101056250D02*
X161856250Y-102656250D01*
X154056250Y-98956250D02*
X161856250Y-98956250D01*
X161856250Y-102656250D02*
X154056250Y-102656250D01*
X142806250Y-97881250D02*
X142806250Y-99481250D01*
X135006250Y-95781250D02*
X142806250Y-95781250D01*
X142806250Y-99481250D02*
X135006250Y-99481250D01*
X123756250Y-96293750D02*
X123756250Y-97893750D01*
X115956250Y-94193750D02*
X123756250Y-94193750D01*
X123756250Y-97893750D02*
X115956250Y-97893750D01*
X104706250Y-97881250D02*
X104706250Y-99481250D01*
X96906250Y-95781250D02*
X104706250Y-95781250D01*
X104706250Y-99481250D02*
X96906250Y-99481250D01*
X85656250Y-101056250D02*
X85656250Y-102656250D01*
X77856250Y-98956250D02*
X85656250Y-98956250D01*
X85656250Y-102656250D02*
X77856250Y-102656250D01*
X61843750Y-100262500D02*
X61843750Y-101862500D01*
X54043750Y-98162500D02*
X61843750Y-98162500D01*
X61843750Y-101862500D02*
X54043750Y-101862500D01*
X61585001Y-126352244D02*
X60785001Y-124966603D01*
X69389999Y-124270897D02*
X62635001Y-128170897D01*
X60785001Y-124966603D02*
X67539999Y-121066603D01*
X81825000Y-121987500D02*
X81825000Y-120387500D01*
X89625000Y-124087500D02*
X81825000Y-124087500D01*
X81825000Y-120387500D02*
X89625000Y-120387500D01*
X103256250Y-119606250D02*
X103256250Y-118006250D01*
X111056250Y-121706250D02*
X103256250Y-121706250D01*
X103256250Y-118006250D02*
X111056250Y-118006250D01*
X124687500Y-118812500D02*
X124687500Y-117212500D01*
X132487500Y-120912500D02*
X124687500Y-120912500D01*
X124687500Y-117212500D02*
X132487500Y-117212500D01*
X145325000Y-120400000D02*
X145325000Y-118800000D01*
X153125000Y-122500000D02*
X145325000Y-122500000D01*
X145325000Y-118800000D02*
X153125000Y-118800000D01*
X52791736Y-63352000D02*
X53995864Y-63352000D01*
X52791736Y-65172000D02*
X53995864Y-65172000D01*
X63458600Y-64656400D02*
X63458600Y-61856400D01*
X63458600Y-61856400D02*
X61458600Y-61856400D01*
X61458600Y-61856400D02*
X61458600Y-64656400D01*
X61458600Y-64656400D02*
X63458600Y-64656400D01*
X65414400Y-64635600D02*
X65414400Y-61835600D01*
X65414400Y-61835600D02*
X63414400Y-61835600D01*
X63414400Y-61835600D02*
X63414400Y-64635600D01*
X63414400Y-64635600D02*
X65414400Y-64635600D01*
X88756250Y-46772000D02*
X88756250Y-50672000D01*
X90756250Y-46772000D02*
X90756250Y-50672000D01*
X88756250Y-46772000D02*
X90756250Y-46772000D01*
X129302000Y-43470000D02*
X129302000Y-47370000D01*
X131302000Y-43470000D02*
X131302000Y-47370000D01*
X129302000Y-43470000D02*
X131302000Y-43470000D01*
X91456000Y-27468000D02*
X91456000Y-31368000D01*
X93456000Y-27468000D02*
X93456000Y-31368000D01*
X91456000Y-27468000D02*
X93456000Y-27468000D01*
X70882000Y-106208000D02*
X70882000Y-110108000D01*
X72882000Y-106208000D02*
X72882000Y-110108000D01*
X70882000Y-106208000D02*
X72882000Y-106208000D01*
X129810000Y-81824000D02*
X129810000Y-85724000D01*
X131810000Y-81824000D02*
X131810000Y-85724000D01*
X129810000Y-81824000D02*
X131810000Y-81824000D01*
X164862000Y-28992000D02*
X164862000Y-32892000D01*
X166862000Y-28992000D02*
X166862000Y-32892000D01*
X164862000Y-28992000D02*
X166862000Y-28992000D01*
X164956250Y-68870000D02*
X164956250Y-72770000D01*
X166956250Y-68870000D02*
X166956250Y-72770000D01*
X164956250Y-68870000D02*
X166956250Y-68870000D01*
X164481000Y-87920000D02*
X164481000Y-91820000D01*
X166481000Y-87920000D02*
X166481000Y-91820000D01*
X164481000Y-87920000D02*
X166481000Y-87920000D01*
X91202000Y-65314000D02*
X91202000Y-69214000D01*
X93202000Y-65314000D02*
X93202000Y-69214000D01*
X91202000Y-65314000D02*
X93202000Y-65314000D01*
X88662000Y-27468000D02*
X88662000Y-31368000D01*
X90662000Y-27468000D02*
X90662000Y-31368000D01*
X88662000Y-27468000D02*
X90662000Y-27468000D01*
X164862000Y-49566000D02*
X164862000Y-53466000D01*
X166862000Y-49566000D02*
X166862000Y-53466000D01*
X164862000Y-49566000D02*
X166862000Y-49566000D01*
X127016000Y-62774000D02*
X127016000Y-66674000D01*
X129016000Y-62774000D02*
X129016000Y-66674000D01*
X127016000Y-62774000D02*
X129016000Y-62774000D01*
X129556000Y-62774000D02*
X129556000Y-66674000D01*
X131556000Y-62774000D02*
X131556000Y-66674000D01*
X129556000Y-62774000D02*
X131556000Y-62774000D01*
X91456000Y-84872000D02*
X91456000Y-88772000D01*
X93456000Y-84872000D02*
X93456000Y-88772000D01*
X91456000Y-84872000D02*
X93456000Y-84872000D01*
X126762000Y-81824000D02*
X126762000Y-85724000D01*
X128762000Y-81824000D02*
X128762000Y-85724000D01*
X126762000Y-81824000D02*
X128762000Y-81824000D01*
X91456000Y-46772000D02*
X91456000Y-50672000D01*
X93456000Y-46772000D02*
X93456000Y-50672000D01*
X91456000Y-46772000D02*
X93456000Y-46772000D01*
X126762000Y-43470000D02*
X126762000Y-47370000D01*
X128762000Y-43470000D02*
X128762000Y-47370000D01*
X126762000Y-43470000D02*
X128762000Y-43470000D01*
X115332000Y-103414000D02*
X115332000Y-107314000D01*
X117332000Y-103414000D02*
X117332000Y-107314000D01*
X115332000Y-103414000D02*
X117332000Y-103414000D01*
X118126000Y-103414000D02*
X118126000Y-107314000D01*
X120126000Y-103414000D02*
X120126000Y-107314000D01*
X118126000Y-103414000D02*
X120126000Y-103414000D01*
X156226000Y-105446000D02*
X156226000Y-109346000D01*
X158226000Y-105446000D02*
X158226000Y-109346000D01*
X156226000Y-105446000D02*
X158226000Y-105446000D01*
X88408000Y-65314000D02*
X88408000Y-69214000D01*
X90408000Y-65314000D02*
X90408000Y-69214000D01*
X88408000Y-65314000D02*
X90408000Y-65314000D01*
X167402000Y-28992000D02*
X167402000Y-32892000D01*
X169402000Y-28992000D02*
X169402000Y-32892000D01*
X167402000Y-28992000D02*
X169402000Y-28992000D01*
X88662000Y-84872000D02*
X88662000Y-88772000D01*
X90662000Y-84872000D02*
X90662000Y-88772000D01*
X88662000Y-84872000D02*
X90662000Y-84872000D01*
X62114000Y-56856000D02*
X58114000Y-56856000D01*
X62114000Y-53556000D02*
X62114000Y-56856000D01*
D11*
X45875000Y-58118750D02*
X46125000Y-58118750D01*
X45875000Y-64118750D02*
X45875000Y-58118750D01*
X46125000Y-64118750D02*
X45875000Y-64118750D01*
X49375000Y-64118750D02*
X49125000Y-64118750D01*
X49375000Y-58118750D02*
X49375000Y-64118750D01*
X49125000Y-58118750D02*
X49375000Y-58118750D01*
D10*
X48927800Y-35468400D02*
X47467800Y-35468400D01*
X48927800Y-38628400D02*
X46767800Y-38628400D01*
X48927800Y-38628400D02*
X48927800Y-37698400D01*
X48927800Y-35468400D02*
X48927800Y-36398400D01*
X55699922Y-33072000D02*
X56217078Y-33072000D01*
X55699922Y-34492000D02*
X56217078Y-34492000D01*
X67834000Y-106208000D02*
X67834000Y-110108000D01*
X69834000Y-106208000D02*
X69834000Y-110108000D01*
X67834000Y-106208000D02*
X69834000Y-106208000D01*
X65040000Y-84618000D02*
X65040000Y-88518000D01*
X67040000Y-84618000D02*
X67040000Y-88518000D01*
X65040000Y-84618000D02*
X67040000Y-84618000D01*
X167402000Y-87920000D02*
X167402000Y-91820000D01*
X169402000Y-87920000D02*
X169402000Y-91820000D01*
X167402000Y-87920000D02*
X169402000Y-87920000D01*
X167656000Y-68870000D02*
X167656000Y-72770000D01*
X169656000Y-68870000D02*
X169656000Y-72770000D01*
X167656000Y-68870000D02*
X169656000Y-68870000D01*
X167656000Y-49566000D02*
X167656000Y-53466000D01*
X169656000Y-49566000D02*
X169656000Y-53466000D01*
X167656000Y-49566000D02*
X169656000Y-49566000D01*
X129556000Y-24928000D02*
X129556000Y-28828000D01*
X131556000Y-24928000D02*
X131556000Y-28828000D01*
X129556000Y-24928000D02*
X131556000Y-24928000D01*
X126762000Y-24928000D02*
X126762000Y-28828000D01*
X128762000Y-24928000D02*
X128762000Y-28828000D01*
X126762000Y-24928000D02*
X128762000Y-24928000D01*
X51546000Y-63846000D02*
X51546000Y-59946000D01*
X49546000Y-63846000D02*
X49546000Y-59946000D01*
X51546000Y-63846000D02*
X49546000Y-63846000D01*
X50357600Y-32959800D02*
X46457600Y-32959800D01*
X50357600Y-34959800D02*
X46457600Y-34959800D01*
X50357600Y-32959800D02*
X50357600Y-34959800D01*
X62834000Y-50576000D02*
X62834000Y-51916000D01*
X63784000Y-50576000D02*
X62834000Y-50576000D01*
X63784000Y-49626000D02*
X63784000Y-50576000D01*
X63784000Y-40356000D02*
X62834000Y-40356000D01*
X63784000Y-41306000D02*
X63784000Y-40356000D01*
X53564000Y-50576000D02*
X54514000Y-50576000D01*
X53564000Y-49626000D02*
X53564000Y-50576000D01*
X53564000Y-40356000D02*
X54514000Y-40356000D01*
X53564000Y-41306000D02*
X53564000Y-40356000D01*
X62250000Y-34744000D02*
X62250000Y-37194000D01*
X59030000Y-36544000D02*
X59030000Y-34744000D01*
D11*
X46237780Y-40637504D02*
X45237780Y-40637504D01*
X45237780Y-40875600D01*
X45285400Y-41018457D01*
X45380638Y-41113695D01*
X45475876Y-41161314D01*
X45666352Y-41208933D01*
X45809209Y-41208933D01*
X45999685Y-41161314D01*
X46094923Y-41113695D01*
X46190161Y-41018457D01*
X46237780Y-40875600D01*
X46237780Y-40637504D01*
X45333019Y-41589885D02*
X45285400Y-41637504D01*
X45237780Y-41732742D01*
X45237780Y-41970838D01*
X45285400Y-42066076D01*
X45333019Y-42113695D01*
X45428257Y-42161314D01*
X45523495Y-42161314D01*
X45666352Y-42113695D01*
X46237780Y-41542266D01*
X46237780Y-42161314D01*
X51099238Y-58885619D02*
X51194476Y-58838000D01*
X51289714Y-58742761D01*
X51432571Y-58599904D01*
X51527809Y-58552285D01*
X51623047Y-58552285D01*
X51575428Y-58790380D02*
X51670666Y-58742761D01*
X51765904Y-58647523D01*
X51813523Y-58457047D01*
X51813523Y-58123714D01*
X51765904Y-57933238D01*
X51670666Y-57838000D01*
X51575428Y-57790380D01*
X51384952Y-57790380D01*
X51289714Y-57838000D01*
X51194476Y-57933238D01*
X51146857Y-58123714D01*
X51146857Y-58457047D01*
X51194476Y-58647523D01*
X51289714Y-58742761D01*
X51384952Y-58790380D01*
X51575428Y-58790380D01*
X50194476Y-58790380D02*
X50765904Y-58790380D01*
X50480190Y-58790380D02*
X50480190Y-57790380D01*
X50575428Y-57933238D01*
X50670666Y-58028476D01*
X50765904Y-58076095D01*
X54513857Y-63680942D02*
X54561476Y-63728561D01*
X54704333Y-63776180D01*
X54799571Y-63776180D01*
X54942428Y-63728561D01*
X55037666Y-63633323D01*
X55085285Y-63538085D01*
X55132904Y-63347609D01*
X55132904Y-63204752D01*
X55085285Y-63014276D01*
X55037666Y-62919038D01*
X54942428Y-62823800D01*
X54799571Y-62776180D01*
X54704333Y-62776180D01*
X54561476Y-62823800D01*
X54513857Y-62871419D01*
X53561476Y-63776180D02*
X54132904Y-63776180D01*
X53847190Y-63776180D02*
X53847190Y-62776180D01*
X53942428Y-62919038D01*
X54037666Y-63014276D01*
X54132904Y-63061895D01*
X53228142Y-62776180D02*
X52609095Y-62776180D01*
X52942428Y-63157133D01*
X52799571Y-63157133D01*
X52704333Y-63204752D01*
X52656714Y-63252371D01*
X52609095Y-63347609D01*
X52609095Y-63585704D01*
X52656714Y-63680942D01*
X52704333Y-63728561D01*
X52799571Y-63776180D01*
X53085285Y-63776180D01*
X53180523Y-63728561D01*
X53228142Y-63680942D01*
X53560466Y-65884380D02*
X53893800Y-65408190D01*
X54131895Y-65884380D02*
X54131895Y-64884380D01*
X53750942Y-64884380D01*
X53655704Y-64932000D01*
X53608085Y-64979619D01*
X53560466Y-65074857D01*
X53560466Y-65217714D01*
X53608085Y-65312952D01*
X53655704Y-65360571D01*
X53750942Y-65408190D01*
X54131895Y-65408190D01*
X52655704Y-64884380D02*
X53131895Y-64884380D01*
X53179514Y-65360571D01*
X53131895Y-65312952D01*
X53036657Y-65265333D01*
X52798561Y-65265333D01*
X52703323Y-65312952D01*
X52655704Y-65360571D01*
X52608085Y-65455809D01*
X52608085Y-65693904D01*
X52655704Y-65789142D01*
X52703323Y-65836761D01*
X52798561Y-65884380D01*
X53036657Y-65884380D01*
X53131895Y-65836761D01*
X53179514Y-65789142D01*
X63710980Y-62423066D02*
X64425266Y-62423066D01*
X64568123Y-62375447D01*
X64663361Y-62280209D01*
X64710980Y-62137352D01*
X64710980Y-62042114D01*
X64710980Y-62899257D02*
X63710980Y-62899257D01*
X63710980Y-63280209D01*
X63758600Y-63375447D01*
X63806219Y-63423066D01*
X63901457Y-63470685D01*
X64044314Y-63470685D01*
X64139552Y-63423066D01*
X64187171Y-63375447D01*
X64234790Y-63280209D01*
X64234790Y-62899257D01*
X63806219Y-63851638D02*
X63758600Y-63899257D01*
X63710980Y-63994495D01*
X63710980Y-64232590D01*
X63758600Y-64327828D01*
X63806219Y-64375447D01*
X63901457Y-64423066D01*
X63996695Y-64423066D01*
X64139552Y-64375447D01*
X64710980Y-63804019D01*
X64710980Y-64423066D01*
X65666780Y-62402266D02*
X66381066Y-62402266D01*
X66523923Y-62354647D01*
X66619161Y-62259409D01*
X66666780Y-62116552D01*
X66666780Y-62021314D01*
X66666780Y-62878457D02*
X65666780Y-62878457D01*
X65666780Y-63259409D01*
X65714400Y-63354647D01*
X65762019Y-63402266D01*
X65857257Y-63449885D01*
X66000114Y-63449885D01*
X66095352Y-63402266D01*
X66142971Y-63354647D01*
X66190590Y-63259409D01*
X66190590Y-62878457D01*
X66666780Y-64402266D02*
X66666780Y-63830838D01*
X66666780Y-64116552D02*
X65666780Y-64116552D01*
X65809638Y-64021314D01*
X65904876Y-63926076D01*
X65952495Y-63830838D01*
X62627666Y-67052780D02*
X62961000Y-66576590D01*
X63199095Y-67052780D02*
X63199095Y-66052780D01*
X62818142Y-66052780D01*
X62722904Y-66100400D01*
X62675285Y-66148019D01*
X62627666Y-66243257D01*
X62627666Y-66386114D01*
X62675285Y-66481352D01*
X62722904Y-66528971D01*
X62818142Y-66576590D01*
X63199095Y-66576590D01*
X62294333Y-66052780D02*
X61627666Y-66052780D01*
X62056238Y-67052780D01*
X64581066Y-64712780D02*
X64914400Y-64236590D01*
X65152495Y-64712780D02*
X65152495Y-63712780D01*
X64771542Y-63712780D01*
X64676304Y-63760400D01*
X64628685Y-63808019D01*
X64581066Y-63903257D01*
X64581066Y-64046114D01*
X64628685Y-64141352D01*
X64676304Y-64188971D01*
X64771542Y-64236590D01*
X65152495Y-64236590D01*
X63723923Y-63712780D02*
X63914400Y-63712780D01*
X64009638Y-63760400D01*
X64057257Y-63808019D01*
X64152495Y-63950876D01*
X64200114Y-64141352D01*
X64200114Y-64522304D01*
X64152495Y-64617542D01*
X64104876Y-64665161D01*
X64009638Y-64712780D01*
X63819161Y-64712780D01*
X63723923Y-64665161D01*
X63676304Y-64617542D01*
X63628685Y-64522304D01*
X63628685Y-64284209D01*
X63676304Y-64188971D01*
X63723923Y-64141352D01*
X63819161Y-64093733D01*
X64009638Y-64093733D01*
X64104876Y-64141352D01*
X64152495Y-64188971D01*
X64200114Y-64284209D01*
X88208630Y-47807714D02*
X87208630Y-47807714D01*
X87208630Y-48045809D01*
X87256250Y-48188666D01*
X87351488Y-48283904D01*
X87446726Y-48331523D01*
X87637202Y-48379142D01*
X87780059Y-48379142D01*
X87970535Y-48331523D01*
X88065773Y-48283904D01*
X88161011Y-48188666D01*
X88208630Y-48045809D01*
X88208630Y-47807714D01*
X88208630Y-49331523D02*
X88208630Y-48760095D01*
X88208630Y-49045809D02*
X87208630Y-49045809D01*
X87351488Y-48950571D01*
X87446726Y-48855333D01*
X87494345Y-48760095D01*
X87208630Y-49950571D02*
X87208630Y-50045809D01*
X87256250Y-50141047D01*
X87303869Y-50188666D01*
X87399107Y-50236285D01*
X87589583Y-50283904D01*
X87827678Y-50283904D01*
X88018154Y-50236285D01*
X88113392Y-50188666D01*
X88161011Y-50141047D01*
X88208630Y-50045809D01*
X88208630Y-49950571D01*
X88161011Y-49855333D01*
X88113392Y-49807714D01*
X88018154Y-49760095D01*
X87827678Y-49712476D01*
X87589583Y-49712476D01*
X87399107Y-49760095D01*
X87303869Y-49807714D01*
X87256250Y-49855333D01*
X87208630Y-49950571D01*
X128754380Y-44505714D02*
X127754380Y-44505714D01*
X127754380Y-44743809D01*
X127802000Y-44886666D01*
X127897238Y-44981904D01*
X127992476Y-45029523D01*
X128182952Y-45077142D01*
X128325809Y-45077142D01*
X128516285Y-45029523D01*
X128611523Y-44981904D01*
X128706761Y-44886666D01*
X128754380Y-44743809D01*
X128754380Y-44505714D01*
X128754380Y-46029523D02*
X128754380Y-45458095D01*
X128754380Y-45743809D02*
X127754380Y-45743809D01*
X127897238Y-45648571D01*
X127992476Y-45553333D01*
X128040095Y-45458095D01*
X127754380Y-46362857D02*
X127754380Y-46981904D01*
X128135333Y-46648571D01*
X128135333Y-46791428D01*
X128182952Y-46886666D01*
X128230571Y-46934285D01*
X128325809Y-46981904D01*
X128563904Y-46981904D01*
X128659142Y-46934285D01*
X128706761Y-46886666D01*
X128754380Y-46791428D01*
X128754380Y-46505714D01*
X128706761Y-46410476D01*
X128659142Y-46362857D01*
X90908380Y-28979904D02*
X89908380Y-28979904D01*
X89908380Y-29218000D01*
X89956000Y-29360857D01*
X90051238Y-29456095D01*
X90146476Y-29503714D01*
X90336952Y-29551333D01*
X90479809Y-29551333D01*
X90670285Y-29503714D01*
X90765523Y-29456095D01*
X90860761Y-29360857D01*
X90908380Y-29218000D01*
X90908380Y-28979904D01*
X89908380Y-30456095D02*
X89908380Y-29979904D01*
X90384571Y-29932285D01*
X90336952Y-29979904D01*
X90289333Y-30075142D01*
X90289333Y-30313238D01*
X90336952Y-30408476D01*
X90384571Y-30456095D01*
X90479809Y-30503714D01*
X90717904Y-30503714D01*
X90813142Y-30456095D01*
X90860761Y-30408476D01*
X90908380Y-30313238D01*
X90908380Y-30075142D01*
X90860761Y-29979904D01*
X90813142Y-29932285D01*
X70334380Y-107243714D02*
X69334380Y-107243714D01*
X69334380Y-107481809D01*
X69382000Y-107624666D01*
X69477238Y-107719904D01*
X69572476Y-107767523D01*
X69762952Y-107815142D01*
X69905809Y-107815142D01*
X70096285Y-107767523D01*
X70191523Y-107719904D01*
X70286761Y-107624666D01*
X70334380Y-107481809D01*
X70334380Y-107243714D01*
X69334380Y-108148476D02*
X69334380Y-108767523D01*
X69715333Y-108434190D01*
X69715333Y-108577047D01*
X69762952Y-108672285D01*
X69810571Y-108719904D01*
X69905809Y-108767523D01*
X70143904Y-108767523D01*
X70239142Y-108719904D01*
X70286761Y-108672285D01*
X70334380Y-108577047D01*
X70334380Y-108291333D01*
X70286761Y-108196095D01*
X70239142Y-108148476D01*
X69334380Y-109386571D02*
X69334380Y-109481809D01*
X69382000Y-109577047D01*
X69429619Y-109624666D01*
X69524857Y-109672285D01*
X69715333Y-109719904D01*
X69953428Y-109719904D01*
X70143904Y-109672285D01*
X70239142Y-109624666D01*
X70286761Y-109577047D01*
X70334380Y-109481809D01*
X70334380Y-109386571D01*
X70286761Y-109291333D01*
X70239142Y-109243714D01*
X70143904Y-109196095D01*
X69953428Y-109148476D01*
X69715333Y-109148476D01*
X69524857Y-109196095D01*
X69429619Y-109243714D01*
X69382000Y-109291333D01*
X69334380Y-109386571D01*
X129262380Y-82859714D02*
X128262380Y-82859714D01*
X128262380Y-83097809D01*
X128310000Y-83240666D01*
X128405238Y-83335904D01*
X128500476Y-83383523D01*
X128690952Y-83431142D01*
X128833809Y-83431142D01*
X129024285Y-83383523D01*
X129119523Y-83335904D01*
X129214761Y-83240666D01*
X129262380Y-83097809D01*
X129262380Y-82859714D01*
X128357619Y-83812095D02*
X128310000Y-83859714D01*
X128262380Y-83954952D01*
X128262380Y-84193047D01*
X128310000Y-84288285D01*
X128357619Y-84335904D01*
X128452857Y-84383523D01*
X128548095Y-84383523D01*
X128690952Y-84335904D01*
X129262380Y-83764476D01*
X129262380Y-84383523D01*
X128262380Y-85288285D02*
X128262380Y-84812095D01*
X128738571Y-84764476D01*
X128690952Y-84812095D01*
X128643333Y-84907333D01*
X128643333Y-85145428D01*
X128690952Y-85240666D01*
X128738571Y-85288285D01*
X128833809Y-85335904D01*
X129071904Y-85335904D01*
X129167142Y-85288285D01*
X129214761Y-85240666D01*
X129262380Y-85145428D01*
X129262380Y-84907333D01*
X129214761Y-84812095D01*
X129167142Y-84764476D01*
X164314380Y-30503904D02*
X163314380Y-30503904D01*
X163314380Y-30742000D01*
X163362000Y-30884857D01*
X163457238Y-30980095D01*
X163552476Y-31027714D01*
X163742952Y-31075333D01*
X163885809Y-31075333D01*
X164076285Y-31027714D01*
X164171523Y-30980095D01*
X164266761Y-30884857D01*
X164314380Y-30742000D01*
X164314380Y-30503904D01*
X163742952Y-31646761D02*
X163695333Y-31551523D01*
X163647714Y-31503904D01*
X163552476Y-31456285D01*
X163504857Y-31456285D01*
X163409619Y-31503904D01*
X163362000Y-31551523D01*
X163314380Y-31646761D01*
X163314380Y-31837238D01*
X163362000Y-31932476D01*
X163409619Y-31980095D01*
X163504857Y-32027714D01*
X163552476Y-32027714D01*
X163647714Y-31980095D01*
X163695333Y-31932476D01*
X163742952Y-31837238D01*
X163742952Y-31646761D01*
X163790571Y-31551523D01*
X163838190Y-31503904D01*
X163933428Y-31456285D01*
X164123904Y-31456285D01*
X164219142Y-31503904D01*
X164266761Y-31551523D01*
X164314380Y-31646761D01*
X164314380Y-31837238D01*
X164266761Y-31932476D01*
X164219142Y-31980095D01*
X164123904Y-32027714D01*
X163933428Y-32027714D01*
X163838190Y-31980095D01*
X163790571Y-31932476D01*
X163742952Y-31837238D01*
X164408630Y-69905714D02*
X163408630Y-69905714D01*
X163408630Y-70143809D01*
X163456250Y-70286666D01*
X163551488Y-70381904D01*
X163646726Y-70429523D01*
X163837202Y-70477142D01*
X163980059Y-70477142D01*
X164170535Y-70429523D01*
X164265773Y-70381904D01*
X164361011Y-70286666D01*
X164408630Y-70143809D01*
X164408630Y-69905714D01*
X163503869Y-70858095D02*
X163456250Y-70905714D01*
X163408630Y-71000952D01*
X163408630Y-71239047D01*
X163456250Y-71334285D01*
X163503869Y-71381904D01*
X163599107Y-71429523D01*
X163694345Y-71429523D01*
X163837202Y-71381904D01*
X164408630Y-70810476D01*
X164408630Y-71429523D01*
X163408630Y-72048571D02*
X163408630Y-72143809D01*
X163456250Y-72239047D01*
X163503869Y-72286666D01*
X163599107Y-72334285D01*
X163789583Y-72381904D01*
X164027678Y-72381904D01*
X164218154Y-72334285D01*
X164313392Y-72286666D01*
X164361011Y-72239047D01*
X164408630Y-72143809D01*
X164408630Y-72048571D01*
X164361011Y-71953333D01*
X164313392Y-71905714D01*
X164218154Y-71858095D01*
X164027678Y-71810476D01*
X163789583Y-71810476D01*
X163599107Y-71858095D01*
X163503869Y-71905714D01*
X163456250Y-71953333D01*
X163408630Y-72048571D01*
X163933380Y-88955714D02*
X162933380Y-88955714D01*
X162933380Y-89193809D01*
X162981000Y-89336666D01*
X163076238Y-89431904D01*
X163171476Y-89479523D01*
X163361952Y-89527142D01*
X163504809Y-89527142D01*
X163695285Y-89479523D01*
X163790523Y-89431904D01*
X163885761Y-89336666D01*
X163933380Y-89193809D01*
X163933380Y-88955714D01*
X163028619Y-89908095D02*
X162981000Y-89955714D01*
X162933380Y-90050952D01*
X162933380Y-90289047D01*
X162981000Y-90384285D01*
X163028619Y-90431904D01*
X163123857Y-90479523D01*
X163219095Y-90479523D01*
X163361952Y-90431904D01*
X163933380Y-89860476D01*
X163933380Y-90479523D01*
X162933380Y-91336666D02*
X162933380Y-91146190D01*
X162981000Y-91050952D01*
X163028619Y-91003333D01*
X163171476Y-90908095D01*
X163361952Y-90860476D01*
X163742904Y-90860476D01*
X163838142Y-90908095D01*
X163885761Y-90955714D01*
X163933380Y-91050952D01*
X163933380Y-91241428D01*
X163885761Y-91336666D01*
X163838142Y-91384285D01*
X163742904Y-91431904D01*
X163504809Y-91431904D01*
X163409571Y-91384285D01*
X163361952Y-91336666D01*
X163314333Y-91241428D01*
X163314333Y-91050952D01*
X163361952Y-90955714D01*
X163409571Y-90908095D01*
X163504809Y-90860476D01*
X90654380Y-66349714D02*
X89654380Y-66349714D01*
X89654380Y-66587809D01*
X89702000Y-66730666D01*
X89797238Y-66825904D01*
X89892476Y-66873523D01*
X90082952Y-66921142D01*
X90225809Y-66921142D01*
X90416285Y-66873523D01*
X90511523Y-66825904D01*
X90606761Y-66730666D01*
X90654380Y-66587809D01*
X90654380Y-66349714D01*
X90654380Y-67873523D02*
X90654380Y-67302095D01*
X90654380Y-67587809D02*
X89654380Y-67587809D01*
X89797238Y-67492571D01*
X89892476Y-67397333D01*
X89940095Y-67302095D01*
X89654380Y-68206857D02*
X89654380Y-68873523D01*
X90654380Y-68444952D01*
X88114380Y-28979904D02*
X87114380Y-28979904D01*
X87114380Y-29218000D01*
X87162000Y-29360857D01*
X87257238Y-29456095D01*
X87352476Y-29503714D01*
X87542952Y-29551333D01*
X87685809Y-29551333D01*
X87876285Y-29503714D01*
X87971523Y-29456095D01*
X88066761Y-29360857D01*
X88114380Y-29218000D01*
X88114380Y-28979904D01*
X87447714Y-30408476D02*
X88114380Y-30408476D01*
X87066761Y-30170380D02*
X87781047Y-29932285D01*
X87781047Y-30551333D01*
X164314380Y-50601714D02*
X163314380Y-50601714D01*
X163314380Y-50839809D01*
X163362000Y-50982666D01*
X163457238Y-51077904D01*
X163552476Y-51125523D01*
X163742952Y-51173142D01*
X163885809Y-51173142D01*
X164076285Y-51125523D01*
X164171523Y-51077904D01*
X164266761Y-50982666D01*
X164314380Y-50839809D01*
X164314380Y-50601714D01*
X164314380Y-52125523D02*
X164314380Y-51554095D01*
X164314380Y-51839809D02*
X163314380Y-51839809D01*
X163457238Y-51744571D01*
X163552476Y-51649333D01*
X163600095Y-51554095D01*
X163647714Y-52982666D02*
X164314380Y-52982666D01*
X163266761Y-52744571D02*
X163981047Y-52506476D01*
X163981047Y-53125523D01*
X126468380Y-63809714D02*
X125468380Y-63809714D01*
X125468380Y-64047809D01*
X125516000Y-64190666D01*
X125611238Y-64285904D01*
X125706476Y-64333523D01*
X125896952Y-64381142D01*
X126039809Y-64381142D01*
X126230285Y-64333523D01*
X126325523Y-64285904D01*
X126420761Y-64190666D01*
X126468380Y-64047809D01*
X126468380Y-63809714D01*
X126468380Y-65333523D02*
X126468380Y-64762095D01*
X126468380Y-65047809D02*
X125468380Y-65047809D01*
X125611238Y-64952571D01*
X125706476Y-64857333D01*
X125754095Y-64762095D01*
X125896952Y-65904952D02*
X125849333Y-65809714D01*
X125801714Y-65762095D01*
X125706476Y-65714476D01*
X125658857Y-65714476D01*
X125563619Y-65762095D01*
X125516000Y-65809714D01*
X125468380Y-65904952D01*
X125468380Y-66095428D01*
X125516000Y-66190666D01*
X125563619Y-66238285D01*
X125658857Y-66285904D01*
X125706476Y-66285904D01*
X125801714Y-66238285D01*
X125849333Y-66190666D01*
X125896952Y-66095428D01*
X125896952Y-65904952D01*
X125944571Y-65809714D01*
X125992190Y-65762095D01*
X126087428Y-65714476D01*
X126277904Y-65714476D01*
X126373142Y-65762095D01*
X126420761Y-65809714D01*
X126468380Y-65904952D01*
X126468380Y-66095428D01*
X126420761Y-66190666D01*
X126373142Y-66238285D01*
X126277904Y-66285904D01*
X126087428Y-66285904D01*
X125992190Y-66238285D01*
X125944571Y-66190666D01*
X125896952Y-66095428D01*
X129008380Y-63809714D02*
X128008380Y-63809714D01*
X128008380Y-64047809D01*
X128056000Y-64190666D01*
X128151238Y-64285904D01*
X128246476Y-64333523D01*
X128436952Y-64381142D01*
X128579809Y-64381142D01*
X128770285Y-64333523D01*
X128865523Y-64285904D01*
X128960761Y-64190666D01*
X129008380Y-64047809D01*
X129008380Y-63809714D01*
X129008380Y-65333523D02*
X129008380Y-64762095D01*
X129008380Y-65047809D02*
X128008380Y-65047809D01*
X128151238Y-64952571D01*
X128246476Y-64857333D01*
X128294095Y-64762095D01*
X129008380Y-65809714D02*
X129008380Y-66000190D01*
X128960761Y-66095428D01*
X128913142Y-66143047D01*
X128770285Y-66238285D01*
X128579809Y-66285904D01*
X128198857Y-66285904D01*
X128103619Y-66238285D01*
X128056000Y-66190666D01*
X128008380Y-66095428D01*
X128008380Y-65904952D01*
X128056000Y-65809714D01*
X128103619Y-65762095D01*
X128198857Y-65714476D01*
X128436952Y-65714476D01*
X128532190Y-65762095D01*
X128579809Y-65809714D01*
X128627428Y-65904952D01*
X128627428Y-66095428D01*
X128579809Y-66190666D01*
X128532190Y-66238285D01*
X128436952Y-66285904D01*
X90908380Y-85907714D02*
X89908380Y-85907714D01*
X89908380Y-86145809D01*
X89956000Y-86288666D01*
X90051238Y-86383904D01*
X90146476Y-86431523D01*
X90336952Y-86479142D01*
X90479809Y-86479142D01*
X90670285Y-86431523D01*
X90765523Y-86383904D01*
X90860761Y-86288666D01*
X90908380Y-86145809D01*
X90908380Y-85907714D01*
X90003619Y-86860095D02*
X89956000Y-86907714D01*
X89908380Y-87002952D01*
X89908380Y-87241047D01*
X89956000Y-87336285D01*
X90003619Y-87383904D01*
X90098857Y-87431523D01*
X90194095Y-87431523D01*
X90336952Y-87383904D01*
X90908380Y-86812476D01*
X90908380Y-87431523D01*
X89908380Y-87764857D02*
X89908380Y-88383904D01*
X90289333Y-88050571D01*
X90289333Y-88193428D01*
X90336952Y-88288666D01*
X90384571Y-88336285D01*
X90479809Y-88383904D01*
X90717904Y-88383904D01*
X90813142Y-88336285D01*
X90860761Y-88288666D01*
X90908380Y-88193428D01*
X90908380Y-87907714D01*
X90860761Y-87812476D01*
X90813142Y-87764857D01*
X126214380Y-82859714D02*
X125214380Y-82859714D01*
X125214380Y-83097809D01*
X125262000Y-83240666D01*
X125357238Y-83335904D01*
X125452476Y-83383523D01*
X125642952Y-83431142D01*
X125785809Y-83431142D01*
X125976285Y-83383523D01*
X126071523Y-83335904D01*
X126166761Y-83240666D01*
X126214380Y-83097809D01*
X126214380Y-82859714D01*
X125309619Y-83812095D02*
X125262000Y-83859714D01*
X125214380Y-83954952D01*
X125214380Y-84193047D01*
X125262000Y-84288285D01*
X125309619Y-84335904D01*
X125404857Y-84383523D01*
X125500095Y-84383523D01*
X125642952Y-84335904D01*
X126214380Y-83764476D01*
X126214380Y-84383523D01*
X125547714Y-85240666D02*
X126214380Y-85240666D01*
X125166761Y-85002571D02*
X125881047Y-84764476D01*
X125881047Y-85383523D01*
X90908380Y-47807714D02*
X89908380Y-47807714D01*
X89908380Y-48045809D01*
X89956000Y-48188666D01*
X90051238Y-48283904D01*
X90146476Y-48331523D01*
X90336952Y-48379142D01*
X90479809Y-48379142D01*
X90670285Y-48331523D01*
X90765523Y-48283904D01*
X90860761Y-48188666D01*
X90908380Y-48045809D01*
X90908380Y-47807714D01*
X90908380Y-49331523D02*
X90908380Y-48760095D01*
X90908380Y-49045809D02*
X89908380Y-49045809D01*
X90051238Y-48950571D01*
X90146476Y-48855333D01*
X90194095Y-48760095D01*
X90908380Y-50283904D02*
X90908380Y-49712476D01*
X90908380Y-49998190D02*
X89908380Y-49998190D01*
X90051238Y-49902952D01*
X90146476Y-49807714D01*
X90194095Y-49712476D01*
X126214380Y-44505714D02*
X125214380Y-44505714D01*
X125214380Y-44743809D01*
X125262000Y-44886666D01*
X125357238Y-44981904D01*
X125452476Y-45029523D01*
X125642952Y-45077142D01*
X125785809Y-45077142D01*
X125976285Y-45029523D01*
X126071523Y-44981904D01*
X126166761Y-44886666D01*
X126214380Y-44743809D01*
X126214380Y-44505714D01*
X126214380Y-46029523D02*
X126214380Y-45458095D01*
X126214380Y-45743809D02*
X125214380Y-45743809D01*
X125357238Y-45648571D01*
X125452476Y-45553333D01*
X125500095Y-45458095D01*
X125309619Y-46410476D02*
X125262000Y-46458095D01*
X125214380Y-46553333D01*
X125214380Y-46791428D01*
X125262000Y-46886666D01*
X125309619Y-46934285D01*
X125404857Y-46981904D01*
X125500095Y-46981904D01*
X125642952Y-46934285D01*
X126214380Y-46362857D01*
X126214380Y-46981904D01*
X114784380Y-104449714D02*
X113784380Y-104449714D01*
X113784380Y-104687809D01*
X113832000Y-104830666D01*
X113927238Y-104925904D01*
X114022476Y-104973523D01*
X114212952Y-105021142D01*
X114355809Y-105021142D01*
X114546285Y-104973523D01*
X114641523Y-104925904D01*
X114736761Y-104830666D01*
X114784380Y-104687809D01*
X114784380Y-104449714D01*
X113784380Y-105354476D02*
X113784380Y-105973523D01*
X114165333Y-105640190D01*
X114165333Y-105783047D01*
X114212952Y-105878285D01*
X114260571Y-105925904D01*
X114355809Y-105973523D01*
X114593904Y-105973523D01*
X114689142Y-105925904D01*
X114736761Y-105878285D01*
X114784380Y-105783047D01*
X114784380Y-105497333D01*
X114736761Y-105402095D01*
X114689142Y-105354476D01*
X114784380Y-106925904D02*
X114784380Y-106354476D01*
X114784380Y-106640190D02*
X113784380Y-106640190D01*
X113927238Y-106544952D01*
X114022476Y-106449714D01*
X114070095Y-106354476D01*
X117578380Y-104449714D02*
X116578380Y-104449714D01*
X116578380Y-104687809D01*
X116626000Y-104830666D01*
X116721238Y-104925904D01*
X116816476Y-104973523D01*
X117006952Y-105021142D01*
X117149809Y-105021142D01*
X117340285Y-104973523D01*
X117435523Y-104925904D01*
X117530761Y-104830666D01*
X117578380Y-104687809D01*
X117578380Y-104449714D01*
X116578380Y-105354476D02*
X116578380Y-105973523D01*
X116959333Y-105640190D01*
X116959333Y-105783047D01*
X117006952Y-105878285D01*
X117054571Y-105925904D01*
X117149809Y-105973523D01*
X117387904Y-105973523D01*
X117483142Y-105925904D01*
X117530761Y-105878285D01*
X117578380Y-105783047D01*
X117578380Y-105497333D01*
X117530761Y-105402095D01*
X117483142Y-105354476D01*
X116673619Y-106354476D02*
X116626000Y-106402095D01*
X116578380Y-106497333D01*
X116578380Y-106735428D01*
X116626000Y-106830666D01*
X116673619Y-106878285D01*
X116768857Y-106925904D01*
X116864095Y-106925904D01*
X117006952Y-106878285D01*
X117578380Y-106306857D01*
X117578380Y-106925904D01*
X155678380Y-106481714D02*
X154678380Y-106481714D01*
X154678380Y-106719809D01*
X154726000Y-106862666D01*
X154821238Y-106957904D01*
X154916476Y-107005523D01*
X155106952Y-107053142D01*
X155249809Y-107053142D01*
X155440285Y-107005523D01*
X155535523Y-106957904D01*
X155630761Y-106862666D01*
X155678380Y-106719809D01*
X155678380Y-106481714D01*
X154678380Y-107386476D02*
X154678380Y-108005523D01*
X155059333Y-107672190D01*
X155059333Y-107815047D01*
X155106952Y-107910285D01*
X155154571Y-107957904D01*
X155249809Y-108005523D01*
X155487904Y-108005523D01*
X155583142Y-107957904D01*
X155630761Y-107910285D01*
X155678380Y-107815047D01*
X155678380Y-107529333D01*
X155630761Y-107434095D01*
X155583142Y-107386476D01*
X154678380Y-108338857D02*
X154678380Y-108957904D01*
X155059333Y-108624571D01*
X155059333Y-108767428D01*
X155106952Y-108862666D01*
X155154571Y-108910285D01*
X155249809Y-108957904D01*
X155487904Y-108957904D01*
X155583142Y-108910285D01*
X155630761Y-108862666D01*
X155678380Y-108767428D01*
X155678380Y-108481714D01*
X155630761Y-108386476D01*
X155583142Y-108338857D01*
X87860380Y-66349714D02*
X86860380Y-66349714D01*
X86860380Y-66587809D01*
X86908000Y-66730666D01*
X87003238Y-66825904D01*
X87098476Y-66873523D01*
X87288952Y-66921142D01*
X87431809Y-66921142D01*
X87622285Y-66873523D01*
X87717523Y-66825904D01*
X87812761Y-66730666D01*
X87860380Y-66587809D01*
X87860380Y-66349714D01*
X87860380Y-67873523D02*
X87860380Y-67302095D01*
X87860380Y-67587809D02*
X86860380Y-67587809D01*
X87003238Y-67492571D01*
X87098476Y-67397333D01*
X87146095Y-67302095D01*
X86860380Y-68730666D02*
X86860380Y-68540190D01*
X86908000Y-68444952D01*
X86955619Y-68397333D01*
X87098476Y-68302095D01*
X87288952Y-68254476D01*
X87669904Y-68254476D01*
X87765142Y-68302095D01*
X87812761Y-68349714D01*
X87860380Y-68444952D01*
X87860380Y-68635428D01*
X87812761Y-68730666D01*
X87765142Y-68778285D01*
X87669904Y-68825904D01*
X87431809Y-68825904D01*
X87336571Y-68778285D01*
X87288952Y-68730666D01*
X87241333Y-68635428D01*
X87241333Y-68444952D01*
X87288952Y-68349714D01*
X87336571Y-68302095D01*
X87431809Y-68254476D01*
X166854380Y-30503904D02*
X165854380Y-30503904D01*
X165854380Y-30742000D01*
X165902000Y-30884857D01*
X165997238Y-30980095D01*
X166092476Y-31027714D01*
X166282952Y-31075333D01*
X166425809Y-31075333D01*
X166616285Y-31027714D01*
X166711523Y-30980095D01*
X166806761Y-30884857D01*
X166854380Y-30742000D01*
X166854380Y-30503904D01*
X166854380Y-31551523D02*
X166854380Y-31742000D01*
X166806761Y-31837238D01*
X166759142Y-31884857D01*
X166616285Y-31980095D01*
X166425809Y-32027714D01*
X166044857Y-32027714D01*
X165949619Y-31980095D01*
X165902000Y-31932476D01*
X165854380Y-31837238D01*
X165854380Y-31646761D01*
X165902000Y-31551523D01*
X165949619Y-31503904D01*
X166044857Y-31456285D01*
X166282952Y-31456285D01*
X166378190Y-31503904D01*
X166425809Y-31551523D01*
X166473428Y-31646761D01*
X166473428Y-31837238D01*
X166425809Y-31932476D01*
X166378190Y-31980095D01*
X166282952Y-32027714D01*
X88114380Y-85907714D02*
X87114380Y-85907714D01*
X87114380Y-86145809D01*
X87162000Y-86288666D01*
X87257238Y-86383904D01*
X87352476Y-86431523D01*
X87542952Y-86479142D01*
X87685809Y-86479142D01*
X87876285Y-86431523D01*
X87971523Y-86383904D01*
X88066761Y-86288666D01*
X88114380Y-86145809D01*
X88114380Y-85907714D01*
X87209619Y-86860095D02*
X87162000Y-86907714D01*
X87114380Y-87002952D01*
X87114380Y-87241047D01*
X87162000Y-87336285D01*
X87209619Y-87383904D01*
X87304857Y-87431523D01*
X87400095Y-87431523D01*
X87542952Y-87383904D01*
X88114380Y-86812476D01*
X88114380Y-87431523D01*
X87209619Y-87812476D02*
X87162000Y-87860095D01*
X87114380Y-87955333D01*
X87114380Y-88193428D01*
X87162000Y-88288666D01*
X87209619Y-88336285D01*
X87304857Y-88383904D01*
X87400095Y-88383904D01*
X87542952Y-88336285D01*
X88114380Y-87764857D01*
X88114380Y-88383904D01*
X60590190Y-52732190D02*
X60590190Y-53208380D01*
X60923523Y-52208380D02*
X60590190Y-52732190D01*
X60256857Y-52208380D01*
X59399714Y-53208380D02*
X59971142Y-53208380D01*
X59685428Y-53208380D02*
X59685428Y-52208380D01*
X59780666Y-52351238D01*
X59875904Y-52446476D01*
X59971142Y-52494095D01*
X48077380Y-59539369D02*
X47601190Y-59206035D01*
X48077380Y-58967940D02*
X47077380Y-58967940D01*
X47077380Y-59348892D01*
X47125000Y-59444130D01*
X47172619Y-59491750D01*
X47267857Y-59539369D01*
X47410714Y-59539369D01*
X47505952Y-59491750D01*
X47553571Y-59444130D01*
X47601190Y-59348892D01*
X47601190Y-58967940D01*
X47553571Y-59967940D02*
X47553571Y-60301273D01*
X48077380Y-60444130D02*
X48077380Y-59967940D01*
X47077380Y-59967940D01*
X47077380Y-60444130D01*
X48029761Y-60825083D02*
X48077380Y-60967940D01*
X48077380Y-61206035D01*
X48029761Y-61301273D01*
X47982142Y-61348892D01*
X47886904Y-61396511D01*
X47791666Y-61396511D01*
X47696428Y-61348892D01*
X47648809Y-61301273D01*
X47601190Y-61206035D01*
X47553571Y-61015559D01*
X47505952Y-60920321D01*
X47458333Y-60872702D01*
X47363095Y-60825083D01*
X47267857Y-60825083D01*
X47172619Y-60872702D01*
X47125000Y-60920321D01*
X47077380Y-61015559D01*
X47077380Y-61253654D01*
X47125000Y-61396511D01*
X47553571Y-61825083D02*
X47553571Y-62158416D01*
X48077380Y-62301273D02*
X48077380Y-61825083D01*
X47077380Y-61825083D01*
X47077380Y-62301273D01*
X47077380Y-62586988D02*
X47077380Y-63158416D01*
X48077380Y-62872702D02*
X47077380Y-62872702D01*
X48929704Y-39000780D02*
X48929704Y-39810304D01*
X48882085Y-39905542D01*
X48834466Y-39953161D01*
X48739228Y-40000780D01*
X48548752Y-40000780D01*
X48453514Y-39953161D01*
X48405895Y-39905542D01*
X48358276Y-39810304D01*
X48358276Y-39000780D01*
X47453514Y-39334114D02*
X47453514Y-40000780D01*
X47691609Y-38953161D02*
X47929704Y-39667447D01*
X47310657Y-39667447D01*
X54037666Y-59073980D02*
X54371000Y-58597790D01*
X54609095Y-59073980D02*
X54609095Y-58073980D01*
X54228142Y-58073980D01*
X54132904Y-58121600D01*
X54085285Y-58169219D01*
X54037666Y-58264457D01*
X54037666Y-58407314D01*
X54085285Y-58502552D01*
X54132904Y-58550171D01*
X54228142Y-58597790D01*
X54609095Y-58597790D01*
X53180523Y-58407314D02*
X53180523Y-59073980D01*
X53418619Y-58026361D02*
X53656714Y-58740647D01*
X53037666Y-58740647D01*
X56291833Y-35360571D02*
X56625166Y-35360571D01*
X56625166Y-35884380D02*
X56625166Y-34884380D01*
X56148976Y-34884380D01*
X55244214Y-35884380D02*
X55815642Y-35884380D01*
X55529928Y-35884380D02*
X55529928Y-34884380D01*
X55625166Y-35027238D01*
X55720404Y-35122476D01*
X55815642Y-35170095D01*
X67286380Y-107243714D02*
X66286380Y-107243714D01*
X66286380Y-107481809D01*
X66334000Y-107624666D01*
X66429238Y-107719904D01*
X66524476Y-107767523D01*
X66714952Y-107815142D01*
X66857809Y-107815142D01*
X67048285Y-107767523D01*
X67143523Y-107719904D01*
X67238761Y-107624666D01*
X67286380Y-107481809D01*
X67286380Y-107243714D01*
X66381619Y-108196095D02*
X66334000Y-108243714D01*
X66286380Y-108338952D01*
X66286380Y-108577047D01*
X66334000Y-108672285D01*
X66381619Y-108719904D01*
X66476857Y-108767523D01*
X66572095Y-108767523D01*
X66714952Y-108719904D01*
X67286380Y-108148476D01*
X67286380Y-108767523D01*
X67286380Y-109243714D02*
X67286380Y-109434190D01*
X67238761Y-109529428D01*
X67191142Y-109577047D01*
X67048285Y-109672285D01*
X66857809Y-109719904D01*
X66476857Y-109719904D01*
X66381619Y-109672285D01*
X66334000Y-109624666D01*
X66286380Y-109529428D01*
X66286380Y-109338952D01*
X66334000Y-109243714D01*
X66381619Y-109196095D01*
X66476857Y-109148476D01*
X66714952Y-109148476D01*
X66810190Y-109196095D01*
X66857809Y-109243714D01*
X66905428Y-109338952D01*
X66905428Y-109529428D01*
X66857809Y-109624666D01*
X66810190Y-109672285D01*
X66714952Y-109719904D01*
X64492380Y-85653714D02*
X63492380Y-85653714D01*
X63492380Y-85891809D01*
X63540000Y-86034666D01*
X63635238Y-86129904D01*
X63730476Y-86177523D01*
X63920952Y-86225142D01*
X64063809Y-86225142D01*
X64254285Y-86177523D01*
X64349523Y-86129904D01*
X64444761Y-86034666D01*
X64492380Y-85891809D01*
X64492380Y-85653714D01*
X63587619Y-86606095D02*
X63540000Y-86653714D01*
X63492380Y-86748952D01*
X63492380Y-86987047D01*
X63540000Y-87082285D01*
X63587619Y-87129904D01*
X63682857Y-87177523D01*
X63778095Y-87177523D01*
X63920952Y-87129904D01*
X64492380Y-86558476D01*
X64492380Y-87177523D01*
X63920952Y-87748952D02*
X63873333Y-87653714D01*
X63825714Y-87606095D01*
X63730476Y-87558476D01*
X63682857Y-87558476D01*
X63587619Y-87606095D01*
X63540000Y-87653714D01*
X63492380Y-87748952D01*
X63492380Y-87939428D01*
X63540000Y-88034666D01*
X63587619Y-88082285D01*
X63682857Y-88129904D01*
X63730476Y-88129904D01*
X63825714Y-88082285D01*
X63873333Y-88034666D01*
X63920952Y-87939428D01*
X63920952Y-87748952D01*
X63968571Y-87653714D01*
X64016190Y-87606095D01*
X64111428Y-87558476D01*
X64301904Y-87558476D01*
X64397142Y-87606095D01*
X64444761Y-87653714D01*
X64492380Y-87748952D01*
X64492380Y-87939428D01*
X64444761Y-88034666D01*
X64397142Y-88082285D01*
X64301904Y-88129904D01*
X64111428Y-88129904D01*
X64016190Y-88082285D01*
X63968571Y-88034666D01*
X63920952Y-87939428D01*
X166854380Y-88955714D02*
X165854380Y-88955714D01*
X165854380Y-89193809D01*
X165902000Y-89336666D01*
X165997238Y-89431904D01*
X166092476Y-89479523D01*
X166282952Y-89527142D01*
X166425809Y-89527142D01*
X166616285Y-89479523D01*
X166711523Y-89431904D01*
X166806761Y-89336666D01*
X166854380Y-89193809D01*
X166854380Y-88955714D01*
X165949619Y-89908095D02*
X165902000Y-89955714D01*
X165854380Y-90050952D01*
X165854380Y-90289047D01*
X165902000Y-90384285D01*
X165949619Y-90431904D01*
X166044857Y-90479523D01*
X166140095Y-90479523D01*
X166282952Y-90431904D01*
X166854380Y-89860476D01*
X166854380Y-90479523D01*
X165854380Y-90812857D02*
X165854380Y-91479523D01*
X166854380Y-91050952D01*
X167108380Y-69905714D02*
X166108380Y-69905714D01*
X166108380Y-70143809D01*
X166156000Y-70286666D01*
X166251238Y-70381904D01*
X166346476Y-70429523D01*
X166536952Y-70477142D01*
X166679809Y-70477142D01*
X166870285Y-70429523D01*
X166965523Y-70381904D01*
X167060761Y-70286666D01*
X167108380Y-70143809D01*
X167108380Y-69905714D01*
X166203619Y-70858095D02*
X166156000Y-70905714D01*
X166108380Y-71000952D01*
X166108380Y-71239047D01*
X166156000Y-71334285D01*
X166203619Y-71381904D01*
X166298857Y-71429523D01*
X166394095Y-71429523D01*
X166536952Y-71381904D01*
X167108380Y-70810476D01*
X167108380Y-71429523D01*
X167108380Y-72381904D02*
X167108380Y-71810476D01*
X167108380Y-72096190D02*
X166108380Y-72096190D01*
X166251238Y-72000952D01*
X166346476Y-71905714D01*
X166394095Y-71810476D01*
X167108380Y-50601714D02*
X166108380Y-50601714D01*
X166108380Y-50839809D01*
X166156000Y-50982666D01*
X166251238Y-51077904D01*
X166346476Y-51125523D01*
X166536952Y-51173142D01*
X166679809Y-51173142D01*
X166870285Y-51125523D01*
X166965523Y-51077904D01*
X167060761Y-50982666D01*
X167108380Y-50839809D01*
X167108380Y-50601714D01*
X167108380Y-52125523D02*
X167108380Y-51554095D01*
X167108380Y-51839809D02*
X166108380Y-51839809D01*
X166251238Y-51744571D01*
X166346476Y-51649333D01*
X166394095Y-51554095D01*
X166108380Y-53030285D02*
X166108380Y-52554095D01*
X166584571Y-52506476D01*
X166536952Y-52554095D01*
X166489333Y-52649333D01*
X166489333Y-52887428D01*
X166536952Y-52982666D01*
X166584571Y-53030285D01*
X166679809Y-53077904D01*
X166917904Y-53077904D01*
X167013142Y-53030285D01*
X167060761Y-52982666D01*
X167108380Y-52887428D01*
X167108380Y-52649333D01*
X167060761Y-52554095D01*
X167013142Y-52506476D01*
X129008380Y-26439904D02*
X128008380Y-26439904D01*
X128008380Y-26678000D01*
X128056000Y-26820857D01*
X128151238Y-26916095D01*
X128246476Y-26963714D01*
X128436952Y-27011333D01*
X128579809Y-27011333D01*
X128770285Y-26963714D01*
X128865523Y-26916095D01*
X128960761Y-26820857D01*
X129008380Y-26678000D01*
X129008380Y-26439904D01*
X128008380Y-27344666D02*
X128008380Y-28011333D01*
X129008380Y-27582761D01*
X126214380Y-26439904D02*
X125214380Y-26439904D01*
X125214380Y-26678000D01*
X125262000Y-26820857D01*
X125357238Y-26916095D01*
X125452476Y-26963714D01*
X125642952Y-27011333D01*
X125785809Y-27011333D01*
X125976285Y-26963714D01*
X126071523Y-26916095D01*
X126166761Y-26820857D01*
X126214380Y-26678000D01*
X126214380Y-26439904D01*
X125214380Y-27868476D02*
X125214380Y-27678000D01*
X125262000Y-27582761D01*
X125309619Y-27535142D01*
X125452476Y-27439904D01*
X125642952Y-27392285D01*
X126023904Y-27392285D01*
X126119142Y-27439904D01*
X126166761Y-27487523D01*
X126214380Y-27582761D01*
X126214380Y-27773238D01*
X126166761Y-27868476D01*
X126119142Y-27916095D01*
X126023904Y-27963714D01*
X125785809Y-27963714D01*
X125690571Y-27916095D01*
X125642952Y-27868476D01*
X125595333Y-27773238D01*
X125595333Y-27582761D01*
X125642952Y-27487523D01*
X125690571Y-27439904D01*
X125785809Y-27392285D01*
X52998380Y-60857904D02*
X51998380Y-60857904D01*
X51998380Y-61096000D01*
X52046000Y-61238857D01*
X52141238Y-61334095D01*
X52236476Y-61381714D01*
X52426952Y-61429333D01*
X52569809Y-61429333D01*
X52760285Y-61381714D01*
X52855523Y-61334095D01*
X52950761Y-61238857D01*
X52998380Y-61096000D01*
X52998380Y-60857904D01*
X51998380Y-61762666D02*
X51998380Y-62381714D01*
X52379333Y-62048380D01*
X52379333Y-62191238D01*
X52426952Y-62286476D01*
X52474571Y-62334095D01*
X52569809Y-62381714D01*
X52807904Y-62381714D01*
X52903142Y-62334095D01*
X52950761Y-62286476D01*
X52998380Y-62191238D01*
X52998380Y-61905523D01*
X52950761Y-61810285D01*
X52903142Y-61762666D01*
X48845695Y-32412180D02*
X48845695Y-31412180D01*
X48607600Y-31412180D01*
X48464742Y-31459800D01*
X48369504Y-31555038D01*
X48321885Y-31650276D01*
X48274266Y-31840752D01*
X48274266Y-31983609D01*
X48321885Y-32174085D01*
X48369504Y-32269323D01*
X48464742Y-32364561D01*
X48607600Y-32412180D01*
X48845695Y-32412180D01*
X47321885Y-32412180D02*
X47893314Y-32412180D01*
X47607600Y-32412180D02*
X47607600Y-31412180D01*
X47702838Y-31555038D01*
X47798076Y-31650276D01*
X47893314Y-31697895D01*
X56106142Y-54729142D02*
X56153761Y-54681523D01*
X56201380Y-54538666D01*
X56201380Y-54443428D01*
X56153761Y-54300571D01*
X56058523Y-54205333D01*
X55963285Y-54157714D01*
X55772809Y-54110095D01*
X55629952Y-54110095D01*
X55439476Y-54157714D01*
X55344238Y-54205333D01*
X55249000Y-54300571D01*
X55201380Y-54443428D01*
X55201380Y-54538666D01*
X55249000Y-54681523D01*
X55296619Y-54729142D01*
X56201380Y-55681523D02*
X56201380Y-55110095D01*
X56201380Y-55395809D02*
X55201380Y-55395809D01*
X55344238Y-55300571D01*
X55439476Y-55205333D01*
X55487095Y-55110095D01*
X55201380Y-56586285D02*
X55201380Y-56110095D01*
X55677571Y-56062476D01*
X55629952Y-56110095D01*
X55582333Y-56205333D01*
X55582333Y-56443428D01*
X55629952Y-56538666D01*
X55677571Y-56586285D01*
X55772809Y-56633904D01*
X56010904Y-56633904D01*
X56106142Y-56586285D01*
X56153761Y-56538666D01*
X56201380Y-56443428D01*
X56201380Y-56205333D01*
X56153761Y-56110095D01*
X56106142Y-56062476D01*
X64544542Y-54627542D02*
X64592161Y-54579923D01*
X64639780Y-54437066D01*
X64639780Y-54341828D01*
X64592161Y-54198971D01*
X64496923Y-54103733D01*
X64401685Y-54056114D01*
X64211209Y-54008495D01*
X64068352Y-54008495D01*
X63877876Y-54056114D01*
X63782638Y-54103733D01*
X63687400Y-54198971D01*
X63639780Y-54341828D01*
X63639780Y-54437066D01*
X63687400Y-54579923D01*
X63735019Y-54627542D01*
X64639780Y-55579923D02*
X64639780Y-55008495D01*
X64639780Y-55294209D02*
X63639780Y-55294209D01*
X63782638Y-55198971D01*
X63877876Y-55103733D01*
X63925495Y-55008495D01*
X63973114Y-56437066D02*
X64639780Y-56437066D01*
X63592161Y-56198971D02*
X64306447Y-55960876D01*
X64306447Y-56579923D01*
X53497857Y-59947142D02*
X53545476Y-59994761D01*
X53688333Y-60042380D01*
X53783571Y-60042380D01*
X53926428Y-59994761D01*
X54021666Y-59899523D01*
X54069285Y-59804285D01*
X54116904Y-59613809D01*
X54116904Y-59470952D01*
X54069285Y-59280476D01*
X54021666Y-59185238D01*
X53926428Y-59090000D01*
X53783571Y-59042380D01*
X53688333Y-59042380D01*
X53545476Y-59090000D01*
X53497857Y-59137619D01*
X52545476Y-60042380D02*
X53116904Y-60042380D01*
X52831190Y-60042380D02*
X52831190Y-59042380D01*
X52926428Y-59185238D01*
X53021666Y-59280476D01*
X53116904Y-59328095D01*
X52164523Y-59137619D02*
X52116904Y-59090000D01*
X52021666Y-59042380D01*
X51783571Y-59042380D01*
X51688333Y-59090000D01*
X51640714Y-59137619D01*
X51593095Y-59232857D01*
X51593095Y-59328095D01*
X51640714Y-59470952D01*
X52212142Y-60042380D01*
X51593095Y-60042380D01*
X63677742Y-50157142D02*
X63725361Y-50109523D01*
X63772980Y-49966666D01*
X63772980Y-49871428D01*
X63725361Y-49728571D01*
X63630123Y-49633333D01*
X63534885Y-49585714D01*
X63344409Y-49538095D01*
X63201552Y-49538095D01*
X63011076Y-49585714D01*
X62915838Y-49633333D01*
X62820600Y-49728571D01*
X62772980Y-49871428D01*
X62772980Y-49966666D01*
X62820600Y-50109523D01*
X62868219Y-50157142D01*
X63772980Y-51109523D02*
X63772980Y-50538095D01*
X63772980Y-50823809D02*
X62772980Y-50823809D01*
X62915838Y-50728571D01*
X63011076Y-50633333D01*
X63058695Y-50538095D01*
X63772980Y-52061904D02*
X63772980Y-51490476D01*
X63772980Y-51776190D02*
X62772980Y-51776190D01*
X62915838Y-51680952D01*
X63011076Y-51585714D01*
X63058695Y-51490476D01*
X51460342Y-32554942D02*
X51507961Y-32507323D01*
X51555580Y-32364466D01*
X51555580Y-32269228D01*
X51507961Y-32126371D01*
X51412723Y-32031133D01*
X51317485Y-31983514D01*
X51127009Y-31935895D01*
X50984152Y-31935895D01*
X50793676Y-31983514D01*
X50698438Y-32031133D01*
X50603200Y-32126371D01*
X50555580Y-32269228D01*
X50555580Y-32364466D01*
X50603200Y-32507323D01*
X50650819Y-32554942D01*
X51555580Y-33507323D02*
X51555580Y-32935895D01*
X51555580Y-33221609D02*
X50555580Y-33221609D01*
X50698438Y-33126371D01*
X50793676Y-33031133D01*
X50841295Y-32935895D01*
X50555580Y-34126371D02*
X50555580Y-34221609D01*
X50603200Y-34316847D01*
X50650819Y-34364466D01*
X50746057Y-34412085D01*
X50936533Y-34459704D01*
X51174628Y-34459704D01*
X51365104Y-34412085D01*
X51460342Y-34364466D01*
X51507961Y-34316847D01*
X51555580Y-34221609D01*
X51555580Y-34126371D01*
X51507961Y-34031133D01*
X51460342Y-33983514D01*
X51365104Y-33935895D01*
X51174628Y-33888276D01*
X50936533Y-33888276D01*
X50746057Y-33935895D01*
X50650819Y-33983514D01*
X50603200Y-34031133D01*
X50555580Y-34126371D01*
X65526380Y-44704095D02*
X66335904Y-44704095D01*
X66431142Y-44751714D01*
X66478761Y-44799333D01*
X66526380Y-44894571D01*
X66526380Y-45085047D01*
X66478761Y-45180285D01*
X66431142Y-45227904D01*
X66335904Y-45275523D01*
X65526380Y-45275523D01*
X65621619Y-45704095D02*
X65574000Y-45751714D01*
X65526380Y-45846952D01*
X65526380Y-46085047D01*
X65574000Y-46180285D01*
X65621619Y-46227904D01*
X65716857Y-46275523D01*
X65812095Y-46275523D01*
X65954952Y-46227904D01*
X66526380Y-45656476D01*
X66526380Y-46275523D01*
X62992380Y-34882095D02*
X63801904Y-34882095D01*
X63897142Y-34929714D01*
X63944761Y-34977333D01*
X63992380Y-35072571D01*
X63992380Y-35263047D01*
X63944761Y-35358285D01*
X63897142Y-35405904D01*
X63801904Y-35453523D01*
X62992380Y-35453523D01*
X63992380Y-36453523D02*
X63992380Y-35882095D01*
X63992380Y-36167809D02*
X62992380Y-36167809D01*
X63135238Y-36072571D01*
X63230476Y-35977333D01*
X63278095Y-35882095D01*
X54014666Y-31848380D02*
X54348000Y-31372190D01*
X54586095Y-31848380D02*
X54586095Y-30848380D01*
X54205142Y-30848380D01*
X54109904Y-30896000D01*
X54062285Y-30943619D01*
X54014666Y-31038857D01*
X54014666Y-31181714D01*
X54062285Y-31276952D01*
X54109904Y-31324571D01*
X54205142Y-31372190D01*
X54586095Y-31372190D01*
X53681333Y-30848380D02*
X53062285Y-30848380D01*
X53395619Y-31229333D01*
X53252761Y-31229333D01*
X53157523Y-31276952D01*
X53109904Y-31324571D01*
X53062285Y-31419809D01*
X53062285Y-31657904D01*
X53109904Y-31753142D01*
X53157523Y-31800761D01*
X53252761Y-31848380D01*
X53538476Y-31848380D01*
X53633714Y-31800761D01*
X53681333Y-31753142D01*
X53991666Y-30578380D02*
X54325000Y-30102190D01*
X54563095Y-30578380D02*
X54563095Y-29578380D01*
X54182142Y-29578380D01*
X54086904Y-29626000D01*
X54039285Y-29673619D01*
X53991666Y-29768857D01*
X53991666Y-29911714D01*
X54039285Y-30006952D01*
X54086904Y-30054571D01*
X54182142Y-30102190D01*
X54563095Y-30102190D01*
X53610714Y-29673619D02*
X53563095Y-29626000D01*
X53467857Y-29578380D01*
X53229761Y-29578380D01*
X53134523Y-29626000D01*
X53086904Y-29673619D01*
X53039285Y-29768857D01*
X53039285Y-29864095D01*
X53086904Y-30006952D01*
X53658333Y-30578380D01*
X53039285Y-30578380D01*
X62978466Y-32022980D02*
X63311800Y-31546790D01*
X63549895Y-32022980D02*
X63549895Y-31022980D01*
X63168942Y-31022980D01*
X63073704Y-31070600D01*
X63026085Y-31118219D01*
X62978466Y-31213457D01*
X62978466Y-31356314D01*
X63026085Y-31451552D01*
X63073704Y-31499171D01*
X63168942Y-31546790D01*
X63549895Y-31546790D01*
X62026085Y-32022980D02*
X62597514Y-32022980D01*
X62311800Y-32022980D02*
X62311800Y-31022980D01*
X62407038Y-31165838D01*
X62502276Y-31261076D01*
X62597514Y-31308695D01*
X54037666Y-30683142D02*
X54085285Y-30730761D01*
X54228142Y-30778380D01*
X54323380Y-30778380D01*
X54466238Y-30730761D01*
X54561476Y-30635523D01*
X54609095Y-30540285D01*
X54656714Y-30349809D01*
X54656714Y-30206952D01*
X54609095Y-30016476D01*
X54561476Y-29921238D01*
X54466238Y-29826000D01*
X54323380Y-29778380D01*
X54228142Y-29778380D01*
X54085285Y-29826000D01*
X54037666Y-29873619D01*
X53561476Y-30778380D02*
X53371000Y-30778380D01*
X53275761Y-30730761D01*
X53228142Y-30683142D01*
X53132904Y-30540285D01*
X53085285Y-30349809D01*
X53085285Y-29968857D01*
X53132904Y-29873619D01*
X53180523Y-29826000D01*
X53275761Y-29778380D01*
X53466238Y-29778380D01*
X53561476Y-29826000D01*
X53609095Y-29873619D01*
X53656714Y-29968857D01*
X53656714Y-30206952D01*
X53609095Y-30302190D01*
X53561476Y-30349809D01*
X53466238Y-30397428D01*
X53275761Y-30397428D01*
X53180523Y-30349809D01*
X53132904Y-30302190D01*
X53085285Y-30206952D01*
X52490666Y-40897142D02*
X52538285Y-40944761D01*
X52681142Y-40992380D01*
X52776380Y-40992380D01*
X52919238Y-40944761D01*
X53014476Y-40849523D01*
X53062095Y-40754285D01*
X53109714Y-40563809D01*
X53109714Y-40420952D01*
X53062095Y-40230476D01*
X53014476Y-40135238D01*
X52919238Y-40040000D01*
X52776380Y-39992380D01*
X52681142Y-39992380D01*
X52538285Y-40040000D01*
X52490666Y-40087619D01*
X51919238Y-40420952D02*
X52014476Y-40373333D01*
X52062095Y-40325714D01*
X52109714Y-40230476D01*
X52109714Y-40182857D01*
X52062095Y-40087619D01*
X52014476Y-40040000D01*
X51919238Y-39992380D01*
X51728761Y-39992380D01*
X51633523Y-40040000D01*
X51585904Y-40087619D01*
X51538285Y-40182857D01*
X51538285Y-40230476D01*
X51585904Y-40325714D01*
X51633523Y-40373333D01*
X51728761Y-40420952D01*
X51919238Y-40420952D01*
X52014476Y-40468571D01*
X52062095Y-40516190D01*
X52109714Y-40611428D01*
X52109714Y-40801904D01*
X52062095Y-40897142D01*
X52014476Y-40944761D01*
X51919238Y-40992380D01*
X51728761Y-40992380D01*
X51633523Y-40944761D01*
X51585904Y-40897142D01*
X51538285Y-40801904D01*
X51538285Y-40611428D01*
X51585904Y-40516190D01*
X51633523Y-40468571D01*
X51728761Y-40420952D01*
X48403666Y-47374142D02*
X48451285Y-47421761D01*
X48594142Y-47469380D01*
X48689380Y-47469380D01*
X48832238Y-47421761D01*
X48927476Y-47326523D01*
X48975095Y-47231285D01*
X49022714Y-47040809D01*
X49022714Y-46897952D01*
X48975095Y-46707476D01*
X48927476Y-46612238D01*
X48832238Y-46517000D01*
X48689380Y-46469380D01*
X48594142Y-46469380D01*
X48451285Y-46517000D01*
X48403666Y-46564619D01*
X48070333Y-46469380D02*
X47403666Y-46469380D01*
X47832238Y-47469380D01*
X52276342Y-50607933D02*
X52323961Y-50560314D01*
X52371580Y-50417457D01*
X52371580Y-50322219D01*
X52323961Y-50179361D01*
X52228723Y-50084123D01*
X52133485Y-50036504D01*
X51943009Y-49988885D01*
X51800152Y-49988885D01*
X51609676Y-50036504D01*
X51514438Y-50084123D01*
X51419200Y-50179361D01*
X51371580Y-50322219D01*
X51371580Y-50417457D01*
X51419200Y-50560314D01*
X51466819Y-50607933D01*
X51371580Y-51465076D02*
X51371580Y-51274600D01*
X51419200Y-51179361D01*
X51466819Y-51131742D01*
X51609676Y-51036504D01*
X51800152Y-50988885D01*
X52181104Y-50988885D01*
X52276342Y-51036504D01*
X52323961Y-51084123D01*
X52371580Y-51179361D01*
X52371580Y-51369838D01*
X52323961Y-51465076D01*
X52276342Y-51512695D01*
X52181104Y-51560314D01*
X51943009Y-51560314D01*
X51847771Y-51512695D01*
X51800152Y-51465076D01*
X51752533Y-51369838D01*
X51752533Y-51179361D01*
X51800152Y-51084123D01*
X51847771Y-51036504D01*
X51943009Y-50988885D01*
X66068542Y-39581933D02*
X66116161Y-39534314D01*
X66163780Y-39391457D01*
X66163780Y-39296219D01*
X66116161Y-39153361D01*
X66020923Y-39058123D01*
X65925685Y-39010504D01*
X65735209Y-38962885D01*
X65592352Y-38962885D01*
X65401876Y-39010504D01*
X65306638Y-39058123D01*
X65211400Y-39153361D01*
X65163780Y-39296219D01*
X65163780Y-39391457D01*
X65211400Y-39534314D01*
X65259019Y-39581933D01*
X65163780Y-40486695D02*
X65163780Y-40010504D01*
X65639971Y-39962885D01*
X65592352Y-40010504D01*
X65544733Y-40105742D01*
X65544733Y-40343838D01*
X65592352Y-40439076D01*
X65639971Y-40486695D01*
X65735209Y-40534314D01*
X65973304Y-40534314D01*
X66068542Y-40486695D01*
X66116161Y-40439076D01*
X66163780Y-40343838D01*
X66163780Y-40105742D01*
X66116161Y-40010504D01*
X66068542Y-39962885D01*
X53317742Y-50610333D02*
X53365361Y-50562714D01*
X53412980Y-50419857D01*
X53412980Y-50324619D01*
X53365361Y-50181761D01*
X53270123Y-50086523D01*
X53174885Y-50038904D01*
X52984409Y-49991285D01*
X52841552Y-49991285D01*
X52651076Y-50038904D01*
X52555838Y-50086523D01*
X52460600Y-50181761D01*
X52412980Y-50324619D01*
X52412980Y-50419857D01*
X52460600Y-50562714D01*
X52508219Y-50610333D01*
X52746314Y-51467476D02*
X53412980Y-51467476D01*
X52365361Y-51229380D02*
X53079647Y-50991285D01*
X53079647Y-51610333D01*
X54359142Y-50610333D02*
X54406761Y-50562714D01*
X54454380Y-50419857D01*
X54454380Y-50324619D01*
X54406761Y-50181761D01*
X54311523Y-50086523D01*
X54216285Y-50038904D01*
X54025809Y-49991285D01*
X53882952Y-49991285D01*
X53692476Y-50038904D01*
X53597238Y-50086523D01*
X53502000Y-50181761D01*
X53454380Y-50324619D01*
X53454380Y-50419857D01*
X53502000Y-50562714D01*
X53549619Y-50610333D01*
X53454380Y-50943666D02*
X53454380Y-51562714D01*
X53835333Y-51229380D01*
X53835333Y-51372238D01*
X53882952Y-51467476D01*
X53930571Y-51515095D01*
X54025809Y-51562714D01*
X54263904Y-51562714D01*
X54359142Y-51515095D01*
X54406761Y-51467476D01*
X54454380Y-51372238D01*
X54454380Y-51086523D01*
X54406761Y-50991285D01*
X54359142Y-50943666D01*
X48378266Y-46358142D02*
X48425885Y-46405761D01*
X48568742Y-46453380D01*
X48663980Y-46453380D01*
X48806838Y-46405761D01*
X48902076Y-46310523D01*
X48949695Y-46215285D01*
X48997314Y-46024809D01*
X48997314Y-45881952D01*
X48949695Y-45691476D01*
X48902076Y-45596238D01*
X48806838Y-45501000D01*
X48663980Y-45453380D01*
X48568742Y-45453380D01*
X48425885Y-45501000D01*
X48378266Y-45548619D01*
X47997314Y-45548619D02*
X47949695Y-45501000D01*
X47854457Y-45453380D01*
X47616361Y-45453380D01*
X47521123Y-45501000D01*
X47473504Y-45548619D01*
X47425885Y-45643857D01*
X47425885Y-45739095D01*
X47473504Y-45881952D01*
X48044933Y-46453380D01*
X47425885Y-46453380D01*
X52513666Y-42167142D02*
X52561285Y-42214761D01*
X52704142Y-42262380D01*
X52799380Y-42262380D01*
X52942238Y-42214761D01*
X53037476Y-42119523D01*
X53085095Y-42024285D01*
X53132714Y-41833809D01*
X53132714Y-41690952D01*
X53085095Y-41500476D01*
X53037476Y-41405238D01*
X52942238Y-41310000D01*
X52799380Y-41262380D01*
X52704142Y-41262380D01*
X52561285Y-41310000D01*
X52513666Y-41357619D01*
X51561285Y-42262380D02*
X52132714Y-42262380D01*
X51847000Y-42262380D02*
X51847000Y-41262380D01*
X51942238Y-41405238D01*
X52037476Y-41500476D01*
X52132714Y-41548095D01*
X58499342Y-34043333D02*
X58546961Y-33995714D01*
X58594580Y-33852857D01*
X58594580Y-33757619D01*
X58546961Y-33614761D01*
X58451723Y-33519523D01*
X58356485Y-33471904D01*
X58166009Y-33424285D01*
X58023152Y-33424285D01*
X57832676Y-33471904D01*
X57737438Y-33519523D01*
X57642200Y-33614761D01*
X57594580Y-33757619D01*
X57594580Y-33852857D01*
X57642200Y-33995714D01*
X57689819Y-34043333D01*
X57594580Y-34471904D02*
X58404104Y-34471904D01*
X58499342Y-34519523D01*
X58546961Y-34567142D01*
X58594580Y-34662380D01*
X58594580Y-34852857D01*
X58546961Y-34948095D01*
X58499342Y-34995714D01*
X58404104Y-35043333D01*
X57594580Y-35043333D01*
X58546961Y-35471904D02*
X58594580Y-35614761D01*
X58594580Y-35852857D01*
X58546961Y-35948095D01*
X58499342Y-35995714D01*
X58404104Y-36043333D01*
X58308866Y-36043333D01*
X58213628Y-35995714D01*
X58166009Y-35948095D01*
X58118390Y-35852857D01*
X58070771Y-35662380D01*
X58023152Y-35567142D01*
X57975533Y-35519523D01*
X57880295Y-35471904D01*
X57785057Y-35471904D01*
X57689819Y-35519523D01*
X57642200Y-35567142D01*
X57594580Y-35662380D01*
X57594580Y-35900476D01*
X57642200Y-36043333D01*
X58070771Y-36805238D02*
X58118390Y-36948095D01*
X58166009Y-36995714D01*
X58261247Y-37043333D01*
X58404104Y-37043333D01*
X58499342Y-36995714D01*
X58546961Y-36948095D01*
X58594580Y-36852857D01*
X58594580Y-36471904D01*
X57594580Y-36471904D01*
X57594580Y-36805238D01*
X57642200Y-36900476D01*
X57689819Y-36948095D01*
X57785057Y-36995714D01*
X57880295Y-36995714D01*
X57975533Y-36948095D01*
X58023152Y-36900476D01*
X58070771Y-36805238D01*
X58070771Y-36471904D01*
X58594580Y-37995714D02*
X58594580Y-37424285D01*
X58594580Y-37710000D02*
X57594580Y-37710000D01*
X57737438Y-37614761D01*
X57832676Y-37519523D01*
X57880295Y-37424285D01*
M02*
