G04 #@! TF.GenerationSoftware,KiCad,Pcbnew,5.1.5+dfsg1-2build2*
G04 #@! TF.CreationDate,2021-01-09T21:52:19+00:00*
G04 #@! TF.ProjectId,cynaroides,63796e61-726f-4696-9465-732e6b696361,rev?*
G04 #@! TF.SameCoordinates,Original*
G04 #@! TF.FileFunction,Paste,Top*
G04 #@! TF.FilePolarity,Positive*
%FSLAX46Y46*%
G04 Gerber Fmt 4.6, Leading zero omitted, Abs format (unit mm)*
G04 Created by KiCad (PCBNEW 5.1.5+dfsg1-2build2) date 2021-01-09 21:52:19*
%MOMM*%
%LPD*%
G04 APERTURE LIST*
%ADD10C,0.100000*%
G04 APERTURE END LIST*
D10*
G36*
X56849703Y-47706722D02*
G01*
X56864264Y-47708882D01*
X56878543Y-47712459D01*
X56892403Y-47717418D01*
X56905710Y-47723712D01*
X56918336Y-47731280D01*
X56930159Y-47740048D01*
X56941066Y-47749934D01*
X56950952Y-47760841D01*
X56959720Y-47772664D01*
X56967288Y-47785290D01*
X56973582Y-47798597D01*
X56978541Y-47812457D01*
X56982118Y-47826736D01*
X56984278Y-47841297D01*
X56985000Y-47856000D01*
X56985000Y-48156000D01*
X56984278Y-48170703D01*
X56982118Y-48185264D01*
X56978541Y-48199543D01*
X56973582Y-48213403D01*
X56967288Y-48226710D01*
X56959720Y-48239336D01*
X56950952Y-48251159D01*
X56941066Y-48262066D01*
X56930159Y-48271952D01*
X56918336Y-48280720D01*
X56905710Y-48288288D01*
X56892403Y-48294582D01*
X56878543Y-48299541D01*
X56864264Y-48303118D01*
X56849703Y-48305278D01*
X56835000Y-48306000D01*
X55185000Y-48306000D01*
X55170297Y-48305278D01*
X55155736Y-48303118D01*
X55141457Y-48299541D01*
X55127597Y-48294582D01*
X55114290Y-48288288D01*
X55101664Y-48280720D01*
X55089841Y-48271952D01*
X55078934Y-48262066D01*
X55069048Y-48251159D01*
X55060280Y-48239336D01*
X55052712Y-48226710D01*
X55046418Y-48213403D01*
X55041459Y-48199543D01*
X55037882Y-48185264D01*
X55035722Y-48170703D01*
X55035000Y-48156000D01*
X55035000Y-47856000D01*
X55035722Y-47841297D01*
X55037882Y-47826736D01*
X55041459Y-47812457D01*
X55046418Y-47798597D01*
X55052712Y-47785290D01*
X55060280Y-47772664D01*
X55069048Y-47760841D01*
X55078934Y-47749934D01*
X55089841Y-47740048D01*
X55101664Y-47731280D01*
X55114290Y-47723712D01*
X55127597Y-47717418D01*
X55141457Y-47712459D01*
X55155736Y-47708882D01*
X55170297Y-47706722D01*
X55185000Y-47706000D01*
X56835000Y-47706000D01*
X56849703Y-47706722D01*
G37*
G36*
X56849703Y-46436722D02*
G01*
X56864264Y-46438882D01*
X56878543Y-46442459D01*
X56892403Y-46447418D01*
X56905710Y-46453712D01*
X56918336Y-46461280D01*
X56930159Y-46470048D01*
X56941066Y-46479934D01*
X56950952Y-46490841D01*
X56959720Y-46502664D01*
X56967288Y-46515290D01*
X56973582Y-46528597D01*
X56978541Y-46542457D01*
X56982118Y-46556736D01*
X56984278Y-46571297D01*
X56985000Y-46586000D01*
X56985000Y-46886000D01*
X56984278Y-46900703D01*
X56982118Y-46915264D01*
X56978541Y-46929543D01*
X56973582Y-46943403D01*
X56967288Y-46956710D01*
X56959720Y-46969336D01*
X56950952Y-46981159D01*
X56941066Y-46992066D01*
X56930159Y-47001952D01*
X56918336Y-47010720D01*
X56905710Y-47018288D01*
X56892403Y-47024582D01*
X56878543Y-47029541D01*
X56864264Y-47033118D01*
X56849703Y-47035278D01*
X56835000Y-47036000D01*
X55185000Y-47036000D01*
X55170297Y-47035278D01*
X55155736Y-47033118D01*
X55141457Y-47029541D01*
X55127597Y-47024582D01*
X55114290Y-47018288D01*
X55101664Y-47010720D01*
X55089841Y-47001952D01*
X55078934Y-46992066D01*
X55069048Y-46981159D01*
X55060280Y-46969336D01*
X55052712Y-46956710D01*
X55046418Y-46943403D01*
X55041459Y-46929543D01*
X55037882Y-46915264D01*
X55035722Y-46900703D01*
X55035000Y-46886000D01*
X55035000Y-46586000D01*
X55035722Y-46571297D01*
X55037882Y-46556736D01*
X55041459Y-46542457D01*
X55046418Y-46528597D01*
X55052712Y-46515290D01*
X55060280Y-46502664D01*
X55069048Y-46490841D01*
X55078934Y-46479934D01*
X55089841Y-46470048D01*
X55101664Y-46461280D01*
X55114290Y-46453712D01*
X55127597Y-46447418D01*
X55141457Y-46442459D01*
X55155736Y-46438882D01*
X55170297Y-46436722D01*
X55185000Y-46436000D01*
X56835000Y-46436000D01*
X56849703Y-46436722D01*
G37*
G36*
X56849703Y-45166722D02*
G01*
X56864264Y-45168882D01*
X56878543Y-45172459D01*
X56892403Y-45177418D01*
X56905710Y-45183712D01*
X56918336Y-45191280D01*
X56930159Y-45200048D01*
X56941066Y-45209934D01*
X56950952Y-45220841D01*
X56959720Y-45232664D01*
X56967288Y-45245290D01*
X56973582Y-45258597D01*
X56978541Y-45272457D01*
X56982118Y-45286736D01*
X56984278Y-45301297D01*
X56985000Y-45316000D01*
X56985000Y-45616000D01*
X56984278Y-45630703D01*
X56982118Y-45645264D01*
X56978541Y-45659543D01*
X56973582Y-45673403D01*
X56967288Y-45686710D01*
X56959720Y-45699336D01*
X56950952Y-45711159D01*
X56941066Y-45722066D01*
X56930159Y-45731952D01*
X56918336Y-45740720D01*
X56905710Y-45748288D01*
X56892403Y-45754582D01*
X56878543Y-45759541D01*
X56864264Y-45763118D01*
X56849703Y-45765278D01*
X56835000Y-45766000D01*
X55185000Y-45766000D01*
X55170297Y-45765278D01*
X55155736Y-45763118D01*
X55141457Y-45759541D01*
X55127597Y-45754582D01*
X55114290Y-45748288D01*
X55101664Y-45740720D01*
X55089841Y-45731952D01*
X55078934Y-45722066D01*
X55069048Y-45711159D01*
X55060280Y-45699336D01*
X55052712Y-45686710D01*
X55046418Y-45673403D01*
X55041459Y-45659543D01*
X55037882Y-45645264D01*
X55035722Y-45630703D01*
X55035000Y-45616000D01*
X55035000Y-45316000D01*
X55035722Y-45301297D01*
X55037882Y-45286736D01*
X55041459Y-45272457D01*
X55046418Y-45258597D01*
X55052712Y-45245290D01*
X55060280Y-45232664D01*
X55069048Y-45220841D01*
X55078934Y-45209934D01*
X55089841Y-45200048D01*
X55101664Y-45191280D01*
X55114290Y-45183712D01*
X55127597Y-45177418D01*
X55141457Y-45172459D01*
X55155736Y-45168882D01*
X55170297Y-45166722D01*
X55185000Y-45166000D01*
X56835000Y-45166000D01*
X56849703Y-45166722D01*
G37*
G36*
X56849703Y-43896722D02*
G01*
X56864264Y-43898882D01*
X56878543Y-43902459D01*
X56892403Y-43907418D01*
X56905710Y-43913712D01*
X56918336Y-43921280D01*
X56930159Y-43930048D01*
X56941066Y-43939934D01*
X56950952Y-43950841D01*
X56959720Y-43962664D01*
X56967288Y-43975290D01*
X56973582Y-43988597D01*
X56978541Y-44002457D01*
X56982118Y-44016736D01*
X56984278Y-44031297D01*
X56985000Y-44046000D01*
X56985000Y-44346000D01*
X56984278Y-44360703D01*
X56982118Y-44375264D01*
X56978541Y-44389543D01*
X56973582Y-44403403D01*
X56967288Y-44416710D01*
X56959720Y-44429336D01*
X56950952Y-44441159D01*
X56941066Y-44452066D01*
X56930159Y-44461952D01*
X56918336Y-44470720D01*
X56905710Y-44478288D01*
X56892403Y-44484582D01*
X56878543Y-44489541D01*
X56864264Y-44493118D01*
X56849703Y-44495278D01*
X56835000Y-44496000D01*
X55185000Y-44496000D01*
X55170297Y-44495278D01*
X55155736Y-44493118D01*
X55141457Y-44489541D01*
X55127597Y-44484582D01*
X55114290Y-44478288D01*
X55101664Y-44470720D01*
X55089841Y-44461952D01*
X55078934Y-44452066D01*
X55069048Y-44441159D01*
X55060280Y-44429336D01*
X55052712Y-44416710D01*
X55046418Y-44403403D01*
X55041459Y-44389543D01*
X55037882Y-44375264D01*
X55035722Y-44360703D01*
X55035000Y-44346000D01*
X55035000Y-44046000D01*
X55035722Y-44031297D01*
X55037882Y-44016736D01*
X55041459Y-44002457D01*
X55046418Y-43988597D01*
X55052712Y-43975290D01*
X55060280Y-43962664D01*
X55069048Y-43950841D01*
X55078934Y-43939934D01*
X55089841Y-43930048D01*
X55101664Y-43921280D01*
X55114290Y-43913712D01*
X55127597Y-43907418D01*
X55141457Y-43902459D01*
X55155736Y-43898882D01*
X55170297Y-43896722D01*
X55185000Y-43896000D01*
X56835000Y-43896000D01*
X56849703Y-43896722D01*
G37*
G36*
X61799703Y-43896722D02*
G01*
X61814264Y-43898882D01*
X61828543Y-43902459D01*
X61842403Y-43907418D01*
X61855710Y-43913712D01*
X61868336Y-43921280D01*
X61880159Y-43930048D01*
X61891066Y-43939934D01*
X61900952Y-43950841D01*
X61909720Y-43962664D01*
X61917288Y-43975290D01*
X61923582Y-43988597D01*
X61928541Y-44002457D01*
X61932118Y-44016736D01*
X61934278Y-44031297D01*
X61935000Y-44046000D01*
X61935000Y-44346000D01*
X61934278Y-44360703D01*
X61932118Y-44375264D01*
X61928541Y-44389543D01*
X61923582Y-44403403D01*
X61917288Y-44416710D01*
X61909720Y-44429336D01*
X61900952Y-44441159D01*
X61891066Y-44452066D01*
X61880159Y-44461952D01*
X61868336Y-44470720D01*
X61855710Y-44478288D01*
X61842403Y-44484582D01*
X61828543Y-44489541D01*
X61814264Y-44493118D01*
X61799703Y-44495278D01*
X61785000Y-44496000D01*
X60135000Y-44496000D01*
X60120297Y-44495278D01*
X60105736Y-44493118D01*
X60091457Y-44489541D01*
X60077597Y-44484582D01*
X60064290Y-44478288D01*
X60051664Y-44470720D01*
X60039841Y-44461952D01*
X60028934Y-44452066D01*
X60019048Y-44441159D01*
X60010280Y-44429336D01*
X60002712Y-44416710D01*
X59996418Y-44403403D01*
X59991459Y-44389543D01*
X59987882Y-44375264D01*
X59985722Y-44360703D01*
X59985000Y-44346000D01*
X59985000Y-44046000D01*
X59985722Y-44031297D01*
X59987882Y-44016736D01*
X59991459Y-44002457D01*
X59996418Y-43988597D01*
X60002712Y-43975290D01*
X60010280Y-43962664D01*
X60019048Y-43950841D01*
X60028934Y-43939934D01*
X60039841Y-43930048D01*
X60051664Y-43921280D01*
X60064290Y-43913712D01*
X60077597Y-43907418D01*
X60091457Y-43902459D01*
X60105736Y-43898882D01*
X60120297Y-43896722D01*
X60135000Y-43896000D01*
X61785000Y-43896000D01*
X61799703Y-43896722D01*
G37*
G36*
X61799703Y-45166722D02*
G01*
X61814264Y-45168882D01*
X61828543Y-45172459D01*
X61842403Y-45177418D01*
X61855710Y-45183712D01*
X61868336Y-45191280D01*
X61880159Y-45200048D01*
X61891066Y-45209934D01*
X61900952Y-45220841D01*
X61909720Y-45232664D01*
X61917288Y-45245290D01*
X61923582Y-45258597D01*
X61928541Y-45272457D01*
X61932118Y-45286736D01*
X61934278Y-45301297D01*
X61935000Y-45316000D01*
X61935000Y-45616000D01*
X61934278Y-45630703D01*
X61932118Y-45645264D01*
X61928541Y-45659543D01*
X61923582Y-45673403D01*
X61917288Y-45686710D01*
X61909720Y-45699336D01*
X61900952Y-45711159D01*
X61891066Y-45722066D01*
X61880159Y-45731952D01*
X61868336Y-45740720D01*
X61855710Y-45748288D01*
X61842403Y-45754582D01*
X61828543Y-45759541D01*
X61814264Y-45763118D01*
X61799703Y-45765278D01*
X61785000Y-45766000D01*
X60135000Y-45766000D01*
X60120297Y-45765278D01*
X60105736Y-45763118D01*
X60091457Y-45759541D01*
X60077597Y-45754582D01*
X60064290Y-45748288D01*
X60051664Y-45740720D01*
X60039841Y-45731952D01*
X60028934Y-45722066D01*
X60019048Y-45711159D01*
X60010280Y-45699336D01*
X60002712Y-45686710D01*
X59996418Y-45673403D01*
X59991459Y-45659543D01*
X59987882Y-45645264D01*
X59985722Y-45630703D01*
X59985000Y-45616000D01*
X59985000Y-45316000D01*
X59985722Y-45301297D01*
X59987882Y-45286736D01*
X59991459Y-45272457D01*
X59996418Y-45258597D01*
X60002712Y-45245290D01*
X60010280Y-45232664D01*
X60019048Y-45220841D01*
X60028934Y-45209934D01*
X60039841Y-45200048D01*
X60051664Y-45191280D01*
X60064290Y-45183712D01*
X60077597Y-45177418D01*
X60091457Y-45172459D01*
X60105736Y-45168882D01*
X60120297Y-45166722D01*
X60135000Y-45166000D01*
X61785000Y-45166000D01*
X61799703Y-45166722D01*
G37*
G36*
X61799703Y-46436722D02*
G01*
X61814264Y-46438882D01*
X61828543Y-46442459D01*
X61842403Y-46447418D01*
X61855710Y-46453712D01*
X61868336Y-46461280D01*
X61880159Y-46470048D01*
X61891066Y-46479934D01*
X61900952Y-46490841D01*
X61909720Y-46502664D01*
X61917288Y-46515290D01*
X61923582Y-46528597D01*
X61928541Y-46542457D01*
X61932118Y-46556736D01*
X61934278Y-46571297D01*
X61935000Y-46586000D01*
X61935000Y-46886000D01*
X61934278Y-46900703D01*
X61932118Y-46915264D01*
X61928541Y-46929543D01*
X61923582Y-46943403D01*
X61917288Y-46956710D01*
X61909720Y-46969336D01*
X61900952Y-46981159D01*
X61891066Y-46992066D01*
X61880159Y-47001952D01*
X61868336Y-47010720D01*
X61855710Y-47018288D01*
X61842403Y-47024582D01*
X61828543Y-47029541D01*
X61814264Y-47033118D01*
X61799703Y-47035278D01*
X61785000Y-47036000D01*
X60135000Y-47036000D01*
X60120297Y-47035278D01*
X60105736Y-47033118D01*
X60091457Y-47029541D01*
X60077597Y-47024582D01*
X60064290Y-47018288D01*
X60051664Y-47010720D01*
X60039841Y-47001952D01*
X60028934Y-46992066D01*
X60019048Y-46981159D01*
X60010280Y-46969336D01*
X60002712Y-46956710D01*
X59996418Y-46943403D01*
X59991459Y-46929543D01*
X59987882Y-46915264D01*
X59985722Y-46900703D01*
X59985000Y-46886000D01*
X59985000Y-46586000D01*
X59985722Y-46571297D01*
X59987882Y-46556736D01*
X59991459Y-46542457D01*
X59996418Y-46528597D01*
X60002712Y-46515290D01*
X60010280Y-46502664D01*
X60019048Y-46490841D01*
X60028934Y-46479934D01*
X60039841Y-46470048D01*
X60051664Y-46461280D01*
X60064290Y-46453712D01*
X60077597Y-46447418D01*
X60091457Y-46442459D01*
X60105736Y-46438882D01*
X60120297Y-46436722D01*
X60135000Y-46436000D01*
X61785000Y-46436000D01*
X61799703Y-46436722D01*
G37*
G36*
X61799703Y-47706722D02*
G01*
X61814264Y-47708882D01*
X61828543Y-47712459D01*
X61842403Y-47717418D01*
X61855710Y-47723712D01*
X61868336Y-47731280D01*
X61880159Y-47740048D01*
X61891066Y-47749934D01*
X61900952Y-47760841D01*
X61909720Y-47772664D01*
X61917288Y-47785290D01*
X61923582Y-47798597D01*
X61928541Y-47812457D01*
X61932118Y-47826736D01*
X61934278Y-47841297D01*
X61935000Y-47856000D01*
X61935000Y-48156000D01*
X61934278Y-48170703D01*
X61932118Y-48185264D01*
X61928541Y-48199543D01*
X61923582Y-48213403D01*
X61917288Y-48226710D01*
X61909720Y-48239336D01*
X61900952Y-48251159D01*
X61891066Y-48262066D01*
X61880159Y-48271952D01*
X61868336Y-48280720D01*
X61855710Y-48288288D01*
X61842403Y-48294582D01*
X61828543Y-48299541D01*
X61814264Y-48303118D01*
X61799703Y-48305278D01*
X61785000Y-48306000D01*
X60135000Y-48306000D01*
X60120297Y-48305278D01*
X60105736Y-48303118D01*
X60091457Y-48299541D01*
X60077597Y-48294582D01*
X60064290Y-48288288D01*
X60051664Y-48280720D01*
X60039841Y-48271952D01*
X60028934Y-48262066D01*
X60019048Y-48251159D01*
X60010280Y-48239336D01*
X60002712Y-48226710D01*
X59996418Y-48213403D01*
X59991459Y-48199543D01*
X59987882Y-48185264D01*
X59985722Y-48170703D01*
X59985000Y-48156000D01*
X59985000Y-47856000D01*
X59985722Y-47841297D01*
X59987882Y-47826736D01*
X59991459Y-47812457D01*
X59996418Y-47798597D01*
X60002712Y-47785290D01*
X60010280Y-47772664D01*
X60019048Y-47760841D01*
X60028934Y-47749934D01*
X60039841Y-47740048D01*
X60051664Y-47731280D01*
X60064290Y-47723712D01*
X60077597Y-47717418D01*
X60091457Y-47712459D01*
X60105736Y-47708882D01*
X60120297Y-47706722D01*
X60135000Y-47706000D01*
X61785000Y-47706000D01*
X61799703Y-47706722D01*
G37*
M02*
