G04 #@! TF.GenerationSoftware,KiCad,Pcbnew,5.1.5+dfsg1-2build2*
G04 #@! TF.CreationDate,2021-01-09T21:52:19+00:00*
G04 #@! TF.ProjectId,cynaroides,63796e61-726f-4696-9465-732e6b696361,rev?*
G04 #@! TF.SameCoordinates,Original*
G04 #@! TF.FileFunction,Profile,NP*
%FSLAX46Y46*%
G04 Gerber Fmt 4.6, Leading zero omitted, Abs format (unit mm)*
G04 Created by KiCad (PCBNEW 5.1.5+dfsg1-2build2) date 2021-01-09 21:52:19*
%MOMM*%
%LPD*%
G04 APERTURE LIST*
%ADD10C,0.050000*%
%ADD11C,0.120000*%
G04 APERTURE END LIST*
D10*
X97631250Y-127000000D02*
X161925000Y-127000000D01*
X161925000Y-127000000D02*
X169068750Y-112712500D01*
X74612500Y-134937500D02*
X56356250Y-134937500D01*
X148431250Y-19843750D02*
X107950000Y-19843750D01*
X190500000Y-28575000D02*
X148431250Y-19843750D01*
X190500000Y-107950000D02*
X190500000Y-28575000D01*
X169068750Y-112712500D02*
X190500000Y-107950000D01*
X80962500Y-130968750D02*
X97631250Y-127000000D01*
X74612500Y-134937500D02*
X80962500Y-130968750D01*
X56356250Y-134937500D02*
X45243750Y-115887500D01*
X107950000Y-21431250D02*
X107950000Y-19843750D01*
X88106250Y-21431250D02*
X107950000Y-21431250D01*
X88106250Y-25400000D02*
X88106250Y-21431250D01*
X45243750Y-25400000D02*
X88106250Y-25400000D01*
X45243750Y-115887500D02*
X45243750Y-25400000D01*
D11*
X83556250Y-45206250D02*
X79956250Y-45206250D01*
X83556250Y-42106250D02*
X83556250Y-45206250D01*
X79956250Y-42106250D02*
X83556250Y-42106250D01*
X79956250Y-45206250D02*
X79956250Y-42106250D01*
X102606250Y-42031250D02*
X99006250Y-42031250D01*
X102606250Y-38931250D02*
X102606250Y-42031250D01*
X99006250Y-38931250D02*
X102606250Y-38931250D01*
X99006250Y-42031250D02*
X99006250Y-38931250D01*
X121656250Y-40443750D02*
X118056250Y-40443750D01*
X121656250Y-37343750D02*
X121656250Y-40443750D01*
X118056250Y-37343750D02*
X121656250Y-37343750D01*
X118056250Y-40443750D02*
X118056250Y-37343750D01*
X140706250Y-42031250D02*
X137106250Y-42031250D01*
X140706250Y-38931250D02*
X140706250Y-42031250D01*
X137106250Y-38931250D02*
X140706250Y-38931250D01*
X137106250Y-42031250D02*
X137106250Y-38931250D01*
X159756250Y-45206250D02*
X156156250Y-45206250D01*
X159756250Y-42106250D02*
X159756250Y-45206250D01*
X156156250Y-42106250D02*
X159756250Y-42106250D01*
X156156250Y-45206250D02*
X156156250Y-42106250D01*
X178806250Y-49175000D02*
X175206250Y-49175000D01*
X178806250Y-46075000D02*
X178806250Y-49175000D01*
X175206250Y-46075000D02*
X178806250Y-46075000D01*
X175206250Y-49175000D02*
X175206250Y-46075000D01*
X175206250Y-64331250D02*
X178806250Y-64331250D01*
X175206250Y-67431250D02*
X175206250Y-64331250D01*
X178806250Y-67431250D02*
X175206250Y-67431250D01*
X178806250Y-64331250D02*
X178806250Y-67431250D01*
X156156250Y-61156250D02*
X159756250Y-61156250D01*
X156156250Y-64256250D02*
X156156250Y-61156250D01*
X159756250Y-64256250D02*
X156156250Y-64256250D01*
X159756250Y-61156250D02*
X159756250Y-64256250D01*
X137106250Y-57981250D02*
X140706250Y-57981250D01*
X137106250Y-61081250D02*
X137106250Y-57981250D01*
X140706250Y-61081250D02*
X137106250Y-61081250D01*
X140706250Y-57981250D02*
X140706250Y-61081250D01*
X118056250Y-56393750D02*
X121656250Y-56393750D01*
X118056250Y-59493750D02*
X118056250Y-56393750D01*
X121656250Y-59493750D02*
X118056250Y-59493750D01*
X121656250Y-56393750D02*
X121656250Y-59493750D01*
X99006250Y-57981250D02*
X102606250Y-57981250D01*
X99006250Y-61081250D02*
X99006250Y-57981250D01*
X102606250Y-61081250D02*
X99006250Y-61081250D01*
X102606250Y-57981250D02*
X102606250Y-61081250D01*
X79956250Y-61156250D02*
X83556250Y-61156250D01*
X79956250Y-64256250D02*
X79956250Y-61156250D01*
X83556250Y-64256250D02*
X79956250Y-64256250D01*
X83556250Y-61156250D02*
X83556250Y-64256250D01*
X83556250Y-83306250D02*
X79956250Y-83306250D01*
X83556250Y-80206250D02*
X83556250Y-83306250D01*
X79956250Y-80206250D02*
X83556250Y-80206250D01*
X79956250Y-83306250D02*
X79956250Y-80206250D01*
X102606250Y-80131250D02*
X99006250Y-80131250D01*
X102606250Y-77031250D02*
X102606250Y-80131250D01*
X99006250Y-77031250D02*
X102606250Y-77031250D01*
X99006250Y-80131250D02*
X99006250Y-77031250D01*
X121656250Y-78543750D02*
X118056250Y-78543750D01*
X121656250Y-75443750D02*
X121656250Y-78543750D01*
X118056250Y-75443750D02*
X121656250Y-75443750D01*
X118056250Y-78543750D02*
X118056250Y-75443750D01*
X140611000Y-79959800D02*
X137011000Y-79959800D01*
X140611000Y-76859800D02*
X140611000Y-79959800D01*
X137011000Y-76859800D02*
X140611000Y-76859800D01*
X137011000Y-79959800D02*
X137011000Y-76859800D01*
X159756250Y-83306250D02*
X156156250Y-83306250D01*
X159756250Y-80206250D02*
X159756250Y-83306250D01*
X156156250Y-80206250D02*
X159756250Y-80206250D01*
X156156250Y-83306250D02*
X156156250Y-80206250D01*
X178806250Y-86481250D02*
X175206250Y-86481250D01*
X178806250Y-83381250D02*
X178806250Y-86481250D01*
X175206250Y-83381250D02*
X178806250Y-83381250D01*
X175206250Y-86481250D02*
X175206250Y-83381250D01*
X175206250Y-102431250D02*
X178806250Y-102431250D01*
X175206250Y-105531250D02*
X175206250Y-102431250D01*
X178806250Y-105531250D02*
X175206250Y-105531250D01*
X178806250Y-102431250D02*
X178806250Y-105531250D01*
X156156250Y-99256250D02*
X159756250Y-99256250D01*
X156156250Y-102356250D02*
X156156250Y-99256250D01*
X159756250Y-102356250D02*
X156156250Y-102356250D01*
X159756250Y-99256250D02*
X159756250Y-102356250D01*
X137106250Y-96081250D02*
X140706250Y-96081250D01*
X137106250Y-99181250D02*
X137106250Y-96081250D01*
X140706250Y-99181250D02*
X137106250Y-99181250D01*
X140706250Y-96081250D02*
X140706250Y-99181250D01*
X118056250Y-94493750D02*
X121656250Y-94493750D01*
X118056250Y-97593750D02*
X118056250Y-94493750D01*
X121656250Y-97593750D02*
X118056250Y-97593750D01*
X121656250Y-94493750D02*
X121656250Y-97593750D01*
X99006250Y-96081250D02*
X102606250Y-96081250D01*
X99006250Y-99181250D02*
X99006250Y-96081250D01*
X102606250Y-99181250D02*
X99006250Y-99181250D01*
X102606250Y-96081250D02*
X102606250Y-99181250D01*
X79956250Y-99256250D02*
X83556250Y-99256250D01*
X79956250Y-102356250D02*
X79956250Y-99256250D01*
X83556250Y-102356250D02*
X79956250Y-102356250D01*
X83556250Y-99256250D02*
X83556250Y-102356250D01*
X56143750Y-98462500D02*
X59743750Y-98462500D01*
X56143750Y-101562500D02*
X56143750Y-98462500D01*
X59743750Y-101562500D02*
X56143750Y-101562500D01*
X59743750Y-98462500D02*
X59743750Y-101562500D01*
X67421346Y-125061089D02*
X64303654Y-126861089D01*
X65871346Y-122376411D02*
X67421346Y-125061089D01*
X62753654Y-124176411D02*
X65871346Y-122376411D01*
X64303654Y-126861089D02*
X62753654Y-124176411D01*
X87525000Y-123787500D02*
X83925000Y-123787500D01*
X87525000Y-120687500D02*
X87525000Y-123787500D01*
X83925000Y-120687500D02*
X87525000Y-120687500D01*
X83925000Y-123787500D02*
X83925000Y-120687500D01*
X108956250Y-121406250D02*
X105356250Y-121406250D01*
X108956250Y-118306250D02*
X108956250Y-121406250D01*
X105356250Y-118306250D02*
X108956250Y-118306250D01*
X105356250Y-121406250D02*
X105356250Y-118306250D01*
X130387500Y-120612500D02*
X126787500Y-120612500D01*
X130387500Y-117512500D02*
X130387500Y-120612500D01*
X126787500Y-117512500D02*
X130387500Y-117512500D01*
X126787500Y-120612500D02*
X126787500Y-117512500D01*
X151025000Y-122200000D02*
X147425000Y-122200000D01*
X151025000Y-119100000D02*
X151025000Y-122200000D01*
X147425000Y-119100000D02*
X151025000Y-119100000D01*
X147425000Y-122200000D02*
X147425000Y-119100000D01*
M02*
