G04 #@! TF.GenerationSoftware,KiCad,Pcbnew,5.1.5+dfsg1-2build2*
G04 #@! TF.CreationDate,2021-01-09T21:52:19+00:00*
G04 #@! TF.ProjectId,cynaroides,63796e61-726f-4696-9465-732e6b696361,rev?*
G04 #@! TF.SameCoordinates,Original*
G04 #@! TF.FileFunction,Legend,Top*
G04 #@! TF.FilePolarity,Positive*
%FSLAX46Y46*%
G04 Gerber Fmt 4.6, Leading zero omitted, Abs format (unit mm)*
G04 Created by KiCad (PCBNEW 5.1.5+dfsg1-2build2) date 2021-01-09 21:52:19*
%MOMM*%
%LPD*%
G04 APERTURE LIST*
%ADD10C,0.120000*%
%ADD11C,0.150000*%
G04 APERTURE END LIST*
D10*
X93662500Y-59690000D02*
X93662500Y-45720000D01*
X107632500Y-59690000D02*
X93662500Y-59690000D01*
X107632500Y-45720000D02*
X107632500Y-59690000D01*
X93662500Y-45720000D02*
X107632500Y-45720000D01*
X112712500Y-58102500D02*
X112712500Y-44132500D01*
X126682500Y-58102500D02*
X112712500Y-58102500D01*
X126682500Y-44132500D02*
X126682500Y-58102500D01*
X112712500Y-44132500D02*
X126682500Y-44132500D01*
X131762500Y-59690000D02*
X131762500Y-45720000D01*
X145732500Y-59690000D02*
X131762500Y-59690000D01*
X145732500Y-45720000D02*
X145732500Y-59690000D01*
X131762500Y-45720000D02*
X145732500Y-45720000D01*
X150812500Y-62865000D02*
X150812500Y-48895000D01*
X164782500Y-62865000D02*
X150812500Y-62865000D01*
X164782500Y-48895000D02*
X164782500Y-62865000D01*
X150812500Y-48895000D02*
X164782500Y-48895000D01*
X74612500Y-81915000D02*
X74612500Y-67945000D01*
X88582500Y-81915000D02*
X74612500Y-81915000D01*
X88582500Y-67945000D02*
X88582500Y-81915000D01*
X74612500Y-67945000D02*
X88582500Y-67945000D01*
X93662500Y-78740000D02*
X93662500Y-64770000D01*
X107632500Y-78740000D02*
X93662500Y-78740000D01*
X107632500Y-64770000D02*
X107632500Y-78740000D01*
X93662500Y-64770000D02*
X107632500Y-64770000D01*
X112712500Y-77152500D02*
X112712500Y-63182500D01*
X126682500Y-77152500D02*
X112712500Y-77152500D01*
X126682500Y-63182500D02*
X126682500Y-77152500D01*
X112712500Y-63182500D02*
X126682500Y-63182500D01*
X131762500Y-78740000D02*
X131762500Y-64770000D01*
X145732500Y-78740000D02*
X131762500Y-78740000D01*
X145732500Y-64770000D02*
X145732500Y-78740000D01*
X131762500Y-64770000D02*
X145732500Y-64770000D01*
X150812500Y-81915000D02*
X150812500Y-67945000D01*
X164782500Y-81915000D02*
X150812500Y-81915000D01*
X164782500Y-67945000D02*
X164782500Y-81915000D01*
X150812500Y-67945000D02*
X164782500Y-67945000D01*
X131762500Y-97790000D02*
X131762500Y-83820000D01*
X145732500Y-97790000D02*
X131762500Y-97790000D01*
X145732500Y-83820000D02*
X145732500Y-97790000D01*
X131762500Y-83820000D02*
X145732500Y-83820000D01*
X150812500Y-100965000D02*
X150812500Y-86995000D01*
X164782500Y-100965000D02*
X150812500Y-100965000D01*
X164782500Y-86995000D02*
X164782500Y-100965000D01*
X150812500Y-86995000D02*
X164782500Y-86995000D01*
X78916599Y-124112960D02*
X76012072Y-110448238D01*
X92581321Y-121208433D02*
X78916599Y-124112960D01*
X89676794Y-107543711D02*
X92581321Y-121208433D01*
X76012072Y-110448238D02*
X89676794Y-107543711D01*
X100012500Y-120015000D02*
X100012500Y-106045000D01*
X113982500Y-120015000D02*
X100012500Y-120015000D01*
X113982500Y-106045000D02*
X113982500Y-120015000D01*
X100012500Y-106045000D02*
X113982500Y-106045000D01*
X121443750Y-119221250D02*
X121443750Y-105251250D01*
X135413750Y-119221250D02*
X121443750Y-119221250D01*
X135413750Y-105251250D02*
X135413750Y-119221250D01*
X121443750Y-105251250D02*
X135413750Y-105251250D01*
X142081250Y-121602500D02*
X142081250Y-107632500D01*
X156051250Y-121602500D02*
X142081250Y-121602500D01*
X156051250Y-107632500D02*
X156051250Y-121602500D01*
X142081250Y-107632500D02*
X156051250Y-107632500D01*
X112712500Y-96202500D02*
X112712500Y-82232500D01*
X126682500Y-96202500D02*
X112712500Y-96202500D01*
X126682500Y-82232500D02*
X126682500Y-96202500D01*
X112712500Y-82232500D02*
X126682500Y-82232500D01*
X74612500Y-43815000D02*
X74612500Y-29845000D01*
X88582500Y-43815000D02*
X74612500Y-43815000D01*
X88582500Y-29845000D02*
X88582500Y-43815000D01*
X74612500Y-29845000D02*
X88582500Y-29845000D01*
X150812500Y-43815000D02*
X150812500Y-29845000D01*
X164782500Y-43815000D02*
X150812500Y-43815000D01*
X164782500Y-29845000D02*
X164782500Y-43815000D01*
X150812500Y-29845000D02*
X164782500Y-29845000D01*
X74612500Y-62865000D02*
X74612500Y-48895000D01*
X88582500Y-62865000D02*
X74612500Y-62865000D01*
X88582500Y-48895000D02*
X88582500Y-62865000D01*
X74612500Y-48895000D02*
X88582500Y-48895000D01*
X93662500Y-97790000D02*
X93662500Y-83820000D01*
X107632500Y-97790000D02*
X93662500Y-97790000D01*
X107632500Y-83820000D02*
X107632500Y-97790000D01*
X93662500Y-83820000D02*
X107632500Y-83820000D01*
X74612500Y-100965000D02*
X74612500Y-86995000D01*
X88582500Y-100965000D02*
X74612500Y-100965000D01*
X88582500Y-86995000D02*
X88582500Y-100965000D01*
X74612500Y-86995000D02*
X88582500Y-86995000D01*
X65120000Y-29096000D02*
X65120000Y-28196000D01*
X55930000Y-29096000D02*
X55930000Y-28196000D01*
X65120000Y-25496000D02*
X65120000Y-22766000D01*
X55930000Y-25496000D02*
X55930000Y-22766000D01*
X65000000Y-32176000D02*
X56050000Y-32176000D01*
X65120000Y-22766000D02*
X55930000Y-22766000D01*
D11*
X57250000Y-81762500D02*
X45500000Y-81762500D01*
X57250000Y-75962500D02*
X57250000Y-81762500D01*
X45500000Y-75962500D02*
X57250000Y-75962500D01*
X45500000Y-81762500D02*
X45500000Y-75962500D01*
X45875000Y-58118750D02*
X46125000Y-58118750D01*
X45875000Y-64118750D02*
X45875000Y-58118750D01*
X45875000Y-64118750D02*
X46125000Y-64118750D01*
X49375000Y-64118750D02*
X49125000Y-64118750D01*
X49375000Y-58118750D02*
X49125000Y-58118750D01*
X49375000Y-64118750D02*
X49375000Y-58118750D01*
D10*
X58485000Y-48661000D02*
X61935000Y-48661000D01*
X58485000Y-48661000D02*
X56535000Y-48661000D01*
X58485000Y-43541000D02*
X60435000Y-43541000D01*
X58485000Y-43541000D02*
X56535000Y-43541000D01*
X58902358Y-128717346D02*
X51917358Y-116618972D01*
X71000733Y-121732346D02*
X58902358Y-128717346D01*
X64015733Y-109633972D02*
X71000733Y-121732346D01*
X51917358Y-116618972D02*
X64015733Y-109633972D01*
X50958750Y-100647500D02*
X50958750Y-86677500D01*
X64928750Y-100647500D02*
X50958750Y-100647500D01*
X64928750Y-86677500D02*
X64928750Y-100647500D01*
X50958750Y-86677500D02*
X64928750Y-86677500D01*
X169862500Y-104140000D02*
X169862500Y-90170000D01*
X183832500Y-104140000D02*
X169862500Y-104140000D01*
X183832500Y-90170000D02*
X183832500Y-104140000D01*
X169862500Y-90170000D02*
X183832500Y-90170000D01*
X169862500Y-85090000D02*
X169862500Y-71120000D01*
X183832500Y-85090000D02*
X169862500Y-85090000D01*
X183832500Y-71120000D02*
X183832500Y-85090000D01*
X169862500Y-71120000D02*
X183832500Y-71120000D01*
X169862500Y-66040000D02*
X169862500Y-52070000D01*
X183832500Y-66040000D02*
X169862500Y-66040000D01*
X183832500Y-52070000D02*
X183832500Y-66040000D01*
X169862500Y-52070000D02*
X183832500Y-52070000D01*
X169862500Y-46990000D02*
X169862500Y-33020000D01*
X183832500Y-46990000D02*
X169862500Y-46990000D01*
X183832500Y-33020000D02*
X183832500Y-46990000D01*
X169862500Y-33020000D02*
X183832500Y-33020000D01*
X131762500Y-40640000D02*
X131762500Y-26670000D01*
X145732500Y-40640000D02*
X131762500Y-40640000D01*
X145732500Y-26670000D02*
X145732500Y-40640000D01*
X131762500Y-26670000D02*
X145732500Y-26670000D01*
X112712500Y-39052500D02*
X112712500Y-25082500D01*
X126682500Y-39052500D02*
X112712500Y-39052500D01*
X126682500Y-25082500D02*
X126682500Y-39052500D01*
X112712500Y-25082500D02*
X126682500Y-25082500D01*
X93662500Y-40640000D02*
X93662500Y-26670000D01*
X107632500Y-40640000D02*
X93662500Y-40640000D01*
X107632500Y-26670000D02*
X107632500Y-40640000D01*
X93662500Y-26670000D02*
X107632500Y-26670000D01*
D11*
X48158495Y-25335380D02*
X48158495Y-24335380D01*
X48158495Y-24811571D02*
X48729923Y-24811571D01*
X48729923Y-25335380D02*
X48729923Y-24335380D01*
X49634685Y-24335380D02*
X49444209Y-24335380D01*
X49348971Y-24383000D01*
X49301352Y-24430619D01*
X49206114Y-24573476D01*
X49158495Y-24763952D01*
X49158495Y-25144904D01*
X49206114Y-25240142D01*
X49253733Y-25287761D01*
X49348971Y-25335380D01*
X49539447Y-25335380D01*
X49634685Y-25287761D01*
X49682304Y-25240142D01*
X49729923Y-25144904D01*
X49729923Y-24906809D01*
X49682304Y-24811571D01*
X49634685Y-24763952D01*
X49539447Y-24716333D01*
X49348971Y-24716333D01*
X49253733Y-24763952D01*
X49206114Y-24811571D01*
X49158495Y-24906809D01*
X69037295Y-25436980D02*
X69037295Y-24436980D01*
X69037295Y-24913171D02*
X69608723Y-24913171D01*
X69608723Y-25436980D02*
X69608723Y-24436980D01*
X70037295Y-24532219D02*
X70084914Y-24484600D01*
X70180152Y-24436980D01*
X70418247Y-24436980D01*
X70513485Y-24484600D01*
X70561104Y-24532219D01*
X70608723Y-24627457D01*
X70608723Y-24722695D01*
X70561104Y-24865552D01*
X69989676Y-25436980D01*
X70608723Y-25436980D01*
X162636295Y-103516580D02*
X162636295Y-102516580D01*
X162636295Y-102992771D02*
X163207723Y-102992771D01*
X163207723Y-103516580D02*
X163207723Y-102516580D01*
X164160104Y-102516580D02*
X163683914Y-102516580D01*
X163636295Y-102992771D01*
X163683914Y-102945152D01*
X163779152Y-102897533D01*
X164017247Y-102897533D01*
X164112485Y-102945152D01*
X164160104Y-102992771D01*
X164207723Y-103088009D01*
X164207723Y-103326104D01*
X164160104Y-103421342D01*
X164112485Y-103468961D01*
X164017247Y-103516580D01*
X163779152Y-103516580D01*
X163683914Y-103468961D01*
X163636295Y-103421342D01*
X54864095Y-102144980D02*
X54864095Y-101144980D01*
X54864095Y-101621171D02*
X55435523Y-101621171D01*
X55435523Y-102144980D02*
X55435523Y-101144980D01*
X56340285Y-101478314D02*
X56340285Y-102144980D01*
X56102190Y-101097361D02*
X55864095Y-101811647D01*
X56483142Y-101811647D01*
X185851895Y-28383380D02*
X185851895Y-27383380D01*
X185851895Y-27859571D02*
X186423323Y-27859571D01*
X186423323Y-28383380D02*
X186423323Y-27383380D01*
X186804276Y-27383380D02*
X187423323Y-27383380D01*
X187089990Y-27764333D01*
X187232847Y-27764333D01*
X187328085Y-27811952D01*
X187375704Y-27859571D01*
X187423323Y-27954809D01*
X187423323Y-28192904D01*
X187375704Y-28288142D01*
X187328085Y-28335761D01*
X187232847Y-28383380D01*
X186947133Y-28383380D01*
X186851895Y-28335761D01*
X186804276Y-28288142D01*
X108940695Y-20814180D02*
X108940695Y-19814180D01*
X108940695Y-20290371D02*
X109512123Y-20290371D01*
X109512123Y-20814180D02*
X109512123Y-19814180D01*
X110512123Y-20814180D02*
X109940695Y-20814180D01*
X110226409Y-20814180D02*
X110226409Y-19814180D01*
X110131171Y-19957038D01*
X110035933Y-20052276D01*
X109940695Y-20099895D01*
X99314166Y-45235761D02*
X99457023Y-45283380D01*
X99695119Y-45283380D01*
X99790357Y-45235761D01*
X99837976Y-45188142D01*
X99885595Y-45092904D01*
X99885595Y-44997666D01*
X99837976Y-44902428D01*
X99790357Y-44854809D01*
X99695119Y-44807190D01*
X99504642Y-44759571D01*
X99409404Y-44711952D01*
X99361785Y-44664333D01*
X99314166Y-44569095D01*
X99314166Y-44473857D01*
X99361785Y-44378619D01*
X99409404Y-44331000D01*
X99504642Y-44283380D01*
X99742738Y-44283380D01*
X99885595Y-44331000D01*
X100218928Y-44283380D02*
X100457023Y-45283380D01*
X100647500Y-44569095D01*
X100837976Y-45283380D01*
X101076071Y-44283380D01*
X101504642Y-45283380D02*
X101695119Y-45283380D01*
X101790357Y-45235761D01*
X101837976Y-45188142D01*
X101933214Y-45045285D01*
X101980833Y-44854809D01*
X101980833Y-44473857D01*
X101933214Y-44378619D01*
X101885595Y-44331000D01*
X101790357Y-44283380D01*
X101599880Y-44283380D01*
X101504642Y-44331000D01*
X101457023Y-44378619D01*
X101409404Y-44473857D01*
X101409404Y-44711952D01*
X101457023Y-44807190D01*
X101504642Y-44854809D01*
X101599880Y-44902428D01*
X101790357Y-44902428D01*
X101885595Y-44854809D01*
X101933214Y-44807190D01*
X101980833Y-44711952D01*
X117887976Y-43648261D02*
X118030833Y-43695880D01*
X118268928Y-43695880D01*
X118364166Y-43648261D01*
X118411785Y-43600642D01*
X118459404Y-43505404D01*
X118459404Y-43410166D01*
X118411785Y-43314928D01*
X118364166Y-43267309D01*
X118268928Y-43219690D01*
X118078452Y-43172071D01*
X117983214Y-43124452D01*
X117935595Y-43076833D01*
X117887976Y-42981595D01*
X117887976Y-42886357D01*
X117935595Y-42791119D01*
X117983214Y-42743500D01*
X118078452Y-42695880D01*
X118316547Y-42695880D01*
X118459404Y-42743500D01*
X118792738Y-42695880D02*
X119030833Y-43695880D01*
X119221309Y-42981595D01*
X119411785Y-43695880D01*
X119649880Y-42695880D01*
X120554642Y-43695880D02*
X119983214Y-43695880D01*
X120268928Y-43695880D02*
X120268928Y-42695880D01*
X120173690Y-42838738D01*
X120078452Y-42933976D01*
X119983214Y-42981595D01*
X121173690Y-42695880D02*
X121268928Y-42695880D01*
X121364166Y-42743500D01*
X121411785Y-42791119D01*
X121459404Y-42886357D01*
X121507023Y-43076833D01*
X121507023Y-43314928D01*
X121459404Y-43505404D01*
X121411785Y-43600642D01*
X121364166Y-43648261D01*
X121268928Y-43695880D01*
X121173690Y-43695880D01*
X121078452Y-43648261D01*
X121030833Y-43600642D01*
X120983214Y-43505404D01*
X120935595Y-43314928D01*
X120935595Y-43076833D01*
X120983214Y-42886357D01*
X121030833Y-42791119D01*
X121078452Y-42743500D01*
X121173690Y-42695880D01*
X136937976Y-45235761D02*
X137080833Y-45283380D01*
X137318928Y-45283380D01*
X137414166Y-45235761D01*
X137461785Y-45188142D01*
X137509404Y-45092904D01*
X137509404Y-44997666D01*
X137461785Y-44902428D01*
X137414166Y-44854809D01*
X137318928Y-44807190D01*
X137128452Y-44759571D01*
X137033214Y-44711952D01*
X136985595Y-44664333D01*
X136937976Y-44569095D01*
X136937976Y-44473857D01*
X136985595Y-44378619D01*
X137033214Y-44331000D01*
X137128452Y-44283380D01*
X137366547Y-44283380D01*
X137509404Y-44331000D01*
X137842738Y-44283380D02*
X138080833Y-45283380D01*
X138271309Y-44569095D01*
X138461785Y-45283380D01*
X138699880Y-44283380D01*
X139604642Y-45283380D02*
X139033214Y-45283380D01*
X139318928Y-45283380D02*
X139318928Y-44283380D01*
X139223690Y-44426238D01*
X139128452Y-44521476D01*
X139033214Y-44569095D01*
X140557023Y-45283380D02*
X139985595Y-45283380D01*
X140271309Y-45283380D02*
X140271309Y-44283380D01*
X140176071Y-44426238D01*
X140080833Y-44521476D01*
X139985595Y-44569095D01*
X155987976Y-48410761D02*
X156130833Y-48458380D01*
X156368928Y-48458380D01*
X156464166Y-48410761D01*
X156511785Y-48363142D01*
X156559404Y-48267904D01*
X156559404Y-48172666D01*
X156511785Y-48077428D01*
X156464166Y-48029809D01*
X156368928Y-47982190D01*
X156178452Y-47934571D01*
X156083214Y-47886952D01*
X156035595Y-47839333D01*
X155987976Y-47744095D01*
X155987976Y-47648857D01*
X156035595Y-47553619D01*
X156083214Y-47506000D01*
X156178452Y-47458380D01*
X156416547Y-47458380D01*
X156559404Y-47506000D01*
X156892738Y-47458380D02*
X157130833Y-48458380D01*
X157321309Y-47744095D01*
X157511785Y-48458380D01*
X157749880Y-47458380D01*
X158654642Y-48458380D02*
X158083214Y-48458380D01*
X158368928Y-48458380D02*
X158368928Y-47458380D01*
X158273690Y-47601238D01*
X158178452Y-47696476D01*
X158083214Y-47744095D01*
X159035595Y-47553619D02*
X159083214Y-47506000D01*
X159178452Y-47458380D01*
X159416547Y-47458380D01*
X159511785Y-47506000D01*
X159559404Y-47553619D01*
X159607023Y-47648857D01*
X159607023Y-47744095D01*
X159559404Y-47886952D01*
X158987976Y-48458380D01*
X159607023Y-48458380D01*
X79787976Y-67460761D02*
X79930833Y-67508380D01*
X80168928Y-67508380D01*
X80264166Y-67460761D01*
X80311785Y-67413142D01*
X80359404Y-67317904D01*
X80359404Y-67222666D01*
X80311785Y-67127428D01*
X80264166Y-67079809D01*
X80168928Y-67032190D01*
X79978452Y-66984571D01*
X79883214Y-66936952D01*
X79835595Y-66889333D01*
X79787976Y-66794095D01*
X79787976Y-66698857D01*
X79835595Y-66603619D01*
X79883214Y-66556000D01*
X79978452Y-66508380D01*
X80216547Y-66508380D01*
X80359404Y-66556000D01*
X80692738Y-66508380D02*
X80930833Y-67508380D01*
X81121309Y-66794095D01*
X81311785Y-67508380D01*
X81549880Y-66508380D01*
X82454642Y-67508380D02*
X81883214Y-67508380D01*
X82168928Y-67508380D02*
X82168928Y-66508380D01*
X82073690Y-66651238D01*
X81978452Y-66746476D01*
X81883214Y-66794095D01*
X83311785Y-66841714D02*
X83311785Y-67508380D01*
X83073690Y-66460761D02*
X82835595Y-67175047D01*
X83454642Y-67175047D01*
X98837976Y-64285761D02*
X98980833Y-64333380D01*
X99218928Y-64333380D01*
X99314166Y-64285761D01*
X99361785Y-64238142D01*
X99409404Y-64142904D01*
X99409404Y-64047666D01*
X99361785Y-63952428D01*
X99314166Y-63904809D01*
X99218928Y-63857190D01*
X99028452Y-63809571D01*
X98933214Y-63761952D01*
X98885595Y-63714333D01*
X98837976Y-63619095D01*
X98837976Y-63523857D01*
X98885595Y-63428619D01*
X98933214Y-63381000D01*
X99028452Y-63333380D01*
X99266547Y-63333380D01*
X99409404Y-63381000D01*
X99742738Y-63333380D02*
X99980833Y-64333380D01*
X100171309Y-63619095D01*
X100361785Y-64333380D01*
X100599880Y-63333380D01*
X101504642Y-64333380D02*
X100933214Y-64333380D01*
X101218928Y-64333380D02*
X101218928Y-63333380D01*
X101123690Y-63476238D01*
X101028452Y-63571476D01*
X100933214Y-63619095D01*
X102409404Y-63333380D02*
X101933214Y-63333380D01*
X101885595Y-63809571D01*
X101933214Y-63761952D01*
X102028452Y-63714333D01*
X102266547Y-63714333D01*
X102361785Y-63761952D01*
X102409404Y-63809571D01*
X102457023Y-63904809D01*
X102457023Y-64142904D01*
X102409404Y-64238142D01*
X102361785Y-64285761D01*
X102266547Y-64333380D01*
X102028452Y-64333380D01*
X101933214Y-64285761D01*
X101885595Y-64238142D01*
X117887976Y-62698261D02*
X118030833Y-62745880D01*
X118268928Y-62745880D01*
X118364166Y-62698261D01*
X118411785Y-62650642D01*
X118459404Y-62555404D01*
X118459404Y-62460166D01*
X118411785Y-62364928D01*
X118364166Y-62317309D01*
X118268928Y-62269690D01*
X118078452Y-62222071D01*
X117983214Y-62174452D01*
X117935595Y-62126833D01*
X117887976Y-62031595D01*
X117887976Y-61936357D01*
X117935595Y-61841119D01*
X117983214Y-61793500D01*
X118078452Y-61745880D01*
X118316547Y-61745880D01*
X118459404Y-61793500D01*
X118792738Y-61745880D02*
X119030833Y-62745880D01*
X119221309Y-62031595D01*
X119411785Y-62745880D01*
X119649880Y-61745880D01*
X120554642Y-62745880D02*
X119983214Y-62745880D01*
X120268928Y-62745880D02*
X120268928Y-61745880D01*
X120173690Y-61888738D01*
X120078452Y-61983976D01*
X119983214Y-62031595D01*
X121411785Y-61745880D02*
X121221309Y-61745880D01*
X121126071Y-61793500D01*
X121078452Y-61841119D01*
X120983214Y-61983976D01*
X120935595Y-62174452D01*
X120935595Y-62555404D01*
X120983214Y-62650642D01*
X121030833Y-62698261D01*
X121126071Y-62745880D01*
X121316547Y-62745880D01*
X121411785Y-62698261D01*
X121459404Y-62650642D01*
X121507023Y-62555404D01*
X121507023Y-62317309D01*
X121459404Y-62222071D01*
X121411785Y-62174452D01*
X121316547Y-62126833D01*
X121126071Y-62126833D01*
X121030833Y-62174452D01*
X120983214Y-62222071D01*
X120935595Y-62317309D01*
X136937976Y-64285761D02*
X137080833Y-64333380D01*
X137318928Y-64333380D01*
X137414166Y-64285761D01*
X137461785Y-64238142D01*
X137509404Y-64142904D01*
X137509404Y-64047666D01*
X137461785Y-63952428D01*
X137414166Y-63904809D01*
X137318928Y-63857190D01*
X137128452Y-63809571D01*
X137033214Y-63761952D01*
X136985595Y-63714333D01*
X136937976Y-63619095D01*
X136937976Y-63523857D01*
X136985595Y-63428619D01*
X137033214Y-63381000D01*
X137128452Y-63333380D01*
X137366547Y-63333380D01*
X137509404Y-63381000D01*
X137842738Y-63333380D02*
X138080833Y-64333380D01*
X138271309Y-63619095D01*
X138461785Y-64333380D01*
X138699880Y-63333380D01*
X139604642Y-64333380D02*
X139033214Y-64333380D01*
X139318928Y-64333380D02*
X139318928Y-63333380D01*
X139223690Y-63476238D01*
X139128452Y-63571476D01*
X139033214Y-63619095D01*
X139937976Y-63333380D02*
X140604642Y-63333380D01*
X140176071Y-64333380D01*
X155987976Y-67460761D02*
X156130833Y-67508380D01*
X156368928Y-67508380D01*
X156464166Y-67460761D01*
X156511785Y-67413142D01*
X156559404Y-67317904D01*
X156559404Y-67222666D01*
X156511785Y-67127428D01*
X156464166Y-67079809D01*
X156368928Y-67032190D01*
X156178452Y-66984571D01*
X156083214Y-66936952D01*
X156035595Y-66889333D01*
X155987976Y-66794095D01*
X155987976Y-66698857D01*
X156035595Y-66603619D01*
X156083214Y-66556000D01*
X156178452Y-66508380D01*
X156416547Y-66508380D01*
X156559404Y-66556000D01*
X156892738Y-66508380D02*
X157130833Y-67508380D01*
X157321309Y-66794095D01*
X157511785Y-67508380D01*
X157749880Y-66508380D01*
X158654642Y-67508380D02*
X158083214Y-67508380D01*
X158368928Y-67508380D02*
X158368928Y-66508380D01*
X158273690Y-66651238D01*
X158178452Y-66746476D01*
X158083214Y-66794095D01*
X159226071Y-66936952D02*
X159130833Y-66889333D01*
X159083214Y-66841714D01*
X159035595Y-66746476D01*
X159035595Y-66698857D01*
X159083214Y-66603619D01*
X159130833Y-66556000D01*
X159226071Y-66508380D01*
X159416547Y-66508380D01*
X159511785Y-66556000D01*
X159559404Y-66603619D01*
X159607023Y-66698857D01*
X159607023Y-66746476D01*
X159559404Y-66841714D01*
X159511785Y-66889333D01*
X159416547Y-66936952D01*
X159226071Y-66936952D01*
X159130833Y-66984571D01*
X159083214Y-67032190D01*
X159035595Y-67127428D01*
X159035595Y-67317904D01*
X159083214Y-67413142D01*
X159130833Y-67460761D01*
X159226071Y-67508380D01*
X159416547Y-67508380D01*
X159511785Y-67460761D01*
X159559404Y-67413142D01*
X159607023Y-67317904D01*
X159607023Y-67127428D01*
X159559404Y-67032190D01*
X159511785Y-66984571D01*
X159416547Y-66936952D01*
X136937976Y-83335761D02*
X137080833Y-83383380D01*
X137318928Y-83383380D01*
X137414166Y-83335761D01*
X137461785Y-83288142D01*
X137509404Y-83192904D01*
X137509404Y-83097666D01*
X137461785Y-83002428D01*
X137414166Y-82954809D01*
X137318928Y-82907190D01*
X137128452Y-82859571D01*
X137033214Y-82811952D01*
X136985595Y-82764333D01*
X136937976Y-82669095D01*
X136937976Y-82573857D01*
X136985595Y-82478619D01*
X137033214Y-82431000D01*
X137128452Y-82383380D01*
X137366547Y-82383380D01*
X137509404Y-82431000D01*
X137842738Y-82383380D02*
X138080833Y-83383380D01*
X138271309Y-82669095D01*
X138461785Y-83383380D01*
X138699880Y-82383380D01*
X139033214Y-82478619D02*
X139080833Y-82431000D01*
X139176071Y-82383380D01*
X139414166Y-82383380D01*
X139509404Y-82431000D01*
X139557023Y-82478619D01*
X139604642Y-82573857D01*
X139604642Y-82669095D01*
X139557023Y-82811952D01*
X138985595Y-83383380D01*
X139604642Y-83383380D01*
X139937976Y-82383380D02*
X140557023Y-82383380D01*
X140223690Y-82764333D01*
X140366547Y-82764333D01*
X140461785Y-82811952D01*
X140509404Y-82859571D01*
X140557023Y-82954809D01*
X140557023Y-83192904D01*
X140509404Y-83288142D01*
X140461785Y-83335761D01*
X140366547Y-83383380D01*
X140080833Y-83383380D01*
X139985595Y-83335761D01*
X139937976Y-83288142D01*
X155987976Y-86510761D02*
X156130833Y-86558380D01*
X156368928Y-86558380D01*
X156464166Y-86510761D01*
X156511785Y-86463142D01*
X156559404Y-86367904D01*
X156559404Y-86272666D01*
X156511785Y-86177428D01*
X156464166Y-86129809D01*
X156368928Y-86082190D01*
X156178452Y-86034571D01*
X156083214Y-85986952D01*
X156035595Y-85939333D01*
X155987976Y-85844095D01*
X155987976Y-85748857D01*
X156035595Y-85653619D01*
X156083214Y-85606000D01*
X156178452Y-85558380D01*
X156416547Y-85558380D01*
X156559404Y-85606000D01*
X156892738Y-85558380D02*
X157130833Y-86558380D01*
X157321309Y-85844095D01*
X157511785Y-86558380D01*
X157749880Y-85558380D01*
X158083214Y-85653619D02*
X158130833Y-85606000D01*
X158226071Y-85558380D01*
X158464166Y-85558380D01*
X158559404Y-85606000D01*
X158607023Y-85653619D01*
X158654642Y-85748857D01*
X158654642Y-85844095D01*
X158607023Y-85986952D01*
X158035595Y-86558380D01*
X158654642Y-86558380D01*
X159511785Y-85891714D02*
X159511785Y-86558380D01*
X159273690Y-85510761D02*
X159035595Y-86225047D01*
X159654642Y-86225047D01*
X80973773Y-108898539D02*
X81123409Y-108915415D01*
X81356301Y-108865913D01*
X81439557Y-108799533D01*
X81476235Y-108743054D01*
X81503013Y-108639996D01*
X81483212Y-108546840D01*
X81416832Y-108463583D01*
X81360353Y-108426905D01*
X81257296Y-108400128D01*
X81061081Y-108393152D01*
X80958024Y-108366374D01*
X80901545Y-108329696D01*
X80835165Y-108246440D01*
X80815364Y-108153283D01*
X80842141Y-108050226D01*
X80878819Y-107993747D01*
X80962076Y-107927367D01*
X81194968Y-107877864D01*
X81344604Y-107894741D01*
X81660752Y-107778859D02*
X82101556Y-108707504D01*
X82139362Y-107969225D01*
X82474184Y-108628299D01*
X82499165Y-107600649D01*
X82845015Y-107624502D02*
X82881693Y-107568023D01*
X82964949Y-107501643D01*
X83197841Y-107452140D01*
X83300899Y-107478918D01*
X83357378Y-107515596D01*
X83423758Y-107598852D01*
X83443559Y-107692009D01*
X83426682Y-107841645D01*
X82986547Y-108519393D01*
X83592067Y-108390686D01*
X84032202Y-107712938D02*
X83929144Y-107686160D01*
X83872665Y-107649482D01*
X83806286Y-107566226D01*
X83796385Y-107519648D01*
X83823163Y-107416590D01*
X83859840Y-107360111D01*
X83943097Y-107293732D01*
X84129411Y-107254129D01*
X84232468Y-107280907D01*
X84288947Y-107317585D01*
X84355327Y-107400841D01*
X84365227Y-107447419D01*
X84338450Y-107550477D01*
X84301772Y-107606956D01*
X84218516Y-107673335D01*
X84032202Y-107712938D01*
X83948945Y-107779317D01*
X83912268Y-107835796D01*
X83885490Y-107938854D01*
X83925092Y-108125168D01*
X83991472Y-108208424D01*
X84047951Y-108245102D01*
X84151009Y-108271879D01*
X84337322Y-108232277D01*
X84420579Y-108165897D01*
X84457257Y-108109418D01*
X84484034Y-108006361D01*
X84444432Y-107820047D01*
X84378052Y-107736791D01*
X84321573Y-107700113D01*
X84218516Y-107673335D01*
X105187976Y-105560761D02*
X105330833Y-105608380D01*
X105568928Y-105608380D01*
X105664166Y-105560761D01*
X105711785Y-105513142D01*
X105759404Y-105417904D01*
X105759404Y-105322666D01*
X105711785Y-105227428D01*
X105664166Y-105179809D01*
X105568928Y-105132190D01*
X105378452Y-105084571D01*
X105283214Y-105036952D01*
X105235595Y-104989333D01*
X105187976Y-104894095D01*
X105187976Y-104798857D01*
X105235595Y-104703619D01*
X105283214Y-104656000D01*
X105378452Y-104608380D01*
X105616547Y-104608380D01*
X105759404Y-104656000D01*
X106092738Y-104608380D02*
X106330833Y-105608380D01*
X106521309Y-104894095D01*
X106711785Y-105608380D01*
X106949880Y-104608380D01*
X107283214Y-104703619D02*
X107330833Y-104656000D01*
X107426071Y-104608380D01*
X107664166Y-104608380D01*
X107759404Y-104656000D01*
X107807023Y-104703619D01*
X107854642Y-104798857D01*
X107854642Y-104894095D01*
X107807023Y-105036952D01*
X107235595Y-105608380D01*
X107854642Y-105608380D01*
X108330833Y-105608380D02*
X108521309Y-105608380D01*
X108616547Y-105560761D01*
X108664166Y-105513142D01*
X108759404Y-105370285D01*
X108807023Y-105179809D01*
X108807023Y-104798857D01*
X108759404Y-104703619D01*
X108711785Y-104656000D01*
X108616547Y-104608380D01*
X108426071Y-104608380D01*
X108330833Y-104656000D01*
X108283214Y-104703619D01*
X108235595Y-104798857D01*
X108235595Y-105036952D01*
X108283214Y-105132190D01*
X108330833Y-105179809D01*
X108426071Y-105227428D01*
X108616547Y-105227428D01*
X108711785Y-105179809D01*
X108759404Y-105132190D01*
X108807023Y-105036952D01*
X126619226Y-104767011D02*
X126762083Y-104814630D01*
X127000178Y-104814630D01*
X127095416Y-104767011D01*
X127143035Y-104719392D01*
X127190654Y-104624154D01*
X127190654Y-104528916D01*
X127143035Y-104433678D01*
X127095416Y-104386059D01*
X127000178Y-104338440D01*
X126809702Y-104290821D01*
X126714464Y-104243202D01*
X126666845Y-104195583D01*
X126619226Y-104100345D01*
X126619226Y-104005107D01*
X126666845Y-103909869D01*
X126714464Y-103862250D01*
X126809702Y-103814630D01*
X127047797Y-103814630D01*
X127190654Y-103862250D01*
X127523988Y-103814630D02*
X127762083Y-104814630D01*
X127952559Y-104100345D01*
X128143035Y-104814630D01*
X128381130Y-103814630D01*
X128666845Y-103814630D02*
X129285892Y-103814630D01*
X128952559Y-104195583D01*
X129095416Y-104195583D01*
X129190654Y-104243202D01*
X129238273Y-104290821D01*
X129285892Y-104386059D01*
X129285892Y-104624154D01*
X129238273Y-104719392D01*
X129190654Y-104767011D01*
X129095416Y-104814630D01*
X128809702Y-104814630D01*
X128714464Y-104767011D01*
X128666845Y-104719392D01*
X129904940Y-103814630D02*
X130000178Y-103814630D01*
X130095416Y-103862250D01*
X130143035Y-103909869D01*
X130190654Y-104005107D01*
X130238273Y-104195583D01*
X130238273Y-104433678D01*
X130190654Y-104624154D01*
X130143035Y-104719392D01*
X130095416Y-104767011D01*
X130000178Y-104814630D01*
X129904940Y-104814630D01*
X129809702Y-104767011D01*
X129762083Y-104719392D01*
X129714464Y-104624154D01*
X129666845Y-104433678D01*
X129666845Y-104195583D01*
X129714464Y-104005107D01*
X129762083Y-103909869D01*
X129809702Y-103862250D01*
X129904940Y-103814630D01*
X147256726Y-107148261D02*
X147399583Y-107195880D01*
X147637678Y-107195880D01*
X147732916Y-107148261D01*
X147780535Y-107100642D01*
X147828154Y-107005404D01*
X147828154Y-106910166D01*
X147780535Y-106814928D01*
X147732916Y-106767309D01*
X147637678Y-106719690D01*
X147447202Y-106672071D01*
X147351964Y-106624452D01*
X147304345Y-106576833D01*
X147256726Y-106481595D01*
X147256726Y-106386357D01*
X147304345Y-106291119D01*
X147351964Y-106243500D01*
X147447202Y-106195880D01*
X147685297Y-106195880D01*
X147828154Y-106243500D01*
X148161488Y-106195880D02*
X148399583Y-107195880D01*
X148590059Y-106481595D01*
X148780535Y-107195880D01*
X149018630Y-106195880D01*
X149304345Y-106195880D02*
X149923392Y-106195880D01*
X149590059Y-106576833D01*
X149732916Y-106576833D01*
X149828154Y-106624452D01*
X149875773Y-106672071D01*
X149923392Y-106767309D01*
X149923392Y-107005404D01*
X149875773Y-107100642D01*
X149828154Y-107148261D01*
X149732916Y-107195880D01*
X149447202Y-107195880D01*
X149351964Y-107148261D01*
X149304345Y-107100642D01*
X150875773Y-107195880D02*
X150304345Y-107195880D01*
X150590059Y-107195880D02*
X150590059Y-106195880D01*
X150494821Y-106338738D01*
X150399583Y-106433976D01*
X150304345Y-106481595D01*
X117887976Y-81748261D02*
X118030833Y-81795880D01*
X118268928Y-81795880D01*
X118364166Y-81748261D01*
X118411785Y-81700642D01*
X118459404Y-81605404D01*
X118459404Y-81510166D01*
X118411785Y-81414928D01*
X118364166Y-81367309D01*
X118268928Y-81319690D01*
X118078452Y-81272071D01*
X117983214Y-81224452D01*
X117935595Y-81176833D01*
X117887976Y-81081595D01*
X117887976Y-80986357D01*
X117935595Y-80891119D01*
X117983214Y-80843500D01*
X118078452Y-80795880D01*
X118316547Y-80795880D01*
X118459404Y-80843500D01*
X118792738Y-80795880D02*
X119030833Y-81795880D01*
X119221309Y-81081595D01*
X119411785Y-81795880D01*
X119649880Y-80795880D01*
X119983214Y-80891119D02*
X120030833Y-80843500D01*
X120126071Y-80795880D01*
X120364166Y-80795880D01*
X120459404Y-80843500D01*
X120507023Y-80891119D01*
X120554642Y-80986357D01*
X120554642Y-81081595D01*
X120507023Y-81224452D01*
X119935595Y-81795880D01*
X120554642Y-81795880D01*
X120935595Y-80891119D02*
X120983214Y-80843500D01*
X121078452Y-80795880D01*
X121316547Y-80795880D01*
X121411785Y-80843500D01*
X121459404Y-80891119D01*
X121507023Y-80986357D01*
X121507023Y-81081595D01*
X121459404Y-81224452D01*
X120887976Y-81795880D01*
X121507023Y-81795880D01*
X80264166Y-29360761D02*
X80407023Y-29408380D01*
X80645119Y-29408380D01*
X80740357Y-29360761D01*
X80787976Y-29313142D01*
X80835595Y-29217904D01*
X80835595Y-29122666D01*
X80787976Y-29027428D01*
X80740357Y-28979809D01*
X80645119Y-28932190D01*
X80454642Y-28884571D01*
X80359404Y-28836952D01*
X80311785Y-28789333D01*
X80264166Y-28694095D01*
X80264166Y-28598857D01*
X80311785Y-28503619D01*
X80359404Y-28456000D01*
X80454642Y-28408380D01*
X80692738Y-28408380D01*
X80835595Y-28456000D01*
X81168928Y-28408380D02*
X81407023Y-29408380D01*
X81597500Y-28694095D01*
X81787976Y-29408380D01*
X82026071Y-28408380D01*
X82359404Y-28503619D02*
X82407023Y-28456000D01*
X82502261Y-28408380D01*
X82740357Y-28408380D01*
X82835595Y-28456000D01*
X82883214Y-28503619D01*
X82930833Y-28598857D01*
X82930833Y-28694095D01*
X82883214Y-28836952D01*
X82311785Y-29408380D01*
X82930833Y-29408380D01*
X156464166Y-29360761D02*
X156607023Y-29408380D01*
X156845119Y-29408380D01*
X156940357Y-29360761D01*
X156987976Y-29313142D01*
X157035595Y-29217904D01*
X157035595Y-29122666D01*
X156987976Y-29027428D01*
X156940357Y-28979809D01*
X156845119Y-28932190D01*
X156654642Y-28884571D01*
X156559404Y-28836952D01*
X156511785Y-28789333D01*
X156464166Y-28694095D01*
X156464166Y-28598857D01*
X156511785Y-28503619D01*
X156559404Y-28456000D01*
X156654642Y-28408380D01*
X156892738Y-28408380D01*
X157035595Y-28456000D01*
X157368928Y-28408380D02*
X157607023Y-29408380D01*
X157797500Y-28694095D01*
X157987976Y-29408380D01*
X158226071Y-28408380D01*
X159035595Y-28408380D02*
X158845119Y-28408380D01*
X158749880Y-28456000D01*
X158702261Y-28503619D01*
X158607023Y-28646476D01*
X158559404Y-28836952D01*
X158559404Y-29217904D01*
X158607023Y-29313142D01*
X158654642Y-29360761D01*
X158749880Y-29408380D01*
X158940357Y-29408380D01*
X159035595Y-29360761D01*
X159083214Y-29313142D01*
X159130833Y-29217904D01*
X159130833Y-28979809D01*
X159083214Y-28884571D01*
X159035595Y-28836952D01*
X158940357Y-28789333D01*
X158749880Y-28789333D01*
X158654642Y-28836952D01*
X158607023Y-28884571D01*
X158559404Y-28979809D01*
X80264166Y-48410761D02*
X80407023Y-48458380D01*
X80645119Y-48458380D01*
X80740357Y-48410761D01*
X80787976Y-48363142D01*
X80835595Y-48267904D01*
X80835595Y-48172666D01*
X80787976Y-48077428D01*
X80740357Y-48029809D01*
X80645119Y-47982190D01*
X80454642Y-47934571D01*
X80359404Y-47886952D01*
X80311785Y-47839333D01*
X80264166Y-47744095D01*
X80264166Y-47648857D01*
X80311785Y-47553619D01*
X80359404Y-47506000D01*
X80454642Y-47458380D01*
X80692738Y-47458380D01*
X80835595Y-47506000D01*
X81168928Y-47458380D02*
X81407023Y-48458380D01*
X81597500Y-47744095D01*
X81787976Y-48458380D01*
X82026071Y-47458380D01*
X82549880Y-47886952D02*
X82454642Y-47839333D01*
X82407023Y-47791714D01*
X82359404Y-47696476D01*
X82359404Y-47648857D01*
X82407023Y-47553619D01*
X82454642Y-47506000D01*
X82549880Y-47458380D01*
X82740357Y-47458380D01*
X82835595Y-47506000D01*
X82883214Y-47553619D01*
X82930833Y-47648857D01*
X82930833Y-47696476D01*
X82883214Y-47791714D01*
X82835595Y-47839333D01*
X82740357Y-47886952D01*
X82549880Y-47886952D01*
X82454642Y-47934571D01*
X82407023Y-47982190D01*
X82359404Y-48077428D01*
X82359404Y-48267904D01*
X82407023Y-48363142D01*
X82454642Y-48410761D01*
X82549880Y-48458380D01*
X82740357Y-48458380D01*
X82835595Y-48410761D01*
X82883214Y-48363142D01*
X82930833Y-48267904D01*
X82930833Y-48077428D01*
X82883214Y-47982190D01*
X82835595Y-47934571D01*
X82740357Y-47886952D01*
X98837976Y-83335761D02*
X98980833Y-83383380D01*
X99218928Y-83383380D01*
X99314166Y-83335761D01*
X99361785Y-83288142D01*
X99409404Y-83192904D01*
X99409404Y-83097666D01*
X99361785Y-83002428D01*
X99314166Y-82954809D01*
X99218928Y-82907190D01*
X99028452Y-82859571D01*
X98933214Y-82811952D01*
X98885595Y-82764333D01*
X98837976Y-82669095D01*
X98837976Y-82573857D01*
X98885595Y-82478619D01*
X98933214Y-82431000D01*
X99028452Y-82383380D01*
X99266547Y-82383380D01*
X99409404Y-82431000D01*
X99742738Y-82383380D02*
X99980833Y-83383380D01*
X100171309Y-82669095D01*
X100361785Y-83383380D01*
X100599880Y-82383380D01*
X100933214Y-82478619D02*
X100980833Y-82431000D01*
X101076071Y-82383380D01*
X101314166Y-82383380D01*
X101409404Y-82431000D01*
X101457023Y-82478619D01*
X101504642Y-82573857D01*
X101504642Y-82669095D01*
X101457023Y-82811952D01*
X100885595Y-83383380D01*
X101504642Y-83383380D01*
X102457023Y-83383380D02*
X101885595Y-83383380D01*
X102171309Y-83383380D02*
X102171309Y-82383380D01*
X102076071Y-82526238D01*
X101980833Y-82621476D01*
X101885595Y-82669095D01*
X79787976Y-86510761D02*
X79930833Y-86558380D01*
X80168928Y-86558380D01*
X80264166Y-86510761D01*
X80311785Y-86463142D01*
X80359404Y-86367904D01*
X80359404Y-86272666D01*
X80311785Y-86177428D01*
X80264166Y-86129809D01*
X80168928Y-86082190D01*
X79978452Y-86034571D01*
X79883214Y-85986952D01*
X79835595Y-85939333D01*
X79787976Y-85844095D01*
X79787976Y-85748857D01*
X79835595Y-85653619D01*
X79883214Y-85606000D01*
X79978452Y-85558380D01*
X80216547Y-85558380D01*
X80359404Y-85606000D01*
X80692738Y-85558380D02*
X80930833Y-86558380D01*
X81121309Y-85844095D01*
X81311785Y-86558380D01*
X81549880Y-85558380D01*
X81883214Y-85653619D02*
X81930833Y-85606000D01*
X82026071Y-85558380D01*
X82264166Y-85558380D01*
X82359404Y-85606000D01*
X82407023Y-85653619D01*
X82454642Y-85748857D01*
X82454642Y-85844095D01*
X82407023Y-85986952D01*
X81835595Y-86558380D01*
X82454642Y-86558380D01*
X83073690Y-85558380D02*
X83168928Y-85558380D01*
X83264166Y-85606000D01*
X83311785Y-85653619D01*
X83359404Y-85748857D01*
X83407023Y-85939333D01*
X83407023Y-86177428D01*
X83359404Y-86367904D01*
X83311785Y-86463142D01*
X83264166Y-86510761D01*
X83168928Y-86558380D01*
X83073690Y-86558380D01*
X82978452Y-86510761D01*
X82930833Y-86463142D01*
X82883214Y-86367904D01*
X82835595Y-86177428D01*
X82835595Y-85939333D01*
X82883214Y-85748857D01*
X82930833Y-85653619D01*
X82978452Y-85606000D01*
X83073690Y-85558380D01*
X60191666Y-32748380D02*
X60191666Y-33462666D01*
X60144047Y-33605523D01*
X60048809Y-33700761D01*
X59905952Y-33748380D01*
X59810714Y-33748380D01*
X61191666Y-33748380D02*
X60620238Y-33748380D01*
X60905952Y-33748380D02*
X60905952Y-32748380D01*
X60810714Y-32891238D01*
X60715476Y-32986476D01*
X60620238Y-33034095D01*
X51252380Y-81374404D02*
X51252380Y-80802976D01*
X52252380Y-81088690D02*
X51252380Y-81088690D01*
X52252380Y-79898214D02*
X51776190Y-80231547D01*
X52252380Y-80469642D02*
X51252380Y-80469642D01*
X51252380Y-80088690D01*
X51300000Y-79993452D01*
X51347619Y-79945833D01*
X51442857Y-79898214D01*
X51585714Y-79898214D01*
X51680952Y-79945833D01*
X51728571Y-79993452D01*
X51776190Y-80088690D01*
X51776190Y-80469642D01*
X52252380Y-78898214D02*
X51776190Y-79231547D01*
X52252380Y-79469642D02*
X51252380Y-79469642D01*
X51252380Y-79088690D01*
X51300000Y-78993452D01*
X51347619Y-78945833D01*
X51442857Y-78898214D01*
X51585714Y-78898214D01*
X51680952Y-78945833D01*
X51728571Y-78993452D01*
X51776190Y-79088690D01*
X51776190Y-79469642D01*
X52204761Y-78517261D02*
X52252380Y-78374404D01*
X52252380Y-78136309D01*
X52204761Y-78041071D01*
X52157142Y-77993452D01*
X52061904Y-77945833D01*
X51966666Y-77945833D01*
X51871428Y-77993452D01*
X51823809Y-78041071D01*
X51776190Y-78136309D01*
X51728571Y-78326785D01*
X51680952Y-78422023D01*
X51633333Y-78469642D01*
X51538095Y-78517261D01*
X51442857Y-78517261D01*
X51347619Y-78469642D01*
X51300000Y-78422023D01*
X51252380Y-78326785D01*
X51252380Y-78088690D01*
X51300000Y-77945833D01*
X55697619Y-68546130D02*
X55888095Y-68546130D01*
X55983333Y-68593750D01*
X56078571Y-68688988D01*
X56126190Y-68879464D01*
X56126190Y-69212797D01*
X56078571Y-69403273D01*
X55983333Y-69498511D01*
X55888095Y-69546130D01*
X55697619Y-69546130D01*
X55602380Y-69498511D01*
X55507142Y-69403273D01*
X55459523Y-69212797D01*
X55459523Y-68879464D01*
X55507142Y-68688988D01*
X55602380Y-68593750D01*
X55697619Y-68546130D01*
X57030952Y-69546130D02*
X56554761Y-69546130D01*
X56554761Y-68546130D01*
X57364285Y-69022321D02*
X57697619Y-69022321D01*
X57840476Y-69546130D02*
X57364285Y-69546130D01*
X57364285Y-68546130D01*
X57840476Y-68546130D01*
X58269047Y-69546130D02*
X58269047Y-68546130D01*
X58507142Y-68546130D01*
X58650000Y-68593750D01*
X58745238Y-68688988D01*
X58792857Y-68784226D01*
X58840476Y-68974702D01*
X58840476Y-69117559D01*
X58792857Y-69308035D01*
X58745238Y-69403273D01*
X58650000Y-69498511D01*
X58507142Y-69546130D01*
X58269047Y-69546130D01*
X48077380Y-62571130D02*
X47601190Y-62904464D01*
X48077380Y-63142559D02*
X47077380Y-63142559D01*
X47077380Y-62761607D01*
X47125000Y-62666369D01*
X47172619Y-62618750D01*
X47267857Y-62571130D01*
X47410714Y-62571130D01*
X47505952Y-62618750D01*
X47553571Y-62666369D01*
X47601190Y-62761607D01*
X47601190Y-63142559D01*
X47553571Y-62142559D02*
X47553571Y-61809226D01*
X48077380Y-61666369D02*
X48077380Y-62142559D01*
X47077380Y-62142559D01*
X47077380Y-61666369D01*
X48029761Y-61285416D02*
X48077380Y-61142559D01*
X48077380Y-60904464D01*
X48029761Y-60809226D01*
X47982142Y-60761607D01*
X47886904Y-60713988D01*
X47791666Y-60713988D01*
X47696428Y-60761607D01*
X47648809Y-60809226D01*
X47601190Y-60904464D01*
X47553571Y-61094940D01*
X47505952Y-61190178D01*
X47458333Y-61237797D01*
X47363095Y-61285416D01*
X47267857Y-61285416D01*
X47172619Y-61237797D01*
X47125000Y-61190178D01*
X47077380Y-61094940D01*
X47077380Y-60856845D01*
X47125000Y-60713988D01*
X47553571Y-60285416D02*
X47553571Y-59952083D01*
X48077380Y-59809226D02*
X48077380Y-60285416D01*
X47077380Y-60285416D01*
X47077380Y-59809226D01*
X47077380Y-59523511D02*
X47077380Y-58952083D01*
X48077380Y-59237797D02*
X47077380Y-59237797D01*
X57723095Y-48953380D02*
X57723095Y-49762904D01*
X57770714Y-49858142D01*
X57818333Y-49905761D01*
X57913571Y-49953380D01*
X58104047Y-49953380D01*
X58199285Y-49905761D01*
X58246904Y-49858142D01*
X58294523Y-49762904D01*
X58294523Y-48953380D01*
X58675476Y-48953380D02*
X59294523Y-48953380D01*
X58961190Y-49334333D01*
X59104047Y-49334333D01*
X59199285Y-49381952D01*
X59246904Y-49429571D01*
X59294523Y-49524809D01*
X59294523Y-49762904D01*
X59246904Y-49858142D01*
X59199285Y-49905761D01*
X59104047Y-49953380D01*
X58818333Y-49953380D01*
X58723095Y-49905761D01*
X58675476Y-49858142D01*
X56157332Y-113611870D02*
X56304859Y-113581681D01*
X56511056Y-113462634D01*
X56569725Y-113373775D01*
X56587155Y-113308726D01*
X56580775Y-113202438D01*
X56533156Y-113119960D01*
X56444298Y-113061291D01*
X56379249Y-113043861D01*
X56272961Y-113050241D01*
X56084194Y-113104239D01*
X55977906Y-113110619D01*
X55912857Y-113093189D01*
X55823999Y-113034520D01*
X55776379Y-112952042D01*
X55770000Y-112845753D01*
X55787430Y-112780705D01*
X55846099Y-112691846D01*
X56052295Y-112572799D01*
X56199823Y-112542609D01*
X56464688Y-112334703D02*
X57170885Y-113081681D01*
X56978699Y-112367854D01*
X57500799Y-112891205D01*
X57206996Y-111906132D01*
X57543290Y-111821944D02*
X57560720Y-111756895D01*
X57619389Y-111668037D01*
X57825585Y-111548989D01*
X57931873Y-111542609D01*
X57996922Y-111560039D01*
X58085781Y-111618708D01*
X58133400Y-111701187D01*
X58163589Y-111848714D01*
X57954432Y-112629300D01*
X58490542Y-112319776D01*
X58279218Y-111287084D02*
X58856568Y-110953751D01*
X58985414Y-112034062D01*
X56134226Y-86193261D02*
X56277083Y-86240880D01*
X56515178Y-86240880D01*
X56610416Y-86193261D01*
X56658035Y-86145642D01*
X56705654Y-86050404D01*
X56705654Y-85955166D01*
X56658035Y-85859928D01*
X56610416Y-85812309D01*
X56515178Y-85764690D01*
X56324702Y-85717071D01*
X56229464Y-85669452D01*
X56181845Y-85621833D01*
X56134226Y-85526595D01*
X56134226Y-85431357D01*
X56181845Y-85336119D01*
X56229464Y-85288500D01*
X56324702Y-85240880D01*
X56562797Y-85240880D01*
X56705654Y-85288500D01*
X57038988Y-85240880D02*
X57277083Y-86240880D01*
X57467559Y-85526595D01*
X57658035Y-86240880D01*
X57896130Y-85240880D01*
X58229464Y-85336119D02*
X58277083Y-85288500D01*
X58372321Y-85240880D01*
X58610416Y-85240880D01*
X58705654Y-85288500D01*
X58753273Y-85336119D01*
X58800892Y-85431357D01*
X58800892Y-85526595D01*
X58753273Y-85669452D01*
X58181845Y-86240880D01*
X58800892Y-86240880D01*
X59658035Y-85240880D02*
X59467559Y-85240880D01*
X59372321Y-85288500D01*
X59324702Y-85336119D01*
X59229464Y-85478976D01*
X59181845Y-85669452D01*
X59181845Y-86050404D01*
X59229464Y-86145642D01*
X59277083Y-86193261D01*
X59372321Y-86240880D01*
X59562797Y-86240880D01*
X59658035Y-86193261D01*
X59705654Y-86145642D01*
X59753273Y-86050404D01*
X59753273Y-85812309D01*
X59705654Y-85717071D01*
X59658035Y-85669452D01*
X59562797Y-85621833D01*
X59372321Y-85621833D01*
X59277083Y-85669452D01*
X59229464Y-85717071D01*
X59181845Y-85812309D01*
X175037976Y-89685761D02*
X175180833Y-89733380D01*
X175418928Y-89733380D01*
X175514166Y-89685761D01*
X175561785Y-89638142D01*
X175609404Y-89542904D01*
X175609404Y-89447666D01*
X175561785Y-89352428D01*
X175514166Y-89304809D01*
X175418928Y-89257190D01*
X175228452Y-89209571D01*
X175133214Y-89161952D01*
X175085595Y-89114333D01*
X175037976Y-89019095D01*
X175037976Y-88923857D01*
X175085595Y-88828619D01*
X175133214Y-88781000D01*
X175228452Y-88733380D01*
X175466547Y-88733380D01*
X175609404Y-88781000D01*
X175942738Y-88733380D02*
X176180833Y-89733380D01*
X176371309Y-89019095D01*
X176561785Y-89733380D01*
X176799880Y-88733380D01*
X177133214Y-88828619D02*
X177180833Y-88781000D01*
X177276071Y-88733380D01*
X177514166Y-88733380D01*
X177609404Y-88781000D01*
X177657023Y-88828619D01*
X177704642Y-88923857D01*
X177704642Y-89019095D01*
X177657023Y-89161952D01*
X177085595Y-89733380D01*
X177704642Y-89733380D01*
X178609404Y-88733380D02*
X178133214Y-88733380D01*
X178085595Y-89209571D01*
X178133214Y-89161952D01*
X178228452Y-89114333D01*
X178466547Y-89114333D01*
X178561785Y-89161952D01*
X178609404Y-89209571D01*
X178657023Y-89304809D01*
X178657023Y-89542904D01*
X178609404Y-89638142D01*
X178561785Y-89685761D01*
X178466547Y-89733380D01*
X178228452Y-89733380D01*
X178133214Y-89685761D01*
X178085595Y-89638142D01*
X175037976Y-70635761D02*
X175180833Y-70683380D01*
X175418928Y-70683380D01*
X175514166Y-70635761D01*
X175561785Y-70588142D01*
X175609404Y-70492904D01*
X175609404Y-70397666D01*
X175561785Y-70302428D01*
X175514166Y-70254809D01*
X175418928Y-70207190D01*
X175228452Y-70159571D01*
X175133214Y-70111952D01*
X175085595Y-70064333D01*
X175037976Y-69969095D01*
X175037976Y-69873857D01*
X175085595Y-69778619D01*
X175133214Y-69731000D01*
X175228452Y-69683380D01*
X175466547Y-69683380D01*
X175609404Y-69731000D01*
X175942738Y-69683380D02*
X176180833Y-70683380D01*
X176371309Y-69969095D01*
X176561785Y-70683380D01*
X176799880Y-69683380D01*
X177704642Y-70683380D02*
X177133214Y-70683380D01*
X177418928Y-70683380D02*
X177418928Y-69683380D01*
X177323690Y-69826238D01*
X177228452Y-69921476D01*
X177133214Y-69969095D01*
X178180833Y-70683380D02*
X178371309Y-70683380D01*
X178466547Y-70635761D01*
X178514166Y-70588142D01*
X178609404Y-70445285D01*
X178657023Y-70254809D01*
X178657023Y-69873857D01*
X178609404Y-69778619D01*
X178561785Y-69731000D01*
X178466547Y-69683380D01*
X178276071Y-69683380D01*
X178180833Y-69731000D01*
X178133214Y-69778619D01*
X178085595Y-69873857D01*
X178085595Y-70111952D01*
X178133214Y-70207190D01*
X178180833Y-70254809D01*
X178276071Y-70302428D01*
X178466547Y-70302428D01*
X178561785Y-70254809D01*
X178609404Y-70207190D01*
X178657023Y-70111952D01*
X175037976Y-51585761D02*
X175180833Y-51633380D01*
X175418928Y-51633380D01*
X175514166Y-51585761D01*
X175561785Y-51538142D01*
X175609404Y-51442904D01*
X175609404Y-51347666D01*
X175561785Y-51252428D01*
X175514166Y-51204809D01*
X175418928Y-51157190D01*
X175228452Y-51109571D01*
X175133214Y-51061952D01*
X175085595Y-51014333D01*
X175037976Y-50919095D01*
X175037976Y-50823857D01*
X175085595Y-50728619D01*
X175133214Y-50681000D01*
X175228452Y-50633380D01*
X175466547Y-50633380D01*
X175609404Y-50681000D01*
X175942738Y-50633380D02*
X176180833Y-51633380D01*
X176371309Y-50919095D01*
X176561785Y-51633380D01*
X176799880Y-50633380D01*
X177704642Y-51633380D02*
X177133214Y-51633380D01*
X177418928Y-51633380D02*
X177418928Y-50633380D01*
X177323690Y-50776238D01*
X177228452Y-50871476D01*
X177133214Y-50919095D01*
X178037976Y-50633380D02*
X178657023Y-50633380D01*
X178323690Y-51014333D01*
X178466547Y-51014333D01*
X178561785Y-51061952D01*
X178609404Y-51109571D01*
X178657023Y-51204809D01*
X178657023Y-51442904D01*
X178609404Y-51538142D01*
X178561785Y-51585761D01*
X178466547Y-51633380D01*
X178180833Y-51633380D01*
X178085595Y-51585761D01*
X178037976Y-51538142D01*
X175514166Y-32535761D02*
X175657023Y-32583380D01*
X175895119Y-32583380D01*
X175990357Y-32535761D01*
X176037976Y-32488142D01*
X176085595Y-32392904D01*
X176085595Y-32297666D01*
X176037976Y-32202428D01*
X175990357Y-32154809D01*
X175895119Y-32107190D01*
X175704642Y-32059571D01*
X175609404Y-32011952D01*
X175561785Y-31964333D01*
X175514166Y-31869095D01*
X175514166Y-31773857D01*
X175561785Y-31678619D01*
X175609404Y-31631000D01*
X175704642Y-31583380D01*
X175942738Y-31583380D01*
X176085595Y-31631000D01*
X176418928Y-31583380D02*
X176657023Y-32583380D01*
X176847500Y-31869095D01*
X177037976Y-32583380D01*
X177276071Y-31583380D01*
X177561785Y-31583380D02*
X178228452Y-31583380D01*
X177799880Y-32583380D01*
X137414166Y-26185761D02*
X137557023Y-26233380D01*
X137795119Y-26233380D01*
X137890357Y-26185761D01*
X137937976Y-26138142D01*
X137985595Y-26042904D01*
X137985595Y-25947666D01*
X137937976Y-25852428D01*
X137890357Y-25804809D01*
X137795119Y-25757190D01*
X137604642Y-25709571D01*
X137509404Y-25661952D01*
X137461785Y-25614333D01*
X137414166Y-25519095D01*
X137414166Y-25423857D01*
X137461785Y-25328619D01*
X137509404Y-25281000D01*
X137604642Y-25233380D01*
X137842738Y-25233380D01*
X137985595Y-25281000D01*
X138318928Y-25233380D02*
X138557023Y-26233380D01*
X138747500Y-25519095D01*
X138937976Y-26233380D01*
X139176071Y-25233380D01*
X140033214Y-25233380D02*
X139557023Y-25233380D01*
X139509404Y-25709571D01*
X139557023Y-25661952D01*
X139652261Y-25614333D01*
X139890357Y-25614333D01*
X139985595Y-25661952D01*
X140033214Y-25709571D01*
X140080833Y-25804809D01*
X140080833Y-26042904D01*
X140033214Y-26138142D01*
X139985595Y-26185761D01*
X139890357Y-26233380D01*
X139652261Y-26233380D01*
X139557023Y-26185761D01*
X139509404Y-26138142D01*
X118364166Y-24598261D02*
X118507023Y-24645880D01*
X118745119Y-24645880D01*
X118840357Y-24598261D01*
X118887976Y-24550642D01*
X118935595Y-24455404D01*
X118935595Y-24360166D01*
X118887976Y-24264928D01*
X118840357Y-24217309D01*
X118745119Y-24169690D01*
X118554642Y-24122071D01*
X118459404Y-24074452D01*
X118411785Y-24026833D01*
X118364166Y-23931595D01*
X118364166Y-23836357D01*
X118411785Y-23741119D01*
X118459404Y-23693500D01*
X118554642Y-23645880D01*
X118792738Y-23645880D01*
X118935595Y-23693500D01*
X119268928Y-23645880D02*
X119507023Y-24645880D01*
X119697500Y-23931595D01*
X119887976Y-24645880D01*
X120126071Y-23645880D01*
X120935595Y-23979214D02*
X120935595Y-24645880D01*
X120697500Y-23598261D02*
X120459404Y-24312547D01*
X121078452Y-24312547D01*
X99314166Y-26185761D02*
X99457023Y-26233380D01*
X99695119Y-26233380D01*
X99790357Y-26185761D01*
X99837976Y-26138142D01*
X99885595Y-26042904D01*
X99885595Y-25947666D01*
X99837976Y-25852428D01*
X99790357Y-25804809D01*
X99695119Y-25757190D01*
X99504642Y-25709571D01*
X99409404Y-25661952D01*
X99361785Y-25614333D01*
X99314166Y-25519095D01*
X99314166Y-25423857D01*
X99361785Y-25328619D01*
X99409404Y-25281000D01*
X99504642Y-25233380D01*
X99742738Y-25233380D01*
X99885595Y-25281000D01*
X100218928Y-25233380D02*
X100457023Y-26233380D01*
X100647500Y-25519095D01*
X100837976Y-26233380D01*
X101076071Y-25233380D01*
X101361785Y-25233380D02*
X101980833Y-25233380D01*
X101647500Y-25614333D01*
X101790357Y-25614333D01*
X101885595Y-25661952D01*
X101933214Y-25709571D01*
X101980833Y-25804809D01*
X101980833Y-26042904D01*
X101933214Y-26138142D01*
X101885595Y-26185761D01*
X101790357Y-26233380D01*
X101504642Y-26233380D01*
X101409404Y-26185761D01*
X101361785Y-26138142D01*
M02*
